<svg width="200" height="200" viewBox="0 0 200 200" fill="none" xmlns="http://www.w3.org/2000/svg">
<rect width="200" height="200" rx="100" fill="black" fill-opacity="0.2"/>
<path d="M117.5 95C116.837 95 116.201 95.2634 115.732 95.7322C115.263 96.2011 115 96.837 115 97.5V105.95L111.3 102.25C109.994 100.954 108.228 100.227 106.388 100.227C104.547 100.227 102.781 100.954 101.475 102.25L99.725 104.025L93.525 97.8C92.2186 96.5039 90.4528 95.7766 88.6125 95.7766C86.7722 95.7766 85.0064 96.5039 83.7 97.8L80 101.525V87.5C80 86.837 80.2634 86.2011 80.7322 85.7322C81.2011 85.2634 81.837 85 82.5 85H102.5C103.163 85 103.799 84.7366 104.268 84.2678C104.737 83.7989 105 83.163 105 82.5C105 81.837 104.737 81.2011 104.268 80.7322C103.799 80.2634 103.163 80 102.5 80H82.5C80.5109 80 78.6032 80.7902 77.1967 82.1967C75.7902 83.6032 75 85.5109 75 87.5V118.05C75.0066 119.891 75.7409 121.655 77.0429 122.957C78.3448 124.259 80.1088 124.993 81.95 125H113.05C113.727 124.995 114.401 124.894 115.05 124.7C116.494 124.295 117.764 123.428 118.668 122.231C119.571 121.034 120.056 119.574 120.05 118.075V97.5C120.05 97.1674 119.984 96.8382 119.855 96.5316C119.726 96.225 119.538 95.9471 119.3 95.7143C119.063 95.4815 118.781 95.2984 118.472 95.1758C118.163 95.0531 117.832 94.9933 117.5 95ZM82.5 120C81.837 120 81.2011 119.737 80.7322 119.268C80.2634 118.799 80 118.163 80 117.5V108.575L87.225 101.35C87.5904 100.987 88.0847 100.783 88.6 100.783C89.1153 100.783 89.6096 100.987 89.975 101.35L108.65 120H82.5ZM115 117.5C114.984 117.984 114.828 118.453 114.55 118.85L103.25 107.5L105.025 105.75C105.204 105.567 105.418 105.422 105.654 105.323C105.89 105.223 106.144 105.172 106.4 105.172C106.656 105.172 106.91 105.223 107.146 105.323C107.382 105.422 107.596 105.567 107.775 105.75L115 113.025V117.5ZM122.5 80H120V77.5C120 76.837 119.737 76.2011 119.268 75.7322C118.799 75.2634 118.163 75 117.5 75C116.837 75 116.201 75.2634 115.732 75.7322C115.263 76.2011 115 76.837 115 77.5V80H112.5C111.837 80 111.201 80.2634 110.732 80.7322C110.263 81.2011 110 81.837 110 82.5C110 83.163 110.263 83.7989 110.732 84.2678C111.201 84.7366 111.837 85 112.5 85H115V87.5C115 88.163 115.263 88.7989 115.732 89.2678C116.201 89.7366 116.837 90 117.5 90C118.163 90 118.799 89.7366 119.268 89.2678C119.737 88.7989 120 88.163 120 87.5V85H122.5C123.163 85 123.799 84.7366 124.268 84.2678C124.737 83.7989 125 83.163 125 82.5C125 81.837 124.737 81.2011 124.268 80.7322C123.799 80.2634 123.163 80 122.5 80Z" fill="#474747"/>
</svg>
