<svg width="31" height="16" viewBox="0 0 31 16" fill="none" xmlns="http://www.w3.org/2000/svg">
<path d="M28.5606 3.00621C27.2366 1.52582 25.3829 0.707015 23.3364 0.701416C23.3273 0.701416 23.3159 0.701416 23.3079 0.701416C19.2047 0.701416 16.7629 3.29135 14.7499 5.99714C14.185 6.68716 13.3031 7.32657 12.1798 6.69276C11.4866 6.30317 11.24 5.42191 11.6285 4.72974C11.9158 4.22041 12.5649 4.04037 13.0742 4.32594C13.2497 4.42479 13.3751 4.58545 13.4302 4.77949C13.4858 4.97375 13.4603 5.17877 13.3604 5.35407C13.2952 5.47058 13.1905 5.54704 13.072 5.58516C12.9999 5.32285 12.7484 5.14345 12.4729 5.18415C12.1822 5.22852 11.9858 5.49083 12.0125 5.77812C11.9227 5.99348 11.9983 6.24373 12.2067 6.35959C12.9002 6.74703 13.7814 6.50281 14.1697 5.80999C14.3896 5.41825 14.4439 4.96212 14.3242 4.52709C14.2031 4.09335 13.9199 3.73284 13.5269 3.51295C12.5718 2.97369 11.3541 3.31568 10.8138 4.27253C10.175 5.41222 10.582 6.86139 11.7183 7.50252C12.1645 7.75341 12.6241 7.8766 13.0766 7.8766C13.1931 7.8766 13.3042 7.84645 13.4173 7.83008C13.0158 8.39066 12.6172 8.94414 12.202 9.46661C11.2458 10.6705 10.4235 11.6766 9.62627 12.4534C9.52699 12.4625 9.42814 12.4965 9.35039 12.5693C7.69233 14.1216 5.97224 14.3363 4.50219 13.1644C3.36357 12.2581 3.17298 10.5921 4.07922 9.45304C4.77656 8.58147 6.04891 8.4361 6.92005 9.13172C7.23749 9.38391 7.43842 9.74399 7.48386 10.1493C7.53038 10.5548 7.41408 10.95 7.1619 11.2713C6.99219 11.486 6.75249 11.612 6.48846 11.6633C6.51409 11.5815 6.54079 11.4951 6.54079 11.4021C6.54079 10.9115 6.14216 10.5115 5.64877 10.5115C5.15689 10.5115 4.75717 10.9091 4.75717 11.4021C4.75717 11.5315 4.78603 11.653 4.83492 11.7632C4.81726 11.9176 4.86852 12.0766 4.99903 12.1789C5.42889 12.5219 5.96772 12.6753 6.5128 12.6128C7.05852 12.5493 7.54696 12.2801 7.88874 11.8519C8.29922 11.3409 8.48163 10.697 8.40711 10.0438C8.33281 9.39209 8.01085 8.81105 7.49807 8.4038C6.22443 7.38859 4.36586 7.60029 3.34936 8.87156C2.20062 10.3207 2.37033 12.3854 3.6696 13.6472C3.13249 13.3394 2.65547 12.926 2.27945 12.4015C1.56789 11.4055 1.28405 10.1392 1.49919 8.93402C1.84205 7.02571 3.67412 5.75292 5.58244 6.09384C5.83355 6.13928 6.07755 5.97065 6.12299 5.71846C6.16844 5.46455 6.00088 5.22443 5.74697 5.17899C3.32782 4.74266 1.01765 6.35658 0.585202 8.76754C0.325046 10.2208 0.666823 11.7425 1.52611 12.9419C2.36365 14.1117 3.59423 14.875 4.99278 15.0908C8.50273 15.6223 10.5543 13.0397 12.9312 10.0436C12.9426 10.03 12.9555 10.0141 12.967 9.99812C12.9687 9.99575 12.971 9.99575 12.9721 9.9936C13.5825 9.3165 14.5468 8.66525 15.6682 9.40738C16.3281 9.84801 16.512 10.7452 16.0761 11.404C15.7535 11.8879 15.0943 12.0195 14.6061 11.6971C14.4372 11.5836 14.3233 11.4143 14.2839 11.2166C14.244 11.0202 14.2839 10.818 14.3941 10.6567C14.4771 10.5329 14.6061 10.4592 14.7424 10.4375C14.8083 10.6907 15.0411 10.8725 15.3096 10.8497C15.6109 10.826 15.8321 10.5589 15.8071 10.2591C15.8071 10.2557 15.8048 10.2525 15.8026 10.2477C15.8549 10.0593 15.7901 9.85016 15.6187 9.73667C14.9577 9.29841 14.0621 9.47781 13.621 10.1387C13.3723 10.5111 13.2844 10.9588 13.3736 11.3995C13.4621 11.8435 13.7177 12.2239 14.0935 12.4737C14.4318 12.6964 14.8158 12.8053 15.1934 12.8053C15.8379 12.8053 16.4707 12.4942 16.8521 11.9196C17.5722 10.835 17.2722 9.36194 16.1853 8.63574C15.584 8.23819 14.9446 8.09863 14.3097 8.19059C14.375 8.09863 14.4398 8.00883 14.5061 7.91644C14.8367 7.45083 15.1701 6.98457 15.5108 6.52628C15.5272 6.50647 15.5435 6.49398 15.5584 6.47524C15.567 6.46512 15.5705 6.45091 15.5771 6.43949C17.488 3.8866 19.672 1.63285 23.3062 1.63285C23.3142 1.63285 23.3256 1.63285 23.3323 1.63285C25.1086 1.6391 26.7212 2.34699 27.8637 3.62882C29.147 5.06484 29.7535 7.09785 29.5241 9.20344C29.3561 10.74 28.5998 12.1199 27.3959 13.0898C26.2829 13.9847 24.9063 14.4048 23.4949 14.3368C22.6375 14.1914 21.9695 13.8119 21.5288 13.1874C21.0021 12.4448 20.8293 11.4023 21.0587 10.3255C21.2041 9.63739 21.6105 9.0445 22.2012 8.66073C22.7941 8.27566 23.4981 8.14795 24.1888 8.29095C24.7168 8.40402 25.1721 8.71586 25.4654 9.16704C25.7583 9.6193 25.8593 10.1586 25.7471 10.6879C25.6629 11.0831 25.4314 11.4227 25.0929 11.6452C24.7522 11.8679 24.3412 11.9394 23.9437 11.8586C23.6846 11.8041 23.4688 11.6521 23.3064 11.4477C23.6949 11.3476 23.9844 11.0069 23.9799 10.588C23.9743 10.0974 23.569 9.70329 23.076 9.71018C22.8137 9.71363 22.5854 9.83509 22.4254 10.0179C22.2992 10.078 22.1982 10.1848 22.1652 10.3326C22.0494 10.8686 22.1517 11.4182 22.4491 11.8771C22.7512 12.3382 23.2112 12.6561 23.7494 12.7707C24.3957 12.9059 25.0498 12.7855 25.602 12.4265C26.1492 12.0677 26.5239 11.5203 26.6559 10.882C26.8218 10.111 26.6764 9.32404 26.2448 8.66159C25.8143 7.99892 25.1523 7.54516 24.3824 7.38234C23.4477 7.18486 22.4926 7.36188 21.6932 7.88155C20.8935 8.40186 20.3426 9.20107 20.1462 10.1347C19.9371 11.1171 20.011 12.0869 20.3347 12.9115C20.2552 12.8262 20.1643 12.7539 20.0928 12.663C19.3332 11.7204 18.9878 10.5346 19.1194 9.32942C19.3317 7.39096 21.0841 5.99068 23.0194 6.19549C23.2806 6.23124 23.5043 6.03828 23.5328 5.78329C23.5599 5.52766 23.376 5.2983 23.1206 5.27051C20.6743 5.00196 18.4619 6.78041 18.1951 9.22842C18.035 10.6806 18.4528 12.1082 19.3671 13.2438C20.2813 14.3842 21.5851 15.0996 23.0364 15.2564C23.182 15.2723 23.3273 15.2723 23.4725 15.279C23.4942 15.2846 23.5132 15.2926 23.536 15.2949C23.5554 15.2973 23.5748 15.2984 23.595 15.2984C23.6041 15.2984 23.611 15.2904 23.62 15.2893C23.6721 15.2904 23.7268 15.2984 23.7789 15.2984C25.303 15.2984 26.7681 14.7862 27.972 13.8186C29.3734 12.6942 30.2501 11.093 30.4433 9.30767C30.7103 6.93224 30.021 4.63757 28.5606 3.00621Z" fill="#474747"/>
</svg>
