<svg width="20" height="21" viewBox="0 0 20 21" fill="none" xmlns="http://www.w3.org/2000/svg">
<path d="M6.6665 18.8335H13.3332C15.6902 18.8335 16.8687 18.8335 17.6009 18.1013C18.3332 17.3691 18.3332 16.1906 18.3332 13.8335V13.0002C18.3332 10.6432 18.3332 9.46467 17.6009 8.73243C16.9606 8.09211 15.979 8.01174 14.1665 8.00165M5.83317 8.00165C4.02065 8.01174 3.03906 8.09211 2.39874 8.73243C1.6665 9.46467 1.6665 10.6432 1.6665 13.0002L1.6665 13.8335C1.6665 16.1906 1.6665 17.3691 2.39874 18.1013C2.64857 18.3511 2.95035 18.5157 3.33317 18.6242" stroke="#4C5BD4" stroke-width="1.5" stroke-linecap="round"/>
<path d="M10 2.16669L10 13M10 13L7.5 10.0834M10 13L12.5 10.0834" stroke="#4C5BD4" stroke-width="1.5" stroke-linecap="round" stroke-linejoin="round"/>
</svg>
