<svg width="20" height="21" viewBox="0 0 20 21" fill="none" xmlns="http://www.w3.org/2000/svg">
<path d="M1.4165 7.09999C1.4165 4.53332 2.88317 3.43335 5.08317 3.43335H12.4082C14.2748 3.43335 15.6165 4.22501 15.9748 6.03335C16.0415 6.35835 16.0748 6.70832 16.0748 7.09999V11.3917C16.0748 13.9583 14.6082 15.0583 12.4082 15.0583H5.08317C4.70817 15.0583 4.34983 15.025 4.0165 14.95C3.80817 14.9167 3.60815 14.8584 3.42481 14.7917C2.17481 14.325 1.4165 13.2417 1.4165 11.3917V10.5" stroke="#4C5BD4" stroke-width="1.5" stroke-miterlimit="10" stroke-linecap="round" stroke-linejoin="round"/>
<path d="M18.5832 13.0083V13.8917C18.5832 16.4583 17.1166 17.5583 14.9166 17.5583H7.59157C6.9749 17.5583 6.41658 17.475 5.93324 17.2917C4.94158 16.925 4.26657 16.1667 4.0249 14.95C4.35824 15.025 4.71657 15.0583 5.09157 15.0583H12.4166C14.6166 15.0583 16.0832 13.9583 16.0832 11.3917V7.09997C16.0832 6.7083 16.0499 6.35833 15.9832 6.03333C17.5749 6.35833 18.5832 7.47497 18.5832 9.59997" stroke="#4C5BD4" stroke-width="1.5" stroke-miterlimit="10" stroke-linecap="round" stroke-linejoin="round"/>
<path d="M10.9498 9.25C10.9498 8.03333 9.96648 7.04999 8.74982 7.04999C7.53315 7.04999 6.5498 8.03333 6.5498 9.25C6.5498 10.4667 7.53315 11.45 8.74982 11.45" stroke="#4C5BD4" stroke-width="1.5" stroke-miterlimit="10" stroke-linecap="round" stroke-linejoin="round"/>
<path d="M3.9834 7.41663V11.0833" stroke="#4C5BD4" stroke-width="1.5" stroke-miterlimit="10" stroke-linecap="round" stroke-linejoin="round"/>
<path d="M13.5166 7.41663V11.0833" stroke="#4C5BD4" stroke-width="1.5" stroke-miterlimit="10" stroke-linecap="round" stroke-linejoin="round"/>
</svg>
