<svg width="20" height="21" viewBox="0 0 20 21" fill="none" xmlns="http://www.w3.org/2000/svg">
<path d="M1.6665 7.58335C1.6665 4.66669 3.33317 3.41669 5.83317 3.41669H11.6665" stroke="#4C5BD4" stroke-width="1.5" stroke-miterlimit="10" stroke-linecap="round" stroke-linejoin="round"/>
<path d="M18.3332 9.25V13.4167C18.3332 16.3333 16.6665 17.5833 14.1665 17.5833H5.83317C3.33317 17.5833 1.6665 16.3333 1.6665 13.4167V11.3167" stroke="#4C5BD4" stroke-width="1.5" stroke-miterlimit="10" stroke-linecap="round" stroke-linejoin="round"/>
<path d="M5.8335 8L8.44183 10.0833C9.30017 10.7667 10.7085 10.7667 11.5668 10.0833L12.5502 9.3" stroke="#4C5BD4" stroke-width="1.5" stroke-miterlimit="10" stroke-linecap="round" stroke-linejoin="round"/>
<path d="M16.2498 7.16667C17.4004 7.16667 18.3332 6.23393 18.3332 5.08333C18.3332 3.93274 17.4004 3 16.2498 3C15.0992 3 14.1665 3.93274 14.1665 5.08333C14.1665 6.23393 15.0992 7.16667 16.2498 7.16667Z" stroke="#4C5BD4" stroke-width="1.5" stroke-miterlimit="10" stroke-linecap="round" stroke-linejoin="round"/>
</svg>
