<svg width="20" height="21" viewBox="0 0 20 21" fill="none" xmlns="http://www.w3.org/2000/svg">
<path d="M12.0832 10.5C12.0832 9.35002 11.1498 8.41669 9.99984 8.41669C8.84984 8.41669 7.9165 9.35002 7.9165 10.5C7.9165 11.65 8.84984 12.5834 9.99984 12.5834" stroke="#4C5BD4" stroke-width="1.5" stroke-miterlimit="10" stroke-linecap="round" stroke-linejoin="round"/>
<path d="M18.3333 11.45V13C18.3333 15.9167 16.6667 17.1667 14.1667 17.1667H10" stroke="#4C5BD4" stroke-width="1.5" stroke-miterlimit="10" stroke-linecap="round" stroke-linejoin="round"/>
<path d="M1.6665 9.66665V7.99998C1.6665 5.08331 3.33317 3.83331 5.83317 3.83331H14.1665C16.6665 3.83331 18.3332 5.08331 18.3332 7.99998" stroke="#4C5BD4" stroke-width="1.5" stroke-miterlimit="10" stroke-linecap="round" stroke-linejoin="round"/>
<path d="M15.4165 8.41669V12.5834" stroke="#4C5BD4" stroke-width="1.5" stroke-miterlimit="10" stroke-linecap="round" stroke-linejoin="round"/>
<path d="M1.6665 13.4167H6.11653C6.64986 13.4167 7.08317 13.85 7.08317 14.3833V15.45" stroke="#4C5BD4" stroke-width="1.5" stroke-miterlimit="10" stroke-linecap="round" stroke-linejoin="round"/>
<path d="M2.68315 12.4L1.6665 13.4167L2.68315 14.4333" stroke="#4C5BD4" stroke-width="1.5" stroke-miterlimit="10" stroke-linecap="round" stroke-linejoin="round"/>
<path d="M7.08317 17.8167H2.63315C2.09981 17.8167 1.6665 17.3833 1.6665 16.85V15.7833" stroke="#4C5BD4" stroke-width="1.5" stroke-miterlimit="10" stroke-linecap="round" stroke-linejoin="round"/>
<path d="M6.06641 18.8333L7.08305 17.8167L6.06641 16.8" stroke="#4C5BD4" stroke-width="1.5" stroke-miterlimit="10" stroke-linecap="round" stroke-linejoin="round"/>
</svg>
