<svg width="24" height="25" viewBox="0 0 24 25" fill="none" xmlns="http://www.w3.org/2000/svg">
<g id="Frame 1321315627">
<g id="Group">
<path id="Vector" d="M21.1693 11.6265H4.86995L9.25604 7.02668C9.58872 6.67778 9.58872 6.11056 9.25604 5.76167C8.92336 5.41278 8.38249 5.41278 8.04981 5.76167L2.24931 11.8448C2.07787 12.0246 1.99419 12.2644 2.00031 12.4998C1.99419 12.7353 2.07787 12.975 2.24931 13.1548L8.04981 19.238C8.38249 19.5869 8.92336 19.5869 9.25604 19.238C9.58872 18.8891 9.58872 18.3219 9.25604 17.973L4.86995 13.3731H21.1673C21.6265 13.3731 22 12.9814 22 12.4998C22.002 12.0182 21.6285 11.6265 21.1693 11.6265Z" fill="white"/>
</g>
</g>
</svg>
