<svg width="24" height="24" viewBox="0 0 24 24" fill="none" xmlns="http://www.w3.org/2000/svg">
<g id="Group 1000007281">
<g id="Vector">
<path d="M20.2308 0H3.76923C1.68754 0 0 1.68754 0 3.76923V20.2308C0 22.3125 1.68754 24 3.76923 24H20.2308C22.3125 24 24 22.3125 24 20.2308V3.76923C24 1.68754 22.3125 0 20.2308 0Z" fill="#DADEFF"/>
<path d="M20.2308 0H3.76923C1.68754 0 0 1.68754 0 3.76923V20.2308C0 22.3125 1.68754 24 3.76923 24H20.2308C22.3125 24 24 22.3125 24 20.2308V3.76923C24 1.68754 22.3125 0 20.2308 0Z" fill="white"/>
</g>
<path id="Vector_2" d="M12 14.9412V5.62012" stroke="#474747" stroke-linecap="round" stroke-linejoin="round"/>
<path id="Vector_3" d="M14.7043 14.1494L12.0012 18.8325L9.29688 14.1494H14.7043Z" fill="#474747"/>
</g>
</svg>
