<svg width="32" height="33" viewBox="0 0 32 33" fill="none" xmlns="http://www.w3.org/2000/svg">
<g id="Frame 1321315971">
<path id="&#226;&#128;&#156;" d="M16.8962 4.97541C16.8962 6.17031 17.1293 7.21949 17.5956 8.12295C18.0619 9.05556 18.6885 9.87158 19.4754 10.571C20.2623 11.2705 21.1658 11.8534 22.1858 12.3197C23.2058 12.8151 24.2696 13.2086 25.377 13.5C25.1439 13.1211 24.9107 12.786 24.6776 12.4945C24.4736 12.2031 24.2987 11.8971 24.153 11.5765C24.0073 11.2559 23.8907 10.8916 23.8033 10.4836C23.7158 10.0756 23.6721 9.58015 23.6721 8.99727C24.1093 8.90984 24.5756 8.76412 25.071 8.56011C25.5956 8.3561 26.0765 8.09381 26.5137 7.77322C26.9508 7.45264 27.3005 7.0592 27.5628 6.5929C27.8543 6.12659 28 5.58743 28 4.97541C28 4.27596 27.796 3.66393 27.388 3.13934C26.98 2.6439 26.4845 2.22131 25.9016 1.87158C25.3188 1.551 24.6922 1.31785 24.0219 1.17213C23.3807 1.02641 22.7978 0.953551 22.2732 0.953551C21.7486 0.953551 21.1803 1.02641 20.5683 1.17213C19.9563 1.31785 19.3734 1.551 18.8197 1.87158C18.2659 2.22131 17.7996 2.6439 17.4208 3.13934C17.071 3.66393 16.8962 4.27596 16.8962 4.97541ZM4 4.97541C4 6.17031 4.21858 7.21949 4.65574 8.12295C5.12204 9.05556 5.73406 9.87158 6.4918 10.571C7.27869 11.2705 8.18215 11.8534 9.20219 12.3197C10.2222 12.8151 11.286 13.2086 12.3934 13.5C12.1603 13.1211 11.9417 12.786 11.7377 12.4945C11.5628 12.2031 11.4025 11.8971 11.2568 11.5765C11.1403 11.2559 11.0383 10.8916 10.9508 10.4836C10.8634 10.0756 10.8197 9.58015 10.8197 8.99727C11.2277 8.90984 11.6794 8.76412 12.1749 8.56011C12.6703 8.3561 13.122 8.09381 13.5301 7.77322C13.9672 7.45264 14.3169 7.0592 14.5792 6.5929C14.8707 6.12659 15.0164 5.58743 15.0164 4.97541C15.0164 4.27596 14.8124 3.66393 14.4044 3.13934C13.9964 2.6439 13.5009 2.22131 12.918 1.87158C12.3352 1.551 11.7231 1.31785 11.082 1.17213C10.4408 1.02641 9.8725 0.953551 9.37705 0.953551C8.85246 0.953551 8.26958 1.02641 7.62842 1.17213C7.01639 1.31785 6.43352 1.551 5.87978 1.87158C5.35519 2.22131 4.90346 2.6439 4.52459 3.13934C4.17486 3.66393 4 4.27596 4 4.97541Z" fill="#4C5BD4"/>
</g>
</svg>
