<svg width="32" height="33" viewBox="0 0 32 33" fill="none" xmlns="http://www.w3.org/2000/svg">
<g id="vuesax/bold/microphone-2">
<g id="microphone-2">
<path id="Vector" d="M25.4903 12.6603C24.9703 12.6603 24.557 13.0736 24.557 13.5936V15.7003C24.557 20.4203 20.717 24.2603 15.997 24.2603C11.277 24.2603 7.43698 20.4203 7.43698 15.7003V13.5803C7.43698 13.0603 7.02365 12.647 6.50365 12.647C5.98365 12.647 5.57031 13.0603 5.57031 13.5803V15.687C5.57031 21.1136 9.74365 25.5803 15.0636 26.0603V28.9003C15.0636 29.4203 15.477 29.8336 15.997 29.8336C16.517 29.8336 16.9303 29.4203 16.9303 28.9003V26.0603C22.237 25.5936 26.4236 21.1136 26.4236 15.687V13.5803C26.4103 13.0736 25.997 12.6603 25.4903 12.6603Z" fill="#4C5BD4"/>
<path id="Vector_2" d="M15.9988 3.1665C12.7455 3.1665 10.1055 5.8065 10.1055 9.05984V15.8865C10.1055 19.1398 12.7455 21.7798 15.9988 21.7798C19.2521 21.7798 21.8921 19.1398 21.8921 15.8865V9.05984C21.8921 5.8065 19.2521 3.1665 15.9988 3.1665ZM17.7455 12.4332C17.6521 12.7798 17.3455 13.0065 16.9988 13.0065C16.9321 13.0065 16.8655 12.9932 16.7988 12.9798C16.2788 12.8332 15.7321 12.8332 15.2121 12.9798C14.7855 13.0998 14.3721 12.8465 14.2655 12.4332C14.1455 12.0198 14.3988 11.5932 14.8121 11.4865C15.5988 11.2732 16.4255 11.2732 17.2121 11.4865C17.6121 11.5932 17.8521 12.0198 17.7455 12.4332ZM18.4521 9.8465C18.3321 10.1665 18.0388 10.3532 17.7188 10.3532C17.6255 10.3532 17.5455 10.3398 17.4521 10.3132C16.5188 9.9665 15.4788 9.9665 14.5455 10.3132C14.1455 10.4598 13.6921 10.2465 13.5455 9.8465C13.3988 9.4465 13.6121 8.99317 14.0121 8.85984C15.2921 8.39317 16.7055 8.39317 17.9855 8.85984C18.3855 9.0065 18.5988 9.4465 18.4521 9.8465Z" fill="#4C5BD4"/>
</g>
</g>
</svg>
