<svg width="32" height="32" viewBox="0 0 32 32" fill="none" xmlns="http://www.w3.org/2000/svg">
<g id="Frame 1321315970">
<path id="&#226;&#128;&#156;" d="M15.1038 27.0246C15.1038 25.8297 14.8707 24.7805 14.4044 23.877C13.9381 22.9444 13.3115 22.1284 12.5246 21.429C11.7377 20.7295 10.8342 20.1466 9.81421 19.6803C8.79417 19.1849 7.73042 18.7914 6.62295 18.5C6.8561 18.8789 7.08925 19.214 7.3224 19.5055C7.52641 19.7969 7.70127 20.1029 7.84699 20.4235C7.99271 20.7441 8.10929 21.1084 8.19672 21.5164C8.28415 21.9244 8.32787 22.4199 8.32787 23.0027C7.89071 23.0902 7.42441 23.2359 6.92896 23.4399C6.40437 23.6439 5.9235 23.9062 5.48634 24.2268C5.04918 24.5474 4.69945 24.9408 4.43716 25.4071C4.14572 25.8734 4 26.4126 4 27.0246C4 27.724 4.20401 28.3361 4.61202 28.8607C5.02004 29.3561 5.51548 29.7787 6.09836 30.1284C6.68124 30.449 7.30783 30.6821 7.97814 30.8279C8.61931 30.9736 9.20219 31.0464 9.72678 31.0464C10.2514 31.0464 10.8197 30.9736 11.4317 30.8279C12.0437 30.6821 12.6266 30.449 13.1803 30.1284C13.7341 29.7787 14.2004 29.3561 14.5792 28.8607C14.929 28.3361 15.1038 27.724 15.1038 27.0246ZM28 27.0246C28 25.8297 27.7814 24.7805 27.3443 23.877C26.878 22.9444 26.2659 22.1284 25.5082 21.429C24.7213 20.7295 23.8179 20.1466 22.7978 19.6803C21.7778 19.1849 20.714 18.7914 19.6066 18.5C19.8397 18.8789 20.0583 19.214 20.2623 19.5055C20.4372 19.7969 20.5975 20.1029 20.7432 20.4235C20.8597 20.7441 20.9617 21.1084 21.0492 21.5164C21.1366 21.9244 21.1803 22.4199 21.1803 23.0027C20.7723 23.0902 20.3206 23.2359 19.8251 23.4399C19.3297 23.6439 18.878 23.9062 18.4699 24.2268C18.0328 24.5474 17.6831 24.9408 17.4208 25.4071C17.1293 25.8734 16.9836 26.4126 16.9836 27.0246C16.9836 27.724 17.1876 28.3361 17.5956 28.8607C18.0036 29.3561 18.4991 29.7787 19.082 30.1284C19.6648 30.449 20.2769 30.6821 20.918 30.8279C21.5592 30.9736 22.1275 31.0464 22.623 31.0464C23.1475 31.0464 23.7304 30.9736 24.3716 30.8279C24.9836 30.6821 25.5665 30.449 26.1202 30.1284C26.6448 29.7787 27.0965 29.3561 27.4754 28.8607C27.8251 28.3361 28 27.724 28 27.0246Z" fill="#4C5BD4"/>
</g>
</svg>
