<svg width="24" height="24" viewBox="0 0 24 24" fill="none" xmlns="http://www.w3.org/2000/svg">
<g id="Group 1000007282">
<g id="Vector">
<path d="M20.2308 0H3.76923C1.68754 0 0 1.68754 0 3.76923V20.2308C0 22.3125 1.68754 24 3.76923 24H20.2308C22.3125 24 24 22.3125 24 20.2308V3.76923C24 1.68754 22.3125 0 20.2308 0Z" fill="#DADEFF"/>
<path d="M20.2308 0H3.76923C1.68754 0 0 1.68754 0 3.76923V20.2308C0 22.3125 1.68754 24 3.76923 24H20.2308C22.3125 24 24 22.3125 24 20.2308V3.76923C24 1.68754 22.3125 0 20.2308 0Z" fill="white"/>
</g>
<path id="Vector_2" d="M12 9.05957V18.3806" stroke="#474747" stroke-linecap="round" stroke-linejoin="round"/>
<path id="Vector_3" d="M9.29688 9.8511L12 5.16797L14.7043 9.8511H9.29688Z" fill="#474747"/>
</g>
</svg>
