<svg width="127" height="44" viewBox="0 0 127 44" fill="none" xmlns="http://www.w3.org/2000/svg">
<g filter="url(#filter0_d_4739_218785)">
<rect x="4" y="1" width="119" height="36" rx="4" fill="white"/>
<path d="M42.751 14.91H41.4L41.4089 14.2037H42.751C43.2132 14.2037 43.5983 14.1063 43.9065 13.9113C44.2146 13.7134 44.4457 13.4374 44.5998 13.0835C44.7568 12.7266 44.8353 12.3098 44.8353 11.8329V11.4325C44.8353 11.0576 44.7909 10.7247 44.702 10.4338C44.6131 10.1399 44.4827 9.89246 44.3109 9.69152C44.1391 9.48758 43.9287 9.33312 43.6798 9.22815C43.4339 9.12318 43.151 9.07069 42.831 9.07069H41.3733V8.3599H42.831C43.2547 8.3599 43.6413 8.43188 43.9909 8.57584C44.3405 8.7168 44.6412 8.92224 44.8931 9.19216C45.1479 9.45908 45.3434 9.78299 45.4797 10.1639C45.616 10.5418 45.6841 10.9677 45.6841 11.4415V11.8329C45.6841 12.3068 45.616 12.7341 45.4797 13.115C45.3434 13.4929 45.1464 13.8153 44.8886 14.0823C44.6338 14.3492 44.3257 14.5546 43.9642 14.6986C43.6058 14.8395 43.2013 14.91 42.751 14.91ZM41.8577 8.3599V14.91H41V8.3599H41.8577Z" fill="#474747"/>
<path d="M46.6307 12.5302V12.4267C46.6307 12.0758 46.6811 11.7504 46.7818 11.4505C46.8826 11.1476 47.0277 10.8852 47.2174 10.6632C47.407 10.4383 47.6366 10.2644 47.9062 10.1414C48.1758 10.0154 48.478 9.95244 48.8128 9.95244C49.1506 9.95244 49.4543 10.0154 49.7239 10.1414C49.9964 10.2644 50.2275 10.4383 50.4172 10.6632C50.6097 10.8852 50.7564 11.1476 50.8571 11.4505C50.9579 11.7504 51.0082 12.0758 51.0082 12.4267V12.5302C51.0082 12.8811 50.9579 13.2065 50.8571 13.5064C50.7564 13.8063 50.6097 14.0688 50.4172 14.2937C50.2275 14.5156 49.9979 14.6896 49.7283 14.8156C49.4617 14.9385 49.1595 15 48.8217 15C48.4839 15 48.1803 14.9385 47.9107 14.8156C47.641 14.6896 47.4099 14.5156 47.2174 14.2937C47.0277 14.0688 46.8826 13.8063 46.7818 13.5064C46.6811 13.2065 46.6307 12.8811 46.6307 12.5302ZM47.4529 12.4267V12.5302C47.4529 12.7731 47.4811 13.0026 47.5373 13.2185C47.5936 13.4314 47.6781 13.6204 47.7907 13.7853C47.9062 13.9503 48.0499 14.0808 48.2217 14.1767C48.3936 14.2697 48.5936 14.3162 48.8217 14.3162C49.0469 14.3162 49.2439 14.2697 49.4128 14.1767C49.5846 14.0808 49.7268 13.9503 49.8394 13.7853C49.952 13.6204 50.0364 13.4314 50.0927 13.2185C50.152 13.0026 50.1816 12.7731 50.1816 12.5302V12.4267C50.1816 12.1868 50.152 11.9604 50.0927 11.7474C50.0364 11.5315 49.9505 11.341 49.835 11.1761C49.7224 11.0081 49.5802 10.8762 49.4083 10.7802C49.2395 10.6842 49.0409 10.6362 48.8128 10.6362C48.5876 10.6362 48.3891 10.6842 48.2173 10.7802C48.0484 10.8762 47.9062 11.0081 47.7907 11.1761C47.6781 11.341 47.5936 11.5315 47.5373 11.7474C47.4811 11.9604 47.4529 12.1868 47.4529 12.4267Z" fill="#474747"/>
<path d="M53.257 14.0463L54.4924 10.0424H55.0346L54.928 10.8387L53.6703 14.91H53.1414L53.257 14.0463ZM52.4259 10.0424L53.4792 14.0913L53.5547 14.91H52.9992L51.6037 10.0424H52.4259ZM56.2168 14.0598L57.2211 10.0424H58.0389L56.6434 14.91H56.0923L56.2168 14.0598ZM55.1546 10.0424L56.3634 13.9788L56.5012 14.91H55.9768L54.6835 10.8297L54.5769 10.0424H55.1546Z" fill="#474747"/>
<path d="M59.7054 11.0816V14.91H58.8833V10.0424H59.661L59.7054 11.0816ZM59.5099 12.2918L59.1677 12.2783C59.1706 11.9454 59.2195 11.638 59.3143 11.356C59.4091 11.0711 59.5425 10.8237 59.7143 10.6138C59.8862 10.4038 60.0906 10.2419 60.3276 10.1279C60.5676 10.0109 60.8328 9.95244 61.1231 9.95244C61.3601 9.95244 61.5735 9.98543 61.7631 10.0514C61.9527 10.1144 62.1142 10.2164 62.2475 10.3573C62.3838 10.4983 62.4875 10.6812 62.5586 10.9062C62.6297 11.1281 62.6652 11.3995 62.6652 11.7204V14.91H61.8386V11.7114C61.8386 11.4565 61.8016 11.2526 61.7275 11.0996C61.6534 10.9437 61.5453 10.8312 61.4031 10.7622C61.2609 10.6902 61.0861 10.6542 60.8787 10.6542C60.6743 10.6542 60.4876 10.6977 60.3187 10.7847C60.1528 10.8717 60.0091 10.9916 59.8876 11.1446C59.7691 11.2976 59.6758 11.473 59.6077 11.671C59.5425 11.8659 59.5099 12.0728 59.5099 12.2918Z" fill="#474747"/>
<path d="M64.8073 8V14.91H63.9807V8H64.8073Z" fill="#474747"/>
<path d="M65.9095 12.5302V12.4267C65.9095 12.0758 65.9598 11.7504 66.0606 11.4505C66.1613 11.1476 66.3065 10.8852 66.4961 10.6632C66.6857 10.4383 66.9153 10.2644 67.1849 10.1414C67.4545 10.0154 67.7567 9.95244 68.0915 9.95244C68.4293 9.95244 68.733 10.0154 69.0026 10.1414C69.2752 10.2644 69.5063 10.4383 69.6959 10.6632C69.8885 10.8852 70.0351 11.1476 70.1358 11.4505C70.2366 11.7504 70.2869 12.0758 70.2869 12.4267V12.5302C70.2869 12.8811 70.2366 13.2065 70.1358 13.5064C70.0351 13.8063 69.8885 14.0688 69.6959 14.2937C69.5063 14.5156 69.2766 14.6896 69.007 14.8156C68.7404 14.9385 68.4382 15 68.1004 15C67.7627 15 67.459 14.9385 67.1894 14.8156C66.9198 14.6896 66.6887 14.5156 66.4961 14.2937C66.3065 14.0688 66.1613 13.8063 66.0606 13.5064C65.9598 13.2065 65.9095 12.8811 65.9095 12.5302ZM66.7316 12.4267V12.5302C66.7316 12.7731 66.7598 13.0026 66.8161 13.2185C66.8724 13.4314 66.9568 13.6204 67.0694 13.7853C67.1849 13.9503 67.3286 14.0808 67.5005 14.1767C67.6723 14.2697 67.8723 14.3162 68.1004 14.3162C68.3256 14.3162 68.5226 14.2697 68.6915 14.1767C68.8633 14.0808 69.0056 13.9503 69.1181 13.7853C69.2307 13.6204 69.3152 13.4314 69.3715 13.2185C69.4307 13.0026 69.4603 12.7731 69.4603 12.5302V12.4267C69.4603 12.1868 69.4307 11.9604 69.3715 11.7474C69.3152 11.5315 69.2292 11.341 69.1137 11.1761C69.0011 11.0081 68.8589 10.8762 68.6871 10.7802C68.5182 10.6842 68.3197 10.6362 68.0915 10.6362C67.8664 10.6362 67.6679 10.6842 67.496 10.7802C67.3271 10.8762 67.1849 11.0081 67.0694 11.1761C66.9568 11.341 66.8724 11.5315 66.8161 11.7474C66.7598 11.9604 66.7316 12.1868 66.7316 12.4267Z" fill="#474747"/>
<path d="M74.1534 14.0778V11.572C74.1534 11.38 74.1148 11.2136 74.0378 11.0726C73.9637 10.9287 73.8512 10.8177 73.7001 10.7397C73.549 10.6617 73.3623 10.6228 73.1401 10.6228C72.9327 10.6228 72.7505 10.6587 72.5935 10.7307C72.4394 10.8027 72.3179 10.8972 72.229 11.0141C72.1431 11.1311 72.1002 11.2571 72.1002 11.392H71.278C71.278 11.2181 71.3224 11.0456 71.4113 10.8747C71.5002 10.7037 71.6276 10.5493 71.7935 10.4113C71.9624 10.2704 72.1639 10.1594 72.3979 10.0784C72.6349 9.99443 72.8986 9.95244 73.189 9.95244C73.5386 9.95244 73.8467 10.0124 74.1134 10.1324C74.383 10.2524 74.5933 10.4338 74.7444 10.6767C74.8985 10.9167 74.9755 11.2181 74.9755 11.581V13.8483C74.9755 14.0103 74.9889 14.1827 75.0155 14.3657C75.0452 14.5486 75.0881 14.7061 75.1444 14.838V14.91H74.2867C74.2452 14.8141 74.2126 14.6866 74.1889 14.5276C74.1652 14.3657 74.1534 14.2157 74.1534 14.0778ZM74.2956 11.9589L74.3045 12.5437H73.4734C73.2393 12.5437 73.0305 12.5632 72.8468 12.6022C72.6631 12.6382 72.509 12.6937 72.3846 12.7686C72.2601 12.8436 72.1653 12.9381 72.1002 13.0521C72.035 13.163 72.0024 13.2935 72.0024 13.4434C72.0024 13.5964 72.0365 13.7359 72.1046 13.8618C72.1727 13.9878 72.275 14.0883 72.4113 14.1632C72.5505 14.2352 72.7209 14.2712 72.9223 14.2712C73.1742 14.2712 73.3964 14.2172 73.589 14.1093C73.7815 14.0013 73.9341 13.8693 74.0467 13.7134C74.1622 13.5574 74.2245 13.406 74.2334 13.259L74.5844 13.6594C74.5637 13.7853 74.5074 13.9248 74.4156 14.0778C74.3237 14.2307 74.2008 14.3777 74.0467 14.5186C73.8956 14.6566 73.7149 14.7721 73.5045 14.865C73.2971 14.955 73.0631 15 72.8023 15C72.4764 15 72.1905 14.9355 71.9446 14.8066C71.7017 14.6776 71.5121 14.5051 71.3758 14.2892C71.2424 14.0703 71.1758 13.8258 71.1758 13.5559C71.1758 13.295 71.2261 13.0656 71.3269 12.8676C71.4276 12.6667 71.5728 12.5002 71.7624 12.3683C71.952 12.2333 72.1802 12.1313 72.4468 12.0623C72.7135 11.9934 73.0112 11.9589 73.3401 11.9589H74.2956Z" fill="#474747"/>
<path d="M79.2997 13.9653V8H80.1263V14.91H79.3708L79.2997 13.9653ZM76.0643 12.5302V12.4357C76.0643 12.0638 76.1088 11.7264 76.1977 11.4235C76.2895 11.1176 76.4184 10.8552 76.5843 10.6362C76.7532 10.4173 76.9532 10.2494 77.1843 10.1324C77.4183 10.0124 77.6791 9.95244 77.9664 9.95244C78.2686 9.95244 78.5323 10.0064 78.7575 10.1144C78.9856 10.2194 79.1782 10.3738 79.3352 10.5778C79.4952 10.7787 79.6211 11.0216 79.713 11.3066C79.8048 11.5915 79.8685 11.9139 79.9041 12.2738V12.6877C79.8715 13.0446 79.8078 13.3655 79.713 13.6504C79.6211 13.9353 79.4952 14.1782 79.3352 14.3792C79.1782 14.5801 78.9856 14.7346 78.7575 14.8425C78.5294 14.9475 78.2627 15 77.9576 15C77.6761 15 77.4183 14.9385 77.1843 14.8156C76.9532 14.6926 76.7532 14.5201 76.5843 14.2982C76.4184 14.0763 76.2895 13.8153 76.1977 13.5154C76.1088 13.2125 76.0643 12.8841 76.0643 12.5302ZM76.891 12.4357V12.5302C76.891 12.7731 76.9147 13.0011 76.9621 13.214C77.0124 13.4269 77.0895 13.6144 77.1932 13.7763C77.2969 13.9383 77.4287 14.0658 77.5887 14.1587C77.7487 14.2487 77.9398 14.2937 78.162 14.2937C78.4346 14.2937 78.6582 14.2352 78.833 14.1183C79.0108 14.0013 79.153 13.8468 79.2597 13.6549C79.3663 13.4629 79.4493 13.2545 79.5086 13.0296V11.9454C79.473 11.7804 79.4212 11.6215 79.353 11.4685C79.2878 11.3126 79.2019 11.1746 79.0953 11.0546C78.9916 10.9317 78.8627 10.8342 78.7086 10.7622C78.5575 10.6902 78.3783 10.6542 78.1709 10.6542C77.9457 10.6542 77.7516 10.7022 77.5887 10.7982C77.4287 10.8912 77.2969 11.0201 77.1932 11.1851C77.0895 11.347 77.0124 11.536 76.9621 11.7519C76.9147 11.9649 76.891 12.1928 76.891 12.4357Z" fill="#474747"/>
<path d="M83.4461 12.5302V12.4267C83.4461 12.0758 83.4964 11.7504 83.5972 11.4505C83.6979 11.1476 83.8431 10.8852 84.0327 10.6632C84.2223 10.4383 84.4519 10.2644 84.7215 10.1414C84.9912 10.0154 85.2934 9.95244 85.6282 9.95244C85.9659 9.95244 86.2696 10.0154 86.5392 10.1414C86.8118 10.2644 87.0429 10.4383 87.2325 10.6632C87.4251 10.8852 87.5717 11.1476 87.6725 11.4505C87.7732 11.7504 87.8236 12.0758 87.8236 12.4267V12.5302C87.8236 12.8811 87.7732 13.2065 87.6725 13.5064C87.5717 13.8063 87.4251 14.0688 87.2325 14.2937C87.0429 14.5156 86.8133 14.6896 86.5436 14.8156C86.277 14.9385 85.9748 15 85.637 15C85.2993 15 84.9956 14.9385 84.726 14.8156C84.4564 14.6896 84.2253 14.5156 84.0327 14.2937C83.8431 14.0688 83.6979 13.8063 83.5972 13.5064C83.4964 13.2065 83.4461 12.8811 83.4461 12.5302ZM84.2682 12.4267V12.5302C84.2682 12.7731 84.2964 13.0026 84.3527 13.2185C84.409 13.4314 84.4934 13.6204 84.606 13.7853C84.7215 13.9503 84.8652 14.0808 85.0371 14.1767C85.2089 14.2697 85.4089 14.3162 85.637 14.3162C85.8622 14.3162 86.0592 14.2697 86.2281 14.1767C86.4 14.0808 86.5422 13.9503 86.6548 13.7853C86.7673 13.6204 86.8518 13.4314 86.9081 13.2185C86.9673 13.0026 86.9969 12.7731 86.9969 12.5302V12.4267C86.9969 12.1868 86.9673 11.9604 86.9081 11.7474C86.8518 11.5315 86.7659 11.341 86.6503 11.1761C86.5377 11.0081 86.3955 10.8762 86.2237 10.7802C86.0548 10.6842 85.8563 10.6362 85.6282 10.6362C85.403 10.6362 85.2045 10.6842 85.0326 10.7802C84.8638 10.8762 84.7215 11.0081 84.606 11.1761C84.4934 11.341 84.409 11.5315 84.3527 11.7474C84.2964 11.9604 84.2682 12.1868 84.2682 12.4267Z" fill="#474747"/>
<path d="M89.6768 11.0816V14.91H88.8546V10.0424H89.6323L89.6768 11.0816ZM89.4812 12.2918L89.139 12.2783C89.142 11.9454 89.1909 11.638 89.2857 11.356C89.3805 11.0711 89.5138 10.8237 89.6857 10.6138C89.8575 10.4038 90.0619 10.2419 90.299 10.1279C90.5389 10.0109 90.8041 9.95244 91.0945 9.95244C91.3315 9.95244 91.5448 9.98543 91.7344 10.0514C91.924 10.1144 92.0855 10.2164 92.2188 10.3573C92.3551 10.4983 92.4588 10.6812 92.5299 10.9062C92.601 11.1281 92.6366 11.3995 92.6366 11.7204V14.91H91.81V11.7114C91.81 11.4565 91.7729 11.2526 91.6989 11.0996C91.6248 10.9437 91.5167 10.8312 91.3744 10.7622C91.2322 10.6902 91.0574 10.6542 90.85 10.6542C90.6456 10.6542 90.4589 10.6977 90.2901 10.7847C90.1241 10.8717 89.9805 10.9916 89.859 11.1446C89.7405 11.2976 89.6471 11.473 89.579 11.671C89.5138 11.8659 89.4812 12.0728 89.4812 12.2918Z" fill="#474747"/>
<path d="M98.1562 10.0424V10.6812H95.5564V10.0424H98.1562ZM96.4363 8.85925H97.2585V13.7044C97.2585 13.8693 97.2837 13.9938 97.334 14.0778C97.3844 14.1617 97.4496 14.2172 97.5296 14.2442C97.6096 14.2712 97.6955 14.2847 97.7873 14.2847C97.8555 14.2847 97.9266 14.2787 98.0007 14.2667C98.0777 14.2517 98.1355 14.2397 98.174 14.2307L98.1784 14.91C98.1133 14.931 98.0273 14.9505 97.9207 14.9685C97.817 14.9895 97.6911 15 97.5429 15C97.3414 15 97.1563 14.9595 96.9874 14.8785C96.8185 14.7976 96.6837 14.6626 96.583 14.4737C96.4852 14.2817 96.4363 14.0238 96.4363 13.6999V8.85925Z" fill="#474747"/>
<path d="M99.9428 8V14.91H99.1206V8H99.9428ZM99.7472 12.2918L99.405 12.2783C99.408 11.9454 99.4569 11.638 99.5517 11.356C99.6465 11.0711 99.7798 10.8237 99.9516 10.6138C100.123 10.4038 100.328 10.2419 100.565 10.1279C100.805 10.0109 101.07 9.95244 101.36 9.95244C101.597 9.95244 101.811 9.98543 102 10.0514C102.19 10.1144 102.351 10.2164 102.485 10.3573C102.621 10.4983 102.725 10.6812 102.796 10.9062C102.867 11.1281 102.903 11.3995 102.903 11.7204V14.91H102.076V11.7114C102.076 11.4565 102.039 11.2526 101.965 11.0996C101.891 10.9437 101.783 10.8312 101.64 10.7622C101.498 10.6902 101.323 10.6542 101.116 10.6542C100.912 10.6542 100.725 10.6977 100.556 10.7847C100.39 10.8717 100.246 10.9916 100.125 11.1446C100.006 11.2976 99.9131 11.473 99.845 11.671C99.7798 11.8659 99.7472 12.0728 99.7472 12.2918Z" fill="#474747"/>
<path d="M106.129 15C105.794 15 105.491 14.943 105.218 14.829C104.948 14.7121 104.716 14.5486 104.52 14.3387C104.328 14.1287 104.18 13.8798 104.076 13.5919C103.972 13.304 103.92 12.9891 103.92 12.6472V12.4582C103.92 12.0623 103.978 11.7099 104.094 11.401C104.209 11.0891 104.366 10.8252 104.565 10.6093C104.763 10.3933 104.988 10.2299 105.24 10.1189C105.492 10.0079 105.753 9.95244 106.022 9.95244C106.366 9.95244 106.662 10.0124 106.911 10.1324C107.163 10.2524 107.369 10.4203 107.529 10.6362C107.689 10.8492 107.807 11.1011 107.884 11.392C107.961 11.6799 108 11.9949 108 12.3368V12.7102H104.409V12.0308H107.178V11.9679C107.166 11.7519 107.122 11.542 107.045 11.338C106.97 11.1341 106.852 10.9662 106.689 10.8342C106.526 10.7022 106.304 10.6362 106.022 10.6362C105.836 10.6362 105.664 10.6767 105.507 10.7577C105.35 10.8357 105.215 10.9527 105.102 11.1086C104.99 11.2646 104.902 11.455 104.84 11.6799C104.778 11.9049 104.747 12.1643 104.747 12.4582V12.6472C104.747 12.8781 104.778 13.0955 104.84 13.2995C104.905 13.5004 104.999 13.6774 105.12 13.8303C105.245 13.9833 105.394 14.1033 105.569 14.1902C105.747 14.2772 105.948 14.3207 106.173 14.3207C106.464 14.3207 106.71 14.2607 106.911 14.1407C107.113 14.0208 107.289 13.8603 107.44 13.6594L107.938 14.0598C107.834 14.2187 107.702 14.3702 107.542 14.5141C107.382 14.6581 107.185 14.7751 106.951 14.865C106.72 14.955 106.446 15 106.129 15Z" fill="#474747"/>
<g clip-path="url(#clip0_4739_218785)">
<path d="M12 10.9708L20.1734 9.80665L20.177 18.0525L12.0074 18.1012L12 10.9709V10.9708ZM20.1695 19.0025L20.1758 27.2556L12.0063 26.0808L12.0059 18.9472L20.1695 19.0025ZM21.1603 9.65426L31.9975 8V17.9476L21.1603 18.0375V9.65426ZM32 19.0802L31.9974 28.9829L21.1602 27.3832L21.1451 19.0616L32 19.0802Z" fill="#00B4F1"/>
</g>
<path d="M91.0297 20.0722V28.8797H90.0252V21.4619L88 22.2801V21.2754L90.8722 20.0722H91.0297Z" fill="#474747"/>
<path d="M97 23.8021V25.1377C97 25.8556 96.9421 26.4612 96.8263 26.9545C96.7104 27.4479 96.5439 27.8449 96.3267 28.1457C96.1096 28.4465 95.8471 28.6651 95.5395 28.8015C95.2354 28.9338 94.8915 29 94.5078 29C94.2038 29 93.9233 28.9579 93.6663 28.8737C93.4093 28.7894 93.1776 28.6551 92.9713 28.4706C92.7686 28.2821 92.5948 28.0374 92.45 27.7366C92.3053 27.4358 92.1949 27.0709 92.1188 26.6417C92.0428 26.2126 92.0048 25.7112 92.0048 25.1377V23.8021C92.0048 23.0842 92.0627 22.4826 92.1786 21.9973C92.298 21.512 92.4663 21.123 92.6835 20.8302C92.9007 20.5334 93.1613 20.3209 93.4654 20.1925C93.773 20.0642 94.1169 20 94.497 20C94.8047 20 95.087 20.0421 95.344 20.1263C95.6046 20.2066 95.8363 20.3369 96.039 20.5174C96.2417 20.6939 96.4136 20.9305 96.5548 21.2273C96.6996 21.5201 96.81 21.879 96.886 22.3041C96.962 22.7293 97 23.2286 97 23.8021ZM95.9901 25.3182V23.6156C95.9901 23.2226 95.9684 22.8777 95.925 22.5809C95.8851 22.2801 95.8254 22.0234 95.7458 21.8108C95.6661 21.5983 95.5648 21.4258 95.4417 21.2934C95.3223 21.1611 95.1829 21.0648 95.0236 21.0047C94.868 20.9405 94.6924 20.9084 94.497 20.9084C94.2581 20.9084 94.0463 20.9586 93.8617 21.0588C93.6771 21.1551 93.5215 21.3095 93.3948 21.5221C93.2717 21.7346 93.1776 22.0134 93.1125 22.3583C93.0473 22.7032 93.0147 23.1223 93.0147 23.6156V25.3182C93.0147 25.7112 93.0346 26.0582 93.0744 26.359C93.1179 26.6598 93.1812 26.9205 93.2645 27.141C93.3477 27.3576 93.4491 27.5361 93.5685 27.6765C93.688 27.8168 93.8255 27.9211 93.9812 27.9893C94.1404 28.0535 94.316 28.0856 94.5078 28.0856C94.754 28.0856 94.9694 28.0334 95.154 27.9291C95.3386 27.8249 95.4924 27.6624 95.6155 27.4418C95.7422 27.2172 95.8363 26.9305 95.8978 26.5816C95.9593 26.2286 95.9901 25.8075 95.9901 25.3182Z" fill="#474747"/>
<path d="M43.9805 26.0437L45.7347 19.5141H46.5846L46.0929 22.0527L44.2051 28.8715H43.3613L43.9805 26.0437ZM42.1655 19.5141L43.5616 25.9152L43.9805 28.8715H43.1428L41 19.5141H42.1655ZM48.8548 25.9087L50.2206 19.5141H51.3921L49.2554 28.8715H48.4177L48.8548 25.9087ZM46.712 19.5141L48.4177 26.0437L49.0369 28.8715H48.1932L46.3721 22.0527L45.8743 19.5141H46.712Z" fill="#474747"/>
<path d="M52.9954 21.9177V28.8715H51.8663V21.9177H52.9954ZM51.7814 20.0733C51.7814 19.8805 51.836 19.7177 51.9452 19.5848C52.0586 19.452 52.2245 19.3856 52.443 19.3856C52.6575 19.3856 52.8214 19.452 52.9347 19.5848C53.052 19.7177 53.1107 19.8805 53.1107 20.0733C53.1107 20.2575 53.052 20.416 52.9347 20.5488C52.8214 20.6774 52.6575 20.7416 52.443 20.7416C52.2245 20.7416 52.0586 20.6774 51.9452 20.5488C51.836 20.416 51.7814 20.2575 51.7814 20.0733Z" fill="#474747"/>
<path d="M55.1753 23.4023V28.8715H54.0523V21.9177H55.1146L55.1753 23.4023ZM54.9082 25.1311L54.4408 25.1118C54.4449 24.6362 54.5116 24.1971 54.6411 23.7943C54.7706 23.3873 54.9527 23.0338 55.1874 22.7339C55.4222 22.434 55.7014 22.2027 56.0251 22.0398C56.3529 21.8728 56.7151 21.7892 57.1117 21.7892C57.4354 21.7892 57.7268 21.8363 57.9858 21.9306C58.2448 22.0206 58.4653 22.1662 58.6474 22.3676C58.8336 22.569 58.9752 22.8303 59.0724 23.1517C59.1695 23.4687 59.218 23.8565 59.218 24.3149V28.8715H58.089V24.3021C58.089 23.9379 58.0384 23.6465 57.9372 23.428C57.8361 23.2052 57.6884 23.0446 57.4941 22.946C57.2999 22.8432 57.0611 22.7918 56.7778 22.7918C56.4986 22.7918 56.2437 22.8539 56.013 22.9781C55.7864 23.1024 55.5901 23.2738 55.4242 23.4923C55.2623 23.7108 55.1348 23.9614 55.0418 24.2442C54.9527 24.5227 54.9082 24.8183 54.9082 25.1311Z" fill="#474747"/>
<path d="M64.3177 27.5219V19H65.4468V28.8715H64.4148L64.3177 27.5219ZM59.8986 25.4717V25.3368C59.8986 24.8055 59.9593 24.3235 60.0807 23.8907C60.2062 23.4537 60.3822 23.0788 60.6088 22.7661C60.8395 22.4533 61.1127 22.2134 61.4283 22.0463C61.748 21.8749 62.1041 21.7892 62.4967 21.7892C62.9094 21.7892 63.2696 21.8663 63.5772 22.0206C63.8888 22.1705 64.1518 22.3912 64.3663 22.6825C64.5848 22.9696 64.7568 23.3166 64.8822 23.7237C65.0077 24.1307 65.0947 24.5913 65.1433 25.1054V25.6967C65.0987 26.2065 65.0117 26.665 64.8822 27.072C64.7568 27.479 64.5848 27.826 64.3663 28.1131C64.1518 28.4002 63.8888 28.6208 63.5772 28.7751C63.2655 28.925 62.9013 29 62.4845 29C62.1001 29 61.748 28.9122 61.4283 28.7365C61.1127 28.5608 60.8395 28.3145 60.6088 27.9974C60.3822 27.6804 60.2062 27.3076 60.0807 26.8792C59.9593 26.4464 59.8986 25.9773 59.8986 25.4717ZM61.0277 25.3368V25.4717C61.0277 25.8188 61.0601 26.1444 61.1248 26.4486C61.1936 26.7528 61.2988 27.0206 61.4405 27.2519C61.5821 27.4833 61.7622 27.6654 61.9807 27.7982C62.1992 27.9267 62.4602 27.991 62.7637 27.991C63.1361 27.991 63.4416 27.9075 63.6803 27.7404C63.9232 27.5733 64.1174 27.3526 64.2631 27.0784C64.4088 26.8042 64.5221 26.5064 64.603 26.1851V24.6362C64.5544 24.4006 64.4836 24.1735 64.3906 23.955C64.3015 23.7322 64.1842 23.5351 64.0385 23.3638C63.8968 23.1881 63.7208 23.0488 63.5104 22.946C63.304 22.8432 63.0592 22.7918 62.7759 22.7918C62.4683 22.7918 62.2033 22.8603 61.9807 22.9974C61.7622 23.1302 61.5821 23.3145 61.4405 23.5501C61.2988 23.7815 61.1936 24.0514 61.1248 24.3599C61.0601 24.6641 61.0277 24.9897 61.0277 25.3368Z" fill="#474747"/>
<path d="M66.1516 25.4717V25.3239C66.1516 24.8226 66.2204 24.3578 66.358 23.9293C66.4956 23.4966 66.6939 23.1217 66.9529 22.8046C67.2119 22.4833 67.5255 22.2348 67.8938 22.0591C68.262 21.8792 68.6748 21.7892 69.1321 21.7892C69.5934 21.7892 70.0082 21.8792 70.3765 22.0591C70.7488 22.2348 71.0644 22.4833 71.3234 22.8046C71.5865 23.1217 71.7868 23.4966 71.9244 23.9293C72.062 24.3578 72.1308 24.8226 72.1308 25.3239V25.4717C72.1308 25.973 72.062 26.4379 71.9244 26.8663C71.7868 27.2948 71.5865 27.6697 71.3234 27.991C71.0644 28.3081 70.7508 28.5566 70.3825 28.7365C70.0183 28.9122 69.6056 29 69.1442 29C68.6829 29 68.2681 28.9122 67.8998 28.7365C67.5316 28.5566 67.2159 28.3081 66.9529 27.991C66.6939 27.6697 66.4956 27.2948 66.358 26.8663C66.2204 26.4379 66.1516 25.973 66.1516 25.4717ZM67.2746 25.3239V25.4717C67.2746 25.8188 67.3131 26.1465 67.3899 26.455C67.4668 26.7592 67.5822 27.0291 67.7359 27.2648C67.8938 27.5004 68.09 27.6868 68.3248 27.8239C68.5595 27.9567 68.8326 28.0231 69.1442 28.0231C69.4518 28.0231 69.7209 27.9567 69.9516 27.8239C70.1863 27.6868 70.3805 27.5004 70.5343 27.2648C70.6881 27.0291 70.8034 26.7592 70.8803 26.455C70.9612 26.1465 71.0017 25.8188 71.0017 25.4717V25.3239C71.0017 24.9811 70.9612 24.6577 70.8803 24.3535C70.8034 24.045 70.6861 23.7729 70.5282 23.5373C70.3744 23.2973 70.1802 23.1088 69.9455 22.9717C69.7148 22.8346 69.4437 22.7661 69.1321 22.7661C68.8245 22.7661 68.5534 22.8346 68.3187 22.9717C68.088 23.1088 67.8938 23.2973 67.7359 23.5373C67.5822 23.7729 67.4668 24.045 67.3899 24.3535C67.3131 24.6577 67.2746 24.9811 67.2746 25.3239Z" fill="#474747"/>
<path d="M74.4564 27.6375L76.1439 21.9177H76.8844L76.7387 23.0553L75.0209 28.8715H74.2985L74.4564 27.6375ZM73.3212 21.9177L74.7599 27.7018L74.8631 28.8715H74.1043L72.1982 21.9177H73.3212ZM78.4991 27.6568L79.8709 21.9177H80.9879L79.0818 28.8715H78.3291L78.4991 27.6568ZM77.0483 21.9177L78.6994 27.5411L78.8876 28.8715H78.1713L76.4049 23.0424L76.2592 21.9177H77.0483Z" fill="#474747"/>
<path d="M85.2195 27.027C85.2195 26.8556 85.1831 26.6971 85.1102 26.5514C85.0414 26.4015 84.8978 26.2665 84.6793 26.1465C84.4648 26.0223 84.141 25.9152 83.708 25.8252C83.3438 25.7438 83.014 25.6474 82.7186 25.536C82.4272 25.4246 82.1783 25.2896 81.972 25.1311C81.7696 24.9726 81.6138 24.7862 81.5046 24.572C81.3953 24.3578 81.3407 24.1071 81.3407 23.8201C81.3407 23.5458 81.3973 23.2866 81.5106 23.0424C81.628 22.7982 81.7919 22.5818 82.0023 22.3933C82.2168 22.2048 82.4738 22.057 82.7732 21.9499C83.0727 21.8428 83.4065 21.7892 83.7748 21.7892C84.3009 21.7892 84.7501 21.8877 85.1224 22.0848C85.4947 22.2819 85.78 22.5454 85.9783 22.8753C86.1766 23.2009 86.2757 23.563 86.2757 23.9614H85.1527C85.1527 23.7686 85.0981 23.5823 84.9888 23.4023C84.8836 23.2181 84.7278 23.066 84.5214 22.946C84.3191 22.826 84.0702 22.7661 83.7748 22.7661C83.4632 22.7661 83.2103 22.8175 83.016 22.9203C82.8258 23.0189 82.6862 23.1452 82.5972 23.2995C82.5122 23.4537 82.4697 23.6165 82.4697 23.7879C82.4697 23.9165 82.4899 24.0321 82.5304 24.135C82.5749 24.2335 82.6518 24.3256 82.7611 24.4113C82.8703 24.4927 83.0241 24.5698 83.2224 24.6427C83.4207 24.7155 83.6736 24.7883 83.9812 24.8612C84.5194 24.9897 84.9625 25.144 85.3105 25.3239C85.6586 25.5039 85.9176 25.7245 86.0875 25.9859C86.2575 26.2472 86.3425 26.5643 86.3425 26.937C86.3425 27.2412 86.2818 27.5197 86.1604 27.7725C86.043 28.0253 85.871 28.2438 85.6444 28.428C85.4218 28.608 85.1547 28.7494 84.8431 28.8522C84.5356 28.9507 84.1896 29 83.8051 29C83.2265 29 82.7368 28.8907 82.3362 28.6722C81.9355 28.4537 81.632 28.171 81.4256 27.8239C81.2193 27.4769 81.1161 27.1105 81.1161 26.7249H82.2451C82.2613 27.0506 82.3503 27.3098 82.5122 27.5026C82.6741 27.6911 82.8724 27.826 83.1071 27.9075C83.3418 27.9846 83.5745 28.0231 83.8051 28.0231C84.1127 28.0231 84.3697 27.9803 84.5761 27.8946C84.7865 27.8089 84.9463 27.6911 85.0556 27.5411C85.1649 27.3912 85.2195 27.2198 85.2195 27.027Z" fill="#474747"/>
<path d="M100.105 21.2322L98.9689 22.1616C98.8971 22.2209 98.8072 22.2519 98.6993 22.2547C98.5914 22.2575 98.4984 22.2265 98.4203 22.1616C98.3484 22.1024 98.3125 22.0269 98.3125 21.9353C98.3125 21.8437 98.3484 21.7683 98.4203 21.7091L100.223 20.222C100.301 20.1573 100.393 20.125 100.497 20.125C100.602 20.125 100.693 20.1573 100.772 20.222L102.574 21.7091C102.646 21.7683 102.684 21.8425 102.687 21.9315C102.691 22.0205 102.653 22.0972 102.574 22.1616C102.503 22.2209 102.411 22.2505 102.3 22.2505C102.189 22.2505 102.098 22.2209 102.026 22.1616L100.889 21.2322V23.5517C100.889 23.6433 100.852 23.7201 100.776 23.7822C100.701 23.8443 100.608 23.8752 100.497 23.875C100.386 23.875 100.293 23.844 100.218 23.7819C100.143 23.7198 100.105 23.6431 100.105 23.5517V21.2322Z" fill="#474747"/>
</g>
<defs>
<filter id="filter0_d_4739_218785" x="0" y="0" width="127" height="44" filterUnits="userSpaceOnUse" color-interpolation-filters="sRGB">
<feFlood flood-opacity="0" result="BackgroundImageFix"/>
<feColorMatrix in="SourceAlpha" type="matrix" values="0 0 0 0 0 0 0 0 0 0 0 0 0 0 0 0 0 0 127 0" result="hardAlpha"/>
<feOffset dy="3"/>
<feGaussianBlur stdDeviation="2"/>
<feComposite in2="hardAlpha" operator="out"/>
<feColorMatrix type="matrix" values="0 0 0 0 0 0 0 0 0 0 0 0 0 0 0 0 0 0 0.25 0"/>
<feBlend mode="normal" in2="BackgroundImageFix" result="effect1_dropShadow_4739_218785"/>
<feBlend mode="normal" in="SourceGraphic" in2="effect1_dropShadow_4739_218785" result="shape"/>
</filter>
<clipPath id="clip0_4739_218785">
<rect width="20" height="21" fill="white" transform="translate(12 8)"/>
</clipPath>
</defs>
</svg>
