<svg width="24" height="24" viewBox="0 0 24 24" fill="none" xmlns="http://www.w3.org/2000/svg">
<g id="megaphone 1">
<g id="Group">
<g id="Group_2">
<path id="Vector" d="M21.894 9.96456L12.5337 0.602803C11.9816 0.0521139 11.0886 0.0586296 10.5438 0.602099C9.99583 1.15143 9.99583 2.04337 10.5438 2.59199L19.9055 11.9531C20.4539 12.5015 21.3456 12.5015 21.894 11.9531C22.444 11.4032 22.444 10.5144 21.894 9.96456Z" fill="#666666"/>
</g>
</g>
<g id="Group_3">
<g id="Group_4">
<path id="Vector_2" d="M9.84943 3.88623L9.77898 4.23939C9.28271 6.7218 8.07661 9.08013 6.44531 10.9916L11.5382 16.0844C13.4493 14.4534 15.7752 13.2149 18.2577 12.7181L18.6115 12.6476L9.84943 3.88623Z" fill="#666666"/>
</g>
</g>
<g id="Group_5">
<g id="Group_6">
<path id="Vector_3" d="M5.51278 12.0464L2.03216 15.5263C1.20974 16.3487 1.20632 17.6839 2.03216 18.5098L4.0207 20.4983C4.84312 21.3207 6.17831 21.3241 7.00416 20.4983L10.4844 17.018L5.51278 12.0464ZM6.00994 17.5155C5.7353 17.7902 5.29031 17.7902 5.01567 17.5155C4.74103 17.2409 4.74103 16.7959 5.01567 16.5213L6.00994 15.527C6.28458 15.2524 6.72956 15.2524 7.0042 15.527C7.27885 15.8016 7.27885 16.2466 7.0042 16.5213L6.00994 17.5155Z" fill="#666666"/>
</g>
</g>
<g id="Group_7">
<g id="Group_8">
<path id="Vector_4" d="M13.4197 20.8723L14.3762 19.9158C15.2021 19.0901 15.1993 17.7549 14.3762 16.9331L13.6658 16.2222C13.2731 16.4859 12.8981 16.7725 12.5335 17.0783L13.3819 17.928C13.6559 18.2006 13.6579 18.6443 13.3819 18.9216L12.4097 19.8939L10.9808 18.5095L8.99219 20.4982L12.1824 23.5894C12.7268 24.1352 13.6206 24.1383 14.1702 23.5887C14.7188 23.0401 14.7188 22.1482 14.1702 21.5995L13.4197 20.8723Z" fill="#666666"/>
</g>
</g>
<g id="Group_9">
<g id="Group_10">
<path id="Vector_5" d="M16.2578 0C15.8692 0 15.5547 0.314485 15.5547 0.703126V2.10938C15.5547 2.49802 15.8692 2.81251 16.2578 2.81251C16.6465 2.81251 16.9609 2.49802 16.9609 2.10938V0.703126C16.9609 0.314485 16.6465 0 16.2578 0Z" fill="#666666"/>
</g>
</g>
<g id="Group_11">
<g id="Group_12">
<path id="Vector_6" d="M21.8828 5.625H20.4766C20.0879 5.625 19.7734 5.93948 19.7734 6.32813C19.7734 6.71677 20.0879 7.03125 20.4766 7.03125H21.8828C22.2715 7.03125 22.5859 6.71677 22.5859 6.32813C22.5859 5.93948 22.2715 5.625 21.8828 5.625Z" fill="#666666"/>
</g>
</g>
<g id="Group_13">
<g id="Group_14">
<path id="Vector_7" d="M20.9737 1.61223C20.699 1.33759 20.2541 1.33759 19.9794 1.61223L18.5732 3.01848C18.2985 3.29312 18.2985 3.73811 18.5732 4.01275C18.8478 4.28739 19.2928 4.28744 19.5674 4.01275L20.9737 2.6065C21.2483 2.33186 21.2483 1.88687 20.9737 1.61223Z" fill="#666666"/>
</g>
</g>
</g>
</svg>
