<svg width="24" height="24" viewBox="0 0 24 24" fill="none" xmlns="http://www.w3.org/2000/svg">
<g id="megaphone 1">
<g id="Group">
<g id="Group_2">
<path id="Vector" d="M21.894 9.96462L12.5337 0.602864C11.9816 0.052175 11.0886 0.0586906 10.5438 0.60216C9.99583 1.15149 9.99583 2.04343 10.5438 2.59206L19.9055 11.9532C20.4539 12.5016 21.3456 12.5016 21.894 11.9532C22.444 11.4032 22.444 10.5145 21.894 9.96462Z" fill="white"/>
</g>
</g>
<g id="Group_3">
<g id="Group_4">
<path id="Vector_2" d="M9.84943 3.88617L9.77898 4.23933C9.28271 6.72174 8.07661 9.08007 6.44531 10.9915L11.5382 16.0843C13.4493 14.4534 15.7752 13.2149 18.2577 12.718L18.6115 12.6475L9.84943 3.88617Z" fill="white"/>
</g>
</g>
<g id="Group_5">
<g id="Group_6">
<path id="Vector_3" d="M5.51278 12.0464L2.03216 15.5263C1.20974 16.3487 1.20632 17.6839 2.03216 18.5098L4.0207 20.4983C4.84312 21.3207 6.17831 21.3241 7.00416 20.4983L10.4844 17.018L5.51278 12.0464ZM6.00994 17.5155C5.7353 17.7902 5.29031 17.7902 5.01567 17.5155C4.74103 17.2409 4.74103 16.7959 5.01567 16.5213L6.00994 15.527C6.28458 15.2524 6.72956 15.2524 7.0042 15.527C7.27885 15.8016 7.27885 16.2466 7.0042 16.5213L6.00994 17.5155Z" fill="white"/>
</g>
</g>
<g id="Group_7">
<g id="Group_8">
<path id="Vector_4" d="M13.4197 20.8724L14.3762 19.916C15.2021 19.0902 15.1993 17.755 14.3762 16.9332L13.6658 16.2223C13.2731 16.4861 12.8981 16.7726 12.5335 17.0785L13.3819 17.9282C13.6559 18.2007 13.6579 18.6444 13.3819 18.9217L12.4097 19.894L10.9808 18.5097L8.99219 20.4983L12.1824 23.5896C12.7268 24.1354 13.6206 24.1385 14.1702 23.5889C14.7188 23.0402 14.7188 22.1483 14.1702 21.5996L13.4197 20.8724Z" fill="white"/>
</g>
</g>
<g id="Group_9">
<g id="Group_10">
<path id="Vector_5" d="M16.2578 0C15.8692 0 15.5547 0.314485 15.5547 0.703126V2.10938C15.5547 2.49802 15.8692 2.81251 16.2578 2.81251C16.6465 2.81251 16.9609 2.49802 16.9609 2.10938V0.703126C16.9609 0.314485 16.6465 0 16.2578 0Z" fill="white"/>
</g>
</g>
<g id="Group_11">
<g id="Group_12">
<path id="Vector_6" d="M21.8828 5.625H20.4766C20.0879 5.625 19.7734 5.93948 19.7734 6.32813C19.7734 6.71677 20.0879 7.03125 20.4766 7.03125H21.8828C22.2715 7.03125 22.5859 6.71677 22.5859 6.32813C22.5859 5.93948 22.2715 5.625 21.8828 5.625Z" fill="white"/>
</g>
</g>
<g id="Group_13">
<g id="Group_14">
<path id="Vector_7" d="M20.9737 1.61223C20.699 1.33759 20.2541 1.33759 19.9794 1.61223L18.5732 3.01848C18.2985 3.29312 18.2985 3.73811 18.5732 4.01275C18.8478 4.28739 19.2928 4.28744 19.5674 4.01275L20.9737 2.6065C21.2483 2.33186 21.2483 1.88687 20.9737 1.61223Z" fill="white"/>
</g>
</g>
</g>
</svg>
