<svg width="22" height="22" viewBox="0 0 22 22" fill="none" xmlns="http://www.w3.org/2000/svg">
<g id="eva:edit-2-outline">
<g id="evaEdit2Outline0">
<g id="evaEdit2Outline1">
<path id="evaEdit2Outline2" d="M17.4179 18.3333H4.58458C4.34147 18.3333 4.10831 18.4299 3.9364 18.6018C3.76449 18.7737 3.66792 19.0069 3.66792 19.25C3.66792 19.4931 3.76449 19.7263 3.9364 19.8982C4.10831 20.0701 4.34147 20.1667 4.58458 20.1667H17.4179C17.661 20.1667 17.8942 20.0701 18.0661 19.8982C18.238 19.7263 18.3346 19.4931 18.3346 19.25C18.3346 19.0069 18.238 18.7737 18.0661 18.6018C17.8942 18.4299 17.661 18.3333 17.4179 18.3333ZM4.58458 16.5H4.66708L8.48958 16.1517C8.90831 16.11 9.29995 15.9255 9.59875 15.6292L17.8487 7.37918C18.169 7.0409 18.342 6.58948 18.33 6.12384C18.318 5.6582 18.1218 5.21631 17.7846 4.89501L15.2729 2.38335C14.9451 2.07543 14.5156 1.89876 14.066 1.88693C13.6164 1.8751 13.1781 2.02893 12.8346 2.31918L4.58458 10.5692C4.28828 10.868 4.10379 11.2596 4.06208 11.6783L3.66792 15.5008C3.65557 15.6351 3.67299 15.7704 3.71894 15.8972C3.76489 16.024 3.83823 16.139 3.93375 16.2342C4.0194 16.3191 4.12098 16.3864 4.23267 16.432C4.34435 16.4776 4.46394 16.5007 4.58458 16.5ZM13.9987 3.66668L16.5012 6.16918L14.6679 7.95668L12.2112 5.50001L13.9987 3.66668ZM5.84042 11.8342L11.0012 6.71001L13.4762 9.18501L8.34292 14.3183L5.59291 14.575L5.84042 11.8342Z" fill="#666666"/>
</g>
</g>
</g>
</svg>
