<svg width="24" height="24" viewBox="0 0 24 24" fill="none" xmlns="http://www.w3.org/2000/svg">
<g id="vuesax/bold/scanning">
<path id="Vector" d="M2 9.75C1.59 9.75 1.25 9.41 1.25 9V6.5C1.25 3.6 3.61 1.25 6.5 1.25H9C9.41 1.25 9.75 1.59 9.75 2C9.75 2.41 9.41 2.75 9 2.75H6.5C4.43 2.75 2.75 4.43 2.75 6.5V9C2.75 9.41 2.41 9.75 2 9.75Z" fill="#666666"/>
<path id="Vector_2" d="M22 9.75C21.59 9.75 21.25 9.41 21.25 9V6.5C21.25 4.43 19.57 2.75 17.5 2.75H15C14.59 2.75 14.25 2.41 14.25 2C14.25 1.59 14.59 1.25 15 1.25H17.5C20.39 1.25 22.75 3.6 22.75 6.5V9C22.75 9.41 22.41 9.75 22 9.75Z" fill="#666666"/>
<path id="Vector_3" d="M17.5 22.75H16C15.59 22.75 15.25 22.41 15.25 22C15.25 21.59 15.59 21.25 16 21.25H17.5C19.57 21.25 21.25 19.57 21.25 17.5V16C21.25 15.59 21.59 15.25 22 15.25C22.41 15.25 22.75 15.59 22.75 16V17.5C22.75 20.4 20.39 22.75 17.5 22.75Z" fill="#666666"/>
<path id="Vector_4" d="M9 22.75H6.5C3.61 22.75 1.25 20.4 1.25 17.5V15C1.25 14.59 1.59 14.25 2 14.25C2.41 14.25 2.75 14.59 2.75 15V17.5C2.75 19.57 4.43 21.25 6.5 21.25H9C9.41 21.25 9.75 21.59 9.75 22C9.75 22.41 9.41 22.75 9 22.75Z" fill="#666666"/>
<path id="Vector_5" d="M8.49719 11.38C10.0878 11.38 11.3772 10.0906 11.3772 8.5C11.3772 6.90942 10.0878 5.62 8.49719 5.62C6.90661 5.62 5.61719 6.90942 5.61719 8.5C5.61719 10.0906 6.90661 11.38 8.49719 11.38Z" fill="#666666"/>
<path id="Vector_6" d="M7.49719 18.38C8.53548 18.38 9.37719 17.5383 9.37719 16.5C9.37719 15.4617 8.53548 14.62 7.49719 14.62C6.45889 14.62 5.61719 15.4617 5.61719 16.5C5.61719 17.5383 6.45889 18.38 7.49719 18.38Z" fill="#666666"/>
<path id="Vector_7" d="M16.4972 9.38C17.5355 9.38 18.3772 8.53829 18.3772 7.5C18.3772 6.4617 17.5355 5.62 16.4972 5.62C15.4589 5.62 14.6172 6.4617 14.6172 7.5C14.6172 8.53829 15.4589 9.38 16.4972 9.38Z" fill="#666666"/>
<path id="Vector_8" d="M15.4972 18.38C17.0878 18.38 18.3772 17.0906 18.3772 15.5C18.3772 13.9094 17.0878 12.62 15.4972 12.62C13.9066 12.62 12.6172 13.9094 12.6172 15.5C12.6172 17.0906 13.9066 18.38 15.4972 18.38Z" fill="#666666"/>
</g>
</svg>
