<svg width="28" height="29" viewBox="0 0 28 29" fill="none" xmlns="http://www.w3.org/2000/svg">
<g id="teenyicons:search-outline">
<rect y="0.5" width="28" height="28" rx="14" fill="#EFF1FF"/>
<path id="Vector" d="M22 22L17.7143 17.7143M13.4286 19.8571C12.5844 19.8571 11.7484 19.6909 10.9685 19.3678C10.1885 19.0447 9.47983 18.5712 8.88288 17.9743C8.28594 17.3773 7.81241 16.6686 7.48935 15.8887C7.16628 15.1087 7 14.2728 7 13.4286C7 12.5844 7.16628 11.7484 7.48935 10.9685C7.81241 10.1885 8.28594 9.47983 8.88288 8.88288C9.47983 8.28594 10.1885 7.81241 10.9685 7.48935C11.7484 7.16628 12.5844 7 13.4286 7C15.1335 7 16.7687 7.67729 17.9743 8.88288C19.1798 10.0885 19.8571 11.7236 19.8571 13.4286C19.8571 15.1335 19.1798 16.7687 17.9743 17.9743C16.7687 19.1798 15.1335 19.8571 13.4286 19.8571Z" stroke="#4C5BD4"/>
</g>
</svg>
