<svg width="16" height="16" viewBox="0 0 16 16" fill="none" xmlns="http://www.w3.org/2000/svg">
<g id="Group 1000007278">
<path id="Vector" d="M7.99999 16C3.57446 16 0 12.4256 0 8.00003C0 3.57449 3.57446 0 7.99999 0C12.4255 0 16 3.57449 16 8.00003C16 12.4256 12.4255 16 7.99999 16ZM7.99999 1.02129C4.0851 1.02129 0.851063 4.2553 0.851063 8.1702C0.851063 12.0851 4.0851 15.3192 7.99999 15.3192C11.9149 15.3192 15.1489 12.0851 15.1489 8.1702C15.1489 4.08509 11.9149 1.02129 7.99999 1.02129Z" fill="#4C5BD4"/>
<path id="Union" fill-rule="evenodd" clip-rule="evenodd" d="M5.83793 10.8424C5.64267 11.0377 5.32608 11.0377 5.13082 10.8424C4.93556 10.6472 4.93556 10.3306 5.13082 10.1353L7.27949 7.98666L5.13082 5.83798C4.93556 5.64272 4.93556 5.32613 5.13082 5.13087C5.32608 4.93561 5.64267 4.93561 5.83793 5.13087L7.9866 7.27955L10.1353 5.13082C10.3306 4.93556 10.6472 4.93556 10.8424 5.13082C11.0377 5.32608 11.0377 5.64267 10.8424 5.83793L8.6937 7.98666L10.8424 10.1354C11.0377 10.3306 11.0377 10.6472 10.8424 10.8425C10.6472 11.0378 10.3306 11.0378 10.1353 10.8425L7.9866 8.69376L5.83793 10.8424Z" fill="#4C5BD4"/>
</g>
</svg>
