<svg width="27" height="27" viewBox="0 0 27 27" fill="none" xmlns="http://www.w3.org/2000/svg">
<g filter="url(#filter0_d_2862_104879)">
<path d="M20.2401 23.25H9.76005C6.96005 23.25 5.18005 21.58 5.02005 18.79L4.50005 10.54C4.42005 9.29 4.85005 8.09 5.71005 7.18C6.56005 6.27 7.76005 5.75 9.00005 5.75C9.32005 5.75 9.63005 5.56 9.78005 5.26L10.5001 3.83C11.0901 2.66 12.5701 1.75 13.8601 1.75H16.1501C17.4401 1.75 18.9101 2.66 19.5001 3.82L20.2201 5.28C20.3701 5.56 20.6701 5.75 21.0001 5.75C22.2401 5.75 23.4401 6.27 24.2901 7.18C25.1501 8.1 25.5801 9.29 25.5001 10.54L24.9801 18.8C24.8001 21.63 23.0701 23.25 20.2401 23.25ZM13.8601 3.25C13.1201 3.25 12.1801 3.83 11.8401 4.5L11.1201 5.94C10.7001 6.75 9.89005 7.25 9.00005 7.25C8.16005 7.25 7.38005 7.59 6.80005 8.2C6.23005 8.81 5.94005 9.61 6.00005 10.44L6.52005 18.7C6.64005 20.72 7.73005 21.75 9.76005 21.75H20.2401C22.2601 21.75 23.3501 20.72 23.4801 18.7L24.0001 10.44C24.0501 9.61 23.7701 8.81 23.2001 8.2C22.6201 7.59 21.8401 7.25 21.0001 7.25C20.1101 7.25 19.3001 6.75 18.8801 5.96L18.1501 4.5C17.8201 3.84 16.8801 3.26 16.1401 3.26H13.8601V3.25Z" fill="white"/>
<path d="M16.5 9.25H13.5C13.09 9.25 12.75 8.91 12.75 8.5C12.75 8.09 13.09 7.75 13.5 7.75H16.5C16.91 7.75 17.25 8.09 17.25 8.5C17.25 8.91 16.91 9.25 16.5 9.25Z" fill="white"/>
<path d="M15 19.25C12.79 19.25 11 17.46 11 15.25C11 13.04 12.79 11.25 15 11.25C17.21 11.25 19 13.04 19 15.25C19 17.46 17.21 19.25 15 19.25ZM15 12.75C13.62 12.75 12.5 13.87 12.5 15.25C12.5 16.63 13.62 17.75 15 17.75C16.38 17.75 17.5 16.63 17.5 15.25C17.5 13.87 16.38 12.75 15 12.75Z" fill="white"/>
</g>
<defs>
<filter id="filter0_d_2862_104879" x="-1" y="0.5" width="32" height="32" filterUnits="userSpaceOnUse" color-interpolation-filters="sRGB">
<feFlood flood-opacity="0" result="BackgroundImageFix"/>
<feColorMatrix in="SourceAlpha" type="matrix" values="0 0 0 0 0 0 0 0 0 0 0 0 0 0 0 0 0 0 127 0" result="hardAlpha"/>
<feOffset dy="4"/>
<feGaussianBlur stdDeviation="2"/>
<feComposite in2="hardAlpha" operator="out"/>
<feColorMatrix type="matrix" values="0 0 0 0 0 0 0 0 0 0 0 0 0 0 0 0 0 0 0.25 0"/>
<feBlend mode="normal" in2="BackgroundImageFix" result="effect1_dropShadow_2862_104879"/>
<feBlend mode="normal" in="SourceGraphic" in2="effect1_dropShadow_2862_104879" result="shape"/>
</filter>
</defs>
</svg>
