<svg width="36" height="36" viewBox="0 0 36 36" fill="none" xmlns="http://www.w3.org/2000/svg">
<g filter="url(#filter0_d_1406_64762)">
<rect x="4" y="2" width="28" height="28" rx="14" fill="white"/>
<path d="M22.1248 21.7724L18 17.6476L13.8752 21.7724C13.6564 21.9911 13.3597 22.1141 13.0503 22.1141C12.7408 22.1141 12.4441 21.9911 12.2253 21.7724C12.0065 21.5536 11.8836 21.2568 11.8836 20.9474C11.8836 20.638 12.0065 20.3412 12.2253 20.1224L16.3501 15.9977L12.2253 11.8729C12.0065 11.6541 11.8836 11.3573 11.8836 11.0479C11.8836 10.7385 12.0065 10.4417 12.2253 10.2229C12.4441 10.0042 12.7408 9.88124 13.0503 9.88124C13.3597 9.88124 13.6564 10.0042 13.8752 10.2229L18 14.3477L22.1248 10.2229C22.3436 10.0042 22.6403 9.88124 22.9497 9.88124C23.2592 9.88124 23.5559 10.0042 23.7747 10.2229C23.9935 10.4417 24.1164 10.7385 24.1164 11.0479C24.1164 11.3573 23.9935 11.6541 23.7747 11.8729L19.6499 15.9977L23.7747 20.1224C23.9935 20.3412 24.1164 20.638 24.1164 20.9474C24.1164 21.2568 23.9935 21.5536 23.7747 21.7724C23.5559 21.9911 23.2592 22.1141 22.9497 22.1141C22.6403 22.1141 22.3436 21.9912 22.1248 21.7724Z" fill="#474747"/>
</g>
<defs>
<filter id="filter0_d_1406_64762" x="0" y="0" width="36" height="36" filterUnits="userSpaceOnUse" color-interpolation-filters="sRGB">
<feFlood flood-opacity="0" result="BackgroundImageFix"/>
<feColorMatrix in="SourceAlpha" type="matrix" values="0 0 0 0 0 0 0 0 0 0 0 0 0 0 0 0 0 0 127 0" result="hardAlpha"/>
<feOffset dy="2"/>
<feGaussianBlur stdDeviation="2"/>
<feComposite in2="hardAlpha" operator="out"/>
<feColorMatrix type="matrix" values="0 0 0 0 0 0 0 0 0 0 0 0 0 0 0 0 0 0 0.25 0"/>
<feBlend mode="normal" in2="BackgroundImageFix" result="effect1_dropShadow_1406_64762"/>
<feBlend mode="normal" in="SourceGraphic" in2="effect1_dropShadow_1406_64762" result="shape"/>
</filter>
</defs>
</svg>
