<svg width="25" height="24" viewBox="0 0 25 24" fill="none" xmlns="http://www.w3.org/2000/svg">
<g id="Download_light">
<path id="Subtract" fill-rule="evenodd" clip-rule="evenodd" d="M9.75 11.2581C9.05098 11.7259 8.4902 12.3845 8.14222 13.1599L8.13958 13.1658L8.13954 13.1659C8.06018 13.3427 7.99715 13.4831 7.94674 13.5892C7.89966 13.6882 7.84798 13.7915 7.79007 13.8725C7.68286 14.0225 7.56039 14.1624 7.3923 14.2712C7.22421 14.38 7.04642 14.4345 6.86565 14.4709C6.71738 14.5007 6.52957 14.5006 6.30357 14.5004L6.25 14.5003C4.86929 14.5003 3.75 15.6196 3.75 17.0003C3.75 18.3811 4.86929 19.5003 6.25 19.5003H12.25H18.25C19.6307 19.5003 20.75 18.3811 20.75 17.0003C20.75 15.6196 19.6307 14.5003 18.25 14.5003L18.1964 14.5004C17.9704 14.5006 17.7826 14.5007 17.6344 14.4709C17.4536 14.4345 17.2758 14.38 17.1077 14.2712C16.9396 14.1624 16.8171 14.0225 16.7099 13.8725C16.652 13.7915 16.6003 13.6882 16.5533 13.5892C16.5029 13.4832 16.4399 13.3428 16.3605 13.166L16.3578 13.1599C16.0098 12.3845 15.449 11.7259 14.75 11.2581V10.1001C15.8632 10.6692 16.7566 11.6064 17.2701 12.7504C17.3527 12.9345 17.4113 13.0649 17.4564 13.1598C17.4787 13.2067 17.4955 13.2402 17.5083 13.2641C17.519 13.2839 17.5241 13.2918 17.5244 13.2922C17.5934 13.3886 17.6298 13.418 17.6511 13.4317C17.6724 13.4456 17.7144 13.4669 17.8317 13.4905C17.8672 13.4977 17.941 13.5003 18.25 13.5003C20.183 13.5003 21.75 15.0674 21.75 17.0003C21.75 18.9333 20.183 20.5003 18.25 20.5003H12.25H6.25C4.317 20.5003 2.75 18.9333 2.75 17.0003C2.75 15.0674 4.317 13.5003 6.25 13.5003C6.55904 13.5003 6.63281 13.4977 6.66833 13.4905C6.78559 13.4669 6.82756 13.4456 6.84892 13.4317C6.87018 13.418 6.90664 13.3886 6.97564 13.2922C6.97566 13.2922 6.97574 13.2921 6.97588 13.2918C6.97701 13.29 6.98211 13.2818 6.99167 13.2641C7.00451 13.2402 7.02128 13.2067 7.04362 13.1598C7.08874 13.0649 7.14728 12.9345 7.22989 12.7504C7.74336 11.6064 8.63683 10.6692 9.75 10.1001V11.2581Z" fill="#4C5BD4"/>
<path id="Vector 10" d="M12.25 3L11.8964 2.64645L12.25 2.29289L12.6036 2.64645L12.25 3ZM12.75 13C12.75 13.2761 12.5261 13.5 12.25 13.5C11.9739 13.5 11.75 13.2761 11.75 13L12.75 13ZM7.89645 6.64645L11.8964 2.64645L12.6036 3.35355L8.60355 7.35355L7.89645 6.64645ZM12.6036 2.64645L16.6036 6.64645L15.8964 7.35355L11.8964 3.35355L12.6036 2.64645ZM12.75 3L12.75 13L11.75 13L11.75 3L12.75 3Z" fill="#4C5BD4"/>
</g>
</svg>
