<svg width="26" height="25" viewBox="0 0 25 25" fill="none" xmlns="http://www.w3.org/2000/svg">
<g filter="url(#filter0_d_2862_104876)">
<path d="M25 9.5C25 4.5 23 2.5 18 2.5H12C7 2.5 5 4.5 5 9.5V15.5C5 20.5 7 22.5 12 22.5H18C23 22.5 25 20.5 25 15.5V13.47" stroke="white" stroke-width="1.5" stroke-linecap="round" stroke-linejoin="round"/>
<path d="M10 5.48994V2.93994" stroke="white" stroke-width="1.5" stroke-linecap="round" stroke-linejoin="round"/>
<path d="M20 2.93994V12.9199C20 14.8899 18.59 15.6599 16.86 14.6199L15.54 13.8299C15.24 13.6499 14.76 13.6499 14.46 13.8299L13.14 14.6199C11.41 15.6499 10 14.8899 10 12.9199V9.49994" stroke="white" stroke-width="1.5" stroke-linecap="round" stroke-linejoin="round"/>
</g>
<defs>
<filter id="filter0_d_2862_104876" x="-1" y="0.5" width="32" height="32" filterUnits="userSpaceOnUse" color-interpolation-filters="sRGB">
<feFlood flood-opacity="0" result="BackgroundImageFix"/>
<feColorMatrix in="SourceAlpha" type="matrix" values="0 0 0 0 0 0 0 0 0 0 0 0 0 0 0 0 0 0 127 0" result="hardAlpha"/>
<feOffset dy="4"/>
<feGaussianBlur stdDeviation="2"/>
<feComposite in2="hardAlpha" operator="out"/>
<feColorMatrix type="matrix" values="0 0 0 0 0 0 0 0 0 0 0 0 0 0 0 0 0 0 0.25 0"/>
<feBlend mode="normal" in2="BackgroundImageFix" result="effect1_dropShadow_2862_104876"/>
<feBlend mode="normal" in="SourceGraphic" in2="effect1_dropShadow_2862_104876" result="shape"/>
</filter>
</defs>
</svg>
