<svg width="20" height="21" viewBox="0 0 20 21" fill="none" xmlns="http://www.w3.org/2000/svg">
<g clip-path="url(#clip0_2862_104508)">
<path d="M1.66647 7.16662L1.66647 13.8333C1.66647 16.1903 1.66647 17.3688 2.3987 18.1011C3.13093 18.8333 4.30944 18.8333 6.66647 18.8333L7.4998 18.8333C9.85682 18.8333 11.0353 18.8333 11.7676 18.1011C12.4079 17.4607 12.4883 16.4791 12.4984 14.6666M12.4984 6.33329C12.4883 4.52077 12.4079 3.53918 11.7676 2.89886C11.0353 2.16663 9.85682 2.16663 7.4998 2.16663L6.66647 2.16663C4.30944 2.16663 3.13093 2.16663 2.3987 2.89886C2.14887 3.14869 1.98428 3.45047 1.87584 3.83329" stroke="#FFC700" stroke-width="1.5" stroke-linecap="round"/>
<path d="M18.3333 10.5L7.49998 10.5M7.49998 10.5L10.4166 8M7.49998 10.5L10.4166 13" stroke="#FFC700" stroke-width="1.5" stroke-linecap="round" stroke-linejoin="round"/>
</g>
<defs>
<clipPath id="clip0_2862_104508">
<rect x="20" y="0.5" width="20" height="20" rx="5" transform="rotate(90 20 0.5)" fill="white"/>
</clipPath>
</defs>
</svg>
