<svg width="20" height="20" viewBox="0 0 20 20" fill="none" xmlns="http://www.w3.org/2000/svg">
<path d="M2 4C2 3.46957 2.21071 2.96086 2.58579 2.58579C2.96086 2.21071 3.46957 2 4 2H10C10.5304 2 11.0391 2.21071 11.4142 2.58579C11.7893 2.96086 12 3.46957 12 4V5H16C16.5304 5 17.0391 5.21071 17.4142 5.58579C17.7893 5.96086 18 6.46957 18 7V17C18 17.2652 17.8946 17.5196 17.7071 17.7071C17.5196 17.8946 17.2652 18 17 18H3C2.73478 18 2.48043 17.8946 2.29289 17.7071C2.10536 17.5196 2 17.2652 2 17V4ZM12 17H14V15H12V17ZM15 17H17V7C17 6.73478 16.8946 6.48043 16.7071 6.29289C16.5196 6.10536 16.2652 6 16 6H10C9.73478 6 9.48043 6.10536 9.29289 6.29289C9.10536 6.48043 9 6.73478 9 7V17H11V15C11 14.7348 11.1054 14.4804 11.2929 14.2929C11.4804 14.1054 11.7348 14 12 14H14C14.2652 14 14.5196 14.1054 14.7071 14.2929C14.8946 14.4804 15 14.7348 15 15V17ZM11 4C11 3.73478 10.8946 3.48043 10.7071 3.29289C10.5196 3.10536 10.2652 3 10 3H4C3.73478 3 3.48043 3.10536 3.29289 3.29289C3.10536 3.48043 3 3.73478 3 4V17H8V7C8 6.46957 8.21071 5.96086 8.58579 5.58579C8.96086 5.21071 9.46957 5 10 5H11V4ZM12 8.75C12 8.94891 11.921 9.13968 11.7803 9.28033C11.6397 9.42098 11.4489 9.5 11.25 9.5C11.0511 9.5 10.8603 9.42098 10.7197 9.28033C10.579 9.13968 10.5 8.94891 10.5 8.75C10.5 8.55109 10.579 8.36032 10.7197 8.21967C10.8603 8.07902 11.0511 8 11.25 8C11.4489 8 11.6397 8.07902 11.7803 8.21967C11.921 8.36032 12 8.55109 12 8.75ZM5.25 9.5C5.44891 9.5 5.63968 9.42098 5.78033 9.28033C5.92098 9.13968 6 8.94891 6 8.75C6 8.55109 5.92098 8.36032 5.78033 8.21967C5.63968 8.07902 5.44891 8 5.25 8C5.05109 8 4.86032 8.07902 4.71967 8.21967C4.57902 8.36032 4.5 8.55109 4.5 8.75C4.5 8.94891 4.57902 9.13968 4.71967 9.28033C4.86032 9.42098 5.05109 9.5 5.25 9.5ZM6 5.75C6 5.94891 5.92098 6.13968 5.78033 6.28033C5.63968 6.42098 5.44891 6.5 5.25 6.5C5.05109 6.5 4.86032 6.42098 4.71967 6.28033C4.57902 6.13968 4.5 5.94891 4.5 5.75C4.5 5.55109 4.57902 5.36032 4.71967 5.21967C4.86032 5.07902 5.05109 5 5.25 5C5.44891 5 5.63968 5.07902 5.78033 5.21967C5.92098 5.36032 6 5.55109 6 5.75ZM11.25 12.5C11.3485 12.5 11.446 12.4806 11.537 12.4429C11.628 12.4052 11.7107 12.35 11.7803 12.2803C11.85 12.2107 11.9052 12.128 11.9429 12.037C11.9806 11.946 12 11.8485 12 11.75C12 11.6515 11.9806 11.554 11.9429 11.463C11.9052 11.372 11.85 11.2893 11.7803 11.2197C11.7107 11.15 11.628 11.0948 11.537 11.0571C11.446 11.0194 11.3485 11 11.25 11C11.0511 11 10.8603 11.079 10.7197 11.2197C10.579 11.3603 10.5 11.5511 10.5 11.75C10.5 11.9489 10.579 12.1397 10.7197 12.2803C10.8603 12.421 11.0511 12.5 11.25 12.5ZM6 14.75C6 14.9489 5.92098 15.1397 5.78033 15.2803C5.63968 15.421 5.44891 15.5 5.25 15.5C5.05109 15.5 4.86032 15.421 4.71967 15.2803C4.57902 15.1397 4.5 14.9489 4.5 14.75C4.5 14.5511 4.57902 14.3603 4.71967 14.2197C4.86032 14.079 5.05109 14 5.25 14C5.44891 14 5.63968 14.079 5.78033 14.2197C5.92098 14.3603 6 14.5511 6 14.75ZM5.25 12.5C5.34849 12.5 5.44602 12.4806 5.53701 12.4429C5.62801 12.4052 5.71069 12.35 5.78033 12.2803C5.84997 12.2107 5.90522 12.128 5.94291 12.037C5.9806 11.946 6 11.8485 6 11.75C6 11.6515 5.9806 11.554 5.94291 11.463C5.90522 11.372 5.84997 11.2893 5.78033 11.2197C5.71069 11.15 5.62801 11.0948 5.53701 11.0571C5.44602 11.0194 5.34849 11 5.25 11C5.05109 11 4.86032 11.079 4.71967 11.2197C4.57902 11.3603 4.5 11.5511 4.5 11.75C4.5 11.9489 4.57902 12.1397 4.71967 12.2803C4.86032 12.421 5.05109 12.5 5.25 12.5ZM15.5 8.75C15.5 8.94891 15.421 9.13968 15.2803 9.28033C15.1397 9.42098 14.9489 9.5 14.75 9.5C14.5511 9.5 14.3603 9.42098 14.2197 9.28033C14.079 9.13968 14 8.94891 14 8.75C14 8.55109 14.079 8.36032 14.2197 8.21967C14.3603 8.07902 14.5511 8 14.75 8C14.9489 8 15.1397 8.07902 15.2803 8.21967C15.421 8.36032 15.5 8.55109 15.5 8.75ZM14.75 12.5C14.8485 12.5 14.946 12.4806 15.037 12.4429C15.128 12.4052 15.2107 12.35 15.2803 12.2803C15.35 12.2107 15.4052 12.128 15.4429 12.037C15.4806 11.946 15.5 11.8485 15.5 11.75C15.5 11.6515 15.4806 11.554 15.4429 11.463C15.4052 11.372 15.35 11.2893 15.2803 11.2197C15.2107 11.15 15.128 11.0948 15.037 11.0571C14.946 11.0194 14.8485 11 14.75 11C14.5511 11 14.3603 11.079 14.2197 11.2197C14.079 11.3603 14 11.5511 14 11.75C14 11.9489 14.079 12.1397 14.2197 12.2803C14.3603 12.421 14.5511 12.5 14.75 12.5Z" fill="#666666"/>
</svg>
