<svg width="24" height="24" viewBox="0 0 24 24" fill="none" xmlns="http://www.w3.org/2000/svg">
<g filter="url(#filter0_d_2862_104854)">
<path d="M10.5629 15.3149C10.6439 15.3476 10.735 15.3478 10.8162 15.3155C10.8973 15.2832 10.9619 15.2211 10.9957 15.1427L11.4623 14.0596H13.2275L13.6941 15.1427C13.7644 15.3059 13.9583 15.3829 14.1269 15.3149C14.2956 15.2469 14.3753 15.0595 14.305 14.8964L12.6504 11.0564C12.599 10.9372 12.4785 10.8595 12.3449 10.8595C12.2114 10.8595 12.0909 10.9372 12.0395 11.0564L10.3849 14.8964C10.3511 14.9747 10.3509 15.0628 10.3842 15.1413C10.4176 15.2198 10.4819 15.2822 10.5629 15.3149ZM12.3449 12.0115L12.9515 13.4195H11.7383L12.3449 12.0115Z" fill="white" stroke="white" stroke-width="0.3"/>
<path fill-rule="evenodd" clip-rule="evenodd" d="M14.9923 14.6995C14.8095 14.6995 14.6614 14.8428 14.6614 15.0195C14.6614 15.1963 14.8095 15.3395 14.9923 15.3395H16.9779C17.1606 15.3395 17.3088 15.1963 17.3088 15.0195C17.3088 14.8428 17.1606 14.6995 16.9779 14.6995H16.316V11.4995H16.9779C17.1606 11.4995 17.3088 11.3562 17.3088 11.1795C17.3088 11.0028 17.1606 10.8595 16.9779 10.8595H14.9923C14.8095 10.8595 14.6614 11.0028 14.6614 11.1795C14.6614 11.3562 14.8095 11.4995 14.9923 11.4995H15.6542V14.6995H14.9923Z" fill="white" stroke="white" stroke-width="0.3"/>
<path d="M4.40278 17.58C4.40278 18.2869 4.99543 18.86 5.72646 18.86C5.89227 18.8594 6.05645 18.8283 6.21027 18.7685C6.99257 19.3477 8.09654 19.6498 9.45332 19.6498C9.65782 19.6498 9.8703 19.6405 10.0857 19.6271C11.0467 21.5259 12.4333 22.7 13.9995 22.7C15.5658 22.7 16.9524 21.5259 17.9137 19.628C18.1295 19.6414 18.3416 19.6507 18.5461 19.6507C19.9029 19.6507 21.0068 19.3486 21.7891 18.7694C21.9429 18.8289 22.107 18.8596 22.2726 18.86C22.8569 18.8584 23.3709 18.4866 23.5375 17.945C23.7042 17.4035 23.484 16.8204 22.9957 16.5102C23.042 15.4798 22.63 14.3105 21.7914 13.1C22.63 11.8898 23.042 10.7205 22.9957 9.68974C23.5678 9.33273 23.7654 8.61364 23.4521 8.02905C23.1389 7.44447 22.4173 7.186 21.7858 7.43213C20.8867 6.76686 19.559 6.47214 17.914 6.57582C16.9537 4.67537 15.5665 3.5 13.9996 3.5C12.4326 3.5 11.0454 4.67537 10.0841 6.57585C8.43972 6.4728 7.11271 6.76783 6.21226 7.43216C5.58114 7.18802 4.86144 7.44686 4.54869 8.03047C4.23593 8.61408 4.43222 9.33194 5.0024 9.68977C4.95674 10.7199 5.36906 11.8891 6.20763 13.1C5.36906 14.3106 4.95674 15.4799 5.00341 16.5103C4.62913 16.7458 4.4032 17.1482 4.40278 17.58ZM5.06464 17.58C5.06464 17.2266 5.36095 16.94 5.7265 16.94C6.09205 16.94 6.38836 17.2265 6.38836 17.58C6.38836 17.9335 6.09205 18.22 5.7265 18.22C5.55095 18.22 5.38261 18.1526 5.25849 18.0326C5.13437 17.9125 5.06464 17.7498 5.06464 17.58ZM10.4948 7.25041C11.3757 7.35242 12.2437 7.54081 13.0852 7.81266C12.4929 8.06829 11.9145 8.35303 11.3522 8.66579C10.7879 8.98069 10.2414 9.32432 9.71478 9.69522C9.88827 8.8568 10.1496 8.03762 10.4948 7.25041ZM18.284 9.69522C17.7576 9.32429 17.2111 8.98063 16.6469 8.66579C16.0855 8.3534 15.508 8.06867 14.9169 7.81266C15.7576 7.54094 16.6246 7.35257 17.5047 7.25041C17.8496 8.03765 18.1107 8.8568 18.284 9.69522ZM17.5044 18.9496C16.6234 18.8476 15.7554 18.6592 14.9139 18.3874C15.5062 18.1317 16.0847 17.847 16.6469 17.5342C17.2112 17.2193 17.7578 16.8757 18.2844 16.5048C18.1109 17.3432 17.8495 18.1624 17.5044 18.9496ZM16.316 9.22033C17.0623 9.63563 17.7757 10.1038 18.4505 10.621C18.5722 11.4421 18.633 12.2705 18.6325 13.1C18.6331 13.9295 18.5724 14.758 18.4508 15.5791C17.7759 16.0962 17.0624 16.5644 16.316 16.9797C15.5721 17.3958 14.7979 17.7592 13.9996 18.067C13.2012 17.759 12.427 17.3954 11.6831 16.979C10.9368 16.5637 10.2234 16.0956 9.54865 15.5784C9.3064 13.934 9.3064 12.2647 9.54865 10.6203C10.2234 10.1034 10.9369 9.63544 11.6831 9.2203C12.4277 8.80389 13.2025 8.44026 14.0016 8.13229C14.7992 8.44042 15.5728 8.80405 16.316 9.22033ZM19.1951 11.2258C19.8551 11.7908 20.4546 12.4187 20.9844 13.1C20.4553 13.7812 19.8566 14.4091 19.1974 14.9743C19.2624 14.3515 19.2948 13.726 19.2944 13.1C19.2946 12.4741 19.262 11.8485 19.1968 11.2258H19.1951ZM8.80407 14.9743C8.14387 14.4094 7.54438 13.7814 7.01475 13.1C7.54382 12.4188 8.1425 11.7909 8.80172 11.2258C8.67154 12.4721 8.67154 13.7279 8.80172 14.9743H8.80407ZM11.3542 17.5342C11.9156 17.8466 12.493 18.1314 13.0842 18.3874C12.2435 18.6591 11.3765 18.8475 10.4964 18.9496C10.1514 18.1624 9.89013 17.3432 9.71673 16.5048C10.2427 16.8757 10.7886 17.2193 11.3522 17.5342H11.3542ZM13.9996 22.06C12.7566 22.06 11.6272 21.1067 10.7942 19.5605C11.891 19.4102 12.9664 19.1392 13.9996 18.7528C15.0331 19.1393 16.109 19.4103 17.2062 19.5605C16.3716 21.1067 15.2425 22.06 13.9996 22.06ZM22.2727 18.22C21.9072 18.22 21.6108 17.9335 21.6108 17.58C21.6108 17.2265 21.9071 16.94 22.2727 16.94C22.6382 16.94 22.9345 17.2265 22.9345 17.58C22.9345 17.9335 22.6382 18.22 22.2727 18.22ZM22.3421 16.3067C22.3187 16.3067 22.2965 16.3 22.2726 16.3C21.5416 16.3 20.949 16.8731 20.949 17.58C20.9502 17.8662 21.0515 18.1435 21.2365 18.3669C20.5158 18.8267 19.4638 19.0453 18.2036 18.9995C18.6139 18.0083 18.9047 16.9747 19.0703 15.9192C19.9262 15.2527 20.7008 14.4941 21.3792 13.6581C21.9379 14.4425 22.2703 15.3568 22.3421 16.3067ZM22.9345 8.62C22.9345 8.97345 22.6382 9.26001 22.2726 9.26001C21.9071 9.26001 21.6108 8.97348 21.6108 8.62C21.6108 8.26651 21.9071 7.97999 22.2726 7.97999C22.6382 7.97999 22.9345 8.26655 22.9345 8.62ZM21.2365 7.83313C21.0516 8.05652 20.9502 8.33385 20.949 8.62C20.949 9.32693 21.5416 9.89999 22.2726 9.89999C22.2965 9.89999 22.3186 9.89454 22.3421 9.89328C22.2704 10.8433 21.938 11.7575 21.3792 12.5419C20.7007 11.7059 19.926 10.9472 19.07 10.2808C18.9042 9.22521 18.613 8.19159 18.2023 7.20049C19.4635 7.15442 20.5161 7.372 21.2365 7.83313ZM13.9996 4.14001C15.2425 4.14001 16.372 5.09329 17.2049 6.63953C16.1087 6.79 15.0338 7.06097 14.0012 7.44721C12.9677 7.06069 11.8918 6.78972 10.7946 6.63953C11.6275 5.09329 12.7566 4.14001 13.9996 4.14001ZM5.72646 7.98002C6.09198 7.98002 6.38832 8.26655 6.38832 8.62003C6.38832 8.97351 6.09201 9.26004 5.72646 9.26004C5.36091 9.26004 5.06461 8.97351 5.06461 8.62003C5.06461 8.26655 5.36095 7.98002 5.72646 7.98002ZM5.657 9.89328C5.68048 9.89328 5.70266 9.89999 5.7265 9.89999C6.45756 9.89999 7.05018 9.3269 7.05018 8.62C7.04894 8.33385 6.94759 8.05648 6.7626 7.83313C7.48302 7.3733 8.53502 7.15505 9.79552 7.20049C9.38525 8.19165 9.09441 9.22527 8.92884 10.2808C8.073 10.9472 7.29839 11.7057 6.61998 12.5416C6.06104 11.7574 5.72861 10.8432 5.657 9.89328ZM6.61998 13.6584C7.29871 14.4942 8.07352 15.2527 8.92949 15.9192C9.09526 16.9749 9.38629 18.0086 9.79685 18.9998C8.53736 19.0459 7.48468 18.8267 6.76394 18.3669C6.94844 18.1433 7.0493 17.866 7.05018 17.58C7.05018 16.8731 6.45753 16.3 5.7265 16.3C5.70266 16.3 5.68051 16.3058 5.657 16.3067C5.72874 15.3568 6.06114 14.4427 6.61998 13.6584Z" fill="white" stroke="white" stroke-width="0.4"/>
</g>
<defs>
<filter id="filter0_d_2862_104854" x="-2" y="0.5" width="32" height="32" filterUnits="userSpaceOnUse" color-interpolation-filters="sRGB">
<feFlood flood-opacity="0" result="BackgroundImageFix"/>
<feColorMatrix in="SourceAlpha" type="matrix" values="0 0 0 0 0 0 0 0 0 0 0 0 0 0 0 0 0 0 127 0" result="hardAlpha"/>
<feOffset dy="4"/>
<feGaussianBlur stdDeviation="2"/>
<feComposite in2="hardAlpha" operator="out"/>
<feColorMatrix type="matrix" values="0 0 0 0 0 0 0 0 0 0 0 0 0 0 0 0 0 0 0.25 0"/>
<feBlend mode="normal" in2="BackgroundImageFix" result="effect1_dropShadow_2862_104854"/>
<feBlend mode="normal" in="SourceGraphic" in2="effect1_dropShadow_2862_104854" result="shape"/>
</filter>
</defs>
</svg>
