<svg width="68" height="14" viewBox="0 0 68 14" fill="none" xmlns="http://www.w3.org/2000/svg">
<g id="Group">
<path id="Vector" d="M34.4353 2.93436H32.0949V8.63659H30.2833L30.2777 2.93436H27.958V1.47485H34.4339V2.93436H34.4353Z" fill="white"/>
<path id="Vector_2" d="M36.659 2.95356H35.6635L33.6406 1.37012H35.5075L36.659 2.95356ZM36.4823 8.63601H34.7618V3.31349H36.4823V8.63601Z" fill="white"/>
<path id="Vector_3" d="M45.2133 8.63502H43.5577V5.45232C43.5577 5.12535 43.5094 4.90649 43.4113 4.79442C43.2967 4.70213 43.0841 4.65467 42.772 4.65467L42.1327 4.66917V8.63502H40.4578V4.67049H39.0839V8.63502H37.4229V3.3125H42.888C43.6834 3.3125 44.2688 3.46808 44.6472 3.78054C45.0241 4.09301 45.2133 4.59534 45.2133 5.29015V8.63502Z" fill="white"/>
<path id="Vector_4" d="M54.5438 3.3125L52.0929 8.63502H50.4222L48.0928 3.3125H49.9403L51.3086 6.68637L52.7626 3.3125H54.5438Z" fill="white"/>
<path id="Vector_5" d="M56.5759 2.98153H54.8555V1.46533H56.5759V2.98153ZM56.5759 8.63629H54.8555V3.31378H56.5759V8.63629Z" fill="white"/>
<path id="Vector_6" d="M62.157 8.63073H59.9933C59.0875 8.63073 58.3999 8.40528 57.9304 7.95438C57.4568 7.51007 57.2207 6.84689 57.2207 5.9675C57.2207 5.10392 57.4568 4.44602 57.9304 3.99512C58.4068 3.54422 59.0944 3.31876 59.9933 3.31876H62.157V4.61478H60.1894C59.7158 4.61478 59.4051 4.67016 59.2532 4.78223C59.0986 4.90088 59.0213 5.08151 59.0213 5.3241H62.1557V6.62935H59.0213C59.0213 6.86271 59.0862 7.03938 59.2173 7.15673C59.3485 7.27538 59.6689 7.33471 60.1784 7.33471H62.1557V8.63073H62.157ZM61.9209 2.95356H60.9392L60.1287 2.27193L59.3029 2.95356H58.3322L59.4797 1.37012H60.7776L61.9209 2.95356ZM60.8439 10.6031H59.3941V9.12515H60.8439V10.6031Z" fill="white"/>
<path id="Vector_7" d="M67.3948 8.63067H65.3775C65.1289 8.63067 64.9039 8.61749 64.7037 8.59244C64.5062 8.56739 64.3212 8.53047 64.1499 8.48169C63.8407 8.37885 63.5562 8.21273 63.2939 7.982C63.1765 7.86994 63.0688 7.73546 62.9721 7.57856C62.8713 7.42826 62.7788 7.26478 62.696 7.08942C62.6283 6.91935 62.5772 6.74531 62.5399 6.56601C62.5068 6.39065 62.4902 6.19684 62.4902 5.98589C62.4902 5.58905 62.5593 5.21593 62.696 4.86786C62.8341 4.52507 63.0329 4.21656 63.2952 3.941C63.5327 3.73269 63.8186 3.57843 64.1513 3.4756C64.48 3.37012 64.8887 3.31738 65.3789 3.31738H67.3962V4.65164H65.7862C65.4507 4.65164 65.1828 4.67142 64.9812 4.70965C64.7837 4.75711 64.6291 4.83622 64.5186 4.94433C64.2908 5.1421 64.1762 5.49016 64.1762 5.98589C64.1762 6.26145 64.2259 6.49481 64.3267 6.68598C64.4137 6.87452 64.5518 7.03141 64.7395 7.15666L65.0668 7.26741C65.1579 7.2806 65.2491 7.28983 65.343 7.29642C65.4396 7.30301 65.5874 7.30565 65.7862 7.30565H67.3962V8.63067H67.3948Z" fill="white"/>
<path id="Vector_8" d="M6.08377 6.66934C6.08377 7.28373 5.87804 7.76496 5.46518 8.11434C5.04542 8.45977 4.46548 8.63249 3.724 8.63249H0V7.19671H3.08469C3.44646 7.19671 3.71019 7.1387 3.87451 7.024C4.03882 6.90534 4.12167 6.72208 4.12167 6.47158C4.12167 6.24085 4.04296 6.06022 3.88555 5.9297C3.72124 5.80445 3.45474 5.74248 3.08607 5.74248L0.568887 5.75171V4.31725H3.03913C3.41194 4.31725 3.67981 4.26188 3.84413 4.14981C4.00154 4.0417 4.08024 3.86239 4.08024 3.61189C4.08024 3.37457 4.00154 3.1979 3.84413 3.07924C3.76404 3.01464 3.65772 2.96849 3.52655 2.93949C3.38847 2.91444 3.22691 2.90125 3.03913 2.90125H0V1.4668H3.56797C4.39368 1.4668 5.01918 1.62501 5.44447 1.94143C5.86423 2.26181 6.07411 2.75886 6.07411 3.4339C6.07411 3.77274 5.9954 4.07334 5.83799 4.33571C5.67368 4.59808 5.46104 4.82881 5.19869 5.02657C5.48727 5.19665 5.69715 5.39969 5.82833 5.63569C5.99816 5.91256 6.08377 6.25667 6.08377 6.66934Z" fill="white"/>
<path id="Vector_9" d="M13.528 6.43417C13.528 7.18567 13.2421 7.75524 12.6719 8.14286C12.1016 8.53048 11.28 8.72297 10.2058 8.72297C8.93821 8.72297 8.00065 8.43159 7.3931 7.84885C6.7897 7.27005 6.4873 6.36165 6.4873 5.12233C6.4873 3.87113 6.81041 2.94823 7.458 2.35361C8.09593 1.76164 9.0901 1.46631 10.4419 1.46631H13.1386L13.1331 2.90076H10.4032C9.72526 2.90076 9.2337 3.02602 8.92855 3.2752C8.78494 3.39386 8.67586 3.54416 8.6013 3.7261C8.51707 3.9186 8.47565 4.13877 8.47565 4.38796H10.9114C11.7895 4.38796 12.4454 4.5554 12.879 4.88896C13.3112 5.22648 13.528 5.74067 13.528 6.43417ZM11.5797 6.51064C11.5797 6.27991 11.5175 6.10588 11.3933 5.98722C11.269 5.87911 11.0798 5.82373 10.8244 5.82373H8.48531C8.48531 6.31287 8.62891 6.68335 8.9175 6.93254C9.19918 7.18831 9.6507 7.3162 10.2707 7.3162C10.7443 7.3162 11.0784 7.25028 11.2773 7.11975C11.4803 6.98923 11.5797 6.78619 11.5797 6.51064Z" fill="white"/>
<path id="Vector_10" d="M20.3709 6.46234C20.3709 7.16243 20.1403 7.70035 19.6818 8.07479C19.2193 8.44658 18.5662 8.63117 17.7239 8.63117H13.7734V7.19671H17.3814C17.7363 7.19671 17.9876 7.1387 18.1312 7.02399C18.2693 6.91193 18.337 6.72471 18.337 6.46234C18.337 6.19338 18.2679 5.99957 18.1312 5.88223C17.9876 5.77016 17.7363 5.71479 17.3814 5.71479H13.7734V1.4668H20.0036L19.998 2.90125H15.6196V4.28824H18.0594C18.7678 4.28824 19.3339 4.47546 19.7606 4.8499C19.958 5.04503 20.1113 5.27443 20.219 5.5368C20.3198 5.80444 20.3709 6.11428 20.3709 6.46234Z" fill="white"/>
<path id="Vector_11" fill-rule="evenodd" clip-rule="evenodd" d="M21.2676 10.9013L24.025 8.52808L27.0269 9.36001C27.0269 9.36001 29.0069 10.1524 27.9009 11.4787C27.4024 11.9481 26.9302 12.3924 25.1876 11.9441C24.6933 11.7872 21.2676 10.9013 21.2676 10.9013Z" fill="white"/>
<path id="Vector_12" fill-rule="evenodd" clip-rule="evenodd" d="M5.29741 9.22257C5.32641 9.28586 5.35126 9.35046 5.38164 9.41374C5.43549 9.52581 5.49486 9.63392 5.55976 9.74072C5.72269 10.007 5.92015 10.2536 6.1466 10.4738C6.43104 10.7493 6.76105 10.9814 7.11868 11.162C7.5702 11.3914 8.06176 11.5404 8.56298 11.6248C9.22438 11.7368 9.90235 11.7408 10.5707 11.6801C11.4737 11.5984 12.3643 11.4019 13.2301 11.1475C15.7224 10.4144 18.0242 9.33464 19.9739 7.66286C20.0029 7.63781 20.0318 7.61276 20.0622 7.58771C21.4113 6.41563 23.0696 4.77022 22.8652 2.86772C22.7354 1.66531 21.2069 0.992907 20.1285 0.747678C19.6687 0.643522 19.7557 -0.0104213 20.2279 0.000126179C22.4054 0.0502267 24.6299 0.613198 25.3741 2.39572C25.3783 2.40627 25.3824 2.41682 25.3866 2.42868C25.573 3.0022 25.613 3.62318 25.5619 4.2178C25.4653 5.35429 25.0068 6.43672 24.3496 7.38204C23.2519 8.96284 21.6501 10.1824 19.9725 11.1646C18.5572 11.9939 17.0963 12.6386 15.5167 13.108C14.4037 13.4389 13.2701 13.7105 12.1144 13.8661C10.8206 14.0401 9.47293 14.0784 8.19707 13.7738C6.91294 13.4679 5.77655 12.7771 5.04749 11.7078C4.60287 11.0565 4.32395 10.3156 4.15688 9.55745C4.10717 9.33464 4.1693 9.03272 4.37366 8.88769C4.63463 8.70311 5.05577 8.86791 5.22561 9.09337C5.25461 9.13687 5.27808 9.17906 5.29741 9.22257Z" fill="white"/>
<path id="Vector_13" fill-rule="evenodd" clip-rule="evenodd" d="M6.12891 9.09708C6.12891 9.09708 9.95232 12.3998 16.5166 8.86108C15.7848 9.68642 7.61188 13.4611 6.12891 9.09708Z" fill="white"/>
</g>
</svg>
