<svg width="991" height="48" viewBox="0 0 991 48" fill="none" xmlns="http://www.w3.org/2000/svg">
<g clip-path="url(#clip0_6871_17812)">
<rect y="21" width="970" height="6" rx="3" fill="white"/>
<rect y="21" width="970" height="6" rx="3" fill="#4C5BD4"/>
<circle cx="3" cy="24" r="2" fill="white"/>
<circle cx="123.75" cy="24" r="2" fill="white"/>
<circle cx="244.5" cy="24" r="2" fill="white"/>
<circle cx="365.25" cy="24" r="2" fill="white"/>
<circle cx="486" cy="24" r="2" fill="white"/>
<circle cx="606.75" cy="24" r="2" fill="white"/>
<circle cx="727.5" cy="24" r="2" fill="white"/>
<circle cx="848.25" cy="24" r="2" fill="white"/>
<circle opacity="0.38" cx="968" cy="24" r="1" fill="white"/>
</g>
<circle cx="967" cy="24" r="20" fill="#4C5BD4" fill-opacity="0.15"/>
<rect width="20" height="20" rx="10" transform="matrix(-1 0 0 1 977 14)" fill="white"/>
<g filter="url(#filter0_dd_6871_17812)">
<path fill-rule="evenodd" clip-rule="evenodd" d="M967 34C972.523 34 977 29.5228 977 24C977 18.4772 972.523 14 967 14C961.477 14 957 18.4772 957 24C957 29.5228 961.477 34 967 34Z" fill="#4C5BD4"/>
</g>
<defs>
<filter id="filter0_dd_6871_17812" x="953" y="11" width="28" height="28" filterUnits="userSpaceOnUse" color-interpolation-filters="sRGB">
<feFlood flood-opacity="0" result="BackgroundImageFix"/>
<feColorMatrix in="SourceAlpha" type="matrix" values="0 0 0 0 0 0 0 0 0 0 0 0 0 0 0 0 0 0 127 0" result="hardAlpha"/>
<feMorphology radius="1" operator="dilate" in="SourceAlpha" result="effect1_dropShadow_6871_17812"/>
<feOffset dy="1"/>
<feGaussianBlur stdDeviation="1.5"/>
<feColorMatrix type="matrix" values="0 0 0 0 0 0 0 0 0 0 0 0 0 0 0 0 0 0 0.15 0"/>
<feBlend mode="normal" in2="BackgroundImageFix" result="effect1_dropShadow_6871_17812"/>
<feColorMatrix in="SourceAlpha" type="matrix" values="0 0 0 0 0 0 0 0 0 0 0 0 0 0 0 0 0 0 127 0" result="hardAlpha"/>
<feOffset dy="1"/>
<feGaussianBlur stdDeviation="1"/>
<feColorMatrix type="matrix" values="0 0 0 0 0 0 0 0 0 0 0 0 0 0 0 0 0 0 0.3 0"/>
<feBlend mode="normal" in2="effect1_dropShadow_6871_17812" result="effect2_dropShadow_6871_17812"/>
<feBlend mode="normal" in="SourceGraphic" in2="effect2_dropShadow_6871_17812" result="shape"/>
</filter>
<clipPath id="clip0_6871_17812">
<rect y="21" width="970" height="6" rx="3" fill="white"/>
</clipPath>
</defs>
</svg>
