<svg width="27" height="16" viewBox="0 0 27 16" fill="none" xmlns="http://www.w3.org/2000/svg">
<path d="M16.8203 10.1202C16.1901 10.0302 15.6499 10.5704 15.7399 11.2006L16.01 14.5319C16.1 15.1622 15.6498 15.4323 15.0196 15.1622L0.613956 6.87893C0.0737445 6.51879 0.0737224 6.15867 0.70397 5.88857L16.1 0.216331C16.7303 -0.0537755 17.0904 0.306367 16.9103 1.02665L16.1 4.35795C15.92 5.07823 16.3701 5.52842 17.0004 5.61845L25.7338 6.42878C26.364 6.51881 26.9043 7.05903 26.9042 7.77932L26.9043 9.76007C26.9043 10.4804 26.274 10.9305 25.6438 10.8405L16.8203 10.1202Z" fill="url(#paint0_linear_997_41483)"/>
<defs>
<linearGradient id="paint0_linear_997_41483" x1="7.74231" y1="14.0475" x2="20.7411" y2="1.04869" gradientUnits="userSpaceOnUse">
<stop stop-color="#47BEFF"/>
<stop offset="1" stop-color="#85DDFE"/>
</linearGradient>
</defs>
</svg>
