<svg width="91" height="90" viewBox="0 0 91 90" fill="none" xmlns="http://www.w3.org/2000/svg">
<g id="vip0 - employed">
<path id="Vector" d="M77.8435 35.1574C77.8458 33.7808 77.336 32.4525 76.4133 31.4309C75.9191 30.881 75.5849 30.2063 75.4471 29.4799C75.3092 28.7535 75.373 28.0033 75.6314 27.3106C76.1274 25.9831 76.1 24.5166 75.5548 23.2086C75.0095 21.9006 73.9872 20.8488 72.6952 20.2667C71.8992 19.916 71.2219 19.3423 70.7452 18.6148C70.2686 17.8873 70.0129 17.0372 70.0093 16.1674C69.9903 14.7507 69.4337 13.3942 68.4523 12.3723C67.4709 11.3504 66.1379 10.7396 64.7232 10.6634C63.9844 10.6236 63.2706 10.3821 62.6594 9.9651C62.0483 9.54808 61.5632 8.97151 61.2568 8.29806C60.6664 7.00294 59.6035 5.98229 58.2856 5.44486C56.9676 4.90742 55.4941 4.89382 54.1664 5.40681C53.3667 5.7222 52.4923 5.79705 51.6506 5.62217C50.8089 5.44728 50.0367 5.03029 49.4288 4.42244C48.4158 3.42278 47.0595 2.8475 45.6367 2.81404C44.2139 2.78059 42.832 3.2915 41.7732 4.24244C41.223 4.73667 40.548 5.07082 39.8214 5.20865C39.0948 5.34648 38.3444 5.28273 37.6514 5.02431C36.3241 4.5284 34.8579 4.55586 33.5501 5.10112C32.2423 5.64639 31.1908 6.66864 30.6089 7.96056C30.2589 8.75592 29.6861 9.43292 28.9597 9.9098C28.2333 10.3867 27.3843 10.643 26.5153 10.6479C25.0986 10.6669 23.7421 11.2234 22.7202 12.2048C21.6983 13.1862 21.0875 14.5192 21.0113 15.934C20.9723 16.6746 20.7305 17.3903 20.3124 18.0029C19.8943 18.6154 19.3159 19.1013 18.6403 19.4074C17.3452 19.9978 16.3246 21.0607 15.7871 22.3786C15.2497 23.6966 15.2361 25.1701 15.7491 26.4977C16.0645 27.2975 16.1393 28.1719 15.9645 29.0136C15.7896 29.8553 15.3726 30.6275 14.7647 31.2354C13.7651 32.2484 13.1898 33.6047 13.1563 35.0275C13.1229 36.4503 13.6338 37.8322 14.5847 38.891C15.079 39.4409 15.4131 40.1156 15.551 40.842C15.6888 41.5684 15.6251 42.3186 15.3666 43.0113C14.8706 44.3388 14.898 45.8053 15.4433 47.1133C15.9885 48.4214 17.0108 49.4731 18.3028 50.0553C19.0988 50.4059 19.7761 50.9796 20.2528 51.7071C20.7295 52.4347 20.9851 53.2847 20.9888 54.1545C21.0078 55.5712 21.5643 56.9277 22.5457 57.9496C23.5271 58.9715 24.8601 59.5823 26.2749 59.6585C27.0144 59.6961 27.7294 59.9359 28.3421 60.3517C28.9548 60.7675 29.4417 61.3435 29.7497 62.0168C30.3401 63.3119 31.4029 64.3326 32.7209 64.87C34.0389 65.4075 35.5124 65.4211 36.84 64.9081C37.6398 64.5927 38.5142 64.5178 39.3559 64.6927C40.1976 64.8676 40.9698 65.2846 41.5777 65.8924C42.5907 66.8921 43.947 67.4674 45.3698 67.5008C46.7926 67.5343 48.1745 67.0234 49.2333 66.0724C49.7835 65.5782 50.4585 65.2441 51.1851 65.1062C51.9116 64.9684 52.6621 65.0322 53.355 65.2906C54.6823 65.7865 56.1486 65.759 57.4564 65.2138C58.7642 64.6685 59.8156 63.6462 60.3975 62.3543C60.7482 61.5583 61.3219 60.8811 62.0494 60.4044C62.7769 59.9277 63.627 59.672 64.4967 59.6684C65.9134 59.6494 67.27 59.0929 68.2919 58.1115C69.3138 57.1301 69.9246 55.7971 70.0008 54.3823C70.0397 53.644 70.28 52.9304 70.6958 52.3191C71.1115 51.7078 71.6868 51.222 72.3591 50.9145C73.6542 50.3241 74.6749 49.2613 75.2123 47.9433C75.7497 46.6253 75.7633 45.1518 75.2503 43.8242C74.935 43.0244 74.8601 42.15 75.035 41.3083C75.2099 40.4666 75.6269 39.6944 76.2347 39.0865C77.2681 38.0402 77.8463 36.628 77.8435 35.1574Z" fill="#23E475"/>
<path id="Vector_2" d="M56.1552 13.3593C56.149 10.5932 55.961 7.83055 55.5927 5.08912C55.1045 5.13301 54.6241 5.24081 54.1639 5.40974C53.3642 5.72513 52.4898 5.79998 51.6481 5.6251C50.8064 5.45021 50.0342 5.03322 49.4263 4.42537C48.4133 3.42571 47.057 2.85043 45.6342 2.81697C44.2114 2.78352 42.8295 3.29443 41.7707 4.24537C41.2205 4.7396 40.5455 5.07375 39.8189 5.21158C39.0923 5.34941 38.3419 5.28566 37.6489 5.02724C36.3216 4.53133 34.8554 4.55878 33.5476 5.10405C32.2398 5.64932 31.1883 6.67157 30.6064 7.96349C30.256 8.75763 29.6833 9.43346 28.9575 9.90952C28.2317 10.3856 27.3837 10.6416 26.5157 10.6466C25.099 10.6656 23.7424 11.2221 22.7205 12.2035C21.6986 13.1849 21.0878 14.5179 21.0116 15.9327C20.9726 16.6733 20.7308 17.389 20.3127 18.0016C19.8946 18.6141 19.3162 19.1 18.6407 19.4061C17.3455 19.9965 16.3249 21.0594 15.7875 22.3773C15.25 23.6953 15.2364 25.1688 15.7494 26.4965C16.0648 27.2962 16.1396 28.1706 15.9648 29.0123C15.7899 29.854 15.3729 30.6262 14.765 31.2341C13.765 32.2469 13.1895 33.6035 13.1563 35.0265C13.1231 36.4495 13.6347 37.8314 14.5864 38.8897C15.0802 39.4399 15.4139 40.1147 15.5515 40.841C15.6891 41.5673 15.6252 42.3174 15.3669 43.0101C14.8709 44.3376 14.8983 45.804 15.4436 47.112C15.9889 48.4201 17.0111 49.4718 18.3032 50.054C19.0991 50.4046 19.7764 50.9784 20.2531 51.7059C20.7298 52.4334 20.9854 53.2834 20.9891 54.1532C21.0081 55.5699 21.5646 56.9264 22.546 57.9483C23.5274 58.9702 24.8604 59.5811 26.2752 59.6572C27.0147 59.6948 27.7297 59.9346 28.3424 60.3504C28.9551 60.7662 29.442 61.3422 29.75 62.0155C30.0227 62.6138 30.3993 63.159 30.8624 63.6257C38.7157 57.8089 45.0951 50.231 49.4878 41.501C53.8806 32.7709 56.1642 23.1322 56.1552 13.3593Z" fill="#9BF2C1"/>
<path id="Vector_3" d="M45.5 59.0625C58.7031 59.0625 69.4062 48.3593 69.4062 35.1562C69.4062 21.9532 58.7031 11.25 45.5 11.25C32.2969 11.25 21.5938 21.9532 21.5938 35.1562C21.5938 48.3593 32.2969 59.0625 45.5 59.0625Z" fill="#EBEBEB"/>
<path id="Vector_4" d="M45.4994 11.25C39.8461 11.2475 34.3749 13.2495 30.0584 16.9002C25.7419 20.5509 22.8595 25.6137 21.9235 31.1891C20.9876 36.7644 22.0587 42.4909 24.9466 47.351C27.8344 52.2111 32.3519 55.8899 37.6961 57.7336C49.4218 46.1029 56.0563 30.2966 56.1447 13.7813C52.8414 12.121 49.1964 11.2543 45.4994 11.25Z" fill="#F4F3F2"/>
<path id="Vector_5" d="M83.4688 60.4688L87.6875 64.6875L69.4062 68.9062L65.1875 87.1875L60.9688 82.9688L65.1875 64.6875L83.4688 60.4688Z" fill="#00AD48"/>
<path id="Vector_6" d="M60.9688 82.9688L65.1875 64.6875L83.4688 60.4688L73.3437 50.3438C73.036 50.568 72.7062 50.7603 72.3594 50.9175C71.6867 51.2245 71.111 51.7099 70.6948 52.321C70.2785 52.9321 70.0376 53.6456 69.9983 54.3839C69.9209 55.7996 69.3083 57.133 68.2844 58.1137C67.2605 59.0945 65.9021 59.6493 64.4844 59.6658C63.6146 59.6694 62.7646 59.9251 62.0371 60.4018C61.3095 60.8785 60.7358 61.5558 60.3852 62.3517C59.8033 63.6436 58.7518 64.6659 57.444 65.2112C56.1362 65.7564 54.67 65.7839 53.3427 65.288C52.6497 65.0295 51.8993 64.9658 51.1727 65.1036C50.4461 65.2415 49.7711 65.5756 49.2209 66.0698C48.2007 66.9912 46.8747 67.5009 45.5 67.5L60.9688 82.9688Z" fill="#1CCD66"/>
<path id="Vector_7" d="M30.0312 82.9688L25.8125 64.6875L7.53125 60.4688L3.3125 64.6875L21.5938 68.9062L25.8125 87.1875L30.0312 82.9688Z" fill="#00AD48"/>
<path id="Vector_8" d="M45.5 67.4999L30.0312 82.9687L25.8125 64.6874L7.53125 60.4687L18.0683 49.9316C18.147 49.9724 18.2258 50.0104 18.3059 50.0455C19.1019 50.3962 19.7792 50.9699 20.2559 51.6974C20.7326 52.4249 20.9882 53.275 20.9919 54.1448C21.0109 55.5615 21.5674 56.918 22.5488 57.9399C23.5302 58.9618 24.8632 59.5726 26.278 59.6488C27.0179 59.6877 27.733 59.929 28.3452 60.3463C28.9574 60.7636 29.4434 61.341 29.75 62.0155C30.3404 63.3107 31.4032 64.3313 32.7212 64.8688C34.0391 65.4062 35.5126 65.4198 36.8403 64.9068C37.64 64.5914 38.5145 64.5166 39.3562 64.6914C40.1978 64.8663 40.9701 65.2833 41.578 65.8912C42.6225 66.9229 44.0318 67.5009 45.5 67.4999Z" fill="#1CCD66"/>
<path id="Vector_9" d="M45.5 42.1875L55.3438 49.2188L52.5312 37.9688L60.9688 30.9375H49.7188L45.5 18.2812L41.2812 30.9375H30.0312L38.4688 37.9688L35.6562 49.2188L45.5 42.1875Z" fill="#1CCD66"/>
<path id="Vector_10" d="M49.7188 30.9375L45.5 18.2812L41.2812 30.9375H30.0312L38.4688 37.9688L35.6562 49.2188L45.5 42.1875L48.1072 44.0494C50.4456 39.9047 52.3004 35.5053 53.6352 30.9375H49.7188Z" fill="#00AD48"/>
<path id="Vector_11" d="M29.75 62.0156C29.443 61.343 28.9576 60.7673 28.3465 60.351C27.7354 59.9348 27.0219 59.6939 26.2836 59.6545C24.8659 59.5799 23.5298 58.9685 22.5466 57.9443C21.5635 56.9202 21.0071 55.5602 20.9905 54.1406C20.9868 53.2709 20.7312 52.4208 20.2545 51.6933C19.7778 50.9658 19.1005 50.392 18.3045 50.0414C18.2244 50.0062 18.1456 49.9683 18.0669 49.9275L7.53125 60.4687L25.8125 64.6875L26.2808 66.7153C27.853 65.7497 29.3778 64.7184 30.8553 63.6216C30.3951 63.1555 30.0209 62.6119 29.75 62.0156Z" fill="#23E475"/>
<path id="Vector_12" d="M25.8125 64.6875L7.53125 60.4688L3.3125 64.6875L21.5937 68.9062L21.6781 69.2705C23.2489 68.4787 24.7887 67.6322 26.2808 66.7153L25.8125 64.6875Z" fill="#61E99B"/>
</g>
</svg>
