<svg width="24" height="24" viewBox="0 0 24 24" fill="none" xmlns="http://www.w3.org/2000/svg">
<g id="vip1 - copper" clip-path="url(#clip0_5181_230200)">
<path id="Vector" d="M20.6248 9.37532C20.6254 9.00822 20.4895 8.65401 20.2435 8.38157C20.1117 8.23494 20.0225 8.05501 19.9858 7.86131C19.949 7.6676 19.966 7.46754 20.035 7.28282C20.1672 6.92882 20.1599 6.53777 20.0145 6.18896C19.8691 5.84015 19.5965 5.55969 19.252 5.40444C19.0397 5.31094 18.8591 5.15794 18.732 4.96394C18.6049 4.76993 18.5367 4.54325 18.5357 4.31132C18.5306 3.93353 18.3822 3.57178 18.1205 3.29928C17.8588 3.02678 17.5034 2.86388 17.1261 2.84357C16.9291 2.83297 16.7387 2.76856 16.5758 2.65736C16.4128 2.54615 16.2834 2.3924 16.2017 2.21282C16.0443 1.86745 15.7608 1.59528 15.4094 1.45196C15.0579 1.30865 14.665 1.30502 14.311 1.44182C14.0977 1.52592 13.8645 1.54588 13.6401 1.49924C13.4156 1.45261 13.2097 1.34141 13.0476 1.17932C12.7775 0.912743 12.4158 0.759333 12.0363 0.750412C11.6569 0.741491 11.2884 0.877733 11.0061 1.13132C10.8594 1.26311 10.6794 1.35222 10.4856 1.38897C10.2919 1.42573 10.0917 1.40873 9.90695 1.33982C9.55301 1.20757 9.16201 1.21489 8.81326 1.3603C8.46452 1.5057 8.18412 1.7783 8.02895 2.12282C7.93562 2.33491 7.78287 2.51545 7.58915 2.64261C7.39544 2.76978 7.16905 2.83814 6.93733 2.83944C6.55954 2.84451 6.19779 2.99291 5.92529 3.25462C5.65279 3.51633 5.4899 3.87179 5.46958 4.24907C5.45918 4.44657 5.39471 4.63741 5.28321 4.80076C5.17171 4.96411 5.01747 5.09368 4.83733 5.17532C4.49196 5.33275 4.21979 5.61617 4.07647 5.96763C3.93316 6.31909 3.92953 6.71202 4.06633 7.06607C4.15043 7.27932 4.17039 7.51251 4.12376 7.73696C4.07712 7.96141 3.96592 8.16734 3.80383 8.32944C3.53725 8.59957 3.38384 8.96126 3.37492 9.34067C3.366 9.72008 3.50224 10.0886 3.75583 10.3709C3.88763 10.5176 3.97674 10.6975 4.0135 10.8912C4.05026 11.0849 4.03325 11.285 3.96433 11.4697C3.83207 11.8237 3.83938 12.2147 3.98478 12.5636C4.13018 12.9124 4.40279 13.1928 4.74733 13.3481C4.95959 13.4416 5.1402 13.5946 5.26732 13.7886C5.39443 13.9826 5.4626 14.2093 5.46358 14.4412C5.46864 14.819 5.61705 15.1807 5.87876 15.4532C6.14047 15.7257 6.49593 15.8886 6.8732 15.9089C7.07041 15.919 7.26108 15.9829 7.42447 16.0938C7.58785 16.2047 7.71768 16.3583 7.79983 16.5378C7.95726 16.8832 8.24069 17.1554 8.59214 17.2987C8.9436 17.442 9.33653 17.4456 9.69058 17.3088C9.90384 17.2247 10.137 17.2048 10.3615 17.2514C10.5859 17.298 10.7919 17.4092 10.954 17.5713C11.2241 17.8379 11.5858 17.9913 11.9652 18.0002C12.3446 18.0091 12.7131 17.8729 12.9955 17.6193C13.1422 17.4875 13.3222 17.3984 13.5159 17.3617C13.7097 17.3249 13.9098 17.3419 14.0946 17.4108C14.4485 17.5431 14.8395 17.5357 15.1883 17.3903C15.537 17.2449 15.8174 16.9723 15.9726 16.6278C16.0661 16.4156 16.2191 16.2349 16.4131 16.1078C16.6071 15.9807 16.8338 15.9125 17.0657 15.9116C17.4435 15.9065 17.8052 15.7581 18.0777 15.4964C18.3502 15.2347 18.5131 14.8792 18.5335 14.5019C18.5438 14.3051 18.6079 14.1148 18.7188 13.9518C18.8296 13.7887 18.983 13.6592 19.1623 13.5772C19.5077 13.4198 19.7799 13.1363 19.9232 12.7849C20.0665 12.4334 20.0701 12.0405 19.9333 11.6864C19.8492 11.4732 19.8293 11.24 19.8759 11.0156C19.9225 10.7911 20.0337 10.5852 20.1958 10.4231C20.4714 10.1441 20.6256 9.76748 20.6248 9.37532Z" fill="#D7AD88"/>
<path id="Vector_2" d="M14.8413 3.56242C14.8396 2.82481 14.7895 2.0881 14.6913 1.35705C14.5611 1.36875 14.433 1.3975 14.3103 1.44255C14.097 1.52665 13.8638 1.54661 13.6394 1.49998C13.4149 1.45334 13.209 1.34214 13.0469 1.18005C12.7768 0.913475 12.4151 0.760065 12.0357 0.751144C11.6563 0.742224 11.2878 0.878465 11.0054 1.13205C10.8587 1.26384 10.6787 1.35295 10.485 1.38971C10.2912 1.42646 10.0911 1.40946 9.90629 1.34055C9.55234 1.2083 9.16134 1.21563 8.8126 1.36103C8.46385 1.50644 8.18346 1.77904 8.02829 2.12355C7.93483 2.33532 7.78213 2.51554 7.58857 2.64249C7.39502 2.76944 7.16888 2.8377 6.93741 2.83905C6.55963 2.84411 6.19787 2.99252 5.92537 3.25423C5.65287 3.51594 5.48998 3.8714 5.46966 4.24867C5.45926 4.44617 5.39479 4.63702 5.28329 4.80037C5.17179 4.96372 5.01755 5.09328 4.83741 5.17492C4.49205 5.33235 4.21987 5.61578 4.07656 5.96724C3.93324 6.3187 3.92961 6.71163 4.06641 7.06567C4.15051 7.27893 4.17048 7.51212 4.12384 7.73656C4.0772 7.96101 3.96601 8.16694 3.80391 8.32905C3.53722 8.59914 3.38377 8.96089 3.37492 9.34035C3.36606 9.71981 3.50248 10.0883 3.75629 10.3705C3.88795 10.5173 3.97695 10.6972 4.01363 10.8909C4.05032 11.0846 4.0333 11.2846 3.96441 11.4693C3.83215 11.8233 3.83946 12.2143 3.98486 12.5632C4.13026 12.912 4.40287 13.1924 4.74741 13.3477C4.95967 13.4412 5.14028 13.5942 5.2674 13.7882C5.39452 13.9822 5.46269 14.2089 5.46366 14.4408C5.46873 14.8186 5.61713 15.1803 5.87884 15.4528C6.14055 15.7253 6.49601 15.8882 6.87329 15.9085C7.07049 15.9186 7.26116 15.9825 7.42455 16.0934C7.58793 16.2043 7.71777 16.3579 7.79991 16.5374C7.87261 16.697 7.97304 16.8423 8.09654 16.9668C10.1908 15.4157 11.8919 13.3949 13.0633 11.0669C14.2347 8.73887 14.8437 6.16853 14.8413 3.56242Z" fill="#F1D5BD"/>
<path id="Vector_3" d="M12 15.75C15.5208 15.75 18.375 12.8958 18.375 9.375C18.375 5.85418 15.5208 3 12 3C8.47918 3 5.625 5.85418 5.625 9.375C5.625 12.8958 8.47918 15.75 12 15.75Z" fill="#E7E4DD"/>
<path id="Vector_4" d="M11.9998 3C10.4923 2.99933 9.03332 3.5332 7.88224 4.50671C6.73116 5.48023 5.96253 6.83033 5.71294 8.31708C5.46336 9.80383 5.74899 11.3309 6.51908 12.6269C7.28917 13.923 8.49383 14.904 9.91896 15.3956C13.0458 12.2941 14.815 8.0791 14.8386 3.675C13.9577 3.23226 12.9857 3.00114 11.9998 3Z" fill="#F4F3F2"/>
<path id="Vector_5" d="M22.125 16.125L23.25 17.25L18.375 18.375L17.25 23.25L16.125 22.125L17.25 17.25L22.125 16.125Z" fill="#7C5737"/>
<path id="Vector_6" d="M16.125 22.125L17.25 17.25L22.125 16.125L19.425 13.425C19.3429 13.4849 19.255 13.5361 19.1625 13.578C18.9831 13.6599 18.8296 13.7894 18.7186 13.9523C18.6076 14.1153 18.5434 14.3055 18.5329 14.5024C18.5123 14.8799 18.3489 15.2355 18.0758 15.497C17.8028 15.7586 17.4406 15.9065 17.0625 15.9109C16.8306 15.9119 16.6039 15.9801 16.4099 16.1072C16.2159 16.2343 16.0629 16.4149 15.9694 16.6272C15.8142 16.9717 15.5338 17.2443 15.1851 17.3897C14.8363 17.5351 14.4453 17.5424 14.0914 17.4102C13.9066 17.3413 13.7065 17.3243 13.5127 17.361C13.319 17.3978 13.139 17.4869 12.9922 17.6187C12.7202 17.8644 12.3666 18.0003 12 18L16.125 22.125Z" fill="#A87F5A"/>
<path id="Vector_7" d="M7.875 22.125L6.75 17.25L1.875 16.125L0.75 17.25L5.625 18.375L6.75 23.25L7.875 22.125Z" fill="#7C5737"/>
<path id="Vector_8" d="M12 18.0001L7.875 22.1251L6.75 17.2501L1.875 16.1251L4.68488 13.3152C4.70587 13.3261 4.72687 13.3362 4.74825 13.3456C4.96051 13.4391 5.14112 13.5921 5.26824 13.7861C5.39535 13.9801 5.46352 14.2067 5.4645 14.4387C5.46956 14.8165 5.61797 15.1782 5.87968 15.4507C6.14139 15.7232 6.49685 15.8861 6.87412 15.9064C7.07144 15.9168 7.26212 15.9811 7.42539 16.0924C7.58865 16.2037 7.71823 16.3577 7.8 16.5376C7.95743 16.8829 8.24086 17.1551 8.59231 17.2984C8.94377 17.4417 9.3367 17.4454 9.69075 17.3086C9.90401 17.2245 10.1372 17.2045 10.3616 17.2511C10.5861 17.2978 10.792 17.409 10.9541 17.5711C11.2327 17.8462 11.6085 18.0003 12 18.0001Z" fill="#A87F5A"/>
<path id="Vector_9" d="M12 11.25L14.625 13.125L13.875 10.125L16.125 8.25H13.125L12 4.875L10.875 8.25H7.875L10.125 10.125L9.375 13.125L12 11.25Z" fill="#D7AD88"/>
<path id="Vector_10" d="M13.125 8.25L12 4.875L10.875 8.25H7.875L10.125 10.125L9.375 13.125L12 11.25L12.6953 11.7465C13.3188 10.6413 13.8135 9.46808 14.1694 8.25H13.125Z" fill="#CBA482"/>
<path id="Vector_11" d="M7.8 16.5375C7.71813 16.3581 7.5887 16.2046 7.42573 16.0936C7.26277 15.9826 7.07252 15.9183 6.87562 15.9078C6.49757 15.888 6.14127 15.7249 5.8791 15.4518C5.61693 15.1787 5.46856 14.816 5.46412 14.4375C5.46315 14.2055 5.39498 13.9788 5.26786 13.7848C5.14075 13.5908 4.96013 13.4378 4.74787 13.3443C4.7265 13.335 4.7055 13.3248 4.6845 13.314L1.875 16.125L6.75 17.25L6.87487 17.7907C7.29412 17.5332 7.70075 17.2582 8.09475 16.9657C7.97203 16.8414 7.87225 16.6965 7.8 16.5375Z" fill="#CBA482"/>
<path id="Vector_12" d="M6.75 17.25L1.875 16.125L0.75 17.25L5.625 18.375L5.6475 18.4721C6.06638 18.261 6.477 18.0353 6.87488 17.7908L6.75 17.25Z" fill="#CBA482"/>
</g>
<defs>
<clipPath id="clip0_5181_230200">
<rect width="24" height="24" fill="white"/>
</clipPath>
</defs>
</svg>
