<svg width="24" height="24" viewBox="0 0 24 24" fill="none" xmlns="http://www.w3.org/2000/svg">
<g id="vip3 - gold" clip-path="url(#clip0_5009_228662)">
<g id="Group">
<path id="Vector" fill-rule="evenodd" clip-rule="evenodd" d="M0.314837 17.3512C-0.241101 17.9078 -0.0607724 18.5792 0.855728 18.6243L3.46601 18.9552C4.37027 19.0686 4.18995 19.1069 4.29785 19.9671L4.57376 22.3463C4.62021 23.2652 5.29085 23.4443 5.84543 22.8878L7.70037 21.0323L9.59899 19.1302C9.43371 19.0687 9.26435 18.9757 9.11135 18.8444L7.76454 15.4438L3.65173 14.0107L0.314837 17.3512Z" fill="#FF646F"/>
<path id="Vector_2" fill-rule="evenodd" clip-rule="evenodd" d="M6.13774 19.8712L4.47949 21.5313L4.57376 22.3462C4.62021 23.2651 5.29085 23.4442 5.84543 22.8877L7.70037 21.0322L9.59899 19.1301C9.43371 19.0686 9.26435 18.9756 9.11135 18.8443L8.03773 17.9692L6.13774 19.8712Z" fill="#FC2B3A"/>
<path id="Vector_3" fill-rule="evenodd" clip-rule="evenodd" d="M14.4004 19.1302L16.3004 21.0323L18.154 22.8878C18.7099 23.4443 19.3806 23.2652 19.427 22.3463L19.7015 19.967C19.8094 19.1069 19.6292 19.0687 20.5347 18.9551L23.1437 18.6242C24.0616 18.5791 24.2405 17.9077 23.6859 17.3512L20.3271 13.9888L15.8387 14.4441L14.4004 19.1302Z" fill="#FF646F"/>
<path id="Vector_4" fill-rule="evenodd" clip-rule="evenodd" d="M19.0456 15.5148L22.2623 18.7364L23.1433 18.6242C24.0613 18.5791 24.2402 17.9077 23.6856 17.3512L20.3268 13.9888L17.7793 14.2472L19.0456 15.5148Z" fill="#FC2B3A"/>
<path id="Vector_5" fill-rule="evenodd" clip-rule="evenodd" d="M12.706 0.969821L13.9558 1.56054L15.7261 1.67402C15.9774 1.69043 16.5252 1.87502 16.8653 2.35226L17.6985 3.45846L19.2119 4.3842C19.4277 4.51545 19.828 4.9339 19.9072 5.51642L20.1326 6.88381L21.045 8.40982C21.1747 8.62723 21.3346 9.18377 21.1351 9.73484L20.7008 11.053L20.8018 12.8279C20.8169 13.0809 20.7008 13.6483 20.2691 14.0449L19.2747 15.0075L18.5412 16.6279C18.4374 16.8576 18.0713 17.3074 17.5058 17.4551L16.1781 17.8448L14.7794 18.9374C14.58 19.0932 14.0487 19.3203 13.4777 19.1876L12.1227 18.9141L10.3784 19.2286C10.1299 19.2738 9.55343 19.2273 9.11084 18.8444L8.03721 17.9693L6.3462 17.4346C6.10578 17.3594 5.61813 17.049 5.40232 16.5034L4.85731 15.2291L3.60748 13.9669C3.42992 13.7864 3.14032 13.2846 3.20318 12.7008L3.31109 11.3183L2.78932 9.61863C2.71418 9.37662 2.69098 8.79682 3.01606 8.30867L3.75228 7.13543L4.07735 5.38652C4.12381 5.13767 4.37238 4.61393 4.88599 4.33362L6.08117 3.63626L7.17935 2.24013C7.33507 2.04185 7.7981 1.6932 8.38273 1.68499L9.76367 1.62481L11.3837 0.900071C11.6133 0.797509 12.1842 0.704556 12.706 0.969821Z" fill="#FFE287"/>
<path id="Vector_6" fill-rule="evenodd" clip-rule="evenodd" d="M11.9862 17.1489C15.9187 17.1489 19.1068 13.9575 19.1068 10.0193C19.1068 6.08264 15.9187 2.89111 11.9862 2.89111C8.05232 2.89111 4.86426 6.0826 4.86426 10.0193C4.86426 13.9574 8.05232 17.1489 11.9862 17.1489Z" fill="#FDB440"/>
<path id="Vector_7" fill-rule="evenodd" clip-rule="evenodd" d="M19.1072 10.0191C19.1072 6.79757 16.9723 4.07512 14.041 3.19312C15.4179 5.16351 16.2675 7.86688 16.2675 10.8519C16.2675 12.4681 16.0189 14.0023 15.5709 15.3821C15.4602 15.7253 15.3359 16.0589 15.2007 16.383C16.2443 15.8538 17.1403 15.0744 17.8096 14.124C18.6264 12.9645 19.1072 11.5479 19.1072 10.0191Z" fill="#FE9900"/>
<path id="Vector_8" fill-rule="evenodd" clip-rule="evenodd" d="M21.136 9.73482C21.3354 9.18375 21.1756 8.62721 21.0458 8.4098L20.1334 6.88379L19.908 5.51639C19.8288 4.93388 19.4286 4.51547 19.2128 4.38418L17.6993 3.45844L16.8661 2.35229C16.5259 1.87505 15.9782 1.69046 15.7269 1.67405L13.9566 1.56057L12.7068 0.969848C12.3107 0.768848 11.8859 0.772926 11.6045 0.833113C12.5224 1.3951 13.3488 2.2005 14.0413 3.19322C16.9726 4.07518 19.1075 6.79768 19.1075 10.0193C19.1075 11.548 18.6267 12.9646 17.8099 14.1241C17.1406 15.0745 16.2445 15.8539 15.2009 16.3831C15.0165 16.8234 14.8116 17.2459 14.5863 17.6438C14.2666 18.21 13.9088 18.7296 13.5168 19.1958C13.7872 19.2519 14.0481 19.2273 14.2653 19.1712C14.4962 19.111 14.6805 19.0154 14.7803 18.9374L16.179 17.8448L17.5067 17.4551C18.0722 17.3075 18.4382 16.8576 18.542 16.6279L19.2755 15.0075L20.2371 14.0749L20.2699 14.0448C20.7015 13.6483 20.8176 13.0808 20.8026 12.8279L20.7016 11.053L21.136 9.73482Z" fill="#FFD64D"/>
</g>
<path id="Vector_9" d="M12.125 12.05L14.75 13.925L14 10.925L16.25 9.05005H13.25L12.125 5.67505L11 9.05005H8L10.25 10.925L9.5 13.925L12.125 12.05Z" fill="#F7C21F"/>
<path id="Vector_10" d="M13.25 9.05005L12.125 5.67505L11 9.05005H8L10.25 10.925L9.5 13.925L12.125 12.05L12.8203 12.5465C13.4438 11.4413 13.9385 10.2681 14.2944 9.05005H13.25Z" fill="#FFE287"/>
</g>
<defs>
<clipPath id="clip0_5009_228662">
<rect width="24" height="24" fill="white"/>
</clipPath>
</defs>
</svg>
