<svg width="24" height="24" viewBox="0 0 24 24" fill="none" xmlns="http://www.w3.org/2000/svg">
<g id="vip4 - ruby">
<g id="Group">
<g id="Group_2">
<path id="Vector" d="M19.1705 4.74V19.2602C19.1705 19.3642 19.1502 19.4666 19.1124 19.5612C19.0739 19.6587 19.0166 19.7485 18.9422 19.8249L16.6051 22.162C16.5263 22.2408 16.4332 22.3018 16.3317 22.342C16.237 22.3798 16.1346 22.4001 16.0306 22.4001H7.96901C7.86501 22.4001 7.76263 22.3798 7.66798 22.342C7.56641 22.3018 7.47338 22.2408 7.39457 22.162L5.05701 19.8245C4.98307 19.7481 4.92579 19.6583 4.8872 19.5612C4.84941 19.4666 4.8291 19.3642 4.8291 19.2602V4.74C4.8291 4.636 4.84941 4.53363 4.8872 4.43897C4.92579 4.34147 4.98307 4.25169 5.05741 4.17532C5.06026 4.17207 5.06351 4.16882 5.06676 4.16557L7.39457 1.83816C7.47338 1.75935 7.56641 1.69841 7.66798 1.65819C7.76263 1.62041 7.86501 1.6001 7.96901 1.6001H16.0306C16.1346 1.6001 16.237 1.62041 16.3317 1.65819C16.4332 1.69841 16.5263 1.75935 16.6051 1.83816L18.9329 4.16557C18.9361 4.16882 18.9394 4.17207 18.9422 4.17532C19.0166 4.25169 19.0739 4.34147 19.1124 4.43897C19.1502 4.53363 19.1705 4.636 19.1705 4.74Z" fill="#F7A6C1"/>
<path id="Vector_2" d="M9.33948 19.614L7.61523 17.8899V6.11031L9.33948 4.38623H14.6605L16.3848 6.1104V17.8899L14.6605 19.614H9.33948Z" fill="#FC709B"/>
<path id="Vector_3" d="M8.42766 6.60818V17.3925L4.8872 19.5615C4.84941 19.4668 4.8291 19.3644 4.8291 19.2604V4.74024C4.8291 4.63624 4.84941 4.53387 4.8872 4.43921L8.42766 6.60818Z" fill="#E01152"/>
<path id="Vector_4" d="M16.3317 22.342C16.237 22.3798 16.1346 22.4001 16.0306 22.4001H7.969C7.865 22.4001 7.76263 22.3798 7.66797 22.342L9.83694 18.8015H14.1627L16.3317 22.342Z" fill="#FE255F"/>
<path id="Vector_5" d="M16.3317 1.65819L14.1627 5.19866H9.83694L7.66797 1.65819C7.76263 1.62041 7.865 1.6001 7.969 1.6001H16.0306C16.1346 1.6001 16.237 1.62041 16.3317 1.65819Z" fill="#FE255F"/>
<path id="Vector_6" d="M19.1709 15.7554V10.2966C19.1709 9.90399 18.8526 9.58569 18.46 9.58569C18.0673 9.58569 17.749 9.90399 17.749 10.2966V15.7554C17.749 16.148 18.0673 16.4663 18.46 16.4663C18.8526 16.4663 19.1709 16.148 19.1709 15.7554Z" fill="#FFC2D9"/>
<path id="Vector_7" d="M19.1709 13.932V11.1619C19.1709 10.7692 18.8526 10.4509 18.46 10.4509C18.0673 10.4509 17.749 10.7692 17.749 11.1619V13.932C17.749 14.3246 18.0673 14.6429 18.46 14.6429C18.8526 14.6429 19.1709 14.3246 19.1709 13.932Z" fill="#FFD2E3"/>
<path id="Vector_8" d="M6.25098 16.2482V7.8645C6.25098 7.47186 5.93268 7.15356 5.54004 7.15356C5.1474 7.15356 4.8291 7.47186 4.8291 7.8645V16.2482C4.8291 16.6409 5.1474 16.9592 5.54004 16.9592C5.93268 16.9592 6.25098 16.6409 6.25098 16.2482Z" fill="#FE255F"/>
<path id="Vector_9" d="M6.25098 13.2843V8.94653C6.25098 8.55389 5.93268 8.2356 5.54004 8.2356C5.1474 8.2356 4.8291 8.55389 4.8291 8.94653V13.2843C4.8291 13.6769 5.1474 13.9952 5.54004 13.9952C5.93268 13.9952 6.25098 13.6769 6.25098 13.2843Z" fill="#FC709B"/>
<path id="Vector_10" d="M6.25098 11.0463V10.0339C6.25098 9.64129 5.93268 9.323 5.54004 9.323C5.1474 9.323 4.8291 9.64129 4.8291 10.0339V11.0463C4.8291 11.4389 5.1474 11.7572 5.54004 11.7572C5.93268 11.7572 6.25098 11.4389 6.25098 11.0463Z" fill="#F7A6C1"/>
<path id="Vector_11" d="M9.83714 18.8015L8.42773 17.3921V6.60813L9.83714 5.19873H14.1628L15.5723 6.60813V17.3921L14.1628 18.8015H9.83714Z" fill="#FE255F"/>
</g>
<path id="Vector_12" d="M19.1128 4.43923L16.3849 6.11054L15.5724 6.6082L14.1631 5.19892L14.6607 4.38642L16.3321 1.65845C16.4336 1.69867 16.5266 1.7596 16.6055 1.83842L18.9426 4.17557C19.017 4.25195 19.0742 4.34173 19.1128 4.43923Z" fill="#FC709B"/>
<path id="Vector_13" d="M15.5724 6.60801L14.1631 5.19873L14.6607 4.38623L16.3849 6.11036L15.5724 6.60801Z" fill="#FE255F"/>
<path id="Vector_14" d="M9.83744 5.19892L8.42816 6.6082L4.8877 4.43923C4.92629 4.34173 4.98357 4.25195 5.05791 4.17557L7.39507 1.83842C7.47388 1.7596 7.56691 1.69867 7.66848 1.65845L9.83744 5.19892Z" fill="#C40047"/>
<path id="Vector_15" d="M19.1128 19.5613C19.0742 19.6588 19.017 19.7486 18.9426 19.825L16.6055 22.1621C16.5266 22.2409 16.4336 22.3019 16.3321 22.3421L14.6607 19.6141L14.1631 18.8016L15.5724 17.3923L16.3849 17.89L19.1128 19.5613Z" fill="#FC709B"/>
<path id="Vector_16" d="M9.83744 18.8016L7.66848 22.3421C7.56691 22.3019 7.47388 22.2409 7.39507 22.1621L5.05751 19.8246C4.98357 19.7482 4.92629 19.6584 4.8877 19.5613L8.42816 17.3923L9.83744 18.8016Z" fill="#C40047"/>
<path id="Vector_17" d="M15.572 6.60801V17.3923L14.1628 18.8016H9.83702L8.42773 17.3923V16.7155C11.6635 16.2195 14.1636 12.928 14.1636 8.9407C14.1636 7.58545 13.8747 6.31064 13.3665 5.19873H14.1628L15.572 6.60801Z" fill="#E01152"/>
<path id="Vector_18" d="M15.5724 13.6428V17.3925L14.1631 18.8018H9.8374L9.53027 18.4947C12.2668 18.0051 14.5276 16.1417 15.5724 13.6428Z" fill="#C40047"/>
<path id="Vector_19" d="M9.84961 12.1439V7.19707L10.4261 6.62061H11.6996C12.0923 6.62061 12.4106 6.30231 12.4106 5.90967C12.4106 5.51703 12.0923 5.19873 11.6996 5.19873H9.83702L8.42773 6.60801V12.1439C8.42773 12.5365 8.74603 12.8548 9.13867 12.8548C9.53131 12.8548 9.84961 12.5365 9.84961 12.1439Z" fill="#FC709B"/>
<path id="Vector_20" d="M9.84961 10.6076V7.67139C9.84961 7.27875 9.53131 6.96045 9.13867 6.96045C8.74603 6.96045 8.42773 7.27875 8.42773 7.67139V10.6076C8.42773 11.0002 8.74603 11.3185 9.13867 11.3185C9.53131 11.3185 9.84961 11.0002 9.84961 10.6076Z" fill="#F7A6C1"/>
<path id="Vector_21" d="M14.1628 18.8016L14.6604 19.6141H9.33936L7.61523 17.89V6.11036L9.33936 4.38623H14.6604L14.1628 5.19873H9.83701L8.42773 6.60801V17.3923L9.83701 18.8016H14.1628Z" fill="#FE255F"/>
<path id="Vector_22" d="M14.6609 19.614H9.33984L9.8375 18.8015H14.1633L14.6609 19.614Z" fill="#E01152"/>
<path id="Vector_23" d="M14.6609 4.38623L14.1633 5.19873H9.8375L9.33984 4.38623H14.6609Z" fill="#E01152"/>
<path id="Vector_24" d="M8.42773 6.60776V17.3921L7.61523 17.8897V6.11011L8.42773 6.60776Z" fill="#C40047"/>
<path id="Vector_25" d="M9.83702 5.19873L8.42773 6.60801L7.61523 6.11036L9.33936 4.38623L9.83702 5.19873Z" fill="#A80045"/>
<path id="Vector_26" d="M9.83702 18.8016L9.33936 19.6141L7.61523 17.89L8.42773 17.3923L9.83702 18.8016Z" fill="#A80045"/>
<path id="Vector_27" d="M15.5724 17.3923L16.3849 17.89L14.6607 19.6141L14.1631 18.8016L15.5724 17.3923Z" fill="#FE255F"/>
</g>
<g id="g3793">
<path id="path3795" d="M6.12655 4.39852L6.9883 3.96764L6.12655 3.53677C5.91909 3.43303 5.75695 3.25678 5.67079 3.04144L5.09427 1.60008L4.51771 3.04144C4.43155 3.25678 4.26937 3.43303 4.06195 3.53677L3.2002 3.96764L4.06195 4.39852C4.26937 4.50225 4.43155 4.6785 4.51771 4.89385L5.09427 6.33521L5.67079 4.89385C5.75695 4.6785 5.91909 4.50225 6.12655 4.39852Z" fill="#FFFDFE"/>
</g>
<g id="g3793_2">
<path id="path3795_2" d="M19.5772 20.2913L20.1596 20.0001L19.5772 19.7089C19.437 19.6388 19.3274 19.5197 19.2692 19.3742L18.8796 18.4001L18.49 19.3742C18.4318 19.5197 18.3221 19.6388 18.182 19.7089L17.5996 20.0001L18.182 20.2913C18.3221 20.3614 18.4318 20.4805 18.49 20.626L18.8796 21.6001L19.2692 20.626C19.3274 20.4805 19.437 20.3614 19.5772 20.2913Z" fill="#FFFDFE"/>
</g>
</g>
</svg>
