<svg width="24" height="24" viewBox="0 0 24 24" fill="none" xmlns="http://www.w3.org/2000/svg">
<g id="vip5 - diamond">
<g id="g3687">
<g id="g3689">
<path id="path3691" d="M4.42383 4.47123L8.21194 9.34839L12 4.47123H4.42383Z" fill="#B1E4F9"/>
</g>
<g id="g3693">
<path id="path3695" d="M19.5762 4.47123L15.7881 9.34839L12 4.47123H19.5762Z" fill="#B1E4F9"/>
</g>
<g id="g3697">
<path id="path3699" d="M19.5772 4.47123L15.7891 9.34839H23.6494L19.5772 4.47123Z" fill="#75CEF9"/>
</g>
<g id="g3701">
<path id="path3703" d="M11.999 4.47123L8.21094 9.34839H15.7872L11.999 4.47123Z" fill="#90D8F9"/>
</g>
<g id="g3705">
<path id="path3707" d="M4.42378 4.47123L0.351562 9.34839H8.21189L4.42378 4.47123Z" fill="#D3EFFB"/>
</g>
<g id="g3709">
<path id="path3711" d="M8.21094 9.34838L11.999 21.8965L15.7872 9.34838H8.21094Z" fill="#75CEF9"/>
</g>
<g id="g3713">
<path id="path3715" d="M12 21.8965L0.351562 9.34838H8.21189L12 21.8965Z" fill="#B1E4F9"/>
</g>
<g id="g3717">
<path id="path3719" d="M12 21.8965L23.6484 9.34838H15.7881L12 21.8965Z" fill="#6BBEF6"/>
</g>
<g id="g3721">
<g id="Clip path group">
<mask id="mask0_5009_229906" style="mask-type:luminance" maskUnits="userSpaceOnUse" x="0" y="0" width="24" height="24">
<g id="clipPath3727">
<path id="path3725" d="M0 1.90735e-06H24V24H0V1.90735e-06Z" fill="white"/>
</g>
</mask>
<g mask="url(#mask0_5009_229906)">
<g id="g3723">
<g id="g3729">
<path id="path3731" d="M19.6664 14.2398L20.3343 13.9058L19.6664 13.5719C19.5056 13.4916 19.3799 13.355 19.3132 13.1881L18.8664 12.071L18.4195 13.1881C18.3528 13.355 18.2271 13.4916 18.0663 13.5719L17.3984 13.9058L18.0663 14.2398C18.2271 14.3202 18.3528 14.4568 18.4195 14.6236L18.8664 15.7407L19.3132 14.6236C19.3799 14.4568 19.5056 14.3202 19.6664 14.2398Z" fill="#F6E781"/>
</g>
<g id="g3733">
<path id="path3735" d="M8.44373 18.1463L9.11156 17.8123L8.44373 17.4784C8.28295 17.3981 8.15728 17.2615 8.09048 17.0945L7.64367 15.9775L7.19686 17.0945C7.13011 17.2615 7.00439 17.3981 6.84366 17.4784L6.17578 17.8123L6.84366 18.1463C7.00439 18.2267 7.13011 18.3633 7.19686 18.5301L7.64367 19.6472L8.09048 18.5301C8.15728 18.3633 8.28295 18.2267 8.44373 18.1463Z" fill="#F6E781"/>
</g>
<g id="g3737">
<path id="path3739" d="M6.02402 4.90218L6.88577 4.4713L6.02402 4.04043C5.81655 3.9367 5.65441 3.76045 5.56825 3.5451L4.99173 2.10374L4.41517 3.5451C4.32902 3.76045 4.16683 3.9367 3.95941 4.04043L3.09766 4.4713L3.95941 4.90218C4.16683 5.00591 4.32902 5.18216 4.41517 5.39751L4.99173 6.83887L5.56825 5.39751C5.65441 5.18216 5.81655 5.00591 6.02402 4.90218Z" fill="#F6E781"/>
</g>
</g>
</g>
</g>
</g>
</g>
</g>
</svg>
