<svg width="24" height="24" viewBox="0 0 24 24" fill="none" xmlns="http://www.w3.org/2000/svg">
<g id="vip6 - super vip" clip-path="url(#clip0_5025_228731)">
<g id="g3687">
<g id="g3689">
<path id="path3691" d="M4.42383 0.721232L8.21194 5.59839L12 0.721232H4.42383Z" fill="#B1E4F9"/>
</g>
<g id="g3693">
<path id="path3695" d="M19.5762 0.721232L15.7881 5.59839L12 0.721232H19.5762Z" fill="#B1E4F9"/>
</g>
<g id="g3697">
<path id="path3699" d="M19.5772 0.721232L15.7891 5.59839H23.6494L19.5772 0.721232Z" fill="#75CEF9"/>
</g>
<g id="g3701">
<path id="path3703" d="M11.999 0.721232L8.21094 5.59839H15.7872L11.999 0.721232Z" fill="#90D8F9"/>
</g>
<g id="g3705">
<path id="path3707" d="M4.42378 0.721232L0.351562 5.59839H8.21189L4.42378 0.721232Z" fill="#D3EFFB"/>
</g>
<g id="g3709">
<path id="path3711" d="M8.21094 5.59837L11.999 18.1465L15.7872 5.59837H8.21094Z" fill="#75CEF9"/>
</g>
<g id="g3713">
<path id="path3715" d="M12 18.1465L0.351562 5.59837H8.21189L12 18.1465Z" fill="#B1E4F9"/>
</g>
<g id="g3717">
<path id="path3719" d="M12 18.1465L23.6484 5.59837H15.7881L12 18.1465Z" fill="#6BBEF6"/>
</g>
</g>
<g id="Group">
<path id="Vector" d="M0.351562 23.4583H7.26487V16.8291H0.351562L2.24564 20.1437L0.351562 23.4583Z" fill="#FEB237"/>
<path id="Vector_2" d="M4.89648 20.9031L7.26405 23.4582L7.26386 20.9031L4.89648 20.9031Z" fill="#ECA026"/>
<path id="Vector_3" d="M23.6477 23.4583H16.7344V16.8291H23.6477L21.7536 20.1437L23.6477 23.4583Z" fill="#FEB237"/>
<path id="Vector_4" d="M19.1019 20.9031L16.7344 23.4582V20.9031L19.1019 20.9031Z" fill="#ECA026"/>
<path id="Vector_5" d="M19.1019 14.2739H4.89648V20.9031H19.1019V14.2739Z" fill="#FFD15B"/>
<path id="Vector_6" d="M19.1022 14.2739H17.6816V20.9031H19.1022V14.2739Z" fill="#FFC344"/>
</g>
<g id="g3793">
<path id="path3795" d="M5.92636 11.0484L6.78811 10.6175L5.92636 10.1867C5.71889 10.0829 5.55675 9.90669 5.47059 9.69134L4.89408 8.24998L4.31752 9.69134C4.23136 9.90669 4.06917 10.0829 3.86175 10.1867L3 10.6175L3.86175 11.0484C4.06917 11.1522 4.23136 11.3284 4.31752 11.5437L4.89408 12.9851L5.47059 11.5437C5.55675 11.3284 5.71889 11.1522 5.92636 11.0484Z" fill="#FFBC51"/>
</g>
<g id="g3793_2">
<path id="path3795_2" d="M21.972 3.11375L22.7 2.74977L21.972 2.38579C21.7968 2.29816 21.6598 2.14928 21.587 1.96737L21.1 0.749787L20.613 1.96737C20.5402 2.14928 20.4032 2.29816 20.228 2.38579L19.5 2.74977L20.228 3.11375C20.4032 3.20138 20.5402 3.35027 20.613 3.53218L21.1 4.74976L21.587 3.53218C21.6598 3.35027 21.7968 3.20138 21.972 3.11375Z" fill="#FFBC51"/>
</g>
<g id="SUPER">
<path d="M7.91162 18.3551C7.91162 18.2909 7.90321 18.2339 7.8864 18.184C7.87079 18.134 7.84257 18.0884 7.80174 18.0471C7.76091 18.0057 7.70327 17.9658 7.62882 17.9273C7.55557 17.8873 7.46191 17.8467 7.34783 17.8053C7.22295 17.7597 7.10767 17.7091 7.002 17.6535C6.89753 17.5964 6.80627 17.5308 6.72821 17.4567C6.65016 17.3811 6.58952 17.2948 6.54629 17.1979C6.50306 17.0995 6.48145 16.9861 6.48145 16.8578C6.48145 16.7308 6.50366 16.6153 6.54809 16.5112C6.59372 16.4071 6.65797 16.3173 6.74082 16.2417C6.82488 16.1647 6.92395 16.1055 7.03802 16.0642C7.1521 16.0214 7.27819 16 7.41628 16C7.61081 16 7.77833 16.0428 7.91882 16.1283C8.06052 16.2139 8.16919 16.3287 8.24484 16.4727C8.32169 16.6168 8.36012 16.7758 8.36012 16.9497H7.91162C7.91162 16.8471 7.893 16.7565 7.85578 16.6781C7.81975 16.5982 7.76452 16.5355 7.69007 16.4898C7.61682 16.4442 7.52375 16.4214 7.41088 16.4214C7.304 16.4214 7.21514 16.4406 7.1443 16.4791C7.07345 16.5176 7.02061 16.5697 6.98579 16.6353C6.95096 16.7009 6.93355 16.775 6.93355 16.8578C6.93355 16.9162 6.94496 16.9697 6.96778 17.0182C6.99059 17.0652 7.02541 17.1094 7.07225 17.1508C7.11908 17.1907 7.17792 17.2285 7.24877 17.2642C7.31961 17.2998 7.40307 17.334 7.49914 17.3668C7.64443 17.4182 7.77112 17.4752 7.87919 17.538C7.98727 17.5993 8.07733 17.6692 8.14938 17.7476C8.22143 17.826 8.27546 17.9152 8.31149 18.015C8.34751 18.1134 8.36552 18.2253 8.36552 18.3508C8.36552 18.482 8.34331 18.6004 8.29888 18.7059C8.25445 18.81 8.19081 18.8991 8.10795 18.9733C8.02629 19.046 7.92783 19.1023 7.81255 19.1422C7.69847 19.1807 7.57119 19.2 7.43069 19.2C7.3046 19.2 7.18032 19.18 7.05784 19.1401C6.93655 19.1002 6.82608 19.0396 6.72641 18.9583C6.62674 18.8756 6.54749 18.7729 6.48865 18.6503C6.42981 18.5262 6.40039 18.3815 6.40039 18.216H6.8525C6.8525 18.3173 6.86691 18.4036 6.89573 18.4749C6.92575 18.5462 6.96718 18.6046 7.02001 18.6503C7.07285 18.6945 7.13409 18.7273 7.20374 18.7487C7.27458 18.7701 7.35024 18.7807 7.43069 18.7807C7.53636 18.7807 7.62462 18.7629 7.69547 18.7273C7.76752 18.6916 7.82156 18.6417 7.85758 18.5775C7.8936 18.5134 7.91162 18.4392 7.91162 18.3551Z" fill="#21AD81"/>
<path d="M10.237 16.0428H10.6873V18.1241C10.6873 18.3608 10.6441 18.559 10.5576 18.7187C10.4712 18.8784 10.3535 18.9989 10.2046 19.0802C10.0569 19.1601 9.89176 19.2 9.70924 19.2C9.52071 19.2 9.35259 19.1601 9.20489 19.0802C9.05719 18.9989 8.94071 18.8784 8.85546 18.7187C8.7714 18.559 8.72937 18.3608 8.72937 18.1241V16.0428H9.17968V18.1241C9.17968 18.2738 9.20129 18.3971 9.24452 18.4941C9.28775 18.5897 9.34899 18.6602 9.42825 18.7059C9.5075 18.7515 9.60116 18.7743 9.70924 18.7743C9.81731 18.7743 9.91037 18.7515 9.98843 18.7059C10.0677 18.6602 10.1289 18.5897 10.1722 18.4941C10.2154 18.3971 10.237 18.2738 10.237 18.1241V16.0428Z" fill="#21AD81"/>
<path d="M12.1751 17.9957H11.4924V17.5701H12.1751C12.294 17.5701 12.3901 17.5472 12.4633 17.5016C12.5366 17.456 12.59 17.3932 12.6236 17.3134C12.6584 17.2321 12.6758 17.1394 12.6758 17.0353C12.6758 16.9369 12.6584 16.8449 12.6236 16.7594C12.59 16.6724 12.5366 16.6025 12.4633 16.5497C12.3901 16.497 12.294 16.4706 12.1751 16.4706H11.6311V19.1572H11.179V16.0428H12.1751C12.378 16.0428 12.5504 16.0856 12.6921 16.1711C12.835 16.2553 12.9436 16.3722 13.0181 16.5219C13.0925 16.6702 13.1298 16.8399 13.1298 17.031C13.1298 17.2321 13.0925 17.4046 13.0181 17.5487C12.9436 17.6927 12.835 17.8032 12.6921 17.8802C12.5504 17.9572 12.378 17.9957 12.1751 17.9957Z" fill="#21AD81"/>
<path d="M15.2516 18.7316V19.1572H13.8593V18.7316H15.2516ZM13.9871 16.0428V19.1572H13.535V16.0428H13.9871ZM15.0697 17.3433V17.7626H13.8593V17.3433H15.0697ZM15.2426 16.0428V16.4706H13.8593V16.0428H15.2426Z" fill="#21AD81"/>
<path d="M15.6208 16.0428H16.5485C16.7478 16.0428 16.9177 16.0784 17.0582 16.1497C17.1987 16.221 17.3062 16.3266 17.3806 16.4663C17.4563 16.6046 17.4941 16.7758 17.4941 16.9797C17.4941 17.1351 17.4701 17.272 17.4221 17.3904C17.374 17.5087 17.3062 17.6086 17.2185 17.6898C17.1309 17.7697 17.0264 17.8317 16.9051 17.8759L16.7682 17.9551H15.9343L15.9307 17.5294H16.5557C16.6638 17.5294 16.7538 17.5066 16.8259 17.461C16.8979 17.4153 16.952 17.3533 16.988 17.2749C17.0252 17.195 17.0438 17.1052 17.0438 17.0053C17.0438 16.897 17.0258 16.8029 16.9898 16.723C16.955 16.6417 16.9009 16.5797 16.8277 16.5369C16.7544 16.4927 16.6614 16.4706 16.5485 16.4706H16.073V19.1572H15.6208V16.0428ZM17.1177 19.1572L16.5016 17.7583L16.9754 17.7562L17.6004 19.1294V19.1572H17.1177Z" fill="#21AD81"/>
</g>
</g>
<defs>
<clipPath id="clip0_5025_228731">
<rect width="24" height="24" fill="white"/>
</clipPath>
</defs>
</svg>
