<svg width="25" height="24" viewBox="0 0 25 24" fill="none" xmlns="http://www.w3.org/2000/svg">
<rect x="0.5" width="24" height="24" rx="12" fill="#EEF0FF"/>
<path d="M17.8867 10.2812C17.2305 7.39375 14.7117 6.09375 12.4992 6.09375C12.4992 6.09375 12.4992 6.09375 12.493 6.09375C10.2867 6.09375 7.76171 7.3875 7.10546 10.275C6.37421 13.5 8.34921 16.2312 10.1367 17.95C10.7992 18.5875 11.6492 18.9062 12.4992 18.9062C13.3492 18.9062 14.1992 18.5875 14.8555 17.95C16.643 16.2312 18.618 13.5062 17.8867 10.2812ZM12.4992 13.4125C11.4117 13.4125 10.5305 12.5313 10.5305 11.4438C10.5305 10.3563 11.4117 9.475 12.4992 9.475C13.5867 9.475 14.468 10.3563 14.468 11.4438C14.468 12.5313 13.5867 13.4125 12.4992 13.4125Z" fill="#4C5BD4"/>
</svg>
