<svg width="25" height="24" viewBox="0 0 25 24" fill="none" xmlns="http://www.w3.org/2000/svg">
<rect x="0.5" width="24" height="24" rx="12" fill="#EEF0FF"/>
<path d="M18.4087 8.52503C17.8561 7.88904 16.9329 7.57104 15.5937 7.57104H15.4377V7.54398C15.4377 6.40731 15.4377 5 12.9933 5H12.0051C9.56071 5 9.56071 6.41407 9.56071 7.54398V7.57781H9.40468C8.05896 7.57781 7.14231 7.89581 6.58972 8.5318C5.94611 9.27605 5.96561 10.2774 6.03063 10.9608L6.03713 11.0081L6.08088 11.4863C6.09435 11.6335 6.17211 11.7673 6.29458 11.8501C6.45105 11.9559 6.66757 12.0996 6.80425 12.1786C6.89527 12.2395 6.99278 12.2936 7.0903 12.3478C8.20198 12.9838 9.42419 13.41 10.6659 13.6198C10.7244 14.2558 10.9909 15 12.4147 15C13.8384 15 14.118 14.2625 14.1635 13.6062C15.4897 13.3829 16.7704 12.9026 17.9276 12.1989C17.9666 12.1786 17.9926 12.1583 18.0251 12.138C18.2634 11.9979 18.5099 11.8276 18.7384 11.6582C18.8482 11.5767 18.9175 11.4521 18.932 11.3161L18.9353 11.2855L18.9678 10.9675C18.9743 10.9269 18.9743 10.8931 18.9808 10.8457C19.0328 10.1624 19.0198 9.22869 18.4087 8.52503ZM13.2078 13.1597C13.2078 13.8769 13.2078 13.9851 12.4082 13.9851C11.6085 13.9851 11.6085 13.8566 11.6085 13.1664V12.3139H13.2078V13.1597ZM10.4904 7.57104V7.54398C10.4904 6.39378 10.4904 5.96752 12.0051 5.96752H12.9933C14.508 5.96752 14.508 6.40054 14.508 7.54398V7.57781H10.4904V7.57104Z" fill="#4C5BD4"/>
<path d="M18.1916 13.3903C18.5462 13.2236 18.9544 13.5043 18.9191 13.8946L18.7042 16.2724C18.5631 17.6227 18.0119 19 15.0543 19H9.93226C6.97466 19 6.42347 17.6227 6.28232 16.2792L6.07906 14.0335C6.04415 13.6477 6.4428 13.3673 6.79641 13.5254C7.56307 13.8682 8.71831 14.3598 9.50044 14.579C9.66409 14.6248 9.79665 14.7435 9.87432 14.8947C10.2981 15.7196 11.1675 16.1576 12.4059 16.1576C13.6321 16.1576 14.5117 15.7026 14.9373 14.8746C15.0151 14.7233 15.1481 14.6047 15.3118 14.5584C16.1455 14.3228 17.3839 13.7699 18.1916 13.3903Z" fill="#4C5BD4"/>
</svg>
