<svg width="35" height="35" viewBox="0 0 35 35" fill="none" xmlns="http://www.w3.org/2000/svg">
<path d="M28.5449 13.576L18.3496 23.6705C18.2282 23.7903 18.0967 23.875 17.9551 23.9245C17.8135 23.9748 17.6618 24 17.5 24C17.3382 24 17.1865 23.9748 17.0449 23.9245C16.9033 23.875 16.7718 23.7903 16.6504 23.6705L6.4248 13.576C6.1416 13.2965 6 12.947 6 12.5276C6 12.1083 6.15171 11.7488 6.45514 11.4493C6.75857 11.1498 7.11258 11 7.51715 11C7.92172 11 8.27573 11.1498 8.57916 11.4493L17.5 20.2558L26.4208 11.4493C26.704 11.1697 27.0528 11.03 27.4671 11.03C27.8822 11.03 28.2414 11.1797 28.5449 11.4793C28.8483 11.7788 29 12.1283 29 12.5276C29 12.927 28.8483 13.2765 28.5449 13.576Z" fill="white" fill-opacity="0.6"/>
</svg>
