<svg width="22" height="22" viewBox="0 0 22 22" fill="none" xmlns="http://www.w3.org/2000/svg">
<path d="M17.1875 4.125V2.40625C17.1875 2.31508 17.1513 2.22765 17.0868 2.16318C17.0224 2.09872 16.9349 2.0625 16.8438 2.0625H5.15625C5.06508 2.0625 4.97765 2.09872 4.91318 2.16318C4.84872 2.22765 4.8125 2.31508 4.8125 2.40625V4.125" fill="#4C5BD4"/>
<path d="M17.5312 4.8125H4.46875C3.83057 4.8125 3.21853 5.06602 2.76727 5.51727C2.31602 5.96853 2.0625 6.58057 2.0625 7.21875V16.1562C2.0625 16.2474 2.09872 16.3349 2.16318 16.3993C2.22765 16.4638 2.31508 16.5 2.40625 16.5H4.8125V19.5938C4.8125 19.6849 4.84872 19.7724 4.91318 19.8368C4.97765 19.9013 5.06508 19.9375 5.15625 19.9375H16.8438C16.9349 19.9375 17.0224 19.9013 17.0868 19.8368C17.1513 19.7724 17.1875 19.6849 17.1875 19.5938V16.5H19.5938C19.6849 16.5 19.7724 16.4638 19.8368 16.3993C19.9013 16.3349 19.9375 16.2474 19.9375 16.1562V7.21875C19.9375 6.58057 19.684 5.96853 19.2327 5.51727C18.7815 5.06602 18.1694 4.8125 17.5312 4.8125ZM15.4688 18.0469C15.4688 18.0925 15.4506 18.1362 15.4184 18.1684C15.3862 18.2006 15.3425 18.2188 15.2969 18.2188H6.70312C6.65754 18.2188 6.61382 18.2006 6.58159 18.1684C6.54936 18.1362 6.53125 18.0925 6.53125 18.0469V11.5156C6.53125 11.47 6.54936 11.4263 6.58159 11.3941C6.61382 11.3619 6.65754 11.3438 6.70312 11.3438H15.2969C15.3425 11.3438 15.3862 11.3619 15.4184 11.3941C15.4506 11.4263 15.4688 11.47 15.4688 11.5156V18.0469ZM16.9297 8.93406C16.7194 8.95097 16.5089 8.90295 16.3267 8.79647C16.1445 8.69 15.9994 8.53021 15.9109 8.33865C15.8224 8.14709 15.7948 7.933 15.8318 7.72526C15.8688 7.51752 15.9687 7.32613 16.1179 7.17692C16.2671 7.02772 16.4585 6.92787 16.6662 6.89086C16.8739 6.85385 17.088 6.88146 17.2796 6.96996C17.4711 7.05847 17.6309 7.2036 17.7374 7.38578C17.8439 7.56796 17.8919 7.77842 17.875 7.98875C17.8554 8.23292 17.7495 8.46212 17.5763 8.63533C17.4031 8.80854 17.1739 8.91444 16.9297 8.93406Z" fill="#4C5BD4"/>
</svg>
