<svg width="21" height="20" viewBox="0 0 21 20" fill="none" xmlns="http://www.w3.org/2000/svg">
<path d="M8.9375 4.0625V4.375H12.0625V4.0625C12.0625 3.6481 11.8979 3.25067 11.6049 2.95765C11.3118 2.66462 10.9144 2.5 10.5 2.5C10.0856 2.5 9.68817 2.66462 9.39515 2.95765C9.10212 3.25067 8.9375 3.6481 8.9375 4.0625ZM7.6875 4.375V4.0625C7.6875 3.31658 7.98382 2.60121 8.51126 2.07376C9.03871 1.54632 9.75408 1.25 10.5 1.25C11.2459 1.25 11.9613 1.54632 12.4887 2.07376C13.0162 2.60121 13.3125 3.31658 13.3125 4.0625V4.375H18C18.1658 4.375 18.3247 4.44085 18.4419 4.55806C18.5592 4.67527 18.625 4.83424 18.625 5C18.625 5.16576 18.5592 5.32473 18.4419 5.44194C18.3247 5.55915 18.1658 5.625 18 5.625H17.0575L15.875 15.98C15.7878 16.7426 15.423 17.4465 14.8501 17.9573C14.2772 18.4682 13.5363 18.7504 12.7687 18.75H8.23125C7.46366 18.7504 6.72279 18.4682 6.14991 17.9573C5.57702 17.4465 5.2122 16.7426 5.125 15.98L3.9425 5.625H3C2.83424 5.625 2.67527 5.55915 2.55806 5.44194C2.44085 5.32473 2.375 5.16576 2.375 5C2.375 4.83424 2.44085 4.67527 2.55806 4.55806C2.67527 4.44085 2.83424 4.375 3 4.375H7.6875ZM6.3675 15.8375C6.41968 16.2949 6.63835 16.7172 6.98183 17.0238C7.32531 17.3304 7.76959 17.4999 8.23 17.5H12.7694C13.2298 17.4999 13.6741 17.3304 14.0175 17.0238C14.361 16.7172 14.5797 16.2949 14.6319 15.8375L15.8 5.625H5.20062L6.3675 15.8375ZM8.625 7.8125C8.79076 7.8125 8.94973 7.87835 9.06694 7.99556C9.18415 8.11277 9.25 8.27174 9.25 8.4375V14.6875C9.25 14.8533 9.18415 15.0122 9.06694 15.1294C8.94973 15.2467 8.79076 15.3125 8.625 15.3125C8.45924 15.3125 8.30027 15.2467 8.18306 15.1294C8.06585 15.0122 8 14.8533 8 14.6875V8.4375C8 8.27174 8.06585 8.11277 8.18306 7.99556C8.30027 7.87835 8.45924 7.8125 8.625 7.8125ZM13 8.4375C13 8.27174 12.9342 8.11277 12.8169 7.99556C12.6997 7.87835 12.5408 7.8125 12.375 7.8125C12.2092 7.8125 12.0503 7.87835 11.9331 7.99556C11.8158 8.11277 11.75 8.27174 11.75 8.4375V14.6875C11.75 14.8533 11.8158 15.0122 11.9331 15.1294C12.0503 15.2467 12.2092 15.3125 12.375 15.3125C12.5408 15.3125 12.6997 15.2467 12.8169 15.1294C12.9342 15.0122 13 14.8533 13 14.6875V8.4375Z" fill="#4C5BD4"/>
</svg>
