<svg width="21" height="20" viewBox="0 0 21 20" fill="none" xmlns="http://www.w3.org/2000/svg">
<g clip-path="url(#clip0_1321_91052)">
<path d="M19.3174 4.62222L16.0563 1.34444C15.8408 1.13004 15.5492 1.00967 15.2452 1.00967C14.9412 1.00967 14.6496 1.13004 14.4341 1.34444L2.87299 12.8889L1.81743 17.4444C1.78102 17.611 1.78227 17.7835 1.82108 17.9495C1.8599 18.1155 1.93531 18.2707 2.0418 18.4038C2.14829 18.5369 2.28317 18.6446 2.43658 18.7189C2.59 18.7932 2.75808 18.8323 2.92854 18.8333C3.00797 18.8414 3.088 18.8414 3.16743 18.8333L7.77299 17.7778L19.3174 6.24444C19.5318 6.02895 19.6522 5.73732 19.6522 5.43333C19.6522 5.12934 19.5318 4.83772 19.3174 4.62222ZM7.21743 16.7778L2.90076 17.6833L3.8841 13.45L12.5341 4.83333L15.8674 8.16667L7.21743 16.7778ZM16.6119 7.36111L13.2785 4.02778L15.2119 2.10556L18.4897 5.43889L16.6119 7.36111Z" fill="#4C5BD4"/>
</g>
<defs>
<clipPath id="clip0_1321_91052">
<rect width="20" height="20" fill="white" transform="translate(0.5)"/>
</clipPath>
</defs>
</svg>
