<svg width="25" height="24" viewBox="0 0 25 24" fill="none" xmlns="http://www.w3.org/2000/svg">
<rect x="0.5" width="24" height="24" rx="12" fill="#EEF0FF"/>
<path d="M11.8367 6.84821L8.89174 5.31524C7.30294 4.49625 6 5.32924 6 7.16321V17.551C6 18.349 6.63153 19 7.40266 19H12.3352C12.7009 19 13 18.685 13 18.3V8.78718C13 8.05219 12.4748 7.17721 11.8367 6.84821ZM10.6534 13.2251H8.34663C8.07407 13.2251 7.84805 12.9871 7.84805 12.7001C7.84805 12.4131 8.07407 12.1751 8.34663 12.1751H10.6534C10.9259 12.1751 11.1519 12.4131 11.1519 12.7001C11.1519 12.9871 10.9326 13.2251 10.6534 13.2251ZM10.6534 10.4251H8.34663C8.07407 10.4251 7.84805 10.1872 7.84805 9.90016C7.84805 9.61316 8.07407 9.37517 8.34663 9.37517H10.6534C10.9259 9.37517 11.1519 9.61316 11.1519 9.90016C11.1519 10.1872 10.9326 10.4251 10.6534 10.4251Z" fill="#4C5BD4"/>
<path d="M19 16V17.1061C19 18.1515 18.3 19 17.4375 19H14.6063C14.2688 19 14 18.6742 14 18.2652V16.6288C14.6688 16.7273 15.375 16.4924 15.8813 16C16.3063 16.4167 16.85 16.6667 17.4438 16.6667C18.025 16.6667 18.5687 16.4167 19 16Z" fill="#4C5BD4"/>
<path d="M19 14.1555V14.1633C18.95 15.1828 18.2812 16 17.4438 16C16.575 16 15.8813 15.1205 15.8813 14.0543C15.8813 15.2451 15 16.2024 14 15.9611V11.7817C14 11.2836 14.3688 10.91 14.7625 11.019L15.8813 11.3303L16.1812 11.4159L17.4563 11.7739C17.7625 11.8518 18.0438 11.9841 18.2875 12.1786C18.2875 12.1864 18.2938 12.1864 18.2938 12.1864C18.3563 12.2409 18.4187 12.3032 18.475 12.3732C18.7625 12.7312 18.95 13.2527 18.9937 14.0154C18.9937 14.0621 19 14.1088 19 14.1555Z" fill="#4C5BD4"/>
</svg>
