<svg width="25" height="24" viewBox="0 0 25 24" fill="none" xmlns="http://www.w3.org/2000/svg">
<rect x="0.5" width="24" height="24" rx="12" fill="#EEF0FF"/>
<path d="M10 8C9.45333 8 9 7.77333 9 7.5V5.5C9 5.22667 9.45333 5 10 5C10.5467 5 11 5.22667 11 5.5V7.5C11 7.77333 10.5467 8 10 8Z" fill="#4C5BD4"/>
<path d="M15 8C14.4533 8 14 7.77333 14 7.5V5.5C14 5.22667 14.4533 5 15 5C15.5467 5 16 5.22667 16 5.5V7.5C16 7.77333 15.5467 8 15 8Z" fill="#4C5BD4"/>
<path d="M12.5 13C12.7889 13 13 12.805 13 12.4969C13 12.1824 12.7889 12 12.5 12C12.2111 12 12 12.1824 12 12.4969C12 12.805 12.2111 13 12.5 13Z" fill="#4C5BD4"/>
<path d="M12.5 15C12.7761 15 13 14.7761 13 14.5C13 14.2239 12.7761 14 12.5 14C12.2239 14 12 14.2239 12 14.5C12 14.7761 12.2239 15 12.5 15Z" fill="#4C5BD4"/>
<path d="M17.6795 6.7027C17.2279 6.35838 16.5779 6.68865 16.5779 7.27189V7.34216C16.5779 8.16432 16.0032 8.92324 15.2026 9.00757C14.2789 9.10595 13.4989 8.36108 13.4989 7.43351V6.7027C13.4989 6.31622 13.1911 6 12.8147 6H12.1853C11.8089 6 11.5011 6.31622 11.5011 6.7027V7.43351C11.5011 7.98865 11.2205 8.48054 10.7963 8.75459C10.7347 8.79676 10.6663 8.83189 10.5979 8.86703C10.5363 8.90216 10.4679 8.93027 10.3926 8.95135C10.3105 8.97946 10.2216 9.00054 10.1258 9.00757C10.0163 9.02162 9.90684 9.02162 9.79737 9.00757C9.70158 9.00054 9.61263 8.97946 9.53053 8.95135C9.46211 8.93027 9.39368 8.90216 9.32526 8.86703C9.25684 8.83189 9.18842 8.79676 9.12684 8.75459C8.69579 8.44541 8.42211 7.91135 8.42211 7.34216V7.27189C8.42211 6.73081 7.86105 6.40757 7.41632 6.63946C7.40947 6.64649 7.40263 6.64649 7.39579 6.65351C7.36842 6.66757 7.34789 6.68162 7.32053 6.7027C7.3 6.72378 7.27263 6.73784 7.25211 6.75892C7.06053 6.91351 6.88947 7.08919 6.74579 7.27892C6.67053 7.36324 6.60895 7.45459 6.55421 7.54595C6.54737 7.55297 6.54053 7.56 6.53368 7.57405C6.47211 7.66541 6.41737 7.77081 6.36947 7.86919C6.35579 7.88324 6.34895 7.89027 6.34895 7.90432C6.30789 7.98865 6.26684 8.07297 6.23947 8.16432C6.21895 8.19946 6.21211 8.22757 6.19842 8.2627C6.15737 8.36811 6.13 8.47351 6.10263 8.57892C6.07526 8.6773 6.05474 8.7827 6.04105 8.88811C6.02737 8.96541 6.02053 9.0427 6.01368 9.12703C6.00684 9.22541 6 9.32378 6 9.42216V15.5778C6 17.4681 7.49158 19 9.33211 19H15.6679C17.5084 19 19 17.4681 19 15.5778V9.42216C19 8.30486 18.48 7.32811 17.6795 6.7027ZM12.5 16.3649C11.4395 16.3649 10.7895 15.8238 10.7895 14.9524C10.7895 14.4746 11.0289 14.06 11.4463 13.8141C11.1453 13.5962 10.9468 13.273 10.9468 12.8303C10.9468 11.9168 11.6584 11.4459 12.5 11.4459C13.3416 11.4459 14.0463 11.9168 14.0463 12.8303C14.0463 13.273 13.8547 13.5962 13.5468 13.8141C13.9711 14.06 14.2105 14.4746 14.2105 14.9524C14.2105 15.8238 13.5537 16.3649 12.5 16.3649Z" fill="#4C5BD4"/>
</svg>
