<svg width="24" height="24" viewBox="0 0 24 24" fill="none" xmlns="http://www.w3.org/2000/svg">
<path d="M2.36762 7.24253C2.28059 7.03949 2.04544 6.94541 1.84239 7.03245C1.63934 7.11945 1.54528 7.35461 1.6323 7.55765L2.36762 7.24253ZM2.36762 7.24253C2.3678 7.24297 2.3682 7.24389 2.36875 7.24513C2.36986 7.24769 2.3717 7.25185 2.37426 7.25765C2.3794 7.26917 2.38747 7.28709 2.39849 7.31097C2.42054 7.35869 2.4544 7.43017 2.5003 7.52197C2.59215 7.70569 2.73204 7.97045 2.9218 8.28925C3.30177 8.92761 3.87923 9.77837 4.66808 10.6279C6.246 12.3272 8.6472 14.0001 12 14.0001M2.36762 7.24253C2.36752 7.24233 2.36762 7.24253 2.36762 7.24253ZM2.36762 7.24253C2.36766 7.24265 2.36762 7.24253 1.99996 7.40009C1.6323 7.55765 1.63238 7.55785 1.63246 7.55805C1.63251 7.55813 1.63261 7.55837 1.6327 7.55857C1.63288 7.55901 1.6331 7.55953 1.63337 7.56017C1.63392 7.56141 1.63464 7.56309 1.63556 7.56517C1.63739 7.56937 1.63996 7.57525 1.64328 7.58269C1.64993 7.59765 1.65956 7.61901 1.67222 7.64645C1.69754 7.70125 1.73497 7.78017 1.78476 7.87977C1.88432 8.07889 2.0335 8.36097 2.23436 8.69845C2.63564 9.37257 3.24568 10.2718 4.08184 11.1723C5.75392 12.973 8.35272 14.8001 12 14.8001M15.5872 13.7288L15.4406 13.3566M15.4406 13.3566C14.4313 13.7539 13.2875 14.0001 12 14.0001M15.4406 13.3566L15.7336 14.101M15.4406 13.3566C16.7516 12.8406 17.8421 12.0671 18.7262 11.2373M8.74804 13.9469C8.86852 13.7618 8.81608 13.514 8.63092 13.3935C8.44576 13.2731 8.198 13.3255 8.07748 13.5107M8.74804 13.9469L8.07748 13.5107M8.74804 13.9469L7.33524 16.1183M8.07748 13.5107L6.66468 15.6819M6.66468 15.6819C6.5442 15.8671 6.59664 16.1149 6.7818 16.2354C6.96696 16.3559 7.21476 16.3034 7.33524 16.1183M6.66468 15.6819L7.33524 16.1183M22.3676 7.55765C22.4546 7.35461 22.3606 7.11945 22.1575 7.03245C21.9545 6.94541 21.7193 7.03949 21.6323 7.24253M22.3676 7.55765L21.6323 7.24253M22.3676 7.55765C22.3676 7.55769 22.3675 7.55801 22.3674 7.55809C22.3674 7.55829 22.3672 7.55849 22.3672 7.55873C22.3669 7.55925 22.3667 7.55985 22.3663 7.56061C22.3657 7.56213 22.3648 7.56421 22.3637 7.56677C22.3614 7.57193 22.3582 7.57913 22.3541 7.58837C22.3458 7.60685 22.3338 7.63333 22.318 7.66729C22.2864 7.73513 22.2395 7.83273 22.177 7.95525C22.0521 8.20017 21.8646 8.54521 21.6114 8.95145C21.1059 9.76281 20.3349 10.8246 19.2737 11.8206M22.3676 7.55765C22.3676 7.55757 22.3676 7.55765 22 7.40009C21.6323 7.24253 21.6323 7.24261 21.6323 7.24253M21.6323 7.24253C21.6324 7.24249 21.6323 7.24249 21.6323 7.24253ZM21.6323 7.24253C21.632 7.24313 21.6314 7.24449 21.6307 7.24613C21.6293 7.24941 21.627 7.25477 21.6237 7.26209C21.6171 7.27673 21.6069 7.29933 21.593 7.32921C21.565 7.38905 21.5223 7.47817 21.4644 7.59177C21.3484 7.81909 21.172 8.14397 20.9324 8.52837C20.4526 9.29841 19.7236 10.3011 18.7262 11.2373M19 11.5289L18.7262 11.2373M18.7262 11.2373L19.2737 11.8206M20.2171 13.3118C20.3733 13.468 20.6266 13.468 20.7828 13.3118C20.939 13.1556 20.939 12.9023 20.7828 12.7461M20.2171 13.3118L20.7828 12.7461M20.2171 13.3118L18.7171 11.8118L19.2828 11.2461L20.7828 12.7461M11.6 16.9001C11.6 17.121 11.779 17.3001 12 17.3001C12.2209 17.3001 12.4 17.121 12.4 16.9001M11.6 16.9001H12.4M11.6 16.9001V14.4001H12.4V16.9001M16.6647 16.1183C16.7852 16.3034 17.033 16.3559 17.2181 16.2354C17.4033 16.1149 17.4557 15.8671 17.3352 15.6819M16.6647 16.1183L17.3352 15.6819M16.6647 16.1183L15.2519 13.9469L15.9224 13.5107L17.3352 15.6819M5.2828 11.8118C5.439 11.6556 5.439 11.4023 5.2828 11.2461C5.1266 11.0899 4.87332 11.0899 4.71712 11.2461M5.2828 11.8118L4.71712 11.2461M5.2828 11.8118L3.7828 13.3118M4.71712 11.2461L3.21711 12.7461M3.21711 12.7461C3.0609 12.9023 3.0609 13.1556 3.21711 13.3118C3.37332 13.468 3.62659 13.468 3.7828 13.3118M3.21711 12.7461L3.7828 13.3118M12 14.0001V14.8001M12 14.8001C13.3923 14.8001 14.6353 14.5333 15.7336 14.101M15.7336 14.101C17.1577 13.5405 18.3322 12.7043 19.2737 11.8206" stroke="#666666"/>
</svg>
