<svg width="20" height="21" viewBox="0 0 20 21" fill="none" xmlns="http://www.w3.org/2000/svg">
<g clip-path="url(#clip0_1754_12321)">
<path d="M5.5075 2.1775C6.75685 1.10017 8.3503 0.505173 10 0.5C13.3625 0.5 16.1538 3 16.4575 6.22375C18.4475 6.505 20 8.17125 20 10.2162C20 12.4612 18.1275 14.25 15.8588 14.25H12.5C12.3342 14.25 12.1753 14.1842 12.0581 14.0669C11.9408 13.9497 11.875 13.7908 11.875 13.625C11.875 13.4592 11.9408 13.3003 12.0581 13.1831C12.1753 13.0658 12.3342 13 12.5 13H15.86C17.4737 13 18.75 11.735 18.75 10.2162C18.75 8.69625 17.475 7.43125 15.8588 7.43125H15.2338V6.80625C15.235 4.03125 12.91 1.75 10 1.75C8.64985 1.75539 7.34605 2.24304 6.32375 3.125C5.3775 3.94 4.8825 4.9225 4.8825 5.69375V6.25375L4.32625 6.315C2.58 6.50625 1.25 7.94 1.25 9.6475C1.25 11.4812 2.7875 13 4.72625 13H7.5C7.66576 13 7.82473 13.0658 7.94194 13.1831C8.05915 13.3003 8.125 13.4592 8.125 13.625C8.125 13.7908 8.05915 13.9497 7.94194 14.0669C7.82473 14.1842 7.66576 14.25 7.5 14.25H4.72625C2.135 14.25 0 12.2075 0 9.6475C0 7.44375 1.5825 5.61875 3.6775 5.15625C3.85625 4.0775 4.55 3.0025 5.5075 2.1775Z" fill="#4C5BD4"/>
<path d="M9.55829 20.3175C9.61635 20.3757 9.68532 20.4219 9.76125 20.4534C9.83718 20.4849 9.91858 20.5011 10.0008 20.5011C10.083 20.5011 10.1644 20.4849 10.2403 20.4534C10.3163 20.4219 10.3852 20.3757 10.4433 20.3175L14.1933 16.5675C14.3106 16.4501 14.3766 16.291 14.3766 16.125C14.3766 15.959 14.3106 15.7999 14.1933 15.6825C14.0759 15.5651 13.9168 15.4992 13.7508 15.4992C13.5848 15.4992 13.4256 15.5651 13.3083 15.6825L10.6258 18.3663V7.375C10.6258 7.20924 10.5599 7.05027 10.4427 6.93306C10.3255 6.81585 10.1665 6.75 10.0008 6.75C9.83503 6.75 9.67606 6.81585 9.55885 6.93306C9.44164 7.05027 9.37579 7.20924 9.37579 7.375V18.3663L6.69329 15.6825C6.57593 15.5651 6.41676 15.4992 6.25079 15.4992C6.08482 15.4992 5.92565 15.5651 5.80829 15.6825C5.69093 15.7999 5.625 15.959 5.625 16.125C5.625 16.291 5.69093 16.4501 5.80829 16.5675L9.55829 20.3175Z" fill="#4C5BD4"/>
</g>
<defs>
<clipPath id="clip0_1754_12321">
<rect width="20" height="20" fill="white" transform="translate(0 0.5)"/>
</clipPath>
</defs>
</svg>
