<svg width="25" height="24" viewBox="0 0 25 24" fill="none" xmlns="http://www.w3.org/2000/svg">
<rect x="0.5" width="24" height="24" rx="12" fill="#EEF0FF"/>
<path d="M15 12.5V15.5C15 18 14.1 19 11.85 19H9.15C6.9 19 6 18 6 15.5V12.5C6 10 6.9 9 9.15 9H11.85C14.1 9 15 10 15 12.5Z" fill="#4C5BD4"/>
<path d="M15.8477 6H13.1458C11.3269 6 10.3938 6.21867 10.102 7.49439C9.97788 8.03728 10.455 8.5 11.0119 8.5H12C14.7019 8.5 15.9442 10.3102 15.9442 13.0122V13.9881C15.9442 14.545 16.4047 15.0136 16.9513 14.9073C18.3951 14.6264 19 13.6928 19 11.8542V9.15225C19 6.90064 18.0994 6 15.8477 6Z" fill="#4C5BD4"/>
</svg>
