<svg width="25" height="24" viewBox="0 0 25 24" fill="none" xmlns="http://www.w3.org/2000/svg">
<rect x="0.5" width="24" height="24" rx="12" fill="#EEF0FF"/>
<path d="M13 14H13.3533C13.7065 14 14 13.593 14 13.1018C14 12.4912 13.8315 12.3719 13.5543 12.2456L13.0054 12V14H13Z" fill="#4C5BD4"/>
<path d="M12.4805 5.00001C8.89252 5.01301 5.98704 7.9315 6.00004 11.5195C6.01304 15.1075 8.93152 18.013 12.5195 18C16.1075 17.987 19.013 15.0685 19 11.4805C18.987 7.8925 16.0685 4.99351 12.4805 5.00001ZM13.969 11.565C14.476 11.7405 15.1585 12.1175 15.1585 13.281C15.1585 14.282 14.372 15.088 13.41 15.088H12.9875V15.465C12.9875 15.7315 12.7665 15.9525 12.5 15.9525C12.2335 15.9525 12.0125 15.7315 12.0125 15.465V15.088H11.7785C10.7125 15.088 9.84802 14.191 9.84802 13.086C9.84802 12.8195 10.069 12.5985 10.3355 12.5985C10.602 12.5985 10.823 12.8195 10.823 13.086C10.823 13.6515 11.252 14.113 11.7785 14.113H12.0125V11.916L11.031 11.565C10.524 11.3895 9.84152 11.0125 9.84152 9.84899C9.84152 8.84799 10.628 8.042 11.59 8.042H12.0125V7.665C12.0125 7.3985 12.2335 7.1775 12.5 7.1775C12.7665 7.1775 12.9875 7.3985 12.9875 7.665V8.042H13.2215C14.2875 8.042 15.152 8.93899 15.152 10.044C15.152 10.3105 14.931 10.5315 14.6645 10.5315C14.398 10.5315 14.177 10.3105 14.177 10.044C14.177 9.47849 13.748 9.01699 13.2215 9.01699H12.9875V11.214L13.969 11.565Z" fill="#4C5BD4"/>
<path d="M11 9.9021C11 10.5105 11.1694 10.6294 11.4481 10.7552L12 11V9H11.6448C11.2896 9 11 9.40559 11 9.9021Z" fill="#4C5BD4"/>
</svg>
