<svg width="25" height="26" viewBox="0 0 25 26" fill="none" xmlns="http://www.w3.org/2000/svg">
<path d="M11.4583 10.584V12.6673H9.375V14.7507H7.29167V12.6673H6.04167C5.625 13.9173 4.47917 14.7507 3.125 14.7507C1.35417 14.7507 0 13.3965 0 11.6257C0 9.85482 1.35417 8.50065 3.125 8.50065C4.47917 8.50065 5.625 9.33398 6.04167 10.584H11.4583ZM3.125 10.584C2.5 10.584 2.08333 11.0007 2.08333 11.6257C2.08333 12.2507 2.5 12.6673 3.125 12.6673C3.75 12.6673 4.16667 12.2507 4.16667 11.6257C4.16667 11.0007 3.75 10.584 3.125 10.584ZM16.6667 14.7507C19.4792 14.7507 25 16.1048 25 18.9173V21.0007H8.33333V18.9173C8.33333 16.1048 13.8542 14.7507 16.6667 14.7507ZM16.6667 12.6673C14.375 12.6673 12.5 10.7923 12.5 8.50065C12.5 6.20898 14.375 4.33398 16.6667 4.33398C18.9583 4.33398 20.8333 6.20898 20.8333 8.50065C20.8333 10.7923 18.9583 12.6673 16.6667 12.6673Z" fill="#2A3563"/>
</svg>
