<svg width="25" height="26" viewBox="0 0 25 26" fill="none" xmlns="http://www.w3.org/2000/svg">
<g clip-path="url(#clip0_218_15136)">
<path fill-rule="evenodd" clip-rule="evenodd" d="M10.4163 4.33398C9.58754 4.33398 8.79268 4.66322 8.20663 5.24928C7.62058 5.83533 7.29134 6.63018 7.29134 7.45898H4.16634C3.61381 7.45898 3.0839 7.67848 2.6932 8.06918C2.3025 8.45988 2.08301 8.98978 2.08301 9.54232V19.959C2.08301 20.5115 2.3025 21.0414 2.6932 21.4321C3.0839 21.8228 3.61381 22.0423 4.16634 22.0423H20.833C21.3855 22.0423 21.9154 21.8228 22.3061 21.4321C22.6968 21.0414 22.9163 20.5115 22.9163 19.959V9.54232C22.9163 8.98978 22.6968 8.45988 22.3061 8.06918C21.9154 7.67848 21.3855 7.45898 20.833 7.45898H17.708C17.708 6.63018 17.3788 5.83533 16.7927 5.24928C16.2067 4.66322 15.4118 4.33398 14.583 4.33398H10.4163ZM10.4163 6.41732C10.1401 6.41732 9.87512 6.52706 9.67977 6.72242C9.48442 6.91777 9.37467 7.18272 9.37467 7.45898H15.6247C15.6247 7.18272 15.5149 6.91777 15.3196 6.72242C15.1242 6.52706 14.8593 6.41732 14.583 6.41732H10.4163ZM4.16634 13.709C3.89007 13.709 3.62512 13.8187 3.42977 14.0141C3.23442 14.2094 3.12467 14.4744 3.12467 14.7507C3.12467 15.0269 3.23442 15.2919 3.42977 15.4872C3.62512 15.6826 3.89007 15.7923 4.16634 15.7923H20.833C21.1093 15.7923 21.3742 15.6826 21.5696 15.4872C21.7649 15.2919 21.8747 15.0269 21.8747 14.7507C21.8747 14.4744 21.7649 14.2094 21.5696 14.0141C21.3742 13.8187 21.1093 13.709 20.833 13.709H4.16634Z" fill="#2A3563"/>
</g>
<defs>
<clipPath id="clip0_218_15136">
<rect width="25" height="25" fill="white" transform="translate(0 0.166992)"/>
</clipPath>
</defs>
</svg>
