<svg width="56" height="56" viewBox="0 0 56 56" fill="none" xmlns="http://www.w3.org/2000/svg">
<g clip-path="url(#clip0_1133_60058)">
<path d="M28 0C12.5602 0 0 12.5602 0 28C0 43.4398 12.5602 56 28 56C43.4398 56 56 43.4398 56 28C56 12.5602 43.4398 0 28 0Z" fill="#FFC107"/>
<path d="M30.6664 42.0002C30.6664 43.2888 29.6218 44.3334 28.3332 44.3334C27.0446 44.3334 26 43.2888 26 42.0002C26 40.7116 27.0446 39.667 28.3332 39.667C29.6218 39.667 30.6664 40.7116 30.6664 42.0002Z" fill="#ECEFF1"/>
<path d="M31.1935 29.4977C30.3677 29.878 29.8332 30.7111 29.8332 31.619V32.6666C29.8332 33.9543 28.7903 34.9998 27.5 34.9998C26.2097 34.9998 25.1668 33.9543 25.1668 32.6666V31.619C25.1668 28.8958 26.7673 26.3994 29.2385 25.2582C31.6161 24.164 33.3332 21.2587 33.3332 19.833C33.3332 16.618 30.7176 13.9998 27.5 13.9998C24.2824 13.9998 21.6668 16.618 21.6668 19.833C21.6668 21.1212 20.6235 22.1666 19.3332 22.1666C18.0429 22.1666 17 21.1212 17 19.833C17 14.0443 21.7108 9.33301 27.5 9.33301C33.2892 9.33301 38 14.0443 38 19.833C38 22.9857 35.2652 27.6196 31.1935 29.4977Z" fill="#FAFAFA"/>
</g>
<defs>
<clipPath id="clip0_1133_60058">
<rect width="56" height="56" fill="white"/>
</clipPath>
</defs>
</svg>
