<svg width="25" height="24" viewBox="0 0 25 24" fill="none" xmlns="http://www.w3.org/2000/svg">
<rect x="0.5" width="24" height="24" rx="12" fill="#EEF0FF"/>
<path d="M18.0476 14.5313C18.1431 14.461 18.2184 14.3668 18.2659 14.2582C18.3134 14.1495 18.3314 14.0303 18.3181 13.9124C18.3048 13.7946 18.2606 13.6824 18.19 13.5871C18.1195 13.4918 18.0251 13.4168 17.9163 13.3697V12.4431L17.3746 12.6733V13.3697C17.2657 13.4168 17.1712 13.4918 17.1006 13.5871C17.03 13.6824 16.9859 13.7947 16.9725 13.9126C16.9592 14.0304 16.9772 14.1497 17.0247 14.2584C17.0723 14.3671 17.1476 14.4613 17.2432 14.5315C17.1582 14.594 17.089 14.6755 17.0413 14.7696C16.9935 14.8637 16.9686 14.9677 16.9683 15.0732V15.75C16.9683 15.8218 16.9969 15.8907 17.0477 15.9415C17.0985 15.9923 17.1673 16.0208 17.2392 16.0208H18.0517C18.1235 16.0208 18.1924 15.9923 18.2432 15.9415C18.294 15.8907 18.3225 15.8218 18.3225 15.75V15.0729C18.3223 14.9674 18.2973 14.8634 18.2496 14.7694C18.2018 14.6753 18.1326 14.5937 18.0476 14.5313Z" fill="#4C5BD4"/>
<path d="M16.5625 13.0173V15.0215C16.564 15.2544 16.5048 15.4838 16.3909 15.687C16.2769 15.8903 16.1121 16.0603 15.9125 16.1806C14.877 16.7854 13.6993 17.1041 12.5 17.1041C11.3008 17.1041 10.1231 16.7854 9.08753 16.1806C8.88798 16.0603 8.72313 15.8903 8.60918 15.687C8.49522 15.4838 8.43607 15.2544 8.43753 15.0215V13.0173L11.7607 14.4229C11.9948 14.5212 12.2461 14.5719 12.5 14.5719C12.7539 14.5719 13.0053 14.5212 13.2394 14.4229L16.5625 13.0173Z" fill="#4C5BD4"/>
<path d="M18.4679 10.1267L13.0274 7.82461C12.8602 7.75428 12.6807 7.71805 12.4993 7.71805C12.3179 7.71805 12.1383 7.75428 11.9711 7.82461L6.53065 10.1267C6.3836 10.1889 6.25813 10.293 6.16992 10.4261C6.08171 10.5592 6.03467 10.7153 6.03467 10.875C6.03467 11.0347 6.08171 11.1908 6.16992 11.3239C6.25813 11.457 6.3836 11.5611 6.53065 11.6233L11.9711 13.9254C12.1383 13.9958 12.3179 14.0321 12.4993 14.0321C12.6807 14.0321 12.8602 13.9958 13.0274 13.9254L18.4679 11.6233C18.615 11.5611 18.7404 11.457 18.8286 11.3239C18.9168 11.1908 18.9639 11.0347 18.9639 10.875C18.9639 10.7153 18.9168 10.5592 18.8286 10.4261C18.7404 10.293 18.615 10.1889 18.4679 10.1267Z" fill="#4C5BD4"/>
</svg>
