<svg width="19" height="18" viewBox="0 0 19 18" fill="none" xmlns="http://www.w3.org/2000/svg">
<g clip-path="url(#clip0_572_291)">
<path d="M9.49977 15.9506C13.8853 15.9506 17.4409 12.6169 17.4409 8.50468C17.4409 4.39243 13.8853 1.05881 9.49977 1.05881C5.11426 1.05881 1.55859 4.39243 1.55859 8.50468C1.55859 10.3768 2.29613 12.0893 3.51411 13.3977C3.41782 14.4784 3.10017 15.6634 2.74878 16.5526C2.67036 16.7505 2.82223 16.9717 3.01977 16.9377C5.25918 16.5441 6.59032 15.9399 7.16903 15.6251C7.92931 15.8424 8.71292 15.9518 9.49977 15.9506Z" stroke="white" stroke-width="1.5"/>
<mask id="path-2-inside-1_572_291" fill="white">
<path d="M6.08525 8.85869C6.08525 9.12201 5.99782 9.32825 5.82236 9.47799C5.64397 9.62603 5.39751 9.70005 5.08239 9.70005H3.49976V9.08471H4.8107C4.96444 9.08471 5.07652 9.05985 5.14635 9.01069C5.21618 8.95984 5.25139 8.88129 5.25139 8.77393C5.25139 8.67505 5.21794 8.59764 5.15105 8.5417C5.08122 8.48802 4.96796 8.46146 4.81128 8.46146L3.74152 8.46542V7.85064H4.79133C4.94977 7.85064 5.06361 7.82691 5.13344 7.77888C5.20034 7.73254 5.23379 7.6557 5.23379 7.54834C5.23379 7.44663 5.20034 7.37091 5.13344 7.32006C5.09941 7.29237 5.05422 7.27259 4.99848 7.26016C4.93979 7.24942 4.87114 7.24377 4.79133 7.24377H3.49976V6.629H5.01608C5.36699 6.629 5.63282 6.6968 5.81356 6.83242C5.99195 6.96972 6.08114 7.18275 6.08114 7.47205C6.08114 7.61727 6.0477 7.7461 5.9808 7.85855C5.91097 7.971 5.8206 8.06988 5.70911 8.15464C5.83175 8.22753 5.92094 8.31455 5.97669 8.41569C6.04887 8.53435 6.08525 8.68183 6.08525 8.85869Z"/>
</mask>
<path d="M6.08525 8.85869C6.08525 9.12201 5.99782 9.32825 5.82236 9.47799C5.64397 9.62603 5.39751 9.70005 5.08239 9.70005H3.49976V9.08471H4.8107C4.96444 9.08471 5.07652 9.05985 5.14635 9.01069C5.21618 8.95984 5.25139 8.88129 5.25139 8.77393C5.25139 8.67505 5.21794 8.59764 5.15105 8.5417C5.08122 8.48802 4.96796 8.46146 4.81128 8.46146L3.74152 8.46542V7.85064H4.79133C4.94977 7.85064 5.06361 7.82691 5.13344 7.77888C5.20034 7.73254 5.23379 7.6557 5.23379 7.54834C5.23379 7.44663 5.20034 7.37091 5.13344 7.32006C5.09941 7.29237 5.05422 7.27259 4.99848 7.26016C4.93979 7.24942 4.87114 7.24377 4.79133 7.24377H3.49976V6.629H5.01608C5.36699 6.629 5.63282 6.6968 5.81356 6.83242C5.99195 6.96972 6.08114 7.18275 6.08114 7.47205C6.08114 7.61727 6.0477 7.7461 5.9808 7.85855C5.91097 7.971 5.8206 8.06988 5.70911 8.15464C5.83175 8.22753 5.92094 8.31455 5.97669 8.41569C6.04887 8.53435 6.08525 8.68183 6.08525 8.85869Z" fill="white"/>
<path d="M5.82236 9.47799L6.46104 10.2476L6.47152 10.2386L5.82236 9.47799ZM3.49976 9.70005H2.49976V10.7001H3.49976V9.70005ZM3.49976 9.08471V8.08471H2.49976V9.08471H3.49976ZM5.14635 9.01069L5.722 9.82839L5.72856 9.82377L5.73504 9.81905L5.14635 9.01069ZM5.15105 8.5417L5.79254 7.77457L5.77678 7.76139L5.7605 7.74888L5.15105 8.5417ZM4.81128 8.46146V7.46145L4.80758 7.46147L4.81128 8.46146ZM3.74152 8.46542H2.74152V9.46912L3.74522 9.46541L3.74152 8.46542ZM3.74152 7.85064V6.85064H2.74152V7.85064H3.74152ZM5.13344 7.77888L5.70014 8.60281L5.70283 8.60095L5.13344 7.77888ZM5.13344 7.32006L4.50238 8.09579L4.51515 8.10618L4.52826 8.11614L5.13344 7.32006ZM4.99848 7.26016L5.21612 6.28413L5.19736 6.27995L5.17844 6.27649L4.99848 7.26016ZM3.49976 7.24377H2.49976V8.24377H3.49976V7.24377ZM3.49976 6.629V5.629H2.49976V6.629H3.49976ZM5.81356 6.83242L6.42355 6.03991L6.41372 6.03254L5.81356 6.83242ZM5.9808 7.85855L6.83031 8.38612L6.83534 8.37802L6.84021 8.36984L5.9808 7.85855ZM5.70911 8.15464L5.10392 7.35855L3.92293 8.25634L5.19819 9.01427L5.70911 8.15464ZM5.97669 8.41569L5.10091 8.89839L5.11122 8.91711L5.12233 8.93537L5.97669 8.41569ZM5.08525 8.85869C5.08525 8.8794 5.08203 8.86042 5.09906 8.82029C5.11759 8.77663 5.14649 8.74013 5.1732 8.71733L6.47152 10.2386C6.90288 9.87051 7.08525 9.36791 7.08525 8.85869H5.08525ZM5.18374 8.70846C5.20858 8.68786 5.22514 8.68406 5.21616 8.68675C5.20422 8.69034 5.16347 8.70005 5.08239 8.70005V10.7001C5.5473 10.7001 6.04795 10.5903 6.46098 10.2475L5.18374 8.70846ZM5.08239 8.70005H3.49976V10.7001H5.08239V8.70005ZM4.49976 9.70005V9.08471H2.49976V9.70005H4.49976ZM3.49976 10.0847H4.8107V8.08471H3.49976V10.0847ZM4.8107 10.0847C5.02814 10.0847 5.39602 10.0579 5.722 9.82839L4.57071 8.19299C4.67412 8.12019 4.76245 8.09671 4.79434 8.08967C4.82823 8.08218 4.83756 8.08471 4.8107 8.08471V10.0847ZM5.73504 9.81905C6.12312 9.53643 6.25139 9.11903 6.25139 8.77393H4.25139C4.25139 8.72005 4.26014 8.62226 4.31137 8.50708C4.36566 8.38502 4.45207 8.27923 4.55766 8.20233L5.73504 9.81905ZM6.25139 8.77393C6.25139 8.42337 6.11871 8.04732 5.79254 7.77457L4.50956 9.30883C4.42739 9.24012 4.35571 9.14801 4.30833 9.03835C4.26243 8.93211 4.25139 8.83766 4.25139 8.77393H6.25139ZM5.7605 7.74888C5.42387 7.4901 5.03402 7.46146 4.81128 7.46146V9.46146C4.83751 9.46146 4.82391 9.46411 4.78428 9.45477C4.74559 9.44565 4.64936 9.41736 4.54159 9.33452L5.7605 7.74888ZM4.80758 7.46147L3.73783 7.46542L3.74522 9.46541L4.81498 9.46145L4.80758 7.46147ZM4.74152 8.46542V7.85064H2.74152V8.46542H4.74152ZM3.74152 8.85064H4.79133V6.85064H3.74152V8.85064ZM4.79133 8.85064C4.99981 8.85064 5.37131 8.82897 5.70014 8.60281L4.56675 6.95495C4.67376 6.88134 4.76367 6.85965 4.79062 6.85401C4.82047 6.84775 4.82485 6.85064 4.79133 6.85064V8.85064ZM5.70283 8.60095C6.1223 8.31041 6.23379 7.86806 6.23379 7.54834H4.23379C4.23379 7.50176 4.24063 7.40493 4.29179 7.2874C4.34697 7.16062 4.43983 7.04285 4.56406 6.95681L5.70283 8.60095ZM6.23379 7.54834C6.23379 7.20544 6.10602 6.80326 5.73863 6.52397L4.52826 8.11614C4.42896 8.04065 4.34619 7.93784 4.29342 7.81795C4.24327 7.704 4.23379 7.60597 4.23379 7.54834H6.23379ZM5.7645 6.54432C5.57585 6.39086 5.37345 6.31921 5.21612 6.28413L4.78083 8.23619C4.735 8.22597 4.62296 8.19388 4.50238 8.09579L5.7645 6.54432ZM5.17844 6.27649C5.04708 6.25245 4.91626 6.24377 4.79133 6.24377V8.24377C4.80786 8.24377 4.81822 8.24437 4.82318 8.24476C4.8282 8.24517 4.82625 8.24525 4.81851 8.24383L5.17844 6.27649ZM4.79133 6.24377H3.49976V8.24377H4.79133V6.24377ZM4.49976 7.24377V6.629H2.49976V7.24377H4.49976ZM3.49976 7.629H5.01608V5.629H3.49976V7.629ZM5.01608 7.629C5.1301 7.629 5.19812 7.64032 5.23147 7.64883C5.26338 7.65696 5.24837 7.65854 5.21339 7.63229L6.41372 6.03254C5.98763 5.71283 5.47123 5.629 5.01608 5.629V7.629ZM5.20361 7.62486C5.18025 7.60688 5.15677 7.5839 5.13587 7.55653C5.11505 7.52927 5.10084 7.50297 5.09175 7.48124C5.07407 7.43899 5.08114 7.42771 5.08114 7.47205H7.08114C7.08114 6.96877 6.91529 6.4185 6.4235 6.03997L5.20361 7.62486ZM5.08114 7.47205C5.08114 7.46751 5.08173 7.45102 5.08815 7.4263C5.09473 7.40096 5.10575 7.37356 5.12139 7.34726L6.84021 8.36984C7.00899 8.08614 7.08114 7.77693 7.08114 7.47205H5.08114ZM5.13128 7.33099C5.12844 7.33556 5.12229 7.34459 5.10392 7.35855L6.31429 8.95072C6.51891 8.79517 6.69349 8.60643 6.83031 8.38612L5.13128 7.33099ZM5.19819 9.01427C5.2036 9.01749 5.14915 8.98592 5.10091 8.89839L6.85248 7.93299C6.69274 7.64318 6.4599 7.43757 6.22002 7.295L5.19819 9.01427ZM5.12233 8.93537C5.0772 8.86118 5.08525 8.81748 5.08525 8.85869H7.08525C7.08525 8.54618 7.02054 8.20752 6.83105 7.89601L5.12233 8.93537Z" fill="white" mask="url(#path-2-inside-1_572_291)"/>
<mask id="path-4-inside-2_572_291" fill="white">
<path d="M9.24826 8.75741C9.24826 9.07949 9.12679 9.32359 8.88444 9.48972C8.64208 9.65584 8.29293 9.73834 7.83639 9.73834C7.2977 9.73834 6.89925 9.61346 6.64105 9.36371C6.38462 9.11565 6.2561 8.72633 6.2561 8.19518C6.2561 7.65895 6.39342 7.26341 6.66863 7.00858C6.93974 6.75487 7.36225 6.6283 7.93673 6.6283H9.08278L9.08043 7.24307H7.9203C7.63218 7.24307 7.42327 7.29675 7.29359 7.40355C7.23256 7.4544 7.1862 7.51882 7.15451 7.59679C7.11872 7.67929 7.10111 7.77366 7.10111 7.88045H8.13625C8.50946 7.88045 8.7882 7.95221 8.97246 8.09517C9.15613 8.23982 9.24826 8.46019 9.24826 8.75741ZM8.42027 8.79018C8.42027 8.6913 8.39386 8.61671 8.34105 8.56586C8.28824 8.51952 8.20784 8.49579 8.09928 8.49579H7.10522C7.10522 8.70543 7.16625 8.86421 7.28889 8.971C7.4086 9.08062 7.60049 9.13543 7.86397 9.13543C8.06525 9.13543 8.20726 9.10718 8.29176 9.05124C8.37802 8.9953 8.42027 8.90828 8.42027 8.79018Z"/>
</mask>
<path d="M9.24826 8.75741C9.24826 9.07949 9.12679 9.32359 8.88444 9.48972C8.64208 9.65584 8.29293 9.73834 7.83639 9.73834C7.2977 9.73834 6.89925 9.61346 6.64105 9.36371C6.38462 9.11565 6.2561 8.72633 6.2561 8.19518C6.2561 7.65895 6.39342 7.26341 6.66863 7.00858C6.93974 6.75487 7.36225 6.6283 7.93673 6.6283H9.08278L9.08043 7.24307H7.9203C7.63218 7.24307 7.42327 7.29675 7.29359 7.40355C7.23256 7.4544 7.1862 7.51882 7.15451 7.59679C7.11872 7.67929 7.10111 7.77366 7.10111 7.88045H8.13625C8.50946 7.88045 8.7882 7.95221 8.97246 8.09517C9.15613 8.23982 9.24826 8.46019 9.24826 8.75741ZM8.42027 8.79018C8.42027 8.6913 8.39386 8.61671 8.34105 8.56586C8.28824 8.51952 8.20784 8.49579 8.09928 8.49579H7.10522C7.10522 8.70543 7.16625 8.86421 7.28889 8.971C7.4086 9.08062 7.60049 9.13543 7.86397 9.13543C8.06525 9.13543 8.20726 9.10718 8.29176 9.05124C8.37802 8.9953 8.42027 8.90828 8.42027 8.79018Z" fill="white"/>
<path d="M6.64105 9.36371L5.94579 10.0825L5.9458 10.0825L6.64105 9.36371ZM6.66863 7.00858L7.34806 7.74233L7.35192 7.73872L6.66863 7.00858ZM9.08278 6.6283L10.0828 6.63211L10.0866 5.6283H9.08278V6.6283ZM9.08043 7.24307V8.24307H10.0766L10.0804 7.24689L9.08043 7.24307ZM7.29359 7.40355L6.65789 6.63159L6.65342 6.63531L7.29359 7.40355ZM7.15451 7.59679L8.07188 7.99484L8.07654 7.98411L8.08094 7.97327L7.15451 7.59679ZM7.10111 7.88045H6.10111V8.88045H7.10111V7.88045ZM8.97246 8.09517L9.59119 7.30954L9.58545 7.30508L8.97246 8.09517ZM8.34105 8.56586L9.03467 7.84552L9.01797 7.82944L9.00054 7.81415L8.34105 8.56586ZM7.10522 8.49579V7.49579H6.10522V8.49579H7.10522ZM7.28889 8.971L7.96424 8.2335L7.95502 8.22506L7.94559 8.21685L7.28889 8.971ZM8.29176 9.05124L7.74763 8.21218L7.73975 8.2174L8.29176 9.05124ZM8.24826 8.75741C8.24826 8.7917 8.24232 8.77604 8.26174 8.73697C8.2709 8.71855 8.28263 8.70135 8.29531 8.68705C8.30772 8.67306 8.31716 8.66619 8.31905 8.66489L9.44983 10.3145C9.99297 9.94223 10.2483 9.37278 10.2483 8.75741H8.24826ZM8.31905 8.66489C8.31259 8.66932 8.19595 8.73834 7.83639 8.73834V10.7383C8.38991 10.7383 8.97158 10.6424 9.44983 10.3145L8.31905 8.66489ZM7.83639 8.73834C7.64068 8.73834 7.51166 8.71523 7.4326 8.69045C7.35785 8.66702 7.33662 8.64526 7.33631 8.64495L5.9458 10.0825C6.46548 10.5852 7.16571 10.7383 7.83639 10.7383V8.73834ZM7.33632 8.64496C7.33629 8.64493 7.33618 8.64482 7.33596 8.64458C7.33574 8.64434 7.33535 8.64389 7.33479 8.64319C7.33373 8.64184 7.33165 8.63905 7.32878 8.6343C7.32311 8.62491 7.3131 8.60576 7.30216 8.57258C7.2794 8.50353 7.2561 8.38395 7.2561 8.19518H5.2561C5.2561 8.86614 5.41706 9.57101 5.94579 10.0825L7.33632 8.64496ZM7.2561 8.19518C7.2561 8.0089 7.28038 7.89186 7.30375 7.82463C7.32506 7.76329 7.34428 7.74582 7.34805 7.74232L5.98921 6.27483C5.43434 6.78862 5.2561 7.50294 5.2561 8.19518H7.2561ZM7.35192 7.73872C7.35858 7.73249 7.48144 7.6283 7.93673 7.6283V5.6283C7.24305 5.6283 6.5209 5.77724 5.98534 6.27843L7.35192 7.73872ZM7.93673 7.6283H9.08278V5.6283H7.93673V7.6283ZM8.08279 6.62448L8.08044 7.23925L10.0804 7.24689L10.0828 6.63211L8.08279 6.62448ZM9.08043 6.24307H7.9203V8.24307H9.08043V6.24307ZM7.9203 6.24307C7.54987 6.24307 7.05546 6.30422 6.6579 6.6316L7.92928 8.17549C7.89144 8.20665 7.8575 8.22592 7.83383 8.23714C7.81058 8.24816 7.79645 8.25179 7.79579 8.25196C7.79512 8.25213 7.80449 8.24971 7.8263 8.24736C7.84797 8.24502 7.87887 8.24307 7.9203 8.24307V6.24307ZM6.65342 6.63531C6.45874 6.79754 6.31779 6.99957 6.22809 7.22032L8.08094 7.97327C8.05461 8.03806 8.00638 8.11126 7.93375 8.17178L6.65342 6.63531ZM6.23715 7.19875C6.13701 7.42955 6.10111 7.66381 6.10111 7.88045H8.10111C8.10111 7.88351 8.10043 7.92904 8.07188 7.99484L6.23715 7.19875ZM7.10111 8.88045H8.13625V6.88045H7.10111V8.88045ZM8.13625 8.88045C8.26212 8.88045 8.33805 8.8929 8.37635 8.90274C8.41334 8.91224 8.39724 8.91456 8.35947 8.88526L9.58545 7.30508C9.14859 6.96614 8.60838 6.88045 8.13625 6.88045V8.88045ZM8.35374 8.88078C8.33385 8.86512 8.3134 8.84485 8.29499 8.82047C8.27665 8.79617 8.26415 8.77286 8.25623 8.75385C8.24075 8.71672 8.24826 8.71006 8.24826 8.75741H10.2483C10.2483 8.24293 10.0779 7.6929 9.59118 7.30956L8.35374 8.88078ZM9.42027 8.79018C9.42027 8.51664 9.34362 8.14302 9.03467 7.84552L7.64742 9.2862C7.4441 9.09041 7.42027 8.86596 7.42027 8.79018H9.42027ZM9.00054 7.81415C8.69157 7.54308 8.33014 7.49579 8.09928 7.49579V9.49579C8.08554 9.49579 7.8849 9.49597 7.68155 9.31757L9.00054 7.81415ZM8.09928 7.49579H7.10522V9.49579H8.09928V7.49579ZM6.10522 8.49579C6.10522 8.90293 6.23069 9.37554 6.6322 9.72516L7.94559 8.21685C8.01304 8.27558 8.05888 8.34684 8.08399 8.41188C8.10687 8.47118 8.10522 8.5057 8.10522 8.49579H6.10522ZM6.61355 9.7085C7.00332 10.0654 7.49797 10.1354 7.86397 10.1354V8.13543C7.79725 8.13543 7.78047 8.12801 7.79736 8.13284C7.81694 8.13843 7.8865 8.16232 7.96424 8.2335L6.61355 9.7085ZM7.86397 10.1354C8.10397 10.1354 8.50082 10.1121 8.84376 9.88508L7.73975 8.2174C7.79315 8.18204 7.83935 8.16171 7.86972 8.15044C7.90019 8.13914 7.92105 8.13461 7.92804 8.13323C7.93941 8.13099 7.92212 8.13543 7.86397 8.13543V10.1354ZM8.83586 9.89026C9.2574 9.61689 9.42027 9.18153 9.42027 8.79018H7.42027C7.42027 8.7309 7.43102 8.62498 7.49058 8.50357C7.5533 8.37574 7.64759 8.27711 7.74766 8.21222L8.83586 9.89026Z" fill="white" mask="url(#path-4-inside-2_572_291)"/>
<mask id="path-6-inside-3_572_291" fill="white">
<path d="M12.1573 8.76998C12.1573 9.07002 12.0593 9.30056 11.8645 9.46104C11.6679 9.62038 11.3903 9.69949 11.0324 9.69949H9.35352V9.08471H10.8869C11.0377 9.08471 11.1445 9.05985 11.2055 9.01069C11.2642 8.96266 11.2929 8.88242 11.2929 8.76998C11.2929 8.65471 11.2636 8.57165 11.2055 8.52136C11.1445 8.47333 11.0377 8.44959 10.8869 8.44959H9.35352V6.629H12.0012L11.9989 7.24377H10.1381V7.83821H11.175C11.476 7.83821 11.7166 7.91845 11.8979 8.07892C11.9818 8.16255 12.047 8.26087 12.0928 8.37331C12.1356 8.48802 12.1573 8.62081 12.1573 8.76998Z"/>
</mask>
<path d="M12.1573 8.76998C12.1573 9.07002 12.0593 9.30056 11.8645 9.46104C11.6679 9.62038 11.3903 9.69949 11.0324 9.69949H9.35352V9.08471H10.8869C11.0377 9.08471 11.1445 9.05985 11.2055 9.01069C11.2642 8.96266 11.2929 8.88242 11.2929 8.76998C11.2929 8.65471 11.2636 8.57165 11.2055 8.52136C11.1445 8.47333 11.0377 8.44959 10.8869 8.44959H9.35352V6.629H12.0012L11.9989 7.24377H10.1381V7.83821H11.175C11.476 7.83821 11.7166 7.91845 11.8979 8.07892C11.9818 8.16255 12.047 8.26087 12.0928 8.37331C12.1356 8.48802 12.1573 8.62081 12.1573 8.76998Z" fill="white"/>
<path d="M11.8645 9.46104L12.4942 10.2379L12.5003 10.2329L11.8645 9.46104ZM9.35352 9.69949H8.35352V10.6995H9.35352V9.69949ZM9.35352 9.08471V8.08471H8.35352V9.08471H9.35352ZM11.2055 9.01069L11.8328 9.78948L11.8389 9.78454L11.2055 9.01069ZM11.2055 8.52136L11.86 7.76529L11.8423 7.74999L11.8239 7.73553L11.2055 8.52136ZM9.35352 8.44959H8.35352V9.44959H9.35352V8.44959ZM9.35352 6.629V5.629H8.35352V6.629H9.35352ZM12.0012 6.629L13.0012 6.63282L13.005 5.629H12.0012V6.629ZM11.9989 7.24377V8.24377H12.9951L12.9989 7.24759L11.9989 7.24377ZM10.1381 7.24377V6.24377H9.13808V7.24377H10.1381ZM10.1381 7.83821H9.13808V8.83821H10.1381V7.83821ZM11.8979 8.07892L12.6038 7.37061L12.5829 7.3497L12.5607 7.33007L11.8979 8.07892ZM12.0928 8.37331L13.0296 8.02346L13.0245 8.0098L13.019 7.9963L12.0928 8.37331ZM11.1573 8.76998C11.1573 8.81164 11.1506 8.80744 11.1633 8.77743C11.1696 8.76262 11.179 8.74546 11.1919 8.72826C11.2048 8.71108 11.2179 8.69806 11.2287 8.68917L12.5003 10.2329C12.9691 9.84674 13.1573 9.30765 13.1573 8.76998H11.1573ZM11.2348 8.68419C11.2783 8.64891 11.2561 8.69949 11.0324 8.69949V10.6995C11.5245 10.6995 12.0575 10.5919 12.4942 10.2379L11.2348 8.68419ZM11.0324 8.69949H9.35352V10.6995H11.0324V8.69949ZM10.3535 9.69949V9.08471H8.35352V9.69949H10.3535ZM9.35352 10.0847H10.8869V8.08471H9.35352V10.0847ZM10.8869 10.0847C11.0852 10.0847 11.4915 10.0644 11.8328 9.78946L10.5782 8.23192C10.7018 8.13238 10.8144 8.10118 10.8535 8.0921C10.8964 8.08213 10.9124 8.08471 10.8869 8.08471V10.0847ZM11.8389 9.78454C12.2271 9.46675 12.2929 9.02811 12.2929 8.76998H10.2929C10.2929 8.73674 10.3012 8.45858 10.5721 8.23685L11.8389 9.78454ZM12.2929 8.76998C12.2929 8.50946 12.2274 8.08336 11.86 7.76529L10.551 9.27742C10.2998 9.05993 10.2929 8.79996 10.2929 8.76998H12.2929ZM11.8239 7.73553C11.4823 7.46668 11.0777 7.44959 10.8869 7.44959V9.44959C10.915 9.44959 10.9014 9.45229 10.8608 9.44319C10.8247 9.43507 10.712 9.40554 10.5871 9.30718L11.8239 7.73553ZM10.8869 7.44959H9.35352V9.44959H10.8869V7.44959ZM10.3535 8.44959V6.629H8.35352V8.44959H10.3535ZM9.35352 7.629H12.0012V5.629H9.35352V7.629ZM11.0012 6.62518L10.9989 7.23996L12.9989 7.24759L13.0012 6.63282L11.0012 6.62518ZM11.9989 6.24377H10.1381V8.24377H11.9989V6.24377ZM9.13808 7.24377V7.83821H11.1381V7.24377H9.13808ZM10.1381 8.83821H11.175V6.83821H10.1381V8.83821ZM11.175 8.83821C11.2374 8.83821 11.2636 8.84658 11.2653 8.84714C11.266 8.84737 11.2621 8.84611 11.2554 8.84227C11.2486 8.83837 11.2415 8.83335 11.2352 8.82777L12.5607 7.33007C12.1554 6.97139 11.659 6.83821 11.175 6.83821V8.83821ZM11.192 8.78724C11.1865 8.78174 11.1808 8.7749 11.1758 8.76729C11.1708 8.75971 11.1679 8.7536 11.1666 8.75033L13.019 7.9963C12.9238 7.76244 12.7847 7.55081 12.6038 7.37061L11.192 8.78724ZM11.156 8.72317C11.1492 8.70517 11.1573 8.71585 11.1573 8.76998H13.1573C13.1573 8.52576 13.122 8.27086 13.0296 8.02346L11.156 8.72317Z" fill="white" mask="url(#path-6-inside-3_572_291)"/>
<path d="M14.3401 10.6377C14.2213 10.6011 13.8996 10.5143 13.5794 10.4292L13.8335 10.2087L14.8141 10.4827C14.8263 10.4886 14.8427 10.497 14.8615 10.5077C14.9051 10.5326 14.9466 10.5614 14.9769 10.5896C14.897 10.6636 14.8739 10.6761 14.8395 10.686C14.7929 10.6995 14.6606 10.7196 14.3401 10.6377ZM15.0025 10.554C15.0025 10.554 15.0023 10.5546 15.0018 10.5558L15.0025 10.554Z" fill="white" stroke="white"/>
<path d="M8.17962 11.4887C8.31205 11.4797 8.44602 11.4655 8.58097 11.4472L8.17962 11.4887ZM8.17962 11.4887C8.55487 11.4439 8.91857 11.3594 9.26446 11.2569L9.26455 11.2568C10.3709 10.9287 11.4187 10.4376 12.3154 9.66226L12.3168 9.66104C12.3298 9.64976 12.3378 9.64275 12.3456 9.63627L12.3457 9.6364L12.3554 9.6279C12.6479 9.37167 13.0061 9.03675 13.2797 8.64313C13.5538 8.24872 13.7753 7.74851 13.7143 7.17599L13.7143 7.17573C13.7075 7.11236 13.6959 7.05181 13.6802 6.99402C13.7383 7.05906 13.7836 7.13009 13.8169 7.20719C13.8675 7.3718 13.8822 7.56373 13.865 7.76512L13.865 7.76554C13.8327 8.14757 13.6778 8.52962 13.4363 8.87988L13.4362 8.88012C13.0279 9.47295 12.4165 9.95106 11.7336 10.3543L11.7334 10.3544C11.165 10.6902 10.5812 10.9498 9.95061 11.1387L9.95052 11.1388C9.49433 11.2756 9.03902 11.385 8.58102 11.4471L8.17962 11.4887ZM5.78693 10.0344C5.80982 10.0825 5.83505 10.1288 5.86263 10.1746L5.75113 9.9525C5.75651 9.96432 5.76155 9.97626 5.76659 9.98821C5.77311 10.0037 5.77965 10.0191 5.78693 10.0344Z" fill="white" stroke="white"/>
<mask id="path-10-inside-4_572_291" fill="white">
<path fill-rule="evenodd" clip-rule="evenodd" d="M6.10352 9.89866C6.10352 9.89866 7.7284 11.3141 10.5181 9.79752C10.2071 10.1512 6.73375 11.769 6.10352 9.89866Z"/>
</mask>
<path fill-rule="evenodd" clip-rule="evenodd" d="M6.10352 9.89866C6.10352 9.89866 7.7284 11.3141 10.5181 9.79752C10.2071 10.1512 6.73375 11.769 6.10352 9.89866Z" fill="white"/>
<path d="M6.10352 9.89866L6.76036 9.14463L3.97724 6.72023L5.15587 10.218L6.10352 9.89866ZM10.5181 9.79752L11.2691 10.4578L10.0405 8.91895L10.5181 9.79752ZM6.10352 9.89866C5.44667 10.6527 5.44719 10.6531 5.44771 10.6536C5.44789 10.6537 5.44842 10.6542 5.44879 10.6545C5.44952 10.6552 5.45028 10.6558 5.45107 10.6565C5.45265 10.6579 5.45433 10.6593 5.45613 10.6608C5.45972 10.6639 5.46376 10.6673 5.46823 10.671C5.47718 10.6785 5.4879 10.6872 5.50037 10.6971C5.52529 10.7169 5.55731 10.7414 5.59632 10.7694C5.67424 10.8252 5.78068 10.8954 5.91482 10.97C6.18293 11.1192 6.56488 11.2879 7.05203 11.3939C8.04838 11.6108 9.39641 11.5455 10.9957 10.6761L10.0405 8.91895C8.8501 9.56609 7.99083 9.55143 7.47731 9.43968C7.20953 9.38141 7.0109 9.2911 6.88717 9.22227C6.82538 9.18789 6.78308 9.15931 6.76125 9.14366C6.75038 9.13587 6.74476 9.13142 6.74452 9.13123C6.74441 9.13114 6.74566 9.13213 6.74829 9.13432C6.74961 9.13542 6.75127 9.13682 6.75328 9.13853C6.75428 9.13938 6.75537 9.14032 6.75655 9.14134C6.75714 9.14184 6.75776 9.14237 6.75839 9.14292C6.75871 9.1432 6.7592 9.14362 6.75936 9.14376C6.75985 9.14419 6.76036 9.14463 6.10352 9.89866ZM9.76711 9.13721C9.84459 9.04909 9.88418 9.04361 9.75625 9.1192C9.66693 9.17198 9.53606 9.24068 9.37231 9.31503C9.04264 9.46471 8.62738 9.61574 8.2176 9.70503C7.79064 9.79807 7.46319 9.80331 7.26025 9.75207C7.1155 9.71552 7.08317 9.67433 7.05116 9.57933L5.15587 10.218C5.43898 11.0582 6.07715 11.5161 6.77063 11.6912C7.40592 11.8516 8.08441 11.781 8.64344 11.6592C9.21965 11.5336 9.77043 11.3308 10.1992 11.1361C10.4146 11.0383 10.6111 10.9372 10.7737 10.8411C10.8977 10.7678 11.1139 10.6344 11.2691 10.4578L9.76711 9.13721Z" fill="white" mask="url(#path-10-inside-4_572_291)"/>
</g>
<defs>
<clipPath id="clip0_572_291">
<rect width="18" height="18" fill="white" transform="translate(0.5)"/>
</clipPath>
</defs>
</svg>
