<svg width="25" height="24" viewBox="0 0 25 24" fill="none" xmlns="http://www.w3.org/2000/svg">
<rect x="0.5" width="24" height="24" rx="12" fill="#EEF0FF"/>
<path d="M17.506 11C16.6891 11 15.959 11.397 15.5036 12.0034C15.0482 11.397 14.3181 11 13.5012 11C12.1205 11 11 12.1261 11 13.5121C11 14.0462 11.0867 14.5443 11.2313 14.9991C11.9398 17.2441 14.1373 18.594 15.2217 18.9621C15.3735 19.0126 15.6265 19.0126 15.7783 18.9621C16.8626 18.594 19.0602 17.2513 19.7686 14.9991C19.9204 14.5371 20 14.0462 20 13.5121C20.0072 12.1261 18.8867 11 17.506 11Z" fill="#4C5BD4"/>
<path d="M19 9.78613C19 9.95232 18.8283 10.0607 18.664 10.0173C17.656 9.76446 16.5509 9.974 15.7147 10.552C15.5504 10.6676 15.3264 10.6676 15.1696 10.552C14.5797 10.133 13.8629 9.90174 13.1088 9.90174C11.1824 9.90174 9.6144 11.4263 9.6144 13.3049C9.6144 15.3425 10.6224 16.8671 11.6379 17.8859C11.6901 17.9364 11.6453 18.0231 11.5781 17.9942C9.53973 17.3223 5 14.5333 5 9.78613C5 7.69075 6.73973 6 8.89013 6C10.1669 6 11.2944 6.59249 12.0037 7.51012C12.7205 6.59249 13.848 6 15.1173 6C17.2603 6 19 7.69075 19 9.78613Z" fill="#4C5BD4"/>
</svg>
