<svg width="24" height="24" viewBox="0 0 24 24" fill="none" xmlns="http://www.w3.org/2000/svg">
<path d="M12.99 2.15002C15.37 1.69002 17.94 2.38002 19.79 4.22002C22.74 7.17002 22.74 11.98 19.79 14.92C17.73 16.97 14.78 17.6 12.19 16.79L7.48002 21.49C7.14002 21.84 6.47002 22.05 5.99002 21.98L3.81002 21.68C3.09002 21.58 2.42002 20.9 2.31002 20.18L2.01002 18C1.94002 17.52 2.17002 16.85 2.50002 16.51L3.62002 15.39L7.19002 11.82C6.39002 9.22002 7.01002 6.27002 9.07002 4.22002" stroke="#666666" stroke-width="1.5" stroke-miterlimit="10" stroke-linecap="round" stroke-linejoin="round"/>
<path d="M6.89001 17.49L9.19001 19.79" stroke="#666666" stroke-width="1.5" stroke-miterlimit="10" stroke-linecap="round" stroke-linejoin="round"/>
<path d="M14.5 11C15.3284 11 16 10.3284 16 9.5C16 8.67157 15.3284 8 14.5 8C13.6716 8 13 8.67157 13 9.5C13 10.3284 13.6716 11 14.5 11Z" stroke="#666666" stroke-width="1.5" stroke-linecap="round" stroke-linejoin="round"/>
</svg>
