<svg width="56" height="56" viewBox="0 0 56 56" fill="none" xmlns="http://www.w3.org/2000/svg">
<g clip-path="url(#clip0_840_60105)">
<path d="M28 0C12.5602 0 0 12.5602 0 28C0 43.4398 12.5602 56 28 56C43.4398 56 56 43.4398 56 28C56 12.5602 43.4398 0 28 0Z" fill="#FFC107"/>
<path d="M30.3324 42.0002C30.3324 43.2888 29.2878 44.3334 27.9992 44.3334C26.7106 44.3334 25.666 43.2888 25.666 42.0002C25.666 40.7116 26.7106 39.667 27.9992 39.667C29.2878 39.667 30.3324 40.7116 30.3324 42.0002Z" fill="#ECEFF1"/>
<path d="M31.6935 29.4977C30.8677 29.878 30.3332 30.7111 30.3332 31.619V32.6666C30.3332 33.9543 29.2903 34.9998 28 34.9998C26.7097 34.9998 25.6668 33.9543 25.6668 32.6666V31.619C25.6668 28.8958 27.2673 26.3994 29.7385 25.2582C32.1161 24.164 33.8332 21.2587 33.8332 19.833C33.8332 16.618 31.2176 13.9998 28 13.9998C24.7824 13.9998 22.1668 16.618 22.1668 19.833C22.1668 21.1212 21.1235 22.1666 19.8332 22.1666C18.5429 22.1666 17.5 21.1212 17.5 19.833C17.5 14.0443 22.2108 9.33301 28 9.33301C33.7892 9.33301 38.5 14.0443 38.5 19.833C38.5 22.9857 35.7652 27.6196 31.6935 29.4977Z" fill="#FAFAFA"/>
</g>
<defs>
<clipPath id="clip0_840_60105">
<rect width="56" height="56" fill="white"/>
</clipPath>
</defs>
</svg>
