<svg width="23" height="22" viewBox="0 0 23 22" fill="none" xmlns="http://www.w3.org/2000/svg">
<path d="M11.5 16.5H5.08333C4.5971 16.5 4.13079 16.3068 3.78697 15.963C3.44315 15.6192 3.25 15.1529 3.25 14.6667V5.49999C3.25 5.01376 3.44315 4.54744 3.78697 4.20363C4.13079 3.85981 4.5971 3.66666 5.08333 3.66666H17.9167C18.4029 3.66666 18.8692 3.85981 19.213 4.20363C19.5568 4.54744 19.75 5.01376 19.75 5.49999V12.375" stroke="#4C5BD4" stroke-width="1.5" stroke-linecap="round" stroke-linejoin="round"/>
<path d="M3.25 5.5L11.5 11L19.75 5.5M14.25 16.5H19.75M19.75 16.5L17 13.75M19.75 16.5L17 19.25" stroke="#4C5BD4" stroke-width="1.5" stroke-linecap="round" stroke-linejoin="round"/>
</svg>
