<svg width="8" height="8" viewBox="0 0 8 8" fill="none" xmlns="http://www.w3.org/2000/svg">
<path d="M3.80979 1.08541C3.86966 0.901147 4.13034 0.901148 4.19021 1.08541L4.85315 3.12574C4.87993 3.20814 4.95672 3.26393 5.04336 3.26393H7.18869C7.38243 3.26393 7.46299 3.51186 7.30625 3.62574L5.57064 4.88673C5.50054 4.93765 5.47121 5.02793 5.49799 5.11033L6.16093 7.15066C6.2208 7.33492 6.0099 7.48814 5.85316 7.37426L4.11756 6.11327C4.04746 6.06235 3.95254 6.06235 3.88244 6.11327L2.14684 7.37426C1.9901 7.48814 1.7792 7.33492 1.83907 7.15066L2.50201 5.11033C2.52879 5.02793 2.49946 4.93765 2.42936 4.88673L0.693753 3.62574C0.53701 3.51185 0.617566 3.26393 0.811311 3.26393H2.95664C3.04328 3.26393 3.12007 3.20814 3.14685 3.12574L3.80979 1.08541Z" fill="#4C5BD4"/>
</svg>
