<svg width="25" height="24" viewBox="0 0 25 24" fill="none" xmlns="http://www.w3.org/2000/svg">
<rect x="0.5" width="24" height="24" rx="12" fill="#EEF0FF"/>
<path d="M16.8333 5H8.16667C6.96778 5 6 5.93112 6 7.07926V14.7172C6 15.8654 6.96778 16.8035 8.16667 16.8035H8.71556C9.28611 16.8035 9.84222 17.0205 10.2467 17.4126L11.4817 18.5957C12.045 19.1348 12.955 19.1348 13.5183 18.5957L14.7533 17.4126C15.1578 17.0205 15.7139 16.8035 16.2844 16.8035H16.8333C18.0322 16.8035 19 15.8654 19 14.7172V7.07926C19 5.93112 18.0322 5 16.8333 5ZM12.5 7.48531C13.28 7.48531 13.9083 8.10139 13.9083 8.85048C13.9083 9.59257 13.3017 10.1876 12.5506 10.2157C12.5217 10.2157 12.4783 10.2157 12.4422 10.2157C11.6839 10.1876 11.0844 9.59257 11.0844 8.85048C11.0917 8.10139 11.72 7.48531 12.5 7.48531ZM14.4861 13.8841C13.3956 14.5912 11.6044 14.5912 10.5139 13.8841C9.55333 13.268 9.55333 12.2459 10.5139 11.6228C11.6117 10.9157 13.4028 10.9157 14.4861 11.6228C15.4467 12.2459 15.4467 13.261 14.4861 13.8841Z" fill="#4C5BD4"/>
</svg>
