<svg width="25" height="24" viewBox="0 0 25 24" fill="none" xmlns="http://www.w3.org/2000/svg">
<rect x="0.5" width="24" height="24" rx="12" fill="#EEF0FF"/>
<path d="M18.75 12.0312H17.475C17.25 9.65 15.35 7.74375 12.9688 7.525V6.25C12.9688 5.99375 12.7562 5.78125 12.5 5.78125C12.2438 5.78125 12.0312 5.99375 12.0312 6.25V7.525C9.65 7.75 7.74375 9.65 7.525 12.0312H6.25C5.99375 12.0312 5.78125 12.2438 5.78125 12.5C5.78125 12.7562 5.99375 12.9688 6.25 12.9688H7.525C7.75 15.35 9.65 17.2562 12.0312 17.475V18.75C12.0312 19.0063 12.2438 19.2188 12.5 19.2188C12.7562 19.2188 12.9688 19.0063 12.9688 18.75V17.475C15.35 17.25 17.2562 15.35 17.475 12.9688H18.75C19.0063 12.9688 19.2188 12.7562 19.2188 12.5C19.2188 12.2438 19.0063 12.0312 18.75 12.0312ZM12.5 14.45C11.425 14.45 10.55 13.575 10.55 12.5C10.55 11.425 11.425 10.55 12.5 10.55C13.575 10.55 14.45 11.425 14.45 12.5C14.45 13.575 13.575 14.45 12.5 14.45Z" fill="#4C5BD4"/>
</svg>
