<svg width="21" height="20" viewBox="0 0 21 20" fill="none" xmlns="http://www.w3.org/2000/svg">
<path d="M6.99998 18.3333H13.6666C17.0166 18.3333 17.6166 16.9917 17.7916 15.3583L18.4166 8.69167C18.6416 6.65833 18.0583 5 14.5 5H6.16664C2.60831 5 2.02498 6.65833 2.24998 8.69167L2.87498 15.3583C3.04998 16.9917 3.64998 18.3333 6.99998 18.3333Z" stroke="#474747" stroke-width="1.5" stroke-miterlimit="10" stroke-linecap="round" stroke-linejoin="round"/>
<path d="M7 5.00008V4.33341C7 2.85841 7 1.66675 9.66667 1.66675H11C13.6667 1.66675 13.6667 2.85841 13.6667 4.33341V5.00008" stroke="#474747" stroke-width="1.5" stroke-miterlimit="10" stroke-linecap="round" stroke-linejoin="round"/>
<path d="M12 10.8333V11.6667C12 11.675 12 11.675 12 11.6833C12 12.5917 11.9916 13.3333 10.3333 13.3333C8.68329 13.3333 8.66663 12.6 8.66663 11.6917V10.8333C8.66663 10 8.66663 10 9.49996 10H11.1666C12 10 12 10 12 10.8333Z" stroke="#474747" stroke-width="1.5" stroke-miterlimit="10" stroke-linecap="round" stroke-linejoin="round"/>
<path d="M18.375 9.16675C16.45 10.5667 14.25 11.4001 12 11.6834" stroke="#474747" stroke-width="1.5" stroke-miterlimit="10" stroke-linecap="round" stroke-linejoin="round"/>
<path d="M2.51666 9.3916C4.39166 10.6749 6.50833 11.4499 8.66666 11.6916" stroke="#474747" stroke-width="1.5" stroke-miterlimit="10" stroke-linecap="round" stroke-linejoin="round"/>
</svg>
