<svg width="21" height="20" viewBox="0 0 21 20" fill="none" xmlns="http://www.w3.org/2000/svg">
<g clip-path="url(#clip0_67_2470)">
<path d="M11.3104 1.27375C11.0962 1.25793 10.8814 1.25001 10.6666 1.25V0C10.9123 0.000119784 11.1579 0.00929268 11.4029 0.0275L11.3104 1.27375ZM13.8154 1.83625C13.4147 1.68163 13.0032 1.55671 12.5841 1.4625L12.8579 0.2425C13.3366 0.35 13.8079 0.4925 14.2654 0.67L13.8154 1.83625ZM15.5279 2.72375C15.3492 2.60456 15.1661 2.49199 14.9791 2.38625L15.5954 1.29875C16.0228 1.54092 16.4318 1.81415 16.8191 2.11625L16.0504 3.1025C15.8809 2.97029 15.7066 2.84437 15.5279 2.725V2.72375ZM17.8204 4.96125C17.5731 4.60997 17.3003 4.2774 17.0041 3.96625L17.9091 3.10375C18.2466 3.46 18.5591 3.84125 18.8429 4.24125L17.8204 4.96125ZM18.7504 6.65125C18.6683 6.45307 18.5791 6.25794 18.4829 6.06625L19.5991 5.50375C19.8199 5.94261 20.0079 6.39718 20.1616 6.86375L18.9741 7.255C18.9069 7.05108 18.8323 6.8497 18.7504 6.65125ZM19.4129 9.785C19.4028 9.35542 19.361 8.92718 19.2879 8.50375L20.5191 8.29125C20.6029 8.77375 20.6516 9.26375 20.6641 9.75375L19.4141 9.785H19.4129ZM19.2491 11.7075C19.2904 11.495 19.3241 11.2837 19.3504 11.07L20.5916 11.2238C20.5316 11.7114 20.4355 12.194 20.3041 12.6675L19.0991 12.3337C19.1566 12.1275 19.2066 11.9187 19.2491 11.7075ZM18.0591 14.6812C18.2891 14.3187 18.4916 13.9388 18.6666 13.5462L19.8091 14.0525C19.6091 14.5025 19.3779 14.935 19.1154 15.35L18.0591 14.6812ZM16.8541 16.1875C17.0066 16.035 17.1529 15.8775 17.2916 15.715L18.2391 16.5312C18.0787 16.7173 17.9115 16.8974 17.7379 17.0712L16.8541 16.1875Z" fill="#474747"/>
<path d="M10.6666 1.25C9.22772 1.2501 7.81106 1.60506 6.5421 2.28342C5.27314 2.96179 4.19106 3.94263 3.3917 5.13906C2.59234 6.3355 2.10037 7.7106 1.95937 9.14258C1.81837 10.5746 2.03269 12.0192 2.58335 13.3486C3.134 14.6779 4.004 15.851 5.11628 16.7638C6.22856 17.6766 7.5488 18.3011 8.96004 18.5818C10.3713 18.8626 11.83 18.791 13.2069 18.3733C14.5839 17.9557 15.8366 17.2049 16.8541 16.1875L17.7379 17.0712C16.575 18.2347 15.1432 19.0934 13.5692 19.5712C11.9952 20.0491 10.3276 20.1313 8.7142 19.8106C7.10082 19.4899 5.59145 18.7762 4.31981 17.7328C3.04818 16.6893 2.05354 15.3483 1.42404 13.8286C0.794541 12.3089 0.549607 10.6573 0.710942 9.02034C0.872277 7.38332 1.4349 5.81138 2.34896 4.44377C3.26302 3.07617 4.50029 1.95514 5.95116 1.18C7.40202 0.404869 9.02168 -0.000435915 10.6666 3.51823e-07V1.25Z" fill="#474747"/>
<path d="M10.0416 3.75C10.2074 3.75 10.3664 3.81585 10.4836 3.93306C10.6008 4.05027 10.6666 4.20924 10.6666 4.375V10.8875L14.7266 13.2075C14.8664 13.2918 14.9676 13.4274 15.0087 13.5854C15.0497 13.7433 15.0274 13.9111 14.9464 14.0527C14.8655 14.1944 14.7323 14.2989 14.5754 14.3437C14.4184 14.3885 14.2502 14.3701 14.1066 14.2925L9.73163 11.7925C9.63597 11.7379 9.55645 11.6589 9.50113 11.5636C9.44582 11.4684 9.41666 11.3602 9.41663 11.25V4.375C9.41663 4.20924 9.48247 4.05027 9.59968 3.93306C9.71689 3.81585 9.87587 3.75 10.0416 3.75Z" fill="#474747"/>
</g>
<defs>
<clipPath id="clip0_67_2470">
<rect width="20" height="20" fill="white" transform="translate(0.666626)"/>
</clipPath>
</defs>
</svg>
