<svg width="19" height="18" viewBox="0 0 19 18" fill="none" xmlns="http://www.w3.org/2000/svg">
<g clip-path="url(#clip0_67_2478)">
<path d="M9.49977 15.9506C13.8853 15.9506 17.4409 12.617 17.4409 8.50471C17.4409 4.39246 13.8853 1.05884 9.49977 1.05884C5.11426 1.05884 1.55859 4.39246 1.55859 8.50471C1.55859 10.3768 2.29613 12.0894 3.51411 13.3977C3.41782 14.4784 3.10017 15.6634 2.74878 16.5526C2.67036 16.7505 2.82223 16.9717 3.01977 16.9377C5.25918 16.5441 6.59032 15.94 7.16903 15.6251C7.92931 15.8424 8.71292 15.9518 9.49977 15.9506Z" stroke="white" stroke-width="1.5"/>
<mask id="path-2-inside-1_67_2478" fill="white">
<path d="M6.0855 8.8586C6.0855 9.12191 5.99806 9.32816 5.8226 9.4779C5.64421 9.62594 5.39775 9.69996 5.08263 9.69996H3.5V9.08462H4.81094C4.96468 9.08462 5.07677 9.05976 5.1466 9.0106C5.21643 8.95974 5.25164 8.8812 5.25164 8.77384C5.25164 8.67496 5.21819 8.59755 5.15129 8.54161C5.08146 8.48793 4.96821 8.46137 4.81153 8.46137L3.74177 8.46532V7.85055H4.79157C4.95001 7.85055 5.06386 7.82682 5.13369 7.77879C5.20058 7.73245 5.23403 7.65561 5.23403 7.54825C5.23403 7.44654 5.20058 7.37082 5.13369 7.31996C5.09965 7.29228 5.05447 7.2725 4.99872 7.26007C4.94004 7.24933 4.87138 7.24368 4.79157 7.24368H3.5V6.62891H5.01632C5.36724 6.62891 5.63306 6.69671 5.8138 6.83232C5.99219 6.96963 6.08139 7.18266 6.08139 7.47196C6.08139 7.61718 6.04794 7.74601 5.98104 7.85846C5.91121 7.9709 5.82084 8.06979 5.70935 8.15455C5.83199 8.22744 5.92119 8.31446 5.97694 8.4156C6.04911 8.53426 6.0855 8.68174 6.0855 8.8586Z"/>
</mask>
<path d="M6.0855 8.8586C6.0855 9.12191 5.99806 9.32816 5.8226 9.4779C5.64421 9.62594 5.39775 9.69996 5.08263 9.69996H3.5V9.08462H4.81094C4.96468 9.08462 5.07677 9.05976 5.1466 9.0106C5.21643 8.95974 5.25164 8.8812 5.25164 8.77384C5.25164 8.67496 5.21819 8.59755 5.15129 8.54161C5.08146 8.48793 4.96821 8.46137 4.81153 8.46137L3.74177 8.46532V7.85055H4.79157C4.95001 7.85055 5.06386 7.82682 5.13369 7.77879C5.20058 7.73245 5.23403 7.65561 5.23403 7.54825C5.23403 7.44654 5.20058 7.37082 5.13369 7.31996C5.09965 7.29228 5.05447 7.2725 4.99872 7.26007C4.94004 7.24933 4.87138 7.24368 4.79157 7.24368H3.5V6.62891H5.01632C5.36724 6.62891 5.63306 6.69671 5.8138 6.83232C5.99219 6.96963 6.08139 7.18266 6.08139 7.47196C6.08139 7.61718 6.04794 7.74601 5.98104 7.85846C5.91121 7.9709 5.82084 8.06979 5.70935 8.15455C5.83199 8.22744 5.92119 8.31446 5.97694 8.4156C6.04911 8.53426 6.0855 8.68174 6.0855 8.8586Z" fill="white"/>
<path d="M5.8226 9.4779L6.46128 10.2475L6.47176 10.2386L5.8226 9.4779ZM3.5 9.69996H2.5V10.7H3.5V9.69996ZM3.5 9.08462V8.08462H2.5V9.08462H3.5ZM5.1466 9.0106L5.72224 9.8283L5.7288 9.82368L5.73529 9.81896L5.1466 9.0106ZM5.15129 8.54161L5.79278 7.77447L5.77703 7.7613L5.76074 7.74878L5.15129 8.54161ZM4.81153 8.46137V7.46136L4.80783 7.46138L4.81153 8.46137ZM3.74177 8.46532H2.74177V9.46903L3.74546 9.46532L3.74177 8.46532ZM3.74177 7.85055V6.85055H2.74177V7.85055H3.74177ZM5.13369 7.77879L5.70038 8.60272L5.70307 8.60086L5.13369 7.77879ZM5.13369 7.31996L4.50263 8.0957L4.5154 8.10609L4.5285 8.11605L5.13369 7.31996ZM4.99872 7.26007L5.21637 6.28404L5.1976 6.27986L5.17869 6.2764L4.99872 7.26007ZM3.5 7.24368H2.5V8.24368H3.5V7.24368ZM3.5 6.62891V5.62891H2.5V6.62891H3.5ZM5.8138 6.83232L6.42379 6.03982L6.41397 6.03245L5.8138 6.83232ZM5.98104 7.85846L6.83056 8.38602L6.83558 8.37793L6.84045 8.36974L5.98104 7.85846ZM5.70935 8.15455L5.10417 7.35846L3.92318 8.25625L5.19844 9.01418L5.70935 8.15455ZM5.97694 8.4156L5.10115 8.8983L5.11147 8.91702L5.12258 8.93528L5.97694 8.4156ZM5.0855 8.8586C5.0855 8.8793 5.08227 8.86033 5.0993 8.8202C5.11783 8.77654 5.14673 8.74004 5.17345 8.71724L6.47176 10.2386C6.90312 9.87042 7.0855 9.36782 7.0855 8.8586H5.0855ZM5.18399 8.70837C5.20882 8.68776 5.22538 8.68397 5.2164 8.68666C5.20446 8.69025 5.16371 8.69996 5.08263 8.69996V10.7C5.54754 10.7 6.04819 10.5902 6.46122 10.2474L5.18399 8.70837ZM5.08263 8.69996H3.5V10.7H5.08263V8.69996ZM4.5 9.69996V9.08462H2.5V9.69996H4.5ZM3.5 10.0846H4.81094V8.08462H3.5V10.0846ZM4.81094 10.0846C5.02838 10.0846 5.39627 10.0578 5.72224 9.8283L4.57095 8.1929C4.67436 8.1201 4.76269 8.09662 4.79458 8.08958C4.82847 8.08209 4.8378 8.08462 4.81094 8.08462V10.0846ZM5.73529 9.81896C6.12336 9.53634 6.25164 9.11894 6.25164 8.77384H4.25164C4.25164 8.71995 4.26038 8.62217 4.31162 8.50699C4.36591 8.38493 4.45231 8.27914 4.5579 8.20224L5.73529 9.81896ZM6.25164 8.77384C6.25164 8.42328 6.11896 8.04723 5.79278 7.77447L4.5098 9.30874C4.42764 9.24003 4.35596 9.14792 4.30858 9.03826C4.26267 8.93202 4.25164 8.83757 4.25164 8.77384H6.25164ZM5.76074 7.74878C5.42411 7.49001 5.03427 7.46137 4.81153 7.46137V9.46137C4.83775 9.46137 4.82416 9.46402 4.78453 9.45468C4.74583 9.44556 4.6496 9.41727 4.54184 9.33443L5.76074 7.74878ZM4.80783 7.46138L3.73807 7.46533L3.74546 9.46532L4.81522 9.46136L4.80783 7.46138ZM4.74177 8.46532V7.85055H2.74177V8.46532H4.74177ZM3.74177 8.85055H4.79157V6.85055H3.74177V8.85055ZM4.79157 8.85055C5.00005 8.85055 5.37156 8.82888 5.70038 8.60271L4.56699 6.95486C4.67401 6.88125 4.76391 6.85956 4.79087 6.85391C4.82072 6.84766 4.8251 6.85055 4.79157 6.85055V8.85055ZM5.70307 8.60086C6.12255 8.31032 6.23403 7.86796 6.23403 7.54825H4.23403C4.23403 7.50167 4.24088 7.40484 4.29203 7.28731C4.34722 7.16053 4.44007 7.04276 4.5643 6.95672L5.70307 8.60086ZM6.23403 7.54825C6.23403 7.20535 6.10626 6.80317 5.73887 6.52388L4.5285 8.11605C4.4292 8.04056 4.34643 7.93775 4.29367 7.81786C4.24352 7.70391 4.23403 7.60588 4.23403 7.54825H6.23403ZM5.76475 6.54423C5.5761 6.39076 5.37369 6.31912 5.21637 6.28404L4.78107 8.2361C4.73524 8.22588 4.62321 8.19379 4.50263 8.0957L5.76475 6.54423ZM5.17869 6.2764C5.04732 6.25236 4.9165 6.24368 4.79157 6.24368V8.24368C4.80811 8.24368 4.81846 8.24428 4.82342 8.24467C4.82844 8.24507 4.8265 8.24516 4.81875 8.24374L5.17869 6.2764ZM4.79157 6.24368H3.5V8.24368H4.79157V6.24368ZM4.5 7.24368V6.62891H2.5V7.24368H4.5ZM3.5 7.62891H5.01632V5.62891H3.5V7.62891ZM5.01632 7.62891C5.13034 7.62891 5.19837 7.64023 5.23172 7.64873C5.26362 7.65687 5.24862 7.65845 5.21364 7.6322L6.41397 6.03245C5.98787 5.71274 5.47147 5.62891 5.01632 5.62891V7.62891ZM5.20386 7.62477C5.1805 7.60679 5.15702 7.58381 5.13611 7.55643C5.11529 7.52917 5.10109 7.50287 5.09199 7.48115C5.07431 7.43889 5.08139 7.42762 5.08139 7.47196H7.08139C7.08139 6.96868 6.91554 6.41841 6.42375 6.03988L5.20386 7.62477ZM5.08139 7.47196C5.08139 7.46742 5.08197 7.45093 5.08839 7.4262C5.09497 7.40087 5.10599 7.37346 5.12163 7.34717L6.84045 8.36974C7.00923 8.08605 7.08139 7.77684 7.08139 7.47196H5.08139ZM5.13153 7.33089C5.12869 7.33547 5.12254 7.34449 5.10417 7.35846L6.31453 8.95063C6.51915 8.79508 6.69374 8.60634 6.83056 8.38602L5.13153 7.33089ZM5.19844 9.01418C5.20385 9.01739 5.14939 8.98583 5.10115 8.8983L6.85272 7.9329C6.69299 7.64308 6.46014 7.43748 6.22026 7.29491L5.19844 9.01418ZM5.12258 8.93528C5.07745 8.86109 5.0855 8.81739 5.0855 8.8586H7.0855C7.0855 8.54609 7.02078 8.20743 6.8313 7.89592L5.12258 8.93528Z" fill="white" mask="url(#path-2-inside-1_67_2478)"/>
<mask id="path-4-inside-2_67_2478" fill="white">
<path d="M9.24838 8.75729C9.24838 9.07937 9.12691 9.32347 8.88456 9.4896C8.64221 9.65572 8.29305 9.73822 7.83651 9.73822C7.29782 9.73822 6.89937 9.61334 6.64117 9.36359C6.38474 9.11553 6.25623 8.72621 6.25623 8.19506C6.25623 7.65883 6.39354 7.26329 6.66875 7.00845C6.93986 6.75475 7.36237 6.62817 7.93686 6.62817H9.0829L9.08055 7.24295H7.92043C7.6323 7.24295 7.4234 7.29663 7.29371 7.40342C7.23268 7.45428 7.18632 7.5187 7.15464 7.59667C7.11884 7.67917 7.10124 7.77353 7.10124 7.88033H8.13637C8.50959 7.88033 8.78832 7.95209 8.97258 8.09505C9.15625 8.2397 9.24838 8.46007 9.24838 8.75729ZM8.42039 8.79006C8.42039 8.69118 8.39398 8.61659 8.34117 8.56574C8.28836 8.5194 8.20796 8.49567 8.0994 8.49567H7.10534C7.10534 8.7053 7.16637 8.86408 7.28902 8.97088C7.40873 9.0805 7.60061 9.13531 7.86409 9.13531C8.06537 9.13531 8.20738 9.10706 8.29188 9.05112C8.37814 8.99518 8.42039 8.90816 8.42039 8.79006Z"/>
</mask>
<path d="M9.24838 8.75729C9.24838 9.07937 9.12691 9.32347 8.88456 9.4896C8.64221 9.65572 8.29305 9.73822 7.83651 9.73822C7.29782 9.73822 6.89937 9.61334 6.64117 9.36359C6.38474 9.11553 6.25623 8.72621 6.25623 8.19506C6.25623 7.65883 6.39354 7.26329 6.66875 7.00845C6.93986 6.75475 7.36237 6.62817 7.93686 6.62817H9.0829L9.08055 7.24295H7.92043C7.6323 7.24295 7.4234 7.29663 7.29371 7.40342C7.23268 7.45428 7.18632 7.5187 7.15464 7.59667C7.11884 7.67917 7.10124 7.77353 7.10124 7.88033H8.13637C8.50959 7.88033 8.78832 7.95209 8.97258 8.09505C9.15625 8.2397 9.24838 8.46007 9.24838 8.75729ZM8.42039 8.79006C8.42039 8.69118 8.39398 8.61659 8.34117 8.56574C8.28836 8.5194 8.20796 8.49567 8.0994 8.49567H7.10534C7.10534 8.7053 7.16637 8.86408 7.28902 8.97088C7.40873 9.0805 7.60061 9.13531 7.86409 9.13531C8.06537 9.13531 8.20738 9.10706 8.29188 9.05112C8.37814 8.99518 8.42039 8.90816 8.42039 8.79006Z" fill="white"/>
<path d="M6.64117 9.36359L5.94591 10.0823L5.94592 10.0824L6.64117 9.36359ZM6.66875 7.00845L7.34819 7.74221L7.35204 7.7386L6.66875 7.00845ZM9.0829 6.62817L10.0829 6.63199L10.0867 5.62817H9.0829V6.62817ZM9.08055 7.24295V8.24295H10.0767L10.0805 7.24677L9.08055 7.24295ZM7.29371 7.40342L6.65801 6.63147L6.65354 6.63519L7.29371 7.40342ZM7.15464 7.59667L8.072 7.99472L8.07666 7.98399L8.08106 7.97315L7.15464 7.59667ZM7.10124 7.88033H6.10124V8.88033H7.10124V7.88033ZM8.97258 8.09505L9.59132 7.30941L9.58557 7.30496L8.97258 8.09505ZM8.34117 8.56574L9.0348 7.8454L9.01809 7.82932L9.00066 7.81403L8.34117 8.56574ZM7.10534 8.49567V7.49567H6.10534V8.49567H7.10534ZM7.28902 8.97088L7.96436 8.23338L7.95514 8.22493L7.94571 8.21672L7.28902 8.97088ZM8.29188 9.05112L7.74775 8.21206L7.73987 8.21728L8.29188 9.05112ZM8.24838 8.75729C8.24838 8.79158 8.24244 8.77592 8.26186 8.73685C8.27102 8.71842 8.28275 8.70123 8.29543 8.68693C8.30784 8.67293 8.31728 8.66606 8.31917 8.66477L9.44995 10.3144C9.9931 9.94211 10.2484 9.37266 10.2484 8.75729H8.24838ZM8.31917 8.66477C8.31271 8.6692 8.19607 8.73822 7.83651 8.73822V10.7382C8.39003 10.7382 8.9717 10.6422 9.44995 10.3144L8.31917 8.66477ZM7.83651 8.73822C7.6408 8.73822 7.51179 8.71511 7.43272 8.69033C7.35797 8.6669 7.33675 8.64513 7.33643 8.64483L5.94592 10.0824C6.46561 10.585 7.16583 10.7382 7.83651 10.7382V8.73822ZM7.33644 8.64484C7.33641 8.64481 7.3363 8.6447 7.33608 8.64446C7.33586 8.64422 7.33547 8.64377 7.33492 8.64307C7.33385 8.64172 7.33177 8.63893 7.32891 8.63418C7.32324 8.62479 7.31322 8.60564 7.30228 8.57245C7.27952 8.50341 7.25623 8.38383 7.25623 8.19506H5.25623C5.25623 8.86602 5.41718 9.57089 5.94591 10.0823L7.33644 8.64484ZM7.25623 8.19506C7.25623 8.00877 7.2805 7.89174 7.30387 7.82451C7.32519 7.76316 7.3444 7.7457 7.34818 7.7422L5.98933 6.27471C5.43446 6.7885 5.25623 7.50281 5.25623 8.19506H7.25623ZM7.35204 7.7386C7.3587 7.73237 7.48157 7.62817 7.93686 7.62817V5.62817C7.24317 5.62817 6.52102 5.77712 5.98547 6.27831L7.35204 7.7386ZM7.93686 7.62817H9.0829V5.62817H7.93686V7.62817ZM8.08291 6.62436L8.08056 7.23913L10.0805 7.24677L10.0829 6.63199L8.08291 6.62436ZM9.08055 6.24295H7.92043V8.24295H9.08055V6.24295ZM7.92043 6.24295C7.54999 6.24295 7.05558 6.3041 6.65802 6.63148L7.9294 8.17537C7.89156 8.20653 7.85762 8.2258 7.83396 8.23702C7.8107 8.24803 7.79657 8.25166 7.79591 8.25183C7.79525 8.252 7.80461 8.24959 7.82642 8.24724C7.84809 8.2449 7.87899 8.24295 7.92043 8.24295V6.24295ZM6.65354 6.63519C6.45886 6.79742 6.31791 6.99945 6.22821 7.2202L8.08106 7.97315C8.05473 8.03794 8.0065 8.11114 7.93388 8.17166L6.65354 6.63519ZM6.23727 7.19863C6.13713 7.42942 6.10124 7.66368 6.10124 7.88033H8.10124C8.10124 7.88338 8.10055 7.92892 8.072 7.99472L6.23727 7.19863ZM7.10124 8.88033H8.13637V6.88033H7.10124V8.88033ZM8.13637 8.88033C8.26224 8.88033 8.33818 8.89278 8.37647 8.90262C8.41346 8.91212 8.39736 8.91444 8.35959 8.88514L9.58557 7.30496C9.14871 6.96602 8.6085 6.88033 8.13637 6.88033V8.88033ZM8.35386 8.88066C8.33398 8.865 8.31352 8.84472 8.29511 8.82034C8.27677 8.79605 8.26427 8.77274 8.25635 8.75373C8.24087 8.7166 8.24838 8.70994 8.24838 8.75729H10.2484C10.2484 8.24281 10.078 7.69278 9.5913 7.30944L8.35386 8.88066ZM9.42039 8.79006C9.42039 8.51651 9.34375 8.14289 9.0348 7.8454L7.64755 9.28607C7.44422 9.09029 7.42039 8.86584 7.42039 8.79006H9.42039ZM9.00066 7.81403C8.69169 7.54295 8.33026 7.49567 8.0994 7.49567V9.49567C8.08567 9.49567 7.88503 9.49585 7.68168 9.31745L9.00066 7.81403ZM8.0994 7.49567H7.10534V9.49567H8.0994V7.49567ZM6.10534 8.49567C6.10534 8.9028 6.23081 9.37541 6.63232 9.72503L7.94571 8.21672C8.01317 8.27546 8.059 8.34671 8.08411 8.41176C8.107 8.47106 8.10534 8.50557 8.10534 8.49567H6.10534ZM6.61367 9.70838C7.00344 10.0653 7.49809 10.1353 7.86409 10.1353V8.13531C7.79738 8.13531 7.7806 8.12788 7.79749 8.13271C7.81706 8.13831 7.88662 8.16219 7.96436 8.23338L6.61367 9.70838ZM7.86409 10.1353C8.10409 10.1353 8.50094 10.112 8.84388 9.88496L7.73987 8.21728C7.79328 8.18192 7.83947 8.16159 7.86984 8.15032C7.90031 8.13902 7.92118 8.13449 7.92817 8.13311C7.93953 8.13087 7.92224 8.13531 7.86409 8.13531V10.1353ZM8.83598 9.89014C9.25752 9.61677 9.42039 9.18141 9.42039 8.79006H7.42039C7.42039 8.73077 7.43114 8.62486 7.4907 8.50345C7.55342 8.37562 7.64772 8.27699 7.74778 8.2121L8.83598 9.89014Z" fill="white" mask="url(#path-4-inside-2_67_2478)"/>
<mask id="path-6-inside-3_67_2478" fill="white">
<path d="M12.1574 8.76989C12.1574 9.06993 12.0594 9.30047 11.8646 9.46095C11.668 9.62029 11.3905 9.6994 11.0325 9.6994H9.35364V9.08462H10.887C11.0378 9.08462 11.1446 9.05976 11.2056 9.0106C11.2643 8.96257 11.2931 8.88233 11.2931 8.76989C11.2931 8.65462 11.2637 8.57155 11.2056 8.52126C11.1446 8.47324 11.0378 8.4495 10.887 8.4495H9.35364V6.62891H12.0013L11.999 7.24368H10.1382V7.83812H11.1751C11.4761 7.83812 11.7167 7.91835 11.8981 8.07883C11.982 8.16246 12.0471 8.26078 12.0929 8.37322C12.1357 8.48793 12.1574 8.62071 12.1574 8.76989Z"/>
</mask>
<path d="M12.1574 8.76989C12.1574 9.06993 12.0594 9.30047 11.8646 9.46095C11.668 9.62029 11.3905 9.6994 11.0325 9.6994H9.35364V9.08462H10.887C11.0378 9.08462 11.1446 9.05976 11.2056 9.0106C11.2643 8.96257 11.2931 8.88233 11.2931 8.76989C11.2931 8.65462 11.2637 8.57155 11.2056 8.52126C11.1446 8.47324 11.0378 8.4495 10.887 8.4495H9.35364V6.62891H12.0013L11.999 7.24368H10.1382V7.83812H11.1751C11.4761 7.83812 11.7167 7.91835 11.8981 8.07883C11.982 8.16246 12.0471 8.26078 12.0929 8.37322C12.1357 8.48793 12.1574 8.62071 12.1574 8.76989Z" fill="white"/>
<path d="M11.8646 9.46095L12.4943 10.2378L12.5004 10.2328L11.8646 9.46095ZM9.35364 9.6994H8.35364V10.6994H9.35364V9.6994ZM9.35364 9.08462V8.08462H8.35364V9.08462H9.35364ZM11.2056 9.0106L11.8329 9.78939L11.839 9.78444L11.2056 9.0106ZM11.2056 8.52126L11.8601 7.7652L11.8424 7.7499L11.8241 7.73544L11.2056 8.52126ZM9.35364 8.4495H8.35364V9.4495H9.35364V8.4495ZM9.35364 6.62891V5.62891H8.35364V6.62891H9.35364ZM12.0013 6.62891L13.0013 6.63272L13.0052 5.62891H12.0013V6.62891ZM11.999 7.24368V8.24368H12.9952L12.999 7.2475L11.999 7.24368ZM10.1382 7.24368V6.24368H9.13821V7.24368H10.1382ZM10.1382 7.83812H9.13821V8.83812H10.1382V7.83812ZM11.8981 8.07883L12.604 7.37051L12.583 7.34961L12.5608 7.32998L11.8981 8.07883ZM12.0929 8.37322L13.0297 8.02337L13.0246 8.00971L13.0191 7.9962L12.0929 8.37322ZM11.1574 8.76989C11.1574 8.81155 11.1507 8.80735 11.1634 8.77734C11.1697 8.76253 11.1791 8.74537 11.192 8.72816C11.2049 8.71099 11.218 8.69797 11.2288 8.68908L12.5004 10.2328C12.9692 9.84665 13.1574 9.30756 13.1574 8.76989H11.1574ZM11.2349 8.6841C11.2784 8.64882 11.2563 8.6994 11.0325 8.6994V10.6994C11.5247 10.6994 12.0576 10.5918 12.4943 10.2378L11.2349 8.6841ZM11.0325 8.6994H9.35364V10.6994H11.0325V8.6994ZM10.3536 9.6994V9.08462H8.35364V9.6994H10.3536ZM9.35364 10.0846H10.887V8.08462H9.35364V10.0846ZM10.887 10.0846C11.0853 10.0846 11.4917 10.0643 11.8329 9.78937L10.5783 8.23183C10.7019 8.13229 10.8145 8.10109 10.8536 8.09201C10.8965 8.08204 10.9125 8.08462 10.887 8.08462V10.0846ZM11.839 9.78444C12.2273 9.46665 12.2931 9.02802 12.2931 8.76989H10.2931C10.2931 8.73665 10.3013 8.45849 10.5722 8.23675L11.839 9.78444ZM12.2931 8.76989C12.2931 8.50937 12.2275 8.08327 11.8601 7.7652L10.5511 9.27733C10.2999 9.05984 10.2931 8.79987 10.2931 8.76989H12.2931ZM11.8241 7.73544C11.4824 7.46658 11.0778 7.4495 10.887 7.4495V9.4495C10.9151 9.4495 10.9015 9.4522 10.861 9.4431C10.8248 9.43498 10.7122 9.40545 10.5872 9.30709L11.8241 7.73544ZM10.887 7.4495H9.35364V9.4495H10.887V7.4495ZM10.3536 8.4495V6.62891H8.35364V8.4495H10.3536ZM9.35364 7.62891H12.0013V5.62891H9.35364V7.62891ZM11.0013 6.62509L10.999 7.23987L12.999 7.2475L13.0013 6.63272L11.0013 6.62509ZM11.999 6.24368H10.1382V8.24368H11.999V6.24368ZM9.13821 7.24368V7.83812H11.1382V7.24368H9.13821ZM10.1382 8.83812H11.1751V6.83812H10.1382V8.83812ZM11.1751 8.83812C11.2375 8.83812 11.2638 8.84649 11.2655 8.84705C11.2661 8.84728 11.2623 8.84602 11.2555 8.84218C11.2487 8.83827 11.2416 8.83326 11.2353 8.82768L12.5608 7.32998C12.1555 6.9713 11.6592 6.83812 11.1751 6.83812V8.83812ZM11.1922 8.78714C11.1866 8.78164 11.181 8.77481 11.1759 8.7672C11.1709 8.75962 11.168 8.75351 11.1667 8.75024L13.0191 7.9962C12.9239 7.76235 12.7848 7.55072 12.604 7.37051L11.1922 8.78714ZM11.1561 8.72307C11.1494 8.70508 11.1574 8.71576 11.1574 8.76989H13.1574C13.1574 8.52567 13.1221 8.27077 13.0297 8.02337L11.1561 8.72307Z" fill="white" mask="url(#path-6-inside-3_67_2478)"/>
<path d="M14.3403 10.6378C14.2214 10.6012 13.8997 10.5144 13.5795 10.4293L13.8336 10.2088L14.8142 10.4828C14.8264 10.4887 14.8429 10.4971 14.8616 10.5078C14.9053 10.5326 14.9467 10.5615 14.977 10.5897C14.8971 10.6637 14.8741 10.6762 14.8396 10.6861C14.793 10.6995 14.6608 10.7197 14.3403 10.6378ZM15.0026 10.5541C15.0027 10.5541 15.0025 10.5547 15.0019 10.5559L15.0026 10.5541Z" fill="white" stroke="white"/>
<path d="M8.17974 11.4888C8.31218 11.4798 8.44614 11.4656 8.58109 11.4472L8.17974 11.4888ZM8.17974 11.4888C8.55499 11.444 8.91869 11.3595 9.26458 11.257L9.26468 11.2569C10.371 10.9288 11.4188 10.4377 12.3155 9.66235L12.3169 9.66113C12.3299 9.64985 12.3379 9.64284 12.3457 9.63636L12.3458 9.63649L12.3555 9.62799C12.648 9.37176 13.0062 9.03684 13.2798 8.64322C13.5539 8.24881 13.7754 7.7486 13.7145 7.17608L13.7144 7.17583C13.7076 7.11245 13.696 7.0519 13.6803 6.99411C13.7385 7.05916 13.7837 7.13018 13.817 7.20728C13.8677 7.37189 13.8823 7.56382 13.8651 7.76521L13.8651 7.76564C13.8329 8.14766 13.6779 8.52972 13.4364 8.87997L13.4363 8.88021C13.0281 9.47304 12.4166 9.95115 11.7337 10.3544L11.7335 10.3544C11.1651 10.6903 10.5814 10.9499 9.95074 11.1388L9.95064 11.1389C9.49445 11.2757 9.03914 11.3851 8.58114 11.4472L8.17974 11.4888ZM5.78705 10.0345C5.80994 10.0826 5.83517 10.1289 5.86275 10.1747L5.75126 9.95259C5.75663 9.96442 5.76167 9.97635 5.76671 9.9883C5.77324 10.0038 5.77977 10.0192 5.78705 10.0345Z" fill="white" stroke="white"/>
<mask id="path-10-inside-4_67_2478" fill="white">
<path fill-rule="evenodd" clip-rule="evenodd" d="M6.10364 9.89851C6.10364 9.89851 7.72852 11.314 10.5182 9.79736C10.2072 10.1511 6.73387 11.7688 6.10364 9.89851Z"/>
</mask>
<path fill-rule="evenodd" clip-rule="evenodd" d="M6.10364 9.89851C6.10364 9.89851 7.72852 11.314 10.5182 9.79736C10.2072 10.1511 6.73387 11.7688 6.10364 9.89851Z" fill="white"/>
<path d="M6.10364 9.89851L6.76048 9.14448L3.97736 6.72008L5.15599 10.2178L6.10364 9.89851ZM10.5182 9.79736L11.2692 10.4577L10.0406 8.9188L10.5182 9.79736ZM6.10364 9.89851C5.4468 10.6525 5.44731 10.653 5.44783 10.6534C5.44802 10.6536 5.44855 10.6541 5.44891 10.6544C5.44965 10.655 5.45041 10.6557 5.45119 10.6563C5.45277 10.6577 5.45446 10.6591 5.45625 10.6607C5.45985 10.6637 5.46388 10.6671 5.46836 10.6709C5.4773 10.6783 5.48802 10.6871 5.50049 10.697C5.52542 10.7168 5.55743 10.7413 5.59644 10.7692C5.67436 10.8251 5.7808 10.8952 5.91494 10.9698C6.18306 11.119 6.565 11.2878 7.05215 11.3938C8.0485 11.6106 9.39653 11.5454 10.9959 10.6759L10.0406 8.9188C8.85022 9.56594 7.99095 9.55128 7.47744 9.43953C7.20965 9.38126 7.01102 9.29095 6.88729 9.22211C6.82551 9.18774 6.78321 9.15916 6.76137 9.14351C6.7505 9.13572 6.74488 9.13127 6.74465 9.13108C6.74453 9.13099 6.74578 9.13198 6.74841 9.13417C6.74973 9.13527 6.75139 9.13666 6.7534 9.13838C6.7544 9.13923 6.7555 9.14017 6.75668 9.14118C6.75727 9.14169 6.75788 9.14222 6.75851 9.14277C6.75883 9.14304 6.75932 9.14347 6.75948 9.14361C6.75998 9.14404 6.76048 9.14448 6.10364 9.89851ZM9.76724 9.13705C9.84471 9.04893 9.8843 9.04345 9.75638 9.11905C9.66705 9.17183 9.53618 9.24052 9.37244 9.31487C9.04276 9.46456 8.6275 9.61559 8.21773 9.70488C7.79077 9.79792 7.46331 9.80316 7.26037 9.75192C7.11563 9.71537 7.08329 9.67417 7.05128 9.57918L5.15599 10.2178C5.4391 11.058 6.07728 11.516 6.77075 11.6911C7.40604 11.8515 8.08453 11.7808 8.64356 11.659C9.21978 11.5335 9.77055 11.3306 10.1993 11.1359C10.4148 11.0381 10.6112 10.937 10.7738 10.8409C10.8978 10.7676 11.114 10.6342 11.2692 10.4577L9.76724 9.13705Z" fill="white" mask="url(#path-10-inside-4_67_2478)"/>
</g>
<defs>
<clipPath id="clip0_67_2478">
<rect width="18" height="18" fill="white" transform="translate(0.5)"/>
</clipPath>
</defs>
</svg>
