<svg width="25" height="25" viewBox="0 0 25 25" fill="none" xmlns="http://www.w3.org/2000/svg">
<g filter="url(#filter0_d_2862_104851)">
<path d="M22.965 7.5C22.8873 5.6277 22.6366 4.47975 21.8284 3.67157C20.6569 2.5 18.7712 2.5 15 2.5H13C9.22876 2.5 7.34315 2.5 6.17157 3.67157C5 4.84315 5 6.72876 5 10.5V14.5C5 18.2712 5 20.1569 6.17157 21.3284C7.34315 22.5 9.22876 22.5 13 22.5H15C18.7712 22.5 20.6569 22.5 21.8284 21.3284C23 20.1569 23 18.2712 23 14.5V11.5" stroke="white" stroke-width="1.5" stroke-linecap="round"/>
<path d="M8 12.5C8 11.0858 8 10.3787 8.43934 9.93934C8.87868 9.5 9.58579 9.5 11 9.5H17C18.4142 9.5 19.1213 9.5 19.5607 9.93934C20 10.3787 20 11.0858 20 12.5V16.5C20 17.9142 20 18.6213 19.5607 19.0607C19.1213 19.5 18.4142 19.5 17 19.5H11C9.58579 19.5 8.87868 19.5 8.43934 19.0607C8 18.6213 8 17.9142 8 16.5V12.5Z" stroke="white" stroke-width="1.5"/>
<path d="M9 6.5H14" stroke="white" stroke-width="1.5" stroke-linecap="round"/>
</g>
<defs>
<filter id="filter0_d_2862_104851" x="-2" y="0.5" width="32" height="32" filterUnits="userSpaceOnUse" color-interpolation-filters="sRGB">
<feFlood flood-opacity="0" result="BackgroundImageFix"/>
<feColorMatrix in="SourceAlpha" type="matrix" values="0 0 0 0 0 0 0 0 0 0 0 0 0 0 0 0 0 0 127 0" result="hardAlpha"/>
<feOffset dy="4"/>
<feGaussianBlur stdDeviation="2"/>
<feComposite in2="hardAlpha" operator="out"/>
<feColorMatrix type="matrix" values="0 0 0 0 0 0 0 0 0 0 0 0 0 0 0 0 0 0 0.25 0"/>
<feBlend mode="normal" in2="BackgroundImageFix" result="effect1_dropShadow_2862_104851"/>
<feBlend mode="normal" in="SourceGraphic" in2="effect1_dropShadow_2862_104851" result="shape"/>
</filter>
</defs>
</svg>
