<svg width="20" height="21" viewBox="0 0 20 21" fill="none" xmlns="http://www.w3.org/2000/svg">
<path d="M12.55 16.6583C12.0334 17.0083 11.3834 17.3 10.5917 17.5583L9.27504 17.9917C5.96671 19.0583 4.22504 18.1667 3.15004 14.8583L2.08337 11.5667C1.01671 8.25833 1.90004 6.50833 5.20837 5.44167L6.52504 5.00833C6.86671 4.9 7.19171 4.80833 7.50004 4.75C7.25004 5.25833 7.05004 5.875 6.88337 6.58333L6.06671 10.075C5.25004 13.5583 6.32504 15.275 9.80004 16.1L11.2 16.4333C11.6834 16.55 12.1334 16.625 12.55 16.6583Z" stroke="white" stroke-width="1.5" stroke-linecap="round" stroke-linejoin="round"/>
<path d="M10.5333 7.60828L14.575 8.63328" stroke="white" stroke-width="1.5" stroke-linecap="round" stroke-linejoin="round"/>
<path d="M9.71667 10.8334L12.1333 11.45" stroke="white" stroke-width="1.5" stroke-linecap="round" stroke-linejoin="round"/>
<path d="M17.4667 4.75005C18.3667 5.75005 18.525 7.18338 18.05 9.20005L17.2333 12.6834C16.5333 15.6917 15.15 16.9084 12.55 16.6584C12.1333 16.625 11.6833 16.55 11.2 16.4334L9.79999 16.1C6.32499 15.275 5.24999 13.5584 6.06665 10.075L6.88332 6.58338C7.04999 5.87505 7.24999 5.25838 7.49999 4.75005C8.47499 2.73338 10.1333 2.19171 12.9167 2.85005L14.3083 3.17505" stroke="white" stroke-width="1.5" stroke-linecap="round" stroke-linejoin="round"/>
</svg>
