<svg width="24" height="25" viewBox="0 0 24 25" fill="none" xmlns="http://www.w3.org/2000/svg">
<path d="M11.9994 21.7674C17.8467 21.7674 22.5876 17.3226 22.5876 11.8396C22.5876 6.35658 17.8467 1.91174 11.9994 1.91174C6.15201 1.91174 1.41113 6.35658 1.41113 11.8396C1.41113 14.3357 2.39452 16.6191 4.01849 18.3636C3.8901 19.8045 3.46657 21.3845 2.99804 22.5701C2.89349 22.8339 3.09599 23.1289 3.35937 23.0836C6.34525 22.5588 8.1201 21.7532 8.89172 21.3334C9.90543 21.6231 10.9502 21.769 11.9994 21.7674Z" stroke="white" stroke-width="1.5"/>
<mask id="path-2-inside-1_2862_104309" fill="white">
<path d="M7.21825 12.3015C7.21825 12.6702 7.09582 12.959 6.85013 13.1686C6.60034 13.3759 6.25523 13.4796 5.81399 13.4796H3.5979V12.6179H5.43355C5.64883 12.6179 5.80577 12.5831 5.90355 12.5143C6.00133 12.4431 6.05063 12.3331 6.05063 12.1828C6.05063 12.0443 6.0038 11.9359 5.91012 11.8576C5.81234 11.7824 5.65376 11.7452 5.43437 11.7452L3.93643 11.7508V10.8899H5.40643C5.62829 10.8899 5.78769 10.8567 5.88547 10.7894C5.97914 10.7246 6.02598 10.617 6.02598 10.4666C6.02598 10.3242 5.97914 10.2182 5.88547 10.147C5.83781 10.1082 5.77455 10.0805 5.69649 10.0631C5.61432 10.0481 5.51818 10.0402 5.40643 10.0402H3.5979V9.17932H5.72114C6.2125 9.17932 6.58473 9.27427 6.83781 9.46416C7.0876 9.65642 7.21249 9.95471 7.21249 10.3598C7.21249 10.5632 7.16566 10.7436 7.07199 10.901C6.97421 11.0585 6.84767 11.1969 6.69155 11.3156C6.86328 11.4177 6.98817 11.5395 7.06623 11.6811C7.1673 11.8473 7.21825 12.0538 7.21825 12.3015Z"/>
</mask>
<path d="M6.85013 13.1686L7.80805 14.3229L7.81601 14.3163L7.82387 14.3096L6.85013 13.1686ZM3.5979 13.4796H2.0979V14.9796H3.5979V13.4796ZM3.5979 12.6179V11.1179H2.0979V12.6179H3.5979ZM5.90355 12.5143L6.76702 13.7408L6.77686 13.7339L6.78659 13.7268L5.90355 12.5143ZM5.91012 11.8576L6.87236 10.7069L6.84873 10.6871L6.8243 10.6684L5.91012 11.8576ZM5.43437 11.7452V10.2452L5.42882 10.2452L5.43437 11.7452ZM3.93643 11.7508H2.43643V13.2563L3.94198 13.2508L3.93643 11.7508ZM3.93643 10.8899V9.38993H2.43643V10.8899H3.93643ZM5.88547 10.7894L6.73552 12.0253L6.73955 12.0225L5.88547 10.7894ZM5.88547 10.147L4.93888 11.3106L4.95804 11.3262L4.9777 11.3411L5.88547 10.147ZM5.69649 10.0631L6.02295 8.59907L5.9948 8.59279L5.96644 8.5876L5.69649 10.0631ZM3.5979 10.0402H2.0979V11.5402H3.5979V10.0402ZM3.5979 9.17932V7.67932H2.0979V9.17932H3.5979ZM6.83781 9.46416L7.75272 8.27549L7.74542 8.26987L7.73806 8.26435L6.83781 9.46416ZM7.07199 10.901L8.34626 11.6924L8.3538 11.6802L8.3611 11.6679L7.07199 10.901ZM6.69155 11.3156L5.78377 10.1215L4.01229 11.4682L5.92518 12.6051L6.69155 11.3156ZM7.06623 11.6811L5.75256 12.4052L5.76803 12.4333L5.78469 12.4607L7.06623 11.6811ZM5.71825 12.3015C5.71825 12.3194 5.71559 12.2792 5.74551 12.2087C5.77767 12.1329 5.82757 12.0693 5.87639 12.0276L7.82387 14.3096C8.45341 13.7723 8.71825 13.039 8.71825 12.3015H5.71825ZM5.89221 12.0143C5.91377 11.9964 5.93404 11.9837 5.95016 11.9753C5.96595 11.967 5.97454 11.9646 5.97262 11.9652C5.96701 11.9668 5.91989 11.9796 5.81399 11.9796V14.9796C6.47991 14.9796 7.2063 14.8223 7.80805 14.3229L5.89221 12.0143ZM5.81399 11.9796H3.5979V14.9796H5.81399V11.9796ZM5.0979 13.4796V12.6179H2.0979V13.4796H5.0979ZM3.5979 14.1179H5.43355V11.1179H3.5979V14.1179ZM5.43355 14.1179C5.74437 14.1179 6.28502 14.0802 6.76702 13.7408L5.04008 11.2877C5.19868 11.1761 5.33571 11.139 5.38913 11.1272C5.44555 11.1148 5.46617 11.1179 5.43355 11.1179V14.1179ZM6.78659 13.7268C7.36173 13.308 7.55063 12.6897 7.55063 12.1828H4.55063C4.55063 12.0966 4.56463 11.9453 4.64323 11.7686C4.72642 11.5816 4.85864 11.4196 5.02051 11.3018L6.78659 13.7268ZM7.55063 12.1828C7.55063 11.6668 7.35495 11.1104 6.87236 10.7069L4.94789 13.0083C4.8213 12.9024 4.71128 12.7609 4.63854 12.5926C4.56802 12.4294 4.55063 12.2833 4.55063 12.1828H7.55063ZM6.8243 10.6684C6.32632 10.2855 5.75285 10.2452 5.43437 10.2452V13.2452C5.4659 13.2452 5.43877 13.2485 5.37367 13.2332C5.30998 13.2182 5.16107 13.1738 4.99594 13.0468L6.8243 10.6684ZM5.42882 10.2452L3.93089 10.2508L3.94198 13.2508L5.43991 13.2452L5.42882 10.2452ZM5.43643 11.7508V10.8899H2.43643V11.7508H5.43643ZM3.93643 12.3899H5.40643V9.38993H3.93643V12.3899ZM5.40643 12.3899C5.70334 12.3899 6.24925 12.3598 6.73552 12.0253L5.03543 9.55355C5.19944 9.44075 5.33888 9.40642 5.38499 9.39676C5.43545 9.38619 5.44881 9.38993 5.40643 9.38993V12.3899ZM6.73955 12.0225C7.36209 11.5914 7.52598 10.9355 7.52598 10.4666H4.52598C4.52598 10.3914 4.53708 10.2416 4.61549 10.0614C4.69993 9.86744 4.84172 9.68771 5.03139 9.55634L6.73955 12.0225ZM7.52598 10.4666C7.52598 9.96243 7.33766 9.36671 6.79325 8.95285L4.9777 11.3411C4.82541 11.2253 4.69875 11.068 4.61794 10.8843C4.54104 10.7096 4.52598 10.5582 4.52598 10.4666H7.52598ZM6.83206 8.98338C6.55248 8.75594 6.25338 8.65045 6.02295 8.59907L5.37002 11.5271C5.29571 11.5106 5.12315 11.4605 4.93888 11.3106L6.83206 8.98338ZM5.96644 8.5876C5.77524 8.55262 5.58586 8.54016 5.40643 8.54016V11.5402C5.42725 11.5402 5.43908 11.5409 5.44308 11.5412C5.44717 11.5416 5.44108 11.5413 5.42653 11.5386L5.96644 8.5876ZM5.40643 8.54016H3.5979V11.5402H5.40643V8.54016ZM5.0979 10.0402V9.17932H2.0979V10.0402H5.0979ZM3.5979 10.6793H5.72114V7.67932H3.5979V10.6793ZM5.72114 10.6793C5.87466 10.6793 5.96132 10.6946 5.99808 10.704C6.03268 10.7128 5.99904 10.7101 5.93756 10.664L7.73806 8.26435C7.11694 7.79831 6.36886 7.67932 5.72114 7.67932V10.6793ZM5.92289 10.6528C5.83569 10.5857 5.77056 10.496 5.73508 10.4112C5.70411 10.3372 5.71249 10.3077 5.71249 10.3598H8.71249C8.71249 9.63375 8.47262 8.82959 7.75272 8.27549L5.92289 10.6528ZM5.71249 10.3598C5.71249 10.3458 5.71421 10.3142 5.7255 10.2707C5.73704 10.2262 5.75607 10.1791 5.78287 10.1341L8.3611 11.6679C8.60759 11.2536 8.71249 10.8026 8.71249 10.3598H5.71249ZM5.79771 10.1097C5.79817 10.1089 5.79857 10.1085 5.79792 10.1092C5.7972 10.11 5.79322 10.1143 5.78377 10.1215L7.59932 12.5097C7.89513 12.2849 8.14799 12.0116 8.34626 11.6924L5.79771 10.1097ZM5.92518 12.6051C5.92106 12.6026 5.83048 12.5466 5.75256 12.4052L8.37991 10.9571C8.14587 10.5325 7.8055 10.2327 7.45791 10.0262L5.92518 12.6051ZM5.78469 12.4607C5.7098 12.3375 5.71825 12.2573 5.71825 12.3015H8.71825C8.71825 11.8503 8.6248 11.3571 8.34777 10.9016L5.78469 12.4607Z" fill="white" mask="url(#path-2-inside-1_2862_104309)"/>
<mask id="path-4-inside-2_2862_104309" fill="white">
<path d="M11.6469 12.1596C11.6469 12.6106 11.4768 12.9524 11.1375 13.1851C10.7981 13.4177 10.3092 13.5332 9.66995 13.5332C8.91564 13.5332 8.35772 13.3583 7.99618 13.0086C7.6371 12.6613 7.45715 12.1161 7.45715 11.3724C7.45715 10.6215 7.64943 10.0677 8.0348 9.71083C8.41442 9.35558 9.00603 9.17834 9.81046 9.17834H11.4152L11.4119 10.0392H9.78745C9.38401 10.0392 9.09149 10.1144 8.90989 10.2639C8.82444 10.3351 8.75952 10.4253 8.71515 10.5345C8.66503 10.65 8.64038 10.7821 8.64038 10.9317H10.0898C10.6124 10.9317 11.0027 11.0322 11.2607 11.2323C11.5179 11.4349 11.6469 11.7435 11.6469 12.1596ZM10.4875 12.2055C10.4875 12.0671 10.4506 11.9626 10.3766 11.8914C10.3026 11.8265 10.1901 11.7933 10.0381 11.7933H8.64613C8.64613 12.0869 8.73159 12.3092 8.90332 12.4587C9.07094 12.6122 9.33963 12.689 9.70857 12.689C9.99041 12.689 10.1893 12.6494 10.3076 12.5711C10.4284 12.4927 10.4875 12.3709 10.4875 12.2055Z"/>
</mask>
<path d="M7.99618 13.0086L6.95328 14.0867L6.9533 14.0868L7.99618 13.0086ZM8.0348 9.71083L9.05394 10.8115L9.05973 10.8061L8.0348 9.71083ZM11.4152 9.17834L12.9152 9.18407L12.9209 7.67834H11.4152V9.17834ZM11.4119 10.0392V11.5392H12.9062L12.9119 10.0449L11.4119 10.0392ZM8.90989 10.2639L7.95634 9.10595L7.94964 9.11154L8.90989 10.2639ZM8.71515 10.5345L10.0912 11.1316L10.0982 11.1155L10.1048 11.0992L8.71515 10.5345ZM8.64038 10.9317H7.14038V12.4317H8.64038V10.9317ZM11.2607 11.2323L12.1888 10.0539L12.1802 10.0472L11.2607 11.2323ZM10.3766 11.8914L11.417 10.8109L11.392 10.7868L11.3658 10.7639L10.3766 11.8914ZM8.64613 11.7933V10.2933H7.14613V11.7933H8.64613ZM8.90332 12.4587L9.91633 11.3525L9.90251 11.3398L9.88836 11.3275L8.90332 12.4587ZM10.3076 12.5711L9.49143 11.3125L9.48548 11.3164L9.47957 11.3203L10.3076 12.5711ZM10.1469 12.1596C10.1469 12.195 10.141 12.1574 10.1762 12.0866C10.193 12.0529 10.2144 12.0215 10.2379 11.9949C10.2611 11.9688 10.2805 11.9539 10.2894 11.9478L11.9856 14.4223C12.7761 13.8804 13.1469 13.0506 13.1469 12.1596H10.1469ZM10.2894 11.9478C10.3019 11.9393 10.2741 11.9622 10.1703 11.9868C10.0651 12.0117 9.90332 12.0332 9.66995 12.0332V15.0332C10.4547 15.0332 11.2924 14.8975 11.9856 14.4223L10.2894 11.9478ZM9.66995 12.0332C9.11363 12.0332 9.00837 11.9008 9.03906 11.9305L6.9533 14.0868C7.70707 14.8159 8.71766 15.0332 9.66995 15.0332V12.0332ZM9.03908 11.9305C9.08844 11.9782 8.95715 11.9064 8.95715 11.3724H5.95715C5.95715 12.3258 6.18576 13.3443 6.95328 14.0867L9.03908 11.9305ZM8.95715 11.3724C8.95715 11.1197 8.99014 10.9674 9.01834 10.8863C9.03181 10.8475 9.04341 10.8271 9.04858 10.8189C9.05127 10.8147 9.05296 10.8126 9.05348 10.812C9.05378 10.8116 9.05393 10.8115 9.05395 10.8114C9.05396 10.8114 9.05396 10.8114 9.05395 10.8114C9.05394 10.8114 9.05393 10.8115 9.05393 10.8115L7.01567 8.61021C6.2108 9.35548 5.95715 10.3875 5.95715 11.3724H8.95715ZM9.05973 10.8061C9.04268 10.822 9.18483 10.6783 9.81046 10.6783V7.67834C8.82723 7.67834 7.78616 7.88914 7.00986 8.61561L9.05973 10.8061ZM9.81046 10.6783H11.4152V7.67834H9.81046V10.6783ZM9.91522 9.17262L9.91194 10.0335L12.9119 10.0449L12.9152 9.18407L9.91522 9.17262ZM11.4119 8.53919H9.78745V11.5392H11.4119V8.53919ZM9.78745 8.53919C9.26054 8.53919 8.53976 8.62555 7.95636 9.10597L9.86343 11.4218C9.74372 11.5204 9.64673 11.5462 9.63787 11.5485C9.63166 11.5501 9.64 11.5475 9.66652 11.5446C9.69283 11.5418 9.73249 11.5392 9.78745 11.5392V8.53919ZM7.94964 9.11154C7.6637 9.34981 7.45691 9.64643 7.32551 9.96977L10.1048 11.0992C10.0621 11.2042 9.98517 11.3204 9.87014 11.4162L7.94964 9.11154ZM7.3391 9.93742C7.19246 10.2754 7.14038 10.6174 7.14038 10.9317H10.1404C10.1404 10.9469 10.1376 11.0246 10.0912 11.1316L7.3391 9.93742ZM8.64038 12.4317H10.0898V9.43168H8.64038V12.4317ZM10.0898 12.4317C10.26 12.4317 10.3577 12.4486 10.4012 12.4597C10.4428 12.4704 10.4071 12.4686 10.3412 12.4175L12.1802 10.0472C11.5433 9.55305 10.7608 9.43168 10.0898 9.43168V12.4317ZM10.3327 12.4108C10.2982 12.3837 10.2636 12.3492 10.2325 12.308C10.2016 12.267 10.1799 12.2271 10.1658 12.193C10.138 12.1263 10.1469 12.1034 10.1469 12.1596H13.1469C13.1469 11.4176 12.9006 10.6145 12.1888 10.0539L10.3327 12.4108ZM11.9875 12.2055C11.9875 11.8051 11.8752 11.2521 11.417 10.8109L9.33616 12.9719C9.02591 12.6732 8.98753 12.3291 8.98753 12.2055H11.9875ZM11.3658 10.7639C10.9076 10.3619 10.3735 10.2933 10.0381 10.2933V13.2933C10.0066 13.2933 9.69765 13.2912 9.38736 13.019L11.3658 10.7639ZM10.0381 10.2933H8.64613V13.2933H10.0381V10.2933ZM7.14613 11.7933C7.14613 12.3831 7.32825 13.0762 7.91827 13.59L9.88836 11.3275C9.99566 11.4209 10.069 11.5344 10.1097 11.6399C10.1471 11.7367 10.1461 11.7977 10.1461 11.7933H7.14613ZM7.8903 13.565C8.46302 14.0894 9.18585 14.189 9.70857 14.189V11.189C9.62164 11.189 9.60782 11.1792 9.64272 11.1892C9.68165 11.2003 9.79376 11.2402 9.91633 11.3525L7.8903 13.565ZM9.70857 14.189C10.0485 14.189 10.6296 14.1568 11.1356 13.8218L9.47957 11.3203C9.56178 11.2659 9.63354 11.2342 9.68192 11.2162C9.73045 11.1982 9.76494 11.1905 9.77898 11.1878C9.80313 11.183 9.78575 11.189 9.70857 11.189V14.189ZM11.1237 13.8296C11.7474 13.4251 11.9875 12.7808 11.9875 12.2055H8.98753C8.98753 12.1107 9.00471 11.9467 9.09618 11.7603C9.19238 11.5642 9.33703 11.4127 9.49143 11.3125L11.1237 13.8296Z" fill="white" mask="url(#path-4-inside-2_2862_104309)"/>
<mask id="path-6-inside-3_2862_104309" fill="white">
<path d="M15.7212 12.1772C15.7212 12.5974 15.584 12.9202 15.3112 13.1449C15.0359 13.368 14.6472 13.4788 14.146 13.4788H11.7952V12.6179H13.9422C14.1534 12.6179 14.303 12.5831 14.3884 12.5143C14.4706 12.447 14.5108 12.3347 14.5108 12.1772C14.5108 12.0158 14.4698 11.8995 14.3884 11.8291C14.303 11.7618 14.1534 11.7286 13.9422 11.7286H11.7952V9.17932H15.5026L15.4993 10.0402H12.8938V10.8725H14.3457C14.7672 10.8725 15.1041 10.9849 15.358 11.2096C15.4755 11.3267 15.5667 11.4643 15.6308 11.6218C15.6908 11.7824 15.7212 11.9684 15.7212 12.1772Z"/>
</mask>
<path d="M15.3112 13.1449L16.2557 14.3102L16.2648 14.3027L15.3112 13.1449ZM11.7952 13.4788H10.2952V14.9788H11.7952V13.4788ZM11.7952 12.6179V11.1179H10.2952V12.6179H11.7952ZM14.3884 12.5143L15.3294 13.6825L15.3385 13.6751L14.3884 12.5143ZM14.3884 11.8291L15.3701 10.695L15.3436 10.672L15.3161 10.6504L14.3884 11.8291ZM11.7952 11.7286H10.2952V13.2286H11.7952V11.7286ZM11.7952 9.17932V7.67932H10.2952V9.17932H11.7952ZM15.5026 9.17932L17.0026 9.18505L17.0083 7.67932H15.5026V9.17932ZM15.4993 10.0402V11.5402H16.9936L16.9993 10.0459L15.4993 10.0402ZM12.8938 10.0402V8.54016H11.3938V10.0402H12.8938ZM12.8938 10.8725H11.3938V12.3725H12.8938V10.8725ZM15.358 11.2096L16.4168 10.1471L16.3854 10.1157L16.3521 10.0863L15.358 11.2096ZM15.6308 11.6218L17.036 11.097L17.0283 11.0765L17.0201 11.0563L15.6308 11.6218ZM14.2212 12.1772C14.2212 12.2248 14.2135 12.2052 14.2375 12.1487C14.2494 12.1208 14.2665 12.0897 14.2895 12.059C14.3125 12.0284 14.3364 12.0044 14.3575 11.9871L16.2648 14.3027C16.9486 13.7395 17.2212 12.9538 17.2212 12.1772H14.2212ZM14.3666 11.9796C14.4068 11.9471 14.4285 11.9454 14.4006 11.9534C14.3687 11.9625 14.2896 11.9788 14.146 11.9788V14.9788C14.8485 14.9788 15.6203 14.8252 16.2557 14.3102L14.3666 11.9796ZM14.146 11.9788H11.7952V14.9788H14.146V11.9788ZM13.2952 13.4788V12.6179H10.2952V13.4788H13.2952ZM11.7952 14.1179H13.9422V11.1179H11.7952V14.1179ZM13.9422 14.1179C14.2247 14.1179 14.8236 14.0899 15.3294 13.6824L13.4474 11.3461C13.6358 11.1944 13.8089 11.1457 13.8729 11.1309C13.9425 11.1147 13.973 11.1179 13.9422 11.1179V14.1179ZM15.3385 13.6751C15.915 13.2032 16.0108 12.5532 16.0108 12.1772H13.0108C13.0108 12.1162 13.0261 11.6909 13.4383 11.3535L15.3385 13.6751ZM16.0108 12.1772C16.0108 11.798 15.9155 11.1671 15.3701 10.695L13.4067 12.9632C13.024 12.6319 13.0108 12.2337 13.0108 12.1772H16.0108ZM15.3161 10.6504C14.8097 10.2519 14.2134 10.2286 13.9422 10.2286V13.2286C13.9769 13.2286 13.9501 13.2321 13.8839 13.2172C13.8244 13.2039 13.6512 13.1578 13.4607 13.0078L15.3161 10.6504ZM13.9422 10.2286H11.7952V13.2286H13.9422V10.2286ZM13.2952 11.7286V9.17932H10.2952V11.7286H13.2952ZM11.7952 10.6793H15.5026V7.67932H11.7952V10.6793ZM14.0026 9.1736L13.9993 10.0344L16.9993 10.0459L17.0026 9.18505L14.0026 9.1736ZM15.4993 8.54016H12.8938V11.5402H15.4993V8.54016ZM11.3938 10.0402V10.8725H14.3938V10.0402H11.3938ZM12.8938 12.3725H14.3457V9.37252H12.8938V12.3725ZM14.3457 12.3725C14.4243 12.3725 14.4502 12.3831 14.4407 12.3799C14.4357 12.3783 14.4242 12.3739 14.4089 12.3651C14.3933 12.3562 14.3779 12.3452 14.3639 12.3329L16.3521 10.0863C15.7623 9.56429 15.0417 9.37252 14.3457 9.37252V12.3725ZM14.2991 12.2721C14.2867 12.2596 14.2744 12.2448 14.2636 12.2285C14.2529 12.2123 14.2458 12.1978 14.2415 12.1873L17.0201 11.0563C16.8819 10.7167 16.6797 10.4091 16.4168 10.1471L14.2991 12.2721ZM14.2256 12.1466C14.2183 12.127 14.2172 12.1178 14.218 12.1226C14.2188 12.1276 14.2212 12.1452 14.2212 12.1772H17.2212C17.2212 11.8258 17.1703 11.4567 17.036 11.097L14.2256 12.1466Z" fill="white" mask="url(#path-6-inside-3_2862_104309)"/>
<path d="M18.7904 14.7448C18.6329 14.6964 18.231 14.5876 17.8154 14.4769L18.0799 14.2473L19.4227 14.6226C19.4385 14.6304 19.4591 14.641 19.4823 14.6542C19.5225 14.6771 19.5604 14.702 19.5927 14.7268C19.5167 14.7943 19.4939 14.8035 19.4623 14.8126C19.4091 14.8279 19.2341 14.8581 18.7904 14.7448ZM19.6693 14.8001C19.6692 14.8001 19.6687 14.7994 19.6679 14.798C19.6689 14.7994 19.6693 14.8001 19.6693 14.8001Z" stroke="white" stroke-width="1.5"/>
<path d="M9.88816 15.3082L9.94635 15.9455C9.4948 15.9632 9.05937 15.9337 8.65122 15.8354L8.65086 15.8353C8.63397 15.8313 8.61715 15.8271 8.60043 15.8228L9.95652 16.055C10.2135 16.0316 10.4668 15.9942 10.7154 15.9465L10.8067 16.6193L10.7154 15.9465C11.0474 15.8827 11.371 15.8003 11.6839 15.7076L11.684 15.7075C11.7455 15.6893 11.8068 15.6707 11.868 15.6518M9.88816 15.3082L9.94649 15.9455C10.1954 15.9357 10.4491 15.9116 10.7059 15.8768C11.0314 15.8326 11.356 15.7713 11.6806 15.6965C11.6806 15.6965 11.6807 15.6964 11.6807 15.6964C11.7431 15.682 11.8056 15.6671 11.868 15.6518M9.88816 15.3082C10.4255 15.2591 10.9555 15.1412 11.4707 14.9885L9.88816 15.3082ZM11.868 15.6518C13.3542 15.1914 14.762 14.5131 15.9744 13.4646L15.9765 13.4628C15.9947 13.447 16.0056 13.4375 16.016 13.4289L16.0234 13.4227L16.0307 13.4163C16.4408 13.057 16.9463 12.5848 17.333 12.0283C17.7205 11.4707 18.0374 10.7584 17.9502 9.94024L17.9502 9.93985C17.9489 9.92786 17.9475 9.91594 17.946 9.9041M11.868 15.6518C12.1172 15.5904 12.3664 15.5215 12.616 15.4466L12.6162 15.4466C13.4951 15.1832 14.3089 14.8214 15.1015 14.3531L15.1017 14.353C16.0549 13.7901 16.9043 13.1251 17.47 12.3034L17.4703 12.3031C17.8047 11.8181 18.0176 11.2913 18.0619 10.7669L18.0619 10.7662C18.0854 10.49 18.0653 10.2289 17.9974 10.0065M17.946 9.9041L15.483 14.9988C16.4814 14.4093 17.4345 13.6775 18.0878 12.7288C18.4789 12.1615 18.7517 11.5119 18.8092 10.8299C18.8396 10.473 18.8158 10.1004 18.7048 9.7562M17.946 9.9041C17.965 9.93735 17.9821 9.97148 17.9974 10.0065M17.946 9.9041L18.3675 9.86493L17.991 9.98627C17.9932 9.99297 17.9953 9.99971 17.9974 10.0065M17.9974 10.0065C17.9998 10.0121 18.0022 10.0177 18.0045 10.0233L18.3681 9.87279L18.7048 9.7562M18.7048 9.7562C18.7024 9.74908 18.6999 9.74275 18.6975 9.73642L18.4558 9.83646L18.7048 9.7562ZM6.84151 14.03C6.86196 14.0686 6.88354 14.1066 6.90627 14.1443C7.00323 14.3041 7.12073 14.4521 7.25549 14.5842C7.42475 14.7496 7.62114 14.8888 7.83395 14.9972L6.84151 14.03ZM6.84151 14.03C6.85309 14.0742 6.8654 14.1179 6.87845 14.161C6.87846 14.1611 6.87847 14.1611 6.87848 14.1611C6.93993 14.3641 7.01786 14.5542 7.1144 14.7281C7.11446 14.7282 7.11452 14.7283 7.11458 14.7284C7.14827 14.7891 7.18421 14.8478 7.22251 14.9043L7.22274 14.9047C7.33908 15.0768 7.48199 15.2295 7.64747 15.3612L6.84151 14.03ZM17.9961 10.0016L18.1812 9.93749L17.9986 10.0086L17.9961 10.0016Z" stroke="white" stroke-width="1.5"/>
<mask id="path-10-inside-4_2862_104309" fill="white">
<path fill-rule="evenodd" clip-rule="evenodd" d="M7.24335 13.7578C7.24335 13.7578 9.51859 15.7398 13.4249 13.6162C12.9894 14.1115 8.12584 16.3768 7.24335 13.7578Z"/>
</mask>
<path d="M7.24335 13.7578L8.22861 12.6268L4.05394 8.99019L5.82188 14.2368L7.24335 13.7578ZM13.4249 13.6162L14.5514 14.6067L12.7085 12.2984L13.4249 13.6162ZM7.24335 13.7578C6.25808 14.8889 6.25886 14.8896 6.25964 14.8902C6.25991 14.8905 6.2607 14.8912 6.26125 14.8916C6.26235 14.8926 6.26348 14.8936 6.26465 14.8946C6.267 14.8966 6.2695 14.8987 6.27215 14.901C6.27746 14.9055 6.2834 14.9105 6.28995 14.916C6.30306 14.9269 6.31866 14.9396 6.33673 14.954C6.37287 14.9827 6.41902 15.018 6.47504 15.0581C6.58695 15.1383 6.73919 15.2386 6.93063 15.3451C7.31326 15.558 7.85722 15.7982 8.55029 15.9491C9.96952 16.2579 11.8815 16.1626 14.1413 14.9341L12.7085 12.2984C11.062 13.1934 9.88319 13.1689 9.18822 13.0177C8.8242 12.9385 8.5552 12.8159 8.38915 12.7236C8.30625 12.6774 8.25022 12.6395 8.22244 12.6196C8.20862 12.6097 8.20207 12.6044 8.20297 12.6051C8.20343 12.6055 8.20578 12.6074 8.21004 12.6109C8.21217 12.6127 8.21478 12.6149 8.21787 12.6175C8.21942 12.6189 8.22109 12.6203 8.22288 12.6218C8.22377 12.6226 8.2247 12.6234 8.22565 12.6242C8.22613 12.6246 8.22687 12.6253 8.22711 12.6255C8.22786 12.6261 8.22861 12.6268 7.24335 13.7578ZM12.2984 12.6257C12.4185 12.4892 12.4867 12.4746 12.3074 12.5805C12.1859 12.6523 12.006 12.7468 11.7792 12.8498C11.3226 13.0571 10.7479 13.266 10.1824 13.3893C9.5911 13.5181 9.15009 13.5222 8.88749 13.4559C8.71217 13.4116 8.69711 13.3747 8.66481 13.2789L5.82188 14.2368C6.23083 15.4504 7.15465 16.1125 8.15306 16.3646C9.06418 16.5946 10.0317 16.4925 10.8211 16.3205C11.6363 16.1428 12.4143 15.8562 13.0195 15.5814C13.3238 15.4432 13.6022 15.3 13.8335 15.1633C14.007 15.0608 14.3224 14.8671 14.5514 14.6067L12.2984 12.6257Z" fill="white" mask="url(#path-10-inside-4_2862_104309)"/>
</svg>
