<svg width="25" height="26" viewBox="0 0 25 26" fill="none" xmlns="http://www.w3.org/2000/svg">
<path d="M4.16699 5.18717C4.16699 4.49651 4.44136 3.83413 4.92973 3.34575C5.41811 2.85737 6.08049 2.58301 6.77116 2.58301H18.7503C19.0923 2.58301 19.4309 2.65037 19.7469 2.78124C20.0628 2.91211 20.3499 3.10393 20.5917 3.34575C20.8336 3.58757 21.0254 3.87465 21.1563 4.1906C21.2871 4.50656 21.3545 4.84519 21.3545 5.18717V20.0309C21.3545 20.2381 21.2722 20.4368 21.1257 20.5834C20.9792 20.7299 20.7804 20.8122 20.5732 20.8122H5.72949C5.72949 21.0884 5.83924 21.3534 6.03459 21.5487C6.22994 21.7441 6.49489 21.8538 6.77116 21.8538H20.5732C20.7804 21.8538 20.9792 21.9362 21.1257 22.0827C21.2722 22.2292 21.3545 22.4279 21.3545 22.6351C21.3545 22.8423 21.2722 23.041 21.1257 23.1875C20.9792 23.334 20.7804 23.4163 20.5732 23.4163H6.77116C6.08049 23.4163 5.41811 23.142 4.92973 22.6536C4.44136 22.1652 4.16699 21.5028 4.16699 20.8122V5.18717ZM12.7607 8.83301C13.037 8.83301 13.302 8.72326 13.4973 8.52791C13.6927 8.33256 13.8024 8.06761 13.8024 7.79134C13.8024 7.51507 13.6927 7.25012 13.4973 7.05477C13.302 6.85942 13.037 6.74967 12.7607 6.74967C12.4845 6.74967 12.2195 6.85942 12.0242 7.05477C11.8288 7.25012 11.7191 7.51507 11.7191 7.79134C11.7191 8.06761 11.8288 8.33256 12.0242 8.52791C12.2195 8.72326 12.4845 8.83301 12.7607 8.83301ZM11.9795 10.6559V15.8643C11.9795 16.0715 12.0618 16.2702 12.2083 16.4167C12.3548 16.5632 12.5535 16.6455 12.7607 16.6455C12.9679 16.6455 13.1667 16.5632 13.3132 16.4167C13.4597 16.2702 13.542 16.0715 13.542 15.8643V10.6559C13.542 10.4487 13.4597 10.25 13.3132 10.1035C13.1667 9.95699 12.9679 9.87467 12.7607 9.87467C12.5535 9.87467 12.3548 9.95699 12.2083 10.1035C12.0618 10.25 11.9795 10.4487 11.9795 10.6559Z" fill="#2A3563"/>
</svg>
