<svg width="23" height="22" viewBox="0 0 23 22" fill="none" xmlns="http://www.w3.org/2000/svg">
<g id="loop 1">
<g id="Group">
<path id="Vector" d="M3.35547 4.58334V8.25001H7.48047" stroke="white" stroke-width="1.5" stroke-linecap="round" stroke-linejoin="round"/>
<path id="Vector_2" d="M3.81445 8.25L4.73112 7.33333C5.40201 5.9596 6.44499 4.80174 7.74141 3.99147C9.03784 3.18121 10.5357 2.75107 12.0645 2.75C13.5771 2.74911 15.061 3.16414 16.3537 3.94972C17.6464 4.73529 18.6983 5.86117 19.3942 7.20424C20.0902 8.54732 20.4035 10.0559 20.2999 11.565C20.1963 13.0742 19.6798 14.5258 18.8068 15.7612C17.9338 16.9965 16.738 17.9681 15.35 18.5696C13.9621 19.1712 12.4354 19.3795 10.9371 19.1719C9.43868 18.9643 8.02622 18.3488 6.85411 17.3925C5.68199 16.4363 4.79535 15.1762 4.29112 13.75" stroke="white" stroke-width="1.5" stroke-linecap="round" stroke-linejoin="round"/>
<path id="Vector_3" d="M11.834 7.33334V11L15.5007 13.75" stroke="white" stroke-width="1.5" stroke-linecap="round" stroke-linejoin="round"/>
</g>
</g>
</svg>
