<svg width="16" height="16" viewBox="0 0 16 16" fill="none" xmlns="http://www.w3.org/2000/svg">
<g id="ep:arrow-down-bold">
<path id="Vector" d="M1.63556 5.29279C1.82309 5.10532 2.0774 5 2.34256 5C2.60772 5 2.86203 5.10532 3.04956 5.29279L7.99956 10.2428L12.9496 5.29279C13.1382 5.11063 13.3908 5.00983 13.653 5.01211C13.9152 5.01439 14.166 5.11956 14.3514 5.30497C14.5368 5.49038 14.642 5.74119 14.6442 6.00339C14.6465 6.26558 14.5457 6.51818 14.3636 6.70679L8.70656 12.3638C8.51903 12.5513 8.26472 12.6566 7.99956 12.6566C7.7344 12.6566 7.48009 12.5513 7.29256 12.3638L1.63556 6.70679C1.44809 6.51926 1.34277 6.26495 1.34277 5.99979C1.34277 5.73462 1.44809 5.48031 1.63556 5.29279V5.29279Z" fill="#4C5BD4"/>
</g>
</svg>
