<svg width="20" height="20" viewBox="0 0 20 20" fill="none" xmlns="http://www.w3.org/2000/svg">
<circle cx="7.50016" cy="7.49992" r="1.66667" stroke="#4C5BD4" stroke-width="1.5"/>
<path d="M10.8332 12.4999C10.8332 13.4204 10.8332 14.1666 7.49984 14.1666C4.1665 14.1666 4.1665 13.4204 4.1665 12.4999C4.1665 11.5794 5.65889 10.8333 7.49984 10.8333C9.34079 10.8333 10.8332 11.5794 10.8332 12.4999Z" stroke="#4C5BD4" stroke-width="1.5"/>
<path d="M1.6665 9.99992C1.6665 6.85722 1.6665 5.28587 2.64281 4.30956C3.61913 3.33325 5.19047 3.33325 8.33317 3.33325H11.6665C14.8092 3.33325 16.3805 3.33325 17.3569 4.30956C18.3332 5.28587 18.3332 6.85722 18.3332 9.99992C18.3332 13.1426 18.3332 14.714 17.3569 15.6903C16.3805 16.6666 14.8092 16.6666 11.6665 16.6666H8.33317C5.19047 16.6666 3.61913 16.6666 2.64281 15.6903C1.6665 14.714 1.6665 13.1426 1.6665 9.99992Z" stroke="#4C5BD4" stroke-width="1.5"/>
<path d="M15.8335 10H12.5002" stroke="#4C5BD4" stroke-width="1.5" stroke-linecap="round"/>
<path d="M15.8335 7.5H11.6668" stroke="#4C5BD4" stroke-width="1.5" stroke-linecap="round"/>
<path d="M15.8335 12.5H13.3335" stroke="#4C5BD4" stroke-width="1.5" stroke-linecap="round"/>
</svg>
