<svg width="20" height="20" viewBox="0 0 20 20" fill="none" xmlns="http://www.w3.org/2000/svg">
<path d="M7.13541 12.3454C7.20291 12.3726 7.27885 12.3728 7.34648 12.3459C7.41412 12.319 7.46796 12.2672 7.49611 12.2019L7.88495 11.2993H9.35591L9.74475 12.2019C9.80338 12.3379 9.96489 12.4021 10.1054 12.3454C10.246 12.2887 10.3125 12.1325 10.2538 11.9966L8.87498 8.79662C8.83215 8.69729 8.73176 8.63257 8.62046 8.63257C8.50915 8.63257 8.40876 8.69729 8.36593 8.79662L6.98709 11.9966C6.95892 12.0619 6.95873 12.1353 6.98655 12.2007C7.01437 12.2661 7.06789 12.3182 7.13541 12.3454ZM8.62043 9.5926L9.12592 10.7659H8.11494L8.62043 9.5926Z" fill="#4C5BD4" stroke="#4C5BD4" stroke-width="0.3"/>
<path fill-rule="evenodd" clip-rule="evenodd" d="M10.8266 11.8326C10.6742 11.8326 10.5508 11.952 10.5508 12.0992C10.5508 12.2465 10.6742 12.3659 10.8266 12.3659H12.4812C12.6335 12.3659 12.757 12.2465 12.757 12.0992C12.757 11.952 12.6335 11.8326 12.4812 11.8326H11.9296V9.16591H12.4812C12.6335 9.16591 12.757 9.04652 12.757 8.89924C12.757 8.75195 12.6335 8.63257 12.4812 8.63257H10.8266C10.6742 8.63257 10.5508 8.75195 10.5508 8.89924C10.5508 9.04652 10.6742 9.16591 10.8266 9.16591H11.3781V11.8326H10.8266Z" fill="#4C5BD4" stroke="#4C5BD4" stroke-width="0.3"/>
<path d="M2.00199 14.2331C2.00199 14.8222 2.49587 15.2998 3.10506 15.2998C3.24323 15.2993 3.38005 15.2734 3.50823 15.2235C4.16015 15.7061 5.08013 15.9579 6.21077 15.9579C6.38119 15.9579 6.55825 15.9501 6.73776 15.939C7.5386 17.5214 8.69407 18.4998 9.99929 18.4998C11.3045 18.4998 12.46 17.5214 13.2611 15.9398C13.4409 15.951 13.6177 15.9587 13.7881 15.9587C14.9187 15.9587 15.8387 15.7069 16.4906 15.2243C16.6188 15.2738 16.7555 15.2995 16.8935 15.2998C17.3804 15.2984 17.8088 14.9886 17.9476 14.5373C18.0865 14.086 17.903 13.6001 17.4961 13.3416C17.5347 12.4829 17.1913 11.5085 16.4925 10.4997C17.1913 9.49122 17.5347 8.5168 17.4961 7.65787C17.9728 7.36036 18.1375 6.76112 17.8765 6.27397C17.6154 5.78681 17.0141 5.57143 16.4878 5.77653C15.7386 5.22214 14.6322 4.97654 13.2613 5.06294C12.4611 3.47923 11.3051 2.49976 9.99931 2.49976C8.69353 2.49976 7.53751 3.47923 6.7364 5.06296C5.36611 4.97709 4.26027 5.22295 3.50989 5.77655C2.98396 5.5731 2.38421 5.78881 2.12358 6.27515C1.86295 6.76149 2.02653 7.35971 2.50167 7.6579C2.46362 8.51631 2.80722 9.49069 3.50604 10.4998C2.80722 11.5086 2.46362 12.483 2.50252 13.3416C2.19062 13.5379 2.00234 13.8733 2.00199 14.2331ZM2.55354 14.2331C2.55354 13.9385 2.80046 13.6997 3.10509 13.6997C3.40971 13.6997 3.65664 13.9385 3.65664 14.2331C3.65664 14.5277 3.40971 14.7664 3.10509 14.7664C2.9588 14.7664 2.81851 14.7102 2.71508 14.6102C2.61165 14.5102 2.55354 14.3745 2.55354 14.2331ZM7.07865 5.6251C7.8128 5.7101 8.53609 5.8671 9.23737 6.09364C8.74377 6.30667 8.26173 6.54394 7.79317 6.80458C7.32296 7.067 6.86749 7.35336 6.42866 7.66244C6.57324 6.96375 6.79104 6.28111 7.07865 5.6251ZM13.5697 7.66244C13.131 7.35333 12.6756 7.06695 12.2055 6.80458C11.7376 6.54426 11.2564 6.30698 10.7637 6.09364C11.4643 5.8672 12.1868 5.71023 12.9203 5.6251C13.2077 6.28113 13.4253 6.96375 13.5697 7.66244ZM12.92 15.3744C12.1858 15.2894 11.4625 15.1324 10.7613 14.9059C11.2549 14.6929 11.7369 14.4556 12.2055 14.195C12.6757 13.9325 13.1311 13.6462 13.57 13.3371C13.4254 14.0358 13.2076 14.7184 12.92 15.3744ZM11.9297 7.2667C12.5516 7.61278 13.1461 8.00291 13.7084 8.4339C13.8098 9.11815 13.8605 9.80854 13.8601 10.4998C13.8606 11.191 13.81 11.8814 13.7087 12.5656C13.1463 12.9966 12.5517 13.3868 11.9297 13.7328C11.3097 14.0796 10.6646 14.3824 9.99931 14.639C9.33402 14.3823 8.68886 14.0793 8.06892 13.7323C7.44702 13.3862 6.85251 12.9961 6.29021 12.5651C6.08834 11.1948 6.08834 9.80368 6.29021 8.43335C6.85254 8.00257 7.44708 7.61263 8.06892 7.26667C8.68941 6.91966 9.33513 6.61664 10.001 6.36C10.6657 6.61677 11.3103 6.91979 11.9297 7.2667ZM14.3289 8.9379C14.8789 9.40875 15.3785 9.93202 15.82 10.4998C15.3791 11.0674 14.8802 11.5907 14.3309 12.0616C14.385 11.5427 14.412 11.0214 14.4117 10.4998C14.4118 9.97816 14.3846 9.45686 14.3303 8.9379H14.3289ZM5.66973 12.0616C5.11956 11.5909 4.61999 11.0676 4.17863 10.4998C4.61953 9.93212 5.11842 9.40886 5.66777 8.9379C5.55929 9.9765 5.55929 11.023 5.66777 12.0616H5.66973ZM7.7948 14.195C8.26268 14.4553 8.74388 14.6926 9.23653 14.9059C8.53595 15.1323 7.81342 15.2893 7.08 15.3744C6.79248 14.7184 6.57478 14.0358 6.43029 13.3371C6.86855 13.6462 7.32348 13.9325 7.79315 14.195H7.7948ZM9.99931 17.9664C8.96352 17.9664 8.02232 17.172 7.3282 15.8835C8.24216 15.7582 9.13834 15.5324 9.99931 15.2104C10.8606 15.5325 11.7572 15.7583 12.6715 15.8835C11.976 17.172 11.0351 17.9664 9.99931 17.9664ZM16.8936 14.7664C16.589 14.7664 16.342 14.5277 16.342 14.2331C16.342 13.9385 16.5889 13.6997 16.8936 13.6997C17.1982 13.6997 17.4451 13.9385 17.4451 14.2331C17.4451 14.5277 17.1982 14.7664 16.8936 14.7664ZM16.9515 13.172C16.9319 13.172 16.9134 13.1664 16.8935 13.1664C16.2843 13.1664 15.7905 13.644 15.7905 14.2331C15.7915 14.4715 15.876 14.7027 16.0301 14.8888C15.4295 15.272 14.5528 15.4541 13.5027 15.416C13.8446 14.59 14.0869 13.7287 14.2249 12.8491C14.9382 12.2937 15.5837 11.6615 16.149 10.9648C16.6146 11.6185 16.8916 12.3804 16.9515 13.172ZM17.4451 6.76642C17.4451 7.06096 17.1982 7.29976 16.8935 7.29976C16.5889 7.29976 16.342 7.06099 16.342 6.76642C16.342 6.47185 16.5889 6.23308 16.8935 6.23308C17.1982 6.23308 17.4451 6.47188 17.4451 6.76642ZM16.0301 6.1107C15.876 6.29685 15.7915 6.52796 15.7905 6.76642C15.7905 7.35553 16.2843 7.83308 16.8935 7.83308C16.9134 7.83308 16.9319 7.82854 16.9515 7.82749C16.8917 8.61913 16.6147 9.38104 16.149 10.0347C15.5836 9.33797 14.938 8.70579 14.2247 8.15043C14.0865 7.27076 13.8438 6.40942 13.5016 5.5835C14.5526 5.5451 15.4298 5.72643 16.0301 6.1107ZM9.99931 3.0331C11.0351 3.0331 11.9763 3.8275 12.6704 5.11603C11.7569 5.24143 10.8612 5.46723 10.0007 5.7891C9.13939 5.467 8.24284 5.24119 7.3285 5.11603C8.02259 3.8275 8.96352 3.0331 9.99931 3.0331ZM3.10506 6.2331C3.40966 6.2331 3.65661 6.47188 3.65661 6.76645C3.65661 7.06102 3.40969 7.29979 3.10506 7.29979C2.80044 7.29979 2.55351 7.06102 2.55351 6.76645C2.55351 6.47188 2.80046 6.2331 3.10506 6.2331ZM3.04717 7.82749C3.06674 7.82749 3.08522 7.83308 3.10509 7.83308C3.71431 7.83308 4.20816 7.35551 4.20816 6.76642C4.20713 6.52796 4.12267 6.29683 3.96851 6.1107C4.56886 5.7275 5.44552 5.54563 6.49594 5.5835C6.15405 6.40947 5.91169 7.27082 5.7737 8.15043C5.06051 8.70579 4.415 9.33787 3.84966 10.0344C3.38388 9.38091 3.10685 8.61908 3.04717 7.82749ZM3.84966 10.9651C4.41527 11.6616 5.06094 12.2937 5.77425 12.8491C5.91239 13.7288 6.15492 14.5903 6.49705 15.4163C5.44747 15.4547 4.57024 15.272 3.96962 14.8888C4.12337 14.7025 4.20743 14.4714 4.20816 14.2331C4.20816 13.644 3.71428 13.1664 3.10509 13.1664C3.08522 13.1664 3.06677 13.1712 3.04717 13.172C3.10696 12.3805 3.38396 11.6187 3.84966 10.9651Z" fill="#4C5BD4" stroke="#4C5BD4" stroke-width="0.4"/>
</svg>
