<svg width="20" height="21" viewBox="0 0 20 21" fill="none" xmlns="http://www.w3.org/2000/svg">
<g clip-path="url(#clip0_1733_83137)">
<path d="M12.3333 17.0666H11.4333V15.2666H15.2333V18.1666C15.2333 18.7741 15.7258 19.2666 16.3333 19.2666H19C19.6075 19.2666 20.1 18.7741 20.1 18.1666V11.4999C20.1 10.8924 19.6075 10.3999 19 10.3999H18.7667V3.49992V3.4998C18.7655 2.52466 17.9753 1.7344 17.0001 1.73325H17L3 1.73325L2.99988 1.73325C2.02475 1.7344 1.23448 2.52466 1.23333 3.4998V3.49992V8.39992H1C0.39248 8.39992 -0.1 8.8924 -0.1 9.49992V18.1666C-0.1 18.7741 0.39248 19.2666 1 19.2666H13.6667C13.906 19.2666 14.1 19.0726 14.1 18.8333V18.8331C14.0989 17.858 13.3086 17.0677 12.3335 17.0666H12.3333ZM8.1 18.1666V17.9333H12.3332C12.6652 17.9336 12.9657 18.1157 13.1222 18.3999H8.0726C8.09002 18.3238 8.09922 18.2459 8.1 18.1676V18.1666ZM2.1 8.39992V3.49992C2.1 3.00286 2.50294 2.59992 3 2.59992H17C17.4971 2.59992 17.9 3.00286 17.9 3.49992V10.3999H16.3333C15.7258 10.3999 15.2333 10.8924 15.2333 11.4999V11.7333H8.1L8.1 9.49992L8.1 9.49921C8.09895 9.35127 8.06771 9.20541 8.00858 9.07043L11.273 5.80596L11.2731 5.80597L11.2743 5.80473C11.4405 5.63259 11.4358 5.35823 11.2636 5.19199C11.0957 5.02981 10.8295 5.02982 10.6615 5.19198L10.6615 5.19197L10.6603 5.19321L7.38288 8.47061C7.26082 8.42431 7.13122 8.4003 7.00029 8.39992H7H2.1ZM7.23333 18.1666C7.23333 18.2954 7.12885 18.3999 7 18.3999H1C0.871145 18.3999 0.766667 18.2954 0.766667 18.1666V17.9333H7.23333V18.1666ZM7.23333 17.0666H0.766667V9.49992C0.766667 9.37106 0.871145 9.26659 1 9.26659H7C7.12885 9.26659 7.23333 9.37106 7.23333 9.49992V17.0666ZM8.1 17.0666V15.2666H8.56667V17.0666H8.1ZM9.43333 17.0666V15.2666H10.5667V17.0666H9.43333ZM15.2333 14.3999H8.1V12.5999H15.2333V14.3999ZM19.2333 18.1666C19.2333 18.2954 19.1289 18.3999 19 18.3999H16.3333C16.2045 18.3999 16.1 18.2954 16.1 18.1666V17.9333H19.2333V18.1666ZM19.2333 17.0666H16.1V11.4999C16.1 11.3711 16.2045 11.2666 16.3333 11.2666H19C19.1289 11.2666 19.2333 11.3711 19.2333 11.4999V17.0666Z" fill="#4C5BD4" stroke="#4C5BD4" stroke-width="0.2"/>
<path d="M4.09811 12.531L4.07742 12.5903C4.05725 12.648 4.0657 12.7146 4.08122 12.8012C4.08183 12.8047 4.08247 12.8082 4.08311 12.8117C4.08974 12.8485 4.0974 12.8909 4.09951 12.9304C4.10184 12.9739 4.09862 13.0284 4.06962 13.0786L4.06303 13.09L4.05371 13.0994L2.64024 14.5128L4.09811 12.531ZM4.09811 12.531L4.0537 12.4866C3.88449 12.3174 3.61019 12.3174 3.44097 12.4866L3.44096 12.4866L2.02753 13.9C1.85605 14.0664 1.8515 14.3402 2.01758 14.5121C2.1838 14.6842 2.45795 14.689 2.63011 14.5229L4.09811 12.531Z" fill="#4C5BD4" stroke="#4C5BD4" stroke-width="0.2"/>
<path d="M5.4422 12.4855L5.44221 12.4855C5.61016 12.3233 5.87638 12.3233 6.0443 12.4855C6.21647 12.6518 6.22115 12.9261 6.05494 13.0982L6.05372 13.0995L6.05371 13.0995L4.64024 14.5129L5.4422 12.4855ZM5.4422 12.4855L5.44096 12.4867M5.4422 12.4855L5.44096 12.4867M5.44096 12.4867L4.02754 13.9001M5.44096 12.4867L4.02754 13.9001M4.02754 13.9001C3.85604 14.0664 3.85151 14.3403 4.01757 14.5122C4.01757 14.5122 4.01758 14.5122 4.01758 14.5122L4.0895 14.4428C4.21738 14.5752 4.42842 14.5788 4.56084 14.4509L4.02754 13.9001Z" fill="#4C5BD4" stroke="#4C5BD4" stroke-width="0.2"/>
<path d="M12.6949 5.19226L12.6949 5.19228C12.8628 5.03012 13.1291 5.0301 13.297 5.19228C13.4691 5.35853 13.4739 5.63289 13.3076 5.80503L13.3064 5.80627L13.3064 5.80626L10.0069 9.10574L12.6949 5.19226ZM12.6949 5.19226L12.6936 5.19351M12.6949 5.19226L12.6936 5.19351M12.6936 5.19351L9.39421 8.49293M12.6936 5.19351L9.39421 8.49293M9.39421 8.49293C9.22271 8.65924 9.21818 8.9331 9.3842 9.10502C9.55039 9.2771 9.82459 9.28192 9.99674 9.11588L9.39421 8.49293Z" fill="#4C5BD4" stroke="#4C5BD4" stroke-width="0.2"/>
<path d="M17.8328 13.3876L17.8329 13.3876C18.0008 13.2254 18.2671 13.2254 18.435 13.3876L17.8328 13.3876ZM17.8328 13.3876L17.8316 13.3888M17.8328 13.3876L17.8316 13.3888M17.8316 13.3888L16.8895 14.3309C16.718 14.4973 16.7135 14.7711 16.8796 14.943C17.0459 15.1152 17.3202 15.1199 17.4923 14.9536L17.4924 14.9535M17.8316 13.3888L17.4924 14.9535M17.4924 14.9535L17.5017 14.9443L17.5017 14.9443L18.4444 14.0016L18.4444 14.0016M17.4924 14.9535L18.4444 14.0016M18.4444 14.0016L18.4456 14.0004M18.4444 14.0016L18.4456 14.0004M18.4456 14.0004C18.6119 13.8282 18.6071 13.5539 18.435 13.3876L18.4456 14.0004Z" fill="#4C5BD4" stroke="#4C5BD4" stroke-width="0.2"/>
<path d="M10.0067 13.1667H10.0033C9.81925 13.1677 9.67075 13.3177 9.67167 13.5017C9.67258 13.6858 9.82258 13.8343 10.0067 13.8334C10.1907 13.8334 10.34 13.6842 10.34 13.5001C10.34 13.316 10.1907 13.1667 10.0067 13.1667Z" fill="#4C5BD4"/>
<path d="M10.6667 3.06675H9.33333C9.09402 3.06675 8.9 3.26077 8.9 3.50008C8.9 3.73939 9.09402 3.93341 9.33333 3.93341H10.6667C10.906 3.93341 11.1 3.73939 11.1 3.50008C11.1 3.26077 10.906 3.06675 10.6667 3.06675Z" fill="#4C5BD4" stroke="#4C5BD4" stroke-width="0.2"/>
</g>
<defs>
<clipPath id="clip0_1733_83137">
<rect width="20" height="20" fill="white" transform="translate(0 0.5)"/>
</clipPath>
</defs>
</svg>
