<svg width="20" height="20" viewBox="0 0 20 20" fill="none" xmlns="http://www.w3.org/2000/svg">
<path d="M11.4625 1.25V1.77866C10.7644 1.82997 10.2125 2.41403 10.2125 3.125C10.2125 3.83597 10.7644 4.42003 11.4625 4.47134V5.9375V6.0375H11.5625H14.0625H14.1625V5.9375V5.3125C14.1625 5.02304 14.398 4.7875 14.6875 4.7875C14.977 4.7875 15.2125 5.02304 15.2125 5.3125V5.9375V6.0375H15.3125H16.875C17.4471 6.0375 17.9125 5.5721 17.9125 5V1.25C17.9125 0.677896 17.4471 0.2125 16.875 0.2125H12.5C11.9279 0.2125 11.4625 0.677896 11.4625 1.25ZM13.3412 5.2125H12.2875V3.75V3.65H12.1875H11.5625C11.273 3.65 11.0375 3.41446 11.0375 3.125C11.0375 2.83554 11.273 2.6 11.5625 2.6H12.1875H12.2875V2.5V1.25C12.2875 1.13298 12.3828 1.0375 12.5 1.0375H16.875C16.9922 1.0375 17.0875 1.13298 17.0875 1.25V5C17.0875 5.11702 16.9922 5.2125 16.875 5.2125H16.0338C15.9825 4.51444 15.3985 3.9625 14.6875 3.9625C13.9765 3.9625 13.3925 4.51444 13.3412 5.2125Z" fill="#4C5BD4" stroke="#4C5BD4" stroke-width="0.2"/>
<path d="M12.9088 7.7125C12.8575 7.01444 12.2735 6.4625 11.5625 6.4625C10.8515 6.4625 10.2675 7.01444 10.2162 7.7125H9.1625V6.25V6.15H9.0625H8.4375C8.14804 6.15 7.9125 5.91446 7.9125 5.625C7.9125 5.33554 8.14804 5.1 8.4375 5.1H9.0625H9.1625V5V2.1875V2.0875H9.0625H8.22469C4.84071 2.0875 2.0875 4.84071 2.0875 8.22469C2.0875 10.0728 2.90815 11.8043 4.33854 12.9746C4.33855 12.9746 4.33855 12.9746 4.33855 12.9746L5.525 13.9455V14.6774C5.15907 14.8369 4.9 15.1994 4.9 15.6253C4.9 16.0669 5.17801 16.4407 5.56608 16.5899C5.53977 16.6801 5.525 16.7756 5.525 16.875C5.525 17.3109 5.79627 17.6797 6.1757 17.8332C6.33772 18.9369 7.28934 19.7875 8.4375 19.7875C9.58566 19.7875 10.5373 18.9369 10.6993 17.8332C11.0787 17.6797 11.35 17.3109 11.35 16.875C11.35 16.7755 11.3352 16.6799 11.3089 16.5896C11.6969 16.4402 11.975 16.0667 11.975 15.625C11.975 15.1991 11.7159 14.8366 11.35 14.6771V13.9452L12.5364 12.9743C12.5364 12.9743 12.5365 12.9743 12.5365 12.9743C13.9669 11.8043 14.7875 10.0728 14.7875 8.22469V7.8125V7.7125H14.6875H12.9088ZM8.3375 12.2838V14.5875H6.35V13.6019V13.5545L6.31332 13.5245L4.86082 12.336C3.70344 11.3891 3.00761 10.0186 2.92181 8.5375H5.3125H5.4125V8.4375V7.8125C5.4125 7.52304 5.64804 7.2875 5.9375 7.2875C6.22696 7.2875 6.4625 7.52304 6.4625 7.8125V8.4375V8.5375H6.5625H8.3375V9.59116C7.63944 9.64247 7.0875 10.2265 7.0875 10.9375C7.0875 11.6485 7.63944 12.2325 8.3375 12.2838ZM10.5617 13.5245L10.525 13.5545V13.6019V14.5875H9.1625V11.5625V11.4625H9.0625H8.4375C8.14804 11.4625 7.9125 11.227 7.9125 10.9375C7.9125 10.648 8.14804 10.4125 8.4375 10.4125H9.0625H9.1625V10.3125V8.5375H10.9375H11.0375V8.4375V7.8125C11.0375 7.52304 11.273 7.2875 11.5625 7.2875C11.852 7.2875 12.0875 7.52304 12.0875 7.8125V8.4375V8.5375H12.1875H13.9532C13.8674 10.0186 13.1716 11.3891 12.0142 12.336L10.5617 13.5245ZM8.22469 2.9125H8.3375V4.27866C7.63944 4.32997 7.0875 4.91403 7.0875 5.625C7.0875 6.33597 7.63944 6.92003 8.3375 6.97134V7.7125H7.28384C7.23253 7.01444 6.64847 6.4625 5.9375 6.4625C5.22653 6.4625 4.64247 7.01444 4.59116 7.7125H2.93707C3.19551 5.0228 5.46843 2.9125 8.22469 2.9125ZM8.4375 18.9625C7.77472 18.9625 7.21305 18.5187 7.03441 17.9125H9.84059C9.66195 18.5187 9.10028 18.9625 8.4375 18.9625ZM10.3125 17.0875H6.5625C6.44529 17.0875 6.35 16.992 6.35 16.875C6.35 16.758 6.44529 16.6625 6.5625 16.6625H10.3125C10.4297 16.6625 10.525 16.758 10.525 16.875C10.525 16.992 10.4297 17.0875 10.3125 17.0875ZM10.9375 15.8375H10.3125H6.5625H5.9375C5.82029 15.8375 5.725 15.742 5.725 15.625C5.725 15.508 5.82029 15.4125 5.9375 15.4125H10.9375C11.0547 15.4125 11.15 15.508 11.15 15.625C11.15 15.742 11.0547 15.8375 10.9375 15.8375Z" fill="#4C5BD4" stroke="#4C5BD4" stroke-width="0.2"/>
</svg>
