<svg width="20" height="21" viewBox="0 0 20 21" fill="none" xmlns="http://www.w3.org/2000/svg">
<path d="M18.3333 7.16663C18.3333 3.83329 16.6666 2.16663 13.3333 2.16663H6.66663C3.33329 2.16663 1.66663 3.83329 1.66663 7.16663V18C1.66663 18.4583 2.04163 18.8333 2.49996 18.8333H13.3333C16.6666 18.8333 18.3333 17.1666 18.3333 13.8333V10.5" stroke="#4C5BD4" stroke-width="1.5" stroke-linecap="round" stroke-linejoin="round"/>
<path d="M7 7.75C6.58579 7.75 6.25 7.41421 6.25 7C6.25 6.58579 6.58579 6.25 7 6.25V7.75ZM13 7V6.25C13.4142 6.25 13.75 6.58579 13.75 7H13ZM13 15H13.75C13.75 15.4142 13.4142 15.75 13 15.75V15ZM7 15.75C6.58579 15.75 6.25 15.4142 6.25 15C6.25 14.5858 6.58579 14.25 7 14.25V15.75ZM7 6.25H13V7.75H7V6.25ZM13 15.75H7V14.25H13V15.75ZM13.75 7V11H12.25V7H13.75ZM13.75 11V15H12.25V11H13.75Z" fill="#4C5BD4"/>
<path d="M7 11H13" stroke="#4C5BD4" stroke-width="1.5" stroke-linecap="round"/>
</svg>
