<svg width="20" height="20" viewBox="0 0 20 20" fill="none" xmlns="http://www.w3.org/2000/svg">
<path d="M17.4709 5.83341C17.4061 4.27316 17.1972 3.31654 16.5237 2.64306C15.5474 1.66675 13.976 1.66675 10.8333 1.66675H9.16667C6.02397 1.66675 4.45262 1.66675 3.47631 2.64306C2.5 3.61937 2.5 5.19072 2.5 8.33341V11.6667C2.5 14.8094 2.5 16.3808 3.47631 17.3571C4.45262 18.3334 6.02397 18.3334 9.16667 18.3334H10.8333C13.976 18.3334 15.5474 18.3334 16.5237 17.3571C17.5 16.3808 17.5 14.8094 17.5 11.6667V9.16675" stroke="#4C5BD4" stroke-width="1.5" stroke-linecap="round"/>
<path d="M5 10C5 8.82149 5 8.23223 5.36612 7.86612C5.73223 7.5 6.32149 7.5 7.5 7.5H12.5C13.6785 7.5 14.2678 7.5 14.6339 7.86612C15 8.23223 15 8.82149 15 10V13.3333C15 14.5118 15 15.1011 14.6339 15.4672C14.2678 15.8333 13.6785 15.8333 12.5 15.8333H7.5C6.32149 15.8333 5.73223 15.8333 5.36612 15.4672C5 15.1011 5 14.5118 5 13.3333V10Z" stroke="#4C5BD4" stroke-width="1.5"/>
<path d="M5.8335 5H10.0002" stroke="#4C5BD4" stroke-width="1.5" stroke-linecap="round"/>
</svg>
