<svg width="20" height="21" viewBox="0 0 20 21" fill="none" xmlns="http://www.w3.org/2000/svg">
<path d="M2.2915 4.6665V7.99984H6.0415" stroke="#4C5BD4" stroke-width="1.5" stroke-linecap="round" stroke-linejoin="round"/>
<path d="M2.70801 8L3.54134 7.16667C4.15124 5.91782 5.09941 4.86522 6.27797 4.12861C7.45654 3.39201 8.81819 3.00098 10.208 3C11.5832 2.99919 12.9321 3.3765 14.1073 4.09065C15.2825 4.80481 16.2387 5.82833 16.8714 7.04931C17.5042 8.27029 17.789 9.64173 17.6948 11.0137C17.6006 12.3856 17.131 13.7053 16.3374 14.8283C15.5438 15.9514 14.4566 16.8346 13.1949 17.3815C11.9331 17.9283 10.5453 18.1178 9.18311 17.929C7.82094 17.7403 6.53689 17.1807 5.47133 16.3114C4.40577 15.4421 3.59973 14.2965 3.14134 13" stroke="#4C5BD4" stroke-width="1.5" stroke-linecap="round" stroke-linejoin="round"/>
<path d="M10 7.1665V10.4998L13.3333 12.9998" stroke="#4C5BD4" stroke-width="1.5" stroke-linecap="round" stroke-linejoin="round"/>
</svg>
