<svg width="20" height="20" viewBox="0 0 20 20" fill="none" xmlns="http://www.w3.org/2000/svg">
<path d="M14.3667 18.9582H5.6334C3.30006 18.9582 1.81673 17.5665 1.6834 15.2415L1.25006 8.3665C1.1834 7.32484 1.54173 6.32484 2.2584 5.5665C2.96673 4.80817 3.96673 4.37484 5.00006 4.37484C5.26673 4.37484 5.52506 4.2165 5.65006 3.9665L6.25006 2.77484C6.74173 1.79984 7.97506 1.0415 9.05006 1.0415H10.9584C12.0334 1.0415 13.2584 1.79984 13.7501 2.7665L14.3501 3.98317C14.4751 4.2165 14.7251 4.37484 15.0001 4.37484C16.0334 4.37484 17.0334 4.80817 17.7417 5.5665C18.4584 6.33317 18.8167 7.32484 18.7501 8.3665L18.3167 15.2498C18.1667 17.6082 16.7251 18.9582 14.3667 18.9582ZM9.05006 2.2915C8.4334 2.2915 7.65006 2.77484 7.36673 3.33317L6.76673 4.53317C6.41673 5.20817 5.74173 5.62484 5.00006 5.62484C4.30006 5.62484 3.65006 5.90817 3.16673 6.4165C2.69173 6.92484 2.45006 7.5915 2.50006 8.28317L2.9334 15.1665C3.0334 16.8498 3.94173 17.7082 5.6334 17.7082H14.3667C16.0501 17.7082 16.9584 16.8498 17.0667 15.1665L17.5001 8.28317C17.5417 7.5915 17.3084 6.92484 16.8334 6.4165C16.3501 5.90817 15.7001 5.62484 15.0001 5.62484C14.2584 5.62484 13.5834 5.20817 13.2334 4.54984L12.6251 3.33317C12.3501 2.78317 11.5667 2.29984 10.9501 2.29984H9.05006V2.2915Z" fill="#4C5BD4"/>
<path d="M11.25 7.2915H8.75C8.40833 7.2915 8.125 7.00817 8.125 6.6665C8.125 6.32484 8.40833 6.0415 8.75 6.0415H11.25C11.5917 6.0415 11.875 6.32484 11.875 6.6665C11.875 7.00817 11.5917 7.2915 11.25 7.2915Z" fill="#4C5BD4"/>
<path d="M9.99984 15.6252C8.15817 15.6252 6.6665 14.1335 6.6665 12.2918C6.6665 10.4502 8.15817 8.9585 9.99984 8.9585C11.8415 8.9585 13.3332 10.4502 13.3332 12.2918C13.3332 14.1335 11.8415 15.6252 9.99984 15.6252ZM9.99984 10.2085C8.84984 10.2085 7.9165 11.1418 7.9165 12.2918C7.9165 13.4418 8.84984 14.3752 9.99984 14.3752C11.1498 14.3752 12.0832 13.4418 12.0832 12.2918C12.0832 11.1418 11.1498 10.2085 9.99984 10.2085Z" fill="#4C5BD4"/>
</svg>
