<svg width="57" height="56" viewBox="0 0 57 56" fill="none" xmlns="http://www.w3.org/2000/svg">
<g id="question (1) (1) 1" clip-path="url(#clip0_5316_217268)">
<path id="Vector" d="M28.5 0C13.0602 0 0.5 12.5602 0.5 28C0.5 43.4398 13.0602 56 28.5 56C43.9398 56 56.5 43.4398 56.5 28C56.5 12.5602 43.9398 0 28.5 0Z" fill="#FFC107"/>
<path id="Vector_2" d="M30.8334 41.9999C30.8334 43.2885 29.7888 44.3331 28.5002 44.3331C27.2116 44.3331 26.167 43.2885 26.167 41.9999C26.167 40.7114 27.2116 39.6667 28.5002 39.6667C29.7888 39.6667 30.8334 40.7114 30.8334 41.9999Z" fill="#ECEFF1"/>
<path id="Vector_3" d="M32.1935 29.498C31.3677 29.8782 30.8332 30.7114 30.8332 31.6193V32.6669C30.8332 33.9546 29.7903 35.0001 28.5 35.0001C27.2097 35.0001 26.1668 33.9546 26.1668 32.6669V31.6193C26.1668 28.896 27.7673 26.3996 30.2385 25.2584C32.6161 24.1642 34.3332 21.259 34.3332 19.8333C34.3332 16.6182 31.7176 14.0001 28.5 14.0001C25.2824 14.0001 22.6668 16.6182 22.6668 19.8333C22.6668 21.1214 21.6235 22.1669 20.3332 22.1669C19.0429 22.1669 18 21.1214 18 19.8333C18 14.0445 22.7108 9.33325 28.5 9.33325C34.2892 9.33325 39 14.0445 39 19.8333C39 22.9859 36.2652 27.6198 32.1935 29.498Z" fill="#FAFAFA"/>
</g>
<defs>
<clipPath id="clip0_5316_217268">
<rect width="56" height="56" fill="white" transform="translate(0.5)"/>
</clipPath>
</defs>
</svg>
