<svg width="57" height="56" viewBox="0 0 57 56" fill="none" xmlns="http://www.w3.org/2000/svg">
<g id="vuesax/bold/tick-circle">
<g id="tick-circle">
<path id="Vector" d="M28.5 0C13.072 0 0.5 12.572 0.5 28C0.5 43.428 13.072 56 28.5 56C43.928 56 56.5 43.428 56.5 28C56.5 12.572 43.928 0 28.5 0ZM41.884 21.56L26.008 37.436C25.616 37.828 25.084 38.052 24.524 38.052C23.964 38.052 23.432 37.828 23.04 37.436L15.116 29.512C14.304 28.7 14.304 27.356 15.116 26.544C15.928 25.732 17.272 25.732 18.084 26.544L24.524 32.984L38.916 18.592C39.728 17.78 41.072 17.78 41.884 18.592C42.696 19.404 42.696 20.72 41.884 21.56Z" fill="#00CE2D"/>
</g>
</g>
</svg>
