<svg width="24" height="25" viewBox="0 0 24 25" fill="none" xmlns="http://www.w3.org/2000/svg">
<g id="vuesax/linear/bitcoin-convert">
<g id="vuesax/linear/bitcoin-convert_2">
<g id="bitcoin-convert">
<path id="Vector" d="M23 16.47C23 20.34 19.87 23.47 16 23.47L17.05 21.72" stroke="rgb(76, 91, 212)" stroke-width="1.5" stroke-linecap="round" stroke-linejoin="round"/>
<path id="Vector_2" d="M1 8.46997C1 4.59997 4.13 1.46997 8 1.46997L6.95 3.21997" stroke="rgb(76, 91, 212)" stroke-width="1.5" stroke-linecap="round" stroke-linejoin="round"/>
<g id="Group">
<g id="Group_2">
<path id="Vector_3" d="M6.61963 13.5698H9.42963C10.0496 13.5698 10.5596 14.1298 10.5596 14.6998C10.5596 15.3198 10.0596 15.8298 9.42963 15.8298H6.61963V13.5698Z" stroke="rgb(76, 91, 212)" stroke-width="1.5" stroke-miterlimit="10" stroke-linecap="round" stroke-linejoin="round"/>
<path id="Vector_4" d="M6.61963 15.8301H9.83963C10.5496 15.8301 11.1296 16.3301 11.1296 16.9601C11.1296 17.5801 10.5496 18.0901 9.83963 18.0901H6.61963V15.8301Z" stroke="rgb(76, 91, 212)" stroke-width="1.5" stroke-miterlimit="10" stroke-linecap="round" stroke-linejoin="round"/>
<path id="Vector_5" d="M8.41943 18.0801V19.2001" stroke="rgb(76, 91, 212)" stroke-width="1.5" stroke-miterlimit="10" stroke-linecap="round" stroke-linejoin="round"/>
<path id="Vector_6" d="M8.41943 12.45V13.5699" stroke="rgb(76, 91, 212)" stroke-width="1.5" stroke-miterlimit="10" stroke-linecap="round" stroke-linejoin="round"/>
</g>
<path id="Vector_7" d="M14.8498 15.83C14.8498 19.24 12.0898 21.9999 8.67977 21.9999C5.26977 21.9999 2.50977 19.24 2.50977 15.83C2.50977 12.42 5.26977 9.65991 8.67977 9.65991C8.83977 9.65991 8.98977 9.66993 9.15977 9.67993C12.1898 9.90993 14.6098 12.3299 14.8398 15.3599C14.8398 15.5099 14.8498 15.66 14.8498 15.83Z" stroke="rgb(76, 91, 212)" stroke-width="1.5" stroke-miterlimit="10" stroke-linecap="round" stroke-linejoin="round"/>
<path id="Vector_8" d="M21.4997 9.16998C21.4997 12.58 18.7397 15.34 15.3297 15.34H14.8397C14.6097 12.31 12.1897 9.88997 9.15967 9.65997V9.16998C9.15967 5.75998 11.9197 3 15.3297 3C18.7397 3 21.4997 5.75998 21.4997 9.16998Z" stroke="rgb(76, 91, 212)" stroke-width="1.5" stroke-miterlimit="10" stroke-linecap="round" stroke-linejoin="round"/>
</g>
</g>
</g>
</g>
</svg>