<svg width="24" height="25" viewBox="0 0 24 25" fill="none" xmlns="http://www.w3.org/2000/svg">
<path d="M2.75 5.5V9.5H7.25" stroke="white" stroke-width="1.5" stroke-linecap="round" stroke-linejoin="round"/>
<path d="M3.25 9.5L4.25 8.5C4.98188 7.00138 6.11968 5.73826 7.53396 4.85433C8.94824 3.97041 10.5822 3.50117 12.25 3.5C13.9002 3.49903 15.5189 3.95179 16.9292 4.80878C18.3394 5.66577 19.4869 6.894 20.2461 8.35918C21.0054 9.82435 21.3472 11.4701 21.2341 13.1164C21.1211 14.7628 20.5576 16.3463 19.6053 17.694C18.6529 19.0417 17.3484 20.1016 15.8342 20.7578C14.3201 21.414 12.6547 21.6413 11.0201 21.4148C9.38552 21.1884 7.84466 20.5168 6.56599 19.4737C5.28732 18.4305 4.32007 17.0558 3.77 15.5" stroke="white" stroke-width="1.5" stroke-linecap="round" stroke-linejoin="round"/>
<path d="M12 8.5V12.5L16 15.5" stroke="white" stroke-width="1.5" stroke-linecap="round" stroke-linejoin="round"/>
</svg>
