<svg width="19" height="18" viewBox="0 0 19 18" fill="none" xmlns="http://www.w3.org/2000/svg">
<path d="M9.49977 15.9506C13.8853 15.9506 17.4409 12.617 17.4409 8.50471C17.4409 4.39246 13.8853 1.05884 9.49977 1.05884C5.11426 1.05884 1.55859 4.39246 1.55859 8.50471C1.55859 10.3768 2.29613 12.0894 3.51411 13.3977C3.41782 14.4784 3.10017 15.6634 2.74878 16.5526C2.67036 16.7505 2.82223 16.9717 3.01977 16.9377C5.25918 16.5441 6.59032 15.94 7.16903 15.6251C7.92931 15.8424 8.71292 15.9518 9.49977 15.9506Z" stroke="white" stroke-width="1.5"/>
<mask id="path-2-inside-1_274_55239" fill="white">
<path d="M6.0854 8.8586C6.0854 9.12191 5.99797 9.32816 5.82251 9.4779C5.64412 9.62594 5.39766 9.69996 5.08254 9.69996H3.49991V9.08462H4.81085C4.96459 9.08462 5.07667 9.05976 5.1465 9.0106C5.21634 8.95974 5.25154 8.8812 5.25154 8.77384C5.25154 8.67496 5.2181 8.59755 5.1512 8.54161C5.08137 8.48793 4.96811 8.46137 4.81143 8.46137L3.74168 8.46532V7.85055H4.79148C4.94992 7.85055 5.06376 7.82682 5.13359 7.77879C5.20049 7.73245 5.23394 7.65561 5.23394 7.54825C5.23394 7.44654 5.20049 7.37082 5.13359 7.31996C5.09956 7.29228 5.05438 7.2725 4.99863 7.26007C4.93995 7.24933 4.87129 7.24368 4.79148 7.24368H3.49991V6.62891H5.01623C5.36715 6.62891 5.63297 6.69671 5.81371 6.83232C5.9921 6.96963 6.0813 7.18266 6.0813 7.47196C6.0813 7.61718 6.04785 7.74601 5.98095 7.85846C5.91112 7.9709 5.82075 8.06979 5.70926 8.15455C5.8319 8.22744 5.9211 8.31446 5.97684 8.4156C6.04902 8.53426 6.0854 8.68174 6.0854 8.8586Z"/>
</mask>
<path d="M6.0854 8.8586C6.0854 9.12191 5.99797 9.32816 5.82251 9.4779C5.64412 9.62594 5.39766 9.69996 5.08254 9.69996H3.49991V9.08462H4.81085C4.96459 9.08462 5.07667 9.05976 5.1465 9.0106C5.21634 8.95974 5.25154 8.8812 5.25154 8.77384C5.25154 8.67496 5.2181 8.59755 5.1512 8.54161C5.08137 8.48793 4.96811 8.46137 4.81143 8.46137L3.74168 8.46532V7.85055H4.79148C4.94992 7.85055 5.06376 7.82682 5.13359 7.77879C5.20049 7.73245 5.23394 7.65561 5.23394 7.54825C5.23394 7.44654 5.20049 7.37082 5.13359 7.31996C5.09956 7.29228 5.05438 7.2725 4.99863 7.26007C4.93995 7.24933 4.87129 7.24368 4.79148 7.24368H3.49991V6.62891H5.01623C5.36715 6.62891 5.63297 6.69671 5.81371 6.83232C5.9921 6.96963 6.0813 7.18266 6.0813 7.47196C6.0813 7.61718 6.04785 7.74601 5.98095 7.85846C5.91112 7.9709 5.82075 8.06979 5.70926 8.15455C5.8319 8.22744 5.9211 8.31446 5.97684 8.4156C6.04902 8.53426 6.0854 8.68174 6.0854 8.8586Z" fill="white"/>
<path d="M5.82251 9.4779L6.46119 10.2475L6.47167 10.2386L5.82251 9.4779ZM3.49991 9.69996H2.49991V10.7H3.49991V9.69996ZM3.49991 9.08462V8.08462H2.49991V9.08462H3.49991ZM5.1465 9.0106L5.72215 9.8283L5.72871 9.82368L5.7352 9.81896L5.1465 9.0106ZM5.1512 8.54161L5.79269 7.77447L5.77693 7.7613L5.76065 7.74878L5.1512 8.54161ZM4.81143 8.46137V7.46136L4.80774 7.46138L4.81143 8.46137ZM3.74168 8.46532H2.74168V9.46903L3.74537 9.46532L3.74168 8.46532ZM3.74168 7.85055V6.85055H2.74168V7.85055H3.74168ZM5.13359 7.77879L5.70029 8.60272L5.70298 8.60086L5.13359 7.77879ZM5.13359 7.31996L4.50254 8.0957L4.51531 8.10609L4.52841 8.11605L5.13359 7.31996ZM4.99863 7.26007L5.21627 6.28404L5.19751 6.27986L5.17859 6.2764L4.99863 7.26007ZM3.49991 7.24368H2.49991V8.24368H3.49991V7.24368ZM3.49991 6.62891V5.62891H2.49991V6.62891H3.49991ZM5.81371 6.83232L6.4237 6.03982L6.41388 6.03245L5.81371 6.83232ZM5.98095 7.85846L6.83047 8.38602L6.83549 8.37793L6.84036 8.36974L5.98095 7.85846ZM5.70926 8.15455L5.10408 7.35846L3.92309 8.25625L5.19835 9.01418L5.70926 8.15455ZM5.97684 8.4156L5.10106 8.8983L5.11138 8.91702L5.12248 8.93528L5.97684 8.4156ZM5.0854 8.8586C5.0854 8.8793 5.08218 8.86033 5.09921 8.8202C5.11774 8.77654 5.14664 8.74004 5.17335 8.71724L6.47167 10.2386C6.90303 9.87042 7.0854 9.36782 7.0854 8.8586H5.0854ZM5.1839 8.70837C5.20873 8.68776 5.22529 8.68397 5.21631 8.68666C5.20437 8.69025 5.16362 8.69996 5.08254 8.69996V10.7C5.54745 10.7 6.0481 10.5902 6.46113 10.2474L5.1839 8.70837ZM5.08254 8.69996H3.49991V10.7H5.08254V8.69996ZM4.49991 9.69996V9.08462H2.49991V9.69996H4.49991ZM3.49991 10.0846H4.81085V8.08462H3.49991V10.0846ZM4.81085 10.0846C5.02829 10.0846 5.39618 10.0578 5.72215 9.8283L4.57086 8.1929C4.67427 8.1201 4.7626 8.09662 4.79449 8.08958C4.82838 8.08209 4.83771 8.08462 4.81085 8.08462V10.0846ZM5.7352 9.81896C6.12327 9.53634 6.25154 9.11894 6.25154 8.77384H4.25154C4.25154 8.71995 4.26029 8.62217 4.31152 8.50699C4.36582 8.38493 4.45222 8.27914 4.55781 8.20224L5.7352 9.81896ZM6.25154 8.77384C6.25154 8.42328 6.11886 8.04723 5.79269 7.77447L4.50971 9.30874C4.42754 9.24003 4.35586 9.14792 4.30848 9.03826C4.26258 8.93202 4.25154 8.83757 4.25154 8.77384H6.25154ZM5.76065 7.74878C5.42402 7.49001 5.03417 7.46137 4.81143 7.46137V9.46137C4.83766 9.46137 4.82407 9.46402 4.78443 9.45468C4.74574 9.44556 4.64951 9.41727 4.54175 9.33443L5.76065 7.74878ZM4.80774 7.46138L3.73798 7.46533L3.74537 9.46532L4.81513 9.46136L4.80774 7.46138ZM4.74168 8.46532V7.85055H2.74168V8.46532H4.74168ZM3.74168 8.85055H4.79148V6.85055H3.74168V8.85055ZM4.79148 8.85055C4.99996 8.85055 5.37147 8.82888 5.70029 8.60271L4.5669 6.95486C4.67392 6.88125 4.76382 6.85956 4.79078 6.85391C4.82063 6.84766 4.82501 6.85055 4.79148 6.85055V8.85055ZM5.70298 8.60086C6.12246 8.31032 6.23394 7.86796 6.23394 7.54825H4.23394C4.23394 7.50167 4.24078 7.40484 4.29194 7.28731C4.34712 7.16053 4.43998 7.04276 4.56421 6.95672L5.70298 8.60086ZM6.23394 7.54825C6.23394 7.20535 6.10617 6.80317 5.73878 6.52388L4.52841 8.11605C4.42911 8.04056 4.34634 7.93775 4.29358 7.81786C4.24342 7.70391 4.23394 7.60588 4.23394 7.54825H6.23394ZM5.76465 6.54423C5.57601 6.39076 5.3736 6.31912 5.21627 6.28404L4.78098 8.2361C4.73515 8.22588 4.62311 8.19379 4.50254 8.0957L5.76465 6.54423ZM5.17859 6.2764C5.04723 6.25236 4.91641 6.24368 4.79148 6.24368V8.24368C4.80801 8.24368 4.81837 8.24428 4.82333 8.24467C4.82835 8.24507 4.8264 8.24516 4.81866 8.24374L5.17859 6.2764ZM4.79148 6.24368H3.49991V8.24368H4.79148V6.24368ZM4.49991 7.24368V6.62891H2.49991V7.24368H4.49991ZM3.49991 7.62891H5.01623V5.62891H3.49991V7.62891ZM5.01623 7.62891C5.13025 7.62891 5.19827 7.64023 5.23162 7.64873C5.26353 7.65687 5.24852 7.65845 5.21354 7.6322L6.41388 6.03245C5.98778 5.71274 5.47138 5.62891 5.01623 5.62891V7.62891ZM5.20377 7.62477C5.18041 7.60679 5.15692 7.58381 5.13602 7.55643C5.1152 7.52917 5.10099 7.50287 5.0919 7.48115C5.07422 7.43889 5.0813 7.42762 5.0813 7.47196H7.0813C7.0813 6.96868 6.91545 6.41841 6.42366 6.03988L5.20377 7.62477ZM5.0813 7.47196C5.0813 7.46742 5.08188 7.45093 5.0883 7.4262C5.09488 7.40087 5.1059 7.37346 5.12154 7.34717L6.84036 8.36974C7.00914 8.08605 7.0813 7.77684 7.0813 7.47196H5.0813ZM5.13144 7.33089C5.1286 7.33547 5.12245 7.34449 5.10408 7.35846L6.31444 8.95063C6.51906 8.79508 6.69365 8.60634 6.83047 8.38602L5.13144 7.33089ZM5.19835 9.01418C5.20376 9.01739 5.1493 8.98583 5.10106 8.8983L6.85263 7.9329C6.69289 7.64308 6.46005 7.43748 6.22017 7.29491L5.19835 9.01418ZM5.12248 8.93528C5.07736 8.86109 5.0854 8.81739 5.0854 8.8586H7.0854C7.0854 8.54609 7.02069 8.20743 6.8312 7.89592L5.12248 8.93528Z" fill="white" mask="url(#path-2-inside-1_274_55239)"/>
<mask id="path-4-inside-2_274_55239" fill="white">
<path d="M9.24832 8.75729C9.24832 9.07937 9.12685 9.32347 8.8845 9.4896C8.64214 9.65572 8.29299 9.73822 7.83645 9.73822C7.29776 9.73822 6.89931 9.61334 6.64111 9.36359C6.38468 9.11553 6.25616 8.72621 6.25616 8.19506C6.25616 7.65883 6.39348 7.26329 6.66869 7.00845C6.9398 6.75475 7.36231 6.62817 7.9368 6.62817H9.08284L9.08049 7.24295H7.92036C7.63224 7.24295 7.42333 7.29663 7.29365 7.40342C7.23262 7.45428 7.18626 7.5187 7.15457 7.59667C7.11878 7.67917 7.10117 7.77353 7.10117 7.88033H8.13631C8.50952 7.88033 8.78826 7.95209 8.97252 8.09505C9.15619 8.2397 9.24832 8.46007 9.24832 8.75729ZM8.42033 8.79006C8.42033 8.69118 8.39392 8.61659 8.34111 8.56574C8.2883 8.5194 8.2079 8.49567 8.09934 8.49567H7.10528C7.10528 8.7053 7.16631 8.86408 7.28895 8.97088C7.40866 9.0805 7.60055 9.13531 7.86403 9.13531C8.06531 9.13531 8.20732 9.10706 8.29182 9.05112C8.37808 8.99518 8.42033 8.90816 8.42033 8.79006Z"/>
</mask>
<path d="M9.24832 8.75729C9.24832 9.07937 9.12685 9.32347 8.8845 9.4896C8.64214 9.65572 8.29299 9.73822 7.83645 9.73822C7.29776 9.73822 6.89931 9.61334 6.64111 9.36359C6.38468 9.11553 6.25616 8.72621 6.25616 8.19506C6.25616 7.65883 6.39348 7.26329 6.66869 7.00845C6.9398 6.75475 7.36231 6.62817 7.9368 6.62817H9.08284L9.08049 7.24295H7.92036C7.63224 7.24295 7.42333 7.29663 7.29365 7.40342C7.23262 7.45428 7.18626 7.5187 7.15457 7.59667C7.11878 7.67917 7.10117 7.77353 7.10117 7.88033H8.13631C8.50952 7.88033 8.78826 7.95209 8.97252 8.09505C9.15619 8.2397 9.24832 8.46007 9.24832 8.75729ZM8.42033 8.79006C8.42033 8.69118 8.39392 8.61659 8.34111 8.56574C8.2883 8.5194 8.2079 8.49567 8.09934 8.49567H7.10528C7.10528 8.7053 7.16631 8.86408 7.28895 8.97088C7.40866 9.0805 7.60055 9.13531 7.86403 9.13531C8.06531 9.13531 8.20732 9.10706 8.29182 9.05112C8.37808 8.99518 8.42033 8.90816 8.42033 8.79006Z" fill="white"/>
<path d="M6.64111 9.36359L5.94585 10.0823L5.94586 10.0824L6.64111 9.36359ZM6.66869 7.00845L7.34812 7.74221L7.35198 7.7386L6.66869 7.00845ZM9.08284 6.62817L10.0828 6.63199L10.0867 5.62817H9.08284V6.62817ZM9.08049 7.24295V8.24295H10.0767L10.0805 7.24677L9.08049 7.24295ZM7.29365 7.40342L6.65795 6.63147L6.65348 6.63519L7.29365 7.40342ZM7.15457 7.59667L8.07194 7.99472L8.0766 7.98399L8.081 7.97315L7.15457 7.59667ZM7.10117 7.88033H6.10117V8.88033H7.10117V7.88033ZM8.97252 8.09505L9.59125 7.30941L9.58551 7.30496L8.97252 8.09505ZM8.34111 8.56574L9.03473 7.8454L9.01803 7.82932L9.0006 7.81403L8.34111 8.56574ZM7.10528 8.49567V7.49567H6.10528V8.49567H7.10528ZM7.28895 8.97088L7.9643 8.23338L7.95508 8.22493L7.94565 8.21672L7.28895 8.97088ZM8.29182 9.05112L7.74769 8.21206L7.73981 8.21728L8.29182 9.05112ZM8.24832 8.75729C8.24832 8.79158 8.24238 8.77592 8.2618 8.73685C8.27096 8.71842 8.28269 8.70123 8.29537 8.68693C8.30778 8.67293 8.31722 8.66606 8.31911 8.66477L9.44989 10.3144C9.99304 9.94211 10.2483 9.37266 10.2483 8.75729H8.24832ZM8.31911 8.66477C8.31265 8.6692 8.19601 8.73822 7.83645 8.73822V10.7382C8.38997 10.7382 8.97164 10.6422 9.44989 10.3144L8.31911 8.66477ZM7.83645 8.73822C7.64074 8.73822 7.51173 8.71511 7.43266 8.69033C7.35791 8.6669 7.33669 8.64513 7.33637 8.64483L5.94586 10.0824C6.46554 10.585 7.16577 10.7382 7.83645 10.7382V8.73822ZM7.33638 8.64484C7.33635 8.64481 7.33624 8.6447 7.33602 8.64446C7.3358 8.64422 7.33541 8.64377 7.33486 8.64307C7.33379 8.64172 7.33171 8.63893 7.32884 8.63418C7.32317 8.62479 7.31316 8.60564 7.30222 8.57245C7.27946 8.50341 7.25616 8.38383 7.25616 8.19506H5.25616C5.25616 8.86602 5.41712 9.57089 5.94585 10.0823L7.33638 8.64484ZM7.25616 8.19506C7.25616 8.00877 7.28044 7.89174 7.30381 7.82451C7.32513 7.76316 7.34434 7.7457 7.34812 7.7422L5.98927 6.27471C5.4344 6.7885 5.25616 7.50281 5.25616 8.19506H7.25616ZM7.35198 7.7386C7.35864 7.73237 7.48151 7.62817 7.9368 7.62817V5.62817C7.24311 5.62817 6.52096 5.77712 5.9854 6.27831L7.35198 7.7386ZM7.9368 7.62817H9.08284V5.62817H7.9368V7.62817ZM8.08285 6.62436L8.0805 7.23913L10.0805 7.24677L10.0828 6.63199L8.08285 6.62436ZM9.08049 6.24295H7.92036V8.24295H9.08049V6.24295ZM7.92036 6.24295C7.54993 6.24295 7.05552 6.3041 6.65796 6.63148L7.92934 8.17537C7.8915 8.20653 7.85756 8.2258 7.83389 8.23702C7.81064 8.24803 7.79651 8.25166 7.79585 8.25183C7.79519 8.252 7.80455 8.24959 7.82636 8.24724C7.84803 8.2449 7.87893 8.24295 7.92036 8.24295V6.24295ZM6.65348 6.63519C6.4588 6.79742 6.31785 6.99945 6.22815 7.2202L8.081 7.97315C8.05467 8.03794 8.00644 8.11114 7.93382 8.17166L6.65348 6.63519ZM6.23721 7.19863C6.13707 7.42942 6.10117 7.66368 6.10117 7.88033H8.10117C8.10117 7.88338 8.10049 7.92892 8.07194 7.99472L6.23721 7.19863ZM7.10117 8.88033H8.13631V6.88033H7.10117V8.88033ZM8.13631 8.88033C8.26218 8.88033 8.33812 8.89278 8.37641 8.90262C8.4134 8.91212 8.3973 8.91444 8.35953 8.88514L9.58551 7.30496C9.14865 6.96602 8.60844 6.88033 8.13631 6.88033V8.88033ZM8.3538 8.88066C8.33391 8.865 8.31346 8.84472 8.29505 8.82034C8.27671 8.79605 8.26421 8.77274 8.25629 8.75373C8.24081 8.7166 8.24832 8.70994 8.24832 8.75729H10.2483C10.2483 8.24281 10.078 7.69278 9.59124 7.30944L8.3538 8.88066ZM9.42033 8.79006C9.42033 8.51651 9.34369 8.14289 9.03473 7.8454L7.64748 9.28607C7.44416 9.09029 7.42033 8.86584 7.42033 8.79006H9.42033ZM9.0006 7.81403C8.69163 7.54295 8.3302 7.49567 8.09934 7.49567V9.49567C8.0856 9.49567 7.88497 9.49585 7.68162 9.31745L9.0006 7.81403ZM8.09934 7.49567H7.10528V9.49567H8.09934V7.49567ZM6.10528 8.49567C6.10528 8.9028 6.23075 9.37541 6.63226 9.72503L7.94565 8.21672C8.0131 8.27546 8.05894 8.34671 8.08405 8.41176C8.10694 8.47106 8.10528 8.50557 8.10528 8.49567H6.10528ZM6.61361 9.70838C7.00338 10.0653 7.49803 10.1353 7.86403 10.1353V8.13531C7.79731 8.13531 7.78053 8.12788 7.79742 8.13271C7.817 8.13831 7.88656 8.16219 7.9643 8.23338L6.61361 9.70838ZM7.86403 10.1353C8.10403 10.1353 8.50088 10.112 8.84382 9.88496L7.73981 8.21728C7.79322 8.18192 7.83941 8.16159 7.86978 8.15032C7.90025 8.13902 7.92112 8.13449 7.92811 8.13311C7.93947 8.13087 7.92218 8.13531 7.86403 8.13531V10.1353ZM8.83592 9.89014C9.25746 9.61677 9.42033 9.18141 9.42033 8.79006H7.42033C7.42033 8.73077 7.43108 8.62486 7.49064 8.50345C7.55336 8.37562 7.64766 8.27699 7.74772 8.2121L8.83592 9.89014Z" fill="white" mask="url(#path-4-inside-2_274_55239)"/>
<mask id="path-6-inside-3_274_55239" fill="white">
<path d="M12.1574 8.76989C12.1574 9.06993 12.0594 9.30047 11.8646 9.46095C11.668 9.62029 11.3904 9.6994 11.0325 9.6994H9.35361V9.08462H10.8869C11.0378 9.08462 11.1446 9.05976 11.2056 9.0106C11.2643 8.96257 11.293 8.88233 11.293 8.76989C11.293 8.65462 11.2637 8.57155 11.2056 8.52126C11.1446 8.47324 11.0378 8.4495 10.8869 8.4495H9.35361V6.62891H12.0013L11.999 7.24368H10.1382V7.83812H11.1751C11.4761 7.83812 11.7167 7.91835 11.898 8.07883C11.9819 8.16246 12.0471 8.26078 12.0928 8.37322C12.1357 8.48793 12.1574 8.62071 12.1574 8.76989Z"/>
</mask>
<path d="M12.1574 8.76989C12.1574 9.06993 12.0594 9.30047 11.8646 9.46095C11.668 9.62029 11.3904 9.6994 11.0325 9.6994H9.35361V9.08462H10.8869C11.0378 9.08462 11.1446 9.05976 11.2056 9.0106C11.2643 8.96257 11.293 8.88233 11.293 8.76989C11.293 8.65462 11.2637 8.57155 11.2056 8.52126C11.1446 8.47324 11.0378 8.4495 10.8869 8.4495H9.35361V6.62891H12.0013L11.999 7.24368H10.1382V7.83812H11.1751C11.4761 7.83812 11.7167 7.91835 11.898 8.07883C11.9819 8.16246 12.0471 8.26078 12.0928 8.37322C12.1357 8.48793 12.1574 8.62071 12.1574 8.76989Z" fill="white"/>
<path d="M11.8646 9.46095L12.4943 10.2378L12.5004 10.2328L11.8646 9.46095ZM9.35361 9.6994H8.35361V10.6994H9.35361V9.6994ZM9.35361 9.08462V8.08462H8.35361V9.08462H9.35361ZM11.2056 9.0106L11.8329 9.78939L11.839 9.78444L11.2056 9.0106ZM11.2056 8.52126L11.8601 7.7652L11.8424 7.7499L11.824 7.73544L11.2056 8.52126ZM9.35361 8.4495H8.35361V9.4495H9.35361V8.4495ZM9.35361 6.62891V5.62891H8.35361V6.62891H9.35361ZM12.0013 6.62891L13.0013 6.63272L13.0051 5.62891H12.0013V6.62891ZM11.999 7.24368V8.24368H12.9951L12.999 7.2475L11.999 7.24368ZM10.1382 7.24368V6.24368H9.13818V7.24368H10.1382ZM10.1382 7.83812H9.13818V8.83812H10.1382V7.83812ZM11.898 8.07883L12.6039 7.37051L12.5829 7.34961L12.5608 7.32998L11.898 8.07883ZM12.0928 8.37322L13.0297 8.02337L13.0246 8.00971L13.0191 7.9962L12.0928 8.37322ZM11.1574 8.76989C11.1574 8.81155 11.1507 8.80735 11.1634 8.77734C11.1697 8.76253 11.1791 8.74537 11.192 8.72816C11.2049 8.71099 11.218 8.69797 11.2288 8.68908L12.5004 10.2328C12.9692 9.84665 13.1574 9.30756 13.1574 8.76989H11.1574ZM11.2349 8.6841C11.2784 8.64882 11.2562 8.6994 11.0325 8.6994V10.6994C11.5246 10.6994 12.0576 10.5918 12.4943 10.2378L11.2349 8.6841ZM11.0325 8.6994H9.35361V10.6994H11.0325V8.6994ZM10.3536 9.6994V9.08462H8.35361V9.6994H10.3536ZM9.35361 10.0846H10.8869V8.08462H9.35361V10.0846ZM10.8869 10.0846C11.0853 10.0846 11.4916 10.0643 11.8329 9.78937L10.5783 8.23183C10.7018 8.13229 10.8145 8.10109 10.8535 8.09201C10.8965 8.08204 10.9125 8.08462 10.8869 8.08462V10.0846ZM11.839 9.78444C12.2272 9.46665 12.293 9.02802 12.293 8.76989H10.293C10.293 8.73665 10.3013 8.45849 10.5722 8.23675L11.839 9.78444ZM12.293 8.76989C12.293 8.50937 12.2275 8.08327 11.8601 7.7652L10.5511 9.27733C10.2998 9.05984 10.293 8.79987 10.293 8.76989H12.293ZM11.824 7.73544C11.4824 7.46658 11.0778 7.4495 10.8869 7.4495V9.4495C10.9151 9.4495 10.9015 9.4522 10.8609 9.4431C10.8248 9.43498 10.7121 9.40545 10.5871 9.30709L11.824 7.73544ZM10.8869 7.4495H9.35361V9.4495H10.8869V7.4495ZM10.3536 8.4495V6.62891H8.35361V8.4495H10.3536ZM9.35361 7.62891H12.0013V5.62891H9.35361V7.62891ZM11.0013 6.62509L10.999 7.23987L12.999 7.2475L13.0013 6.63272L11.0013 6.62509ZM11.999 6.24368H10.1382V8.24368H11.999V6.24368ZM9.13818 7.24368V7.83812H11.1382V7.24368H9.13818ZM10.1382 8.83812H11.1751V6.83812H10.1382V8.83812ZM11.1751 8.83812C11.2375 8.83812 11.2637 8.84649 11.2654 8.84705C11.2661 8.84728 11.2622 8.84602 11.2555 8.84218C11.2486 8.83827 11.2416 8.83326 11.2353 8.82768L12.5608 7.32998C12.1555 6.9713 11.6591 6.83812 11.1751 6.83812V8.83812ZM11.1921 8.78714C11.1866 8.78164 11.1809 8.77481 11.1759 8.7672C11.1709 8.75962 11.168 8.75351 11.1666 8.75024L13.0191 7.9962C12.9239 7.76235 12.7847 7.55072 12.6039 7.37051L11.1921 8.78714ZM11.156 8.72307C11.1493 8.70508 11.1574 8.71576 11.1574 8.76989H13.1574C13.1574 8.52567 13.122 8.27077 13.0297 8.02337L11.156 8.72307Z" fill="white" mask="url(#path-6-inside-3_274_55239)"/>
<path d="M14.3402 10.6378C14.2214 10.6012 13.8997 10.5144 13.5795 10.4293L13.8336 10.2088L14.8142 10.4828C14.8264 10.4887 14.8428 10.4971 14.8616 10.5078C14.9052 10.5326 14.9467 10.5615 14.977 10.5897C14.8971 10.6637 14.874 10.6762 14.8396 10.6861C14.793 10.6995 14.6607 10.7197 14.3402 10.6378ZM15.0026 10.5541C15.0026 10.5541 15.0024 10.5547 15.0019 10.5559L15.0026 10.5541Z" fill="white" stroke="white"/>
<path d="M8.17976 11.4888C8.31219 11.4798 8.44616 11.4656 8.58111 11.4472L8.17976 11.4888ZM8.17976 11.4888C8.55501 11.444 8.9187 11.3595 9.2646 11.257L9.26469 11.2569C10.3711 10.9288 11.4189 10.4377 12.3155 9.66235L12.3169 9.66113C12.3299 9.64985 12.338 9.64284 12.3458 9.63636L12.3459 9.63649L12.3556 9.62799C12.648 9.37176 13.0063 9.03684 13.2798 8.64322C13.5539 8.24881 13.7755 7.7486 13.7145 7.17608L13.7144 7.17583C13.7077 7.11245 13.696 7.0519 13.6803 6.99411C13.7385 7.05916 13.7837 7.13018 13.817 7.20728C13.8677 7.37189 13.8823 7.56382 13.8651 7.76521L13.8651 7.76564C13.8329 8.14766 13.6779 8.52972 13.4365 8.87997L13.4363 8.88021C13.0281 9.47304 12.4166 9.95115 11.7337 10.3544L11.7336 10.3544C11.1651 10.6903 10.5814 10.9499 9.95075 11.1388L9.95066 11.1389C9.49447 11.2757 9.03916 11.3851 8.58115 11.4472L8.17976 11.4888ZM5.78707 10.0345C5.80995 10.0826 5.83519 10.1289 5.86277 10.1747L5.75127 9.95259C5.75665 9.96442 5.76168 9.97635 5.76673 9.9883C5.77325 10.0038 5.77979 10.0192 5.78707 10.0345Z" fill="white" stroke="white"/>
<mask id="path-10-inside-4_274_55239" fill="white">
<path fill-rule="evenodd" clip-rule="evenodd" d="M6.10361 9.89851C6.10361 9.89851 7.72849 11.314 10.5182 9.79736C10.2072 10.1511 6.73384 11.7688 6.10361 9.89851Z"/>
</mask>
<path fill-rule="evenodd" clip-rule="evenodd" d="M6.10361 9.89851C6.10361 9.89851 7.72849 11.314 10.5182 9.79736C10.2072 10.1511 6.73384 11.7688 6.10361 9.89851Z" fill="white"/>
<path d="M6.10361 9.89851L6.76045 9.14448L3.97733 6.72008L5.15596 10.2178L6.10361 9.89851ZM10.5182 9.79736L11.2692 10.4577L10.0406 8.9188L10.5182 9.79736ZM6.10361 9.89851C5.44677 10.6525 5.44728 10.653 5.4478 10.6534C5.44799 10.6536 5.44852 10.6541 5.44888 10.6544C5.44961 10.655 5.45038 10.6557 5.45116 10.6563C5.45274 10.6577 5.45443 10.6591 5.45622 10.6607C5.45982 10.6637 5.46385 10.6671 5.46832 10.6709C5.47727 10.6783 5.48799 10.6871 5.50046 10.697C5.52539 10.7168 5.5574 10.7413 5.59641 10.7692C5.67433 10.8251 5.78077 10.8952 5.91491 10.9698C6.18303 11.119 6.56497 11.2878 7.05212 11.3938C8.04847 11.6106 9.3965 11.5454 10.9958 10.6759L10.0406 8.9188C8.85019 9.56594 7.99092 9.55128 7.47741 9.43953C7.20962 9.38126 7.01099 9.29095 6.88726 9.22211C6.82548 9.18774 6.78318 9.15916 6.76134 9.14351C6.75047 9.13572 6.74485 9.13127 6.74462 9.13108C6.7445 9.13099 6.74575 9.13198 6.74838 9.13417C6.7497 9.13527 6.75136 9.13666 6.75337 9.13838C6.75437 9.13923 6.75547 9.14017 6.75665 9.14118C6.75724 9.14169 6.75785 9.14222 6.75848 9.14277C6.7588 9.14304 6.75929 9.14347 6.75945 9.14361C6.75995 9.14404 6.76045 9.14448 6.10361 9.89851ZM9.76721 9.13705C9.84468 9.04893 9.88427 9.04345 9.75635 9.11905C9.66702 9.17183 9.53615 9.24052 9.3724 9.31487C9.04273 9.46456 8.62747 9.61559 8.2177 9.70488C7.79074 9.79792 7.46328 9.80316 7.26034 9.75192C7.11559 9.71537 7.08326 9.67417 7.05125 9.57918L5.15596 10.2178C5.43907 11.058 6.07724 11.516 6.77072 11.6911C7.40601 11.8515 8.0845 11.7808 8.64353 11.659C9.21975 11.5335 9.77052 11.3306 10.1993 11.1359C10.4147 11.0381 10.6112 10.937 10.7738 10.8409C10.8978 10.7676 11.114 10.6342 11.2692 10.4577L9.76721 9.13705Z" fill="white" mask="url(#path-10-inside-4_274_55239)"/>
</svg>
