<svg width="21" height="20" viewBox="0 0 21 20" fill="none" xmlns="http://www.w3.org/2000/svg">
<path d="M6.83332 18.3333H13.5C16.85 18.3333 17.45 16.9917 17.625 15.3583L18.25 8.69167C18.475 6.65833 17.8917 5 14.3333 5H5.99999C2.44165 5 1.85832 6.65833 2.08332 8.69167L2.70832 15.3583C2.88332 16.9917 3.48332 18.3333 6.83332 18.3333Z" stroke="#474747" stroke-width="1.5" stroke-miterlimit="10" stroke-linecap="round" stroke-linejoin="round"/>
<path d="M6.83333 5.00008V4.33341C6.83333 2.85841 6.83333 1.66675 9.49999 1.66675H10.8333C13.5 1.66675 13.5 2.85841 13.5 4.33341V5.00008" stroke="#474747" stroke-width="1.5" stroke-miterlimit="10" stroke-linecap="round" stroke-linejoin="round"/>
<path d="M11.8333 10.8333V11.6667C11.8333 11.675 11.8333 11.675 11.8333 11.6833C11.8333 12.5917 11.825 13.3333 10.1667 13.3333C8.51665 13.3333 8.49998 12.6 8.49998 11.6917V10.8333C8.49998 10 8.49998 10 9.33332 10H11C11.8333 10 11.8333 10 11.8333 10.8333Z" stroke="#474747" stroke-width="1.5" stroke-miterlimit="10" stroke-linecap="round" stroke-linejoin="round"/>
<path d="M18.2083 9.16675C16.2833 10.5667 14.0833 11.4001 11.8333 11.6834" stroke="#474747" stroke-width="1.5" stroke-miterlimit="10" stroke-linecap="round" stroke-linejoin="round"/>
<path d="M2.34999 9.3916C4.22499 10.6749 6.34166 11.4499 8.49999 11.6916" stroke="#474747" stroke-width="1.5" stroke-miterlimit="10" stroke-linecap="round" stroke-linejoin="round"/>
</svg>
