<svg width="38" height="37" viewBox="0 0 38 37" fill="none" xmlns="http://www.w3.org/2000/svg">
<rect x="1" y="0.5" width="36" height="36" rx="18" fill="white"/>
<path d="M19 18.9062C22.6546 18.9062 25.6176 16.3134 25.6176 13.115C25.6176 9.91655 22.6546 7.32373 19 7.32373C15.3454 7.32373 12.3823 9.91655 12.3823 13.115C12.3823 14.571 12.9969 15.903 14.0119 16.9206C13.9317 17.7612 13.667 18.6828 13.3741 19.3745C13.3088 19.5283 13.4354 19.7004 13.6 19.674C15.4661 19.3678 16.5754 18.8979 17.0577 18.653C17.6913 18.822 18.3443 18.9072 19 18.9062Z" stroke="#4C5BD4" stroke-width="0.5"/>
<mask id="path-3-inside-1_966_60220" fill="white">
<path d="M16.1546 13.3905C16.1546 13.5953 16.0817 13.7557 15.9355 13.8721C15.7868 13.9873 15.5815 14.0448 15.3189 14.0448H14V13.5663H15.0924C15.2206 13.5663 15.314 13.5469 15.3722 13.5087C15.4304 13.4691 15.4597 13.408 15.4597 13.3245C15.4597 13.2476 15.4318 13.1874 15.3761 13.1439C15.3179 13.1022 15.2235 13.0815 15.0929 13.0815L14.2015 13.0846V12.6064H15.0763C15.2083 12.6064 15.3032 12.588 15.3614 12.5506C15.4172 12.5146 15.445 12.4548 15.445 12.3713C15.445 12.2922 15.4172 12.2333 15.3614 12.1937C15.333 12.1722 15.2954 12.1568 15.2489 12.1472C15.2 12.1388 15.1428 12.1344 15.0763 12.1344H14V11.6562H15.2636C15.556 11.6562 15.7776 11.709 15.9282 11.8145C16.0768 11.9213 16.1512 12.0869 16.1512 12.312C16.1512 12.4249 16.1233 12.5251 16.0675 12.6126C16.0093 12.7 15.934 12.7769 15.8411 12.8429C15.9433 12.8996 16.0177 12.9672 16.0641 13.0459C16.1243 13.1382 16.1546 13.2529 16.1546 13.3905Z"/>
</mask>
<path d="M16.1546 13.3905C16.1546 13.5953 16.0817 13.7557 15.9355 13.8721C15.7868 13.9873 15.5815 14.0448 15.3189 14.0448H14V13.5663H15.0924C15.2206 13.5663 15.314 13.5469 15.3722 13.5087C15.4304 13.4691 15.4597 13.408 15.4597 13.3245C15.4597 13.2476 15.4318 13.1874 15.3761 13.1439C15.3179 13.1022 15.2235 13.0815 15.0929 13.0815L14.2015 13.0846V12.6064H15.0763C15.2083 12.6064 15.3032 12.588 15.3614 12.5506C15.4172 12.5146 15.445 12.4548 15.445 12.3713C15.445 12.2922 15.4172 12.2333 15.3614 12.1937C15.333 12.1722 15.2954 12.1568 15.2489 12.1472C15.2 12.1388 15.1428 12.1344 15.0763 12.1344H14V11.6562H15.2636C15.556 11.6562 15.7776 11.709 15.9282 11.8145C16.0768 11.9213 16.1512 12.0869 16.1512 12.312C16.1512 12.4249 16.1233 12.5251 16.0675 12.6126C16.0093 12.7 15.934 12.7769 15.8411 12.8429C15.9433 12.8996 16.0177 12.9672 16.0641 13.0459C16.1243 13.1382 16.1546 13.2529 16.1546 13.3905Z" fill="#4C5BD4"/>
<path d="M15.9355 13.8721L16.5479 14.6628L16.5585 14.6543L15.9355 13.8721ZM14 14.0448H13V15.0448H14V14.0448ZM14 13.5663V12.5663H13V13.5663H14ZM15.3722 13.5087L15.9213 14.3444L15.9278 14.3401L15.9343 14.3357L15.3722 13.5087ZM15.3761 13.1439L15.9913 12.3556L15.9754 12.3432L15.959 12.3314L15.3761 13.1439ZM15.0929 13.0815V12.0815L15.0895 12.0815L15.0929 13.0815ZM14.2015 13.0846H13.2015V14.088L14.2049 14.0846L14.2015 13.0846ZM14.2015 12.6064V11.6064H13.2015V12.6064H14.2015ZM15.3614 12.5506L15.9016 13.3921L15.9043 13.3904L15.3614 12.5506ZM15.3614 12.1937L14.7567 12.9902L14.7696 13L14.7827 13.0093L15.3614 12.1937ZM15.2489 12.1472L15.4527 11.1681L15.435 11.1645L15.4173 11.1614L15.2489 12.1472ZM14 12.1344H13V13.1344H14V12.1344ZM14 11.6562V10.6562H13V11.6562H14ZM15.9282 11.8145L16.5117 11.0023L16.5018 10.9953L15.9282 11.8145ZM16.0675 12.6126L16.9001 13.1665L16.9055 13.1584L16.9108 13.1501L16.0675 12.6126ZM15.8411 12.8429L15.2625 12.0273L13.9667 12.9466L15.356 13.7173L15.8411 12.8429ZM16.0641 13.0459L15.203 13.5544L15.2143 13.5734L15.2263 13.5919L16.0641 13.0459ZM15.1546 13.3905C15.1546 13.3732 15.1581 13.3197 15.1895 13.2505C15.2223 13.1785 15.2697 13.124 15.3125 13.0899L16.5585 14.6543C16.9682 14.328 17.1546 13.8659 17.1546 13.3905H15.1546ZM15.3232 13.0815C15.3426 13.0665 15.3606 13.0559 15.375 13.0489C15.3891 13.042 15.3982 13.0393 15.4001 13.0387C15.4019 13.0383 15.3967 13.0398 15.383 13.0415C15.3693 13.0432 15.3482 13.0448 15.3189 13.0448V15.0448C15.7172 15.0448 16.1663 14.9582 16.5479 14.6627L15.3232 13.0815ZM15.3189 13.0448H14V15.0448H15.3189V13.0448ZM15 14.0448V13.5663H13V14.0448H15ZM14 14.5663H15.0924V12.5663H14V14.5663ZM15.0924 14.5663C15.2765 14.5663 15.6133 14.5468 15.9213 14.3444L14.823 12.6729C14.9305 12.6023 15.0218 12.5796 15.0566 12.5724C15.0944 12.5646 15.11 12.5663 15.0924 12.5663V14.5663ZM15.9343 14.3357C16.3169 14.0757 16.4597 13.6731 16.4597 13.3245H14.4597C14.4597 13.25 14.4729 13.1332 14.535 13.0029C14.6001 12.8664 14.699 12.7571 14.81 12.6816L15.9343 14.3357ZM16.4597 13.3245C16.4597 12.9706 16.3133 12.6069 15.9913 12.3556L14.7608 13.9322C14.6719 13.8628 14.5885 13.7654 14.5313 13.6418C14.4753 13.5209 14.4597 13.4082 14.4597 13.3245H16.4597ZM15.959 12.3314C15.6392 12.102 15.2809 12.0815 15.0929 12.0815V14.0815C15.1097 14.0815 15.0901 14.0832 15.0468 14.0737C15.0055 14.0646 14.9059 14.0373 14.7931 13.9564L15.959 12.3314ZM15.0895 12.0815L14.198 12.0846L14.2049 14.0846L15.0964 14.0815L15.0895 12.0815ZM15.2015 13.0846V12.6064H13.2015V13.0846H15.2015ZM14.2015 13.6064H15.0763V11.6064H14.2015V13.6064ZM15.0763 13.6064C15.2516 13.6064 15.5914 13.5912 15.9016 13.3921L14.8212 11.7091C14.9318 11.638 15.0245 11.617 15.0547 11.6111C15.0887 11.6044 15.0998 11.6064 15.0763 11.6064V13.6064ZM15.9043 13.3904C16.3196 13.1219 16.445 12.6946 16.445 12.3713H14.445C14.445 12.3046 14.4559 12.1889 14.5178 12.0561C14.5839 11.9143 14.6895 11.7942 14.8185 11.7108L15.9043 13.3904ZM16.445 12.3713C16.445 12.0244 16.3029 11.6356 15.9401 11.3782L14.7827 13.0093C14.6777 12.9348 14.5828 12.8281 14.5196 12.6942C14.4589 12.5654 14.445 12.4489 14.445 12.3713H16.445ZM15.9661 11.3973C15.7834 11.2586 15.593 11.1973 15.4527 11.1681L15.0452 13.1262C14.9978 13.1163 14.8827 13.0858 14.7567 12.9902L15.9661 11.3973ZM15.4173 11.1614C15.3002 11.1414 15.1849 11.1344 15.0763 11.1344V13.1344C15.0878 13.1344 15.0937 13.1348 15.0949 13.1349C15.0961 13.135 15.091 13.1347 15.0806 13.1329L15.4173 11.1614ZM15.0763 11.1344H14V13.1344H15.0763V11.1344ZM15 12.1344V11.6562H13V12.1344H15ZM14 12.6562H15.2636V10.6562H14V12.6562ZM15.2636 12.6562C15.3526 12.6562 15.4005 12.6646 15.4175 12.6686C15.4338 12.6725 15.4039 12.6682 15.3545 12.6336L16.5018 10.9953C16.1103 10.7212 15.6497 10.6562 15.2636 10.6562V12.6562ZM15.3447 12.6266C15.277 12.5779 15.2186 12.5075 15.1829 12.428C15.1504 12.3554 15.1512 12.3078 15.1512 12.312H17.1512C17.1512 11.8475 16.9823 11.3405 16.5116 11.0023L15.3447 12.6266ZM15.1512 12.312C15.1512 12.2856 15.1545 12.2481 15.1668 12.2038C15.1793 12.1589 15.1988 12.115 15.2243 12.0751L16.9108 13.1501C17.078 12.8878 17.1512 12.5977 17.1512 12.312H15.1512ZM15.235 12.0586C15.2414 12.0489 15.2481 12.041 15.2539 12.0351C15.2596 12.0293 15.2631 12.0269 15.2625 12.0273L16.4198 13.6584C16.6059 13.5264 16.7696 13.3627 16.9001 13.1665L15.235 12.0586ZM15.356 13.7173C15.3453 13.7113 15.2691 13.6662 15.203 13.5544L16.9252 12.5374C16.7662 12.2683 16.5414 12.0878 16.3262 11.9684L15.356 13.7173ZM15.2263 13.5919C15.1579 13.4869 15.1546 13.4005 15.1546 13.3905H17.1546C17.1546 13.1053 17.0906 12.7895 16.9019 12.4999L15.2263 13.5919Z" fill="#4C5BD4" mask="url(#path-3-inside-1_966_60220)"/>
<mask id="path-5-inside-2_966_60220" fill="white">
<path d="M18.7903 13.3117C18.7903 13.5622 18.6891 13.7521 18.4872 13.8813C18.2852 14.0105 17.9942 14.0747 17.6138 14.0747C17.1649 14.0747 16.8328 13.9776 16.6177 13.7833C16.404 13.5904 16.2969 13.2876 16.2969 12.8745C16.2969 12.4574 16.4113 12.1497 16.6406 11.9515C16.8666 11.7542 17.2187 11.6558 17.6974 11.6558H18.6524L18.6505 12.1339H17.6837C17.4436 12.1339 17.2695 12.1757 17.1614 12.2587C17.1106 12.2983 17.072 12.3484 17.0455 12.409C17.0157 12.4732 17.001 12.5466 17.001 12.6297H17.8637C18.1747 12.6297 18.407 12.6855 18.5605 12.7967C18.7136 12.9092 18.7903 13.0806 18.7903 13.3117ZM18.1003 13.3372C18.1003 13.2603 18.0783 13.2023 18.0343 13.1628C17.9903 13.1267 17.9233 13.1083 17.8329 13.1083H17.0045C17.0045 13.2713 17.0553 13.3948 17.1575 13.4779C17.2573 13.5631 17.4172 13.6058 17.6368 13.6058C17.8045 13.6058 17.9228 13.5838 17.9933 13.5403C18.0651 13.4968 18.1003 13.4291 18.1003 13.3372Z"/>
</mask>
<path d="M18.7903 13.3117C18.7903 13.5622 18.6891 13.7521 18.4872 13.8813C18.2852 14.0105 17.9942 14.0747 17.6138 14.0747C17.1649 14.0747 16.8328 13.9776 16.6177 13.7833C16.404 13.5904 16.2969 13.2876 16.2969 12.8745C16.2969 12.4574 16.4113 12.1497 16.6406 11.9515C16.8666 11.7542 17.2187 11.6558 17.6974 11.6558H18.6524L18.6505 12.1339H17.6837C17.4436 12.1339 17.2695 12.1757 17.1614 12.2587C17.1106 12.2983 17.072 12.3484 17.0455 12.409C17.0157 12.4732 17.001 12.5466 17.001 12.6297H17.8637C18.1747 12.6297 18.407 12.6855 18.5605 12.7967C18.7136 12.9092 18.7903 13.0806 18.7903 13.3117ZM18.1003 13.3372C18.1003 13.2603 18.0783 13.2023 18.0343 13.1628C17.9903 13.1267 17.9233 13.1083 17.8329 13.1083H17.0045C17.0045 13.2713 17.0553 13.3948 17.1575 13.4779C17.2573 13.5631 17.4172 13.6058 17.6368 13.6058C17.8045 13.6058 17.9228 13.5838 17.9933 13.5403C18.0651 13.4968 18.1003 13.4291 18.1003 13.3372Z" fill="#4C5BD4"/>
<path d="M16.6177 13.7833L15.9475 14.5256L15.9476 14.5256L16.6177 13.7833ZM16.6406 11.9515L17.2945 12.7081L17.2985 12.7047L16.6406 11.9515ZM18.6524 11.6558L19.6524 11.6599L19.6565 10.6558H18.6524V11.6558ZM18.6505 12.1339V13.1339H19.6464L19.6505 12.138L18.6505 12.1339ZM17.1614 12.2587L16.552 11.4659L16.5475 11.4694L17.1614 12.2587ZM17.0455 12.409L17.9523 12.8306L17.9575 12.8195L17.9624 12.8082L17.0455 12.409ZM17.001 12.6297H16.001V13.6297H17.001V12.6297ZM18.5605 12.7967L19.1528 11.9909L19.147 11.9867L18.5605 12.7967ZM18.0343 13.1628L18.7028 12.419L18.6857 12.4036L18.6679 12.389L18.0343 13.1628ZM17.0045 13.1083V12.1083H16.0045V13.1083H17.0045ZM17.1575 13.4779L17.8072 12.7177L17.7978 12.7096L17.7882 12.7018L17.1575 13.4779ZM17.9933 13.5403L17.4754 12.6847L17.4676 12.6896L17.9933 13.5403ZM17.7903 13.3117C17.7903 13.3 17.7936 13.2437 17.8318 13.172C17.871 13.0984 17.9216 13.056 17.9482 13.039L19.0261 14.7237C19.5299 14.4014 19.7903 13.8856 19.7903 13.3117H17.7903ZM17.9482 13.039C17.9671 13.0269 17.9594 13.0372 17.9014 13.0501C17.8433 13.0629 17.7505 13.0747 17.6138 13.0747V15.0747C18.0818 15.0747 18.5939 15.0001 19.0261 14.7237L17.9482 13.039ZM17.6138 13.0747C17.4577 13.0747 17.3612 13.0574 17.3088 13.0421C17.2597 13.0277 17.264 13.0196 17.2878 13.0411L15.9476 14.5256C16.4246 14.9562 17.0478 15.0747 17.6138 15.0747V13.0747ZM17.2878 13.0411C17.3182 13.0685 17.3246 13.0912 17.3201 13.0785C17.3134 13.0595 17.2969 12.9982 17.2969 12.8745H15.2969C15.2969 13.4456 15.4462 14.0729 15.9475 14.5256L17.2878 13.0411ZM17.2969 12.8745C17.2969 12.7541 17.3138 12.6963 17.3199 12.6799C17.3226 12.6727 17.3226 12.675 17.3172 12.6829C17.3116 12.691 17.3037 12.7002 17.2945 12.7081L15.9868 11.1949C15.4636 11.6471 15.2969 12.2817 15.2969 12.8745H17.2969ZM17.2985 12.7047C17.2773 12.7232 17.2801 12.7104 17.3437 12.6927C17.4098 12.6742 17.5227 12.6558 17.6974 12.6558V10.6558C17.1133 10.6558 16.4726 10.7706 15.9828 11.1984L17.2985 12.7047ZM17.6974 12.6558H18.6524V10.6558H17.6974V12.6558ZM17.6524 11.6517L17.6505 12.1298L19.6505 12.138L19.6524 11.6599L17.6524 11.6517ZM18.6505 11.1339H17.6837V13.1339H18.6505V11.1339ZM17.6837 11.1339C17.3716 11.1339 16.9243 11.1798 16.5521 11.4659L17.7708 13.0516C17.6844 13.1181 17.6148 13.1356 17.6057 13.1377C17.5959 13.1401 17.6174 13.1339 17.6837 13.1339V11.1339ZM16.5475 11.4694C16.361 11.6144 16.22 11.8001 16.1287 12.0098L17.9624 12.8082C17.9239 12.8967 17.8602 12.9822 17.7754 13.0481L16.5475 11.4694ZM16.1388 11.9875C16.0371 12.2062 16.001 12.428 16.001 12.6297H18.001C18.001 12.6652 17.9944 12.7402 17.9523 12.8306L16.1388 11.9875ZM17.001 13.6297H17.8637V11.6297H17.001V13.6297ZM17.8637 13.6297C17.9627 13.6297 18.017 13.6389 18.0379 13.6439C18.0585 13.6488 18.0268 13.6448 17.974 13.6066L19.147 11.9867C18.7451 11.6956 18.263 11.6297 17.8637 11.6297V13.6297ZM17.9682 13.6024C17.9071 13.5575 17.853 13.4921 17.8198 13.4175C17.7893 13.3493 17.7903 13.3055 17.7903 13.3117H19.7903C19.7903 12.8382 19.6176 12.3326 19.1528 11.9909L17.9682 13.6024ZM19.1003 13.3372C19.1003 13.0658 19.0161 12.7006 18.7028 12.419L17.3659 13.9065C17.2634 13.8144 17.1914 13.7029 17.1486 13.5901C17.108 13.4828 17.1003 13.3921 17.1003 13.3372H19.1003ZM18.6679 12.389C18.3694 12.1446 18.0324 12.1083 17.8329 12.1083V14.1083C17.8142 14.1083 17.6113 14.1088 17.4008 13.9365L18.6679 12.389ZM17.8329 12.1083H17.0045V14.1083H17.8329V12.1083ZM16.0045 13.1083C16.0045 13.4914 16.1346 13.9351 16.5268 14.2539L17.7882 12.7018C17.8684 12.767 17.9298 12.8515 17.9668 12.9409C18.0013 13.0245 18.0045 13.0874 18.0045 13.1083H16.0045ZM16.5078 14.2381C16.8763 14.5529 17.3274 14.6058 17.6368 14.6058V12.6058C17.5874 12.6058 17.5835 12.6005 17.61 12.6076C17.6379 12.615 17.7178 12.6413 17.8072 12.7177L16.5078 14.2381ZM17.6368 14.6058C17.8375 14.6058 18.1977 14.5894 18.5189 14.391L17.4676 12.6896C17.5236 12.655 17.572 12.6351 17.6042 12.6239C17.6367 12.6127 17.6601 12.6078 17.6704 12.6059C17.6885 12.6025 17.6811 12.6058 17.6368 12.6058V14.6058ZM18.5111 14.3958C18.9196 14.1485 19.1003 13.7329 19.1003 13.3372H17.1003C17.1003 13.2551 17.1166 13.1286 17.1886 12.9916C17.2632 12.8497 17.3705 12.7483 17.4755 12.6848L18.5111 14.3958Z" fill="#4C5BD4" mask="url(#path-5-inside-2_966_60220)"/>
<mask id="path-7-inside-3_966_60220" fill="white">
<path d="M21.2144 13.3215C21.2144 13.5548 21.1328 13.7341 20.9704 13.8589C20.8066 13.9829 20.5753 14.0444 20.277 14.0444H18.8779V13.5663H20.1557C20.2814 13.5663 20.3704 13.5469 20.4212 13.5087C20.4701 13.4713 20.4941 13.4089 20.4941 13.3215C20.4941 13.2318 20.4697 13.1672 20.4212 13.1281C20.3704 13.0907 20.2814 13.0723 20.1557 13.0723H18.8779V11.6562H21.0843L21.0824 12.1344H19.5317V12.5967H20.3958C20.6467 12.5967 20.8472 12.6592 20.9983 12.784C21.0682 12.849 21.1225 12.9255 21.1606 13.0129C21.1963 13.1022 21.2144 13.2054 21.2144 13.3215Z"/>
</mask>
<path d="M21.2144 13.3215C21.2144 13.5548 21.1328 13.7341 20.9704 13.8589C20.8066 13.9829 20.5753 14.0444 20.277 14.0444H18.8779V13.5663H20.1557C20.2814 13.5663 20.3704 13.5469 20.4212 13.5087C20.4701 13.4713 20.4941 13.4089 20.4941 13.3215C20.4941 13.2318 20.4697 13.1672 20.4212 13.1281C20.3704 13.0907 20.2814 13.0723 20.1557 13.0723H18.8779V11.6562H21.0843L21.0824 12.1344H19.5317V12.5967H20.3958C20.6467 12.5967 20.8472 12.6592 20.9983 12.784C21.0682 12.849 21.1225 12.9255 21.1606 13.0129C21.1963 13.1022 21.2144 13.2054 21.2144 13.3215Z" fill="#4C5BD4"/>
<path d="M20.9704 13.8589L21.5738 14.6565L21.5799 14.6517L20.9704 13.8589ZM18.8779 14.0444H17.8779V15.0444H18.8779V14.0444ZM18.8779 13.5663V12.5663H17.8779V13.5663H18.8779ZM20.4212 13.5087L21.0222 14.308L21.0283 14.3033L20.4212 13.5087ZM20.4212 13.1281L21.0497 12.3502L21.0318 12.3358L21.0132 12.3221L20.4212 13.1281ZM18.8779 13.0723H17.8779V14.0723H18.8779V13.0723ZM18.8779 11.6562V10.6562H17.8779V11.6562H18.8779ZM21.0843 11.6562L22.0843 11.6603L22.0884 10.6562H21.0843V11.6562ZM21.0824 12.1344V13.1344H22.0783L22.0824 12.1385L21.0824 12.1344ZM19.5317 12.1344V11.1344H18.5317V12.1344H19.5317ZM19.5317 12.5967H18.5317V13.5967H19.5317V12.5967ZM20.9983 12.784L21.6793 12.0517L21.6578 12.0317L21.6351 12.013L20.9983 12.784ZM21.1606 13.0129L22.0891 12.6414L22.0834 12.6272L22.0772 12.6132L21.1606 13.0129ZM20.2144 13.3215C20.2144 13.3216 20.2144 13.3112 20.2181 13.2925C20.2219 13.2734 20.2292 13.2473 20.2429 13.2173C20.2728 13.1514 20.3179 13.0993 20.3609 13.0662L21.5799 14.6517C22.0241 14.3103 22.2144 13.8175 22.2144 13.3215H20.2144ZM20.3671 13.0615C20.4041 13.0334 20.4275 13.029 20.4161 13.032C20.4026 13.0356 20.3598 13.0444 20.277 13.0444V15.0444C20.6965 15.0444 21.1724 14.9601 21.5737 14.6564L20.3671 13.0615ZM20.277 13.0444H18.8779V15.0444H20.277V13.0444ZM19.8779 14.0444V13.5663H17.8779V14.0444H19.8779ZM18.8779 14.5663H20.1557V12.5663H18.8779V14.5663ZM20.1557 14.5663C20.3208 14.5663 20.696 14.5532 21.0222 14.308L19.8203 12.7094C19.9485 12.613 20.0638 12.5834 20.1045 12.5745C20.1506 12.5645 20.1721 12.5663 20.1557 12.5663V14.5663ZM21.0283 14.3033C21.4207 14.0036 21.4941 13.5761 21.4941 13.3215H19.4941C19.4941 13.2418 19.5196 12.939 19.8142 12.714L21.0283 14.3033ZM21.4941 13.3215C21.4941 13.0662 21.4219 12.651 21.0497 12.3502L19.7928 13.9059C19.5174 13.6834 19.4941 13.3974 19.4941 13.3215H21.4941ZM21.0132 12.3221C20.6873 12.0827 20.314 12.0723 20.1557 12.0723V14.0723C20.1746 14.0723 20.1553 14.0741 20.1115 14.0649C20.0735 14.057 19.9585 14.0289 19.8293 13.934L21.0132 12.3221ZM20.1557 12.0723H18.8779V14.0723H20.1557V12.0723ZM19.8779 13.0723V11.6562H17.8779V13.0723H19.8779ZM18.8779 12.6562H21.0843V10.6562H18.8779V12.6562ZM20.0844 11.6522L20.0824 12.1303L22.0824 12.1385L22.0843 11.6603L20.0844 11.6522ZM21.0824 11.1344H19.5317V13.1344H21.0824V11.1344ZM18.5317 12.1344V12.5967H20.5317V12.1344H18.5317ZM19.5317 13.5967H20.3958V11.5967H19.5317V13.5967ZM20.3958 13.5967C20.4394 13.5967 20.4498 13.6023 20.4376 13.5985C20.4312 13.5965 20.42 13.5924 20.4058 13.5848C20.3914 13.5771 20.3762 13.5672 20.3614 13.555L21.6351 12.013C21.2599 11.703 20.8133 11.5967 20.3958 11.5967V13.5967ZM20.3172 13.5162C20.2871 13.4882 20.261 13.4517 20.244 13.4127L22.0772 12.6132C21.984 12.3993 21.8493 12.2098 21.6793 12.0517L20.3172 13.5162ZM20.2322 13.3844C20.2122 13.3345 20.2144 13.3079 20.2144 13.3215H22.2144C22.2144 13.103 22.1805 12.8699 22.0891 12.6414L20.2322 13.3844Z" fill="#4C5BD4" mask="url(#path-7-inside-3_966_60220)"/>
<path d="M23.5317 14.8411C23.5317 14.8411 23.531 14.8404 23.5299 14.8389C23.5312 14.8404 23.5318 14.8411 23.5317 14.8411Z" fill="#4C5BD4" stroke="#4C5BD4"/>
<path d="M22.221 13.3309C22.0098 13.6171 21.7284 13.8703 21.4033 14.0978C21.4064 14.0953 21.409 14.0932 21.4116 14.0912L21.4117 14.0914L21.4215 14.0833C21.6657 13.8836 21.9724 13.6167 22.2087 13.2995C22.3332 13.1323 22.4494 12.9358 22.5231 12.7149C22.4722 12.9216 22.369 13.1305 22.2212 13.3306L22.221 13.3309Z" fill="#4C5BD4" stroke="#4C5BD4"/>
<mask id="path-11-inside-4_966_60220" fill="white">
<path fill-rule="evenodd" clip-rule="evenodd" d="M16.1694 14.1993C16.1694 14.1993 17.5235 15.3002 19.8483 14.1206C19.5891 14.3957 16.6946 15.654 16.1694 14.1993Z"/>
</mask>
<path fill-rule="evenodd" clip-rule="evenodd" d="M16.1694 14.1993C16.1694 14.1993 17.5235 15.3002 19.8483 14.1206C19.5891 14.3957 16.6946 15.654 16.1694 14.1993Z" fill="#4C5BD4"/>
<path d="M16.1694 14.1993L16.8003 13.4234L14.0059 11.1514L15.2289 14.5389L16.1694 14.1993ZM19.8483 14.1206L20.5761 14.8063L19.3958 13.2288L19.8483 14.1206ZM16.1694 14.1993C15.5386 14.9752 15.5391 14.9756 15.5396 14.976C15.5398 14.9762 15.5404 14.9766 15.5407 14.9769C15.5415 14.9775 15.5422 14.9781 15.543 14.9788C15.5446 14.98 15.5462 14.9813 15.548 14.9827C15.5515 14.9855 15.5554 14.9886 15.5596 14.9919C15.5681 14.9985 15.5781 15.0061 15.5896 15.0146C15.6125 15.0316 15.6414 15.0522 15.6762 15.0755C15.7458 15.122 15.8395 15.1796 15.9565 15.2403C16.1905 15.3619 16.5201 15.4974 16.938 15.5823C17.7917 15.7557 18.9407 15.7025 20.3007 15.0124L19.3958 13.2288C18.4311 13.7183 17.7407 13.7045 17.3361 13.6223C17.1249 13.5794 16.9707 13.5134 16.8782 13.4654C16.8319 13.4414 16.8016 13.4221 16.7881 13.413C16.7813 13.4085 16.7789 13.4067 16.7809 13.4081C16.7818 13.4088 16.7839 13.4104 16.7872 13.4129C16.7888 13.4142 16.7907 13.4157 16.7929 13.4174C16.794 13.4183 16.7951 13.4192 16.7964 13.4202C16.797 13.4207 16.7976 13.4212 16.7983 13.4217C16.7986 13.422 16.7991 13.4224 16.7993 13.4225C16.7998 13.4229 16.8003 13.4234 16.1694 14.1993ZM19.1204 13.4349C19.2077 13.3422 19.2635 13.3268 19.1544 13.387C19.0853 13.4251 18.9809 13.4764 18.8478 13.5328C18.5797 13.6464 18.2417 13.7611 17.9093 13.8287C17.5606 13.8996 17.3053 13.9006 17.1587 13.866C17.0952 13.8511 17.083 13.8365 17.0936 13.845C17.1106 13.8586 17.1148 13.873 17.11 13.8597L15.2289 14.5389C15.5002 15.2903 16.1014 15.6717 16.7 15.8127C17.2519 15.9428 17.8349 15.8848 18.3079 15.7886C18.7972 15.689 19.2642 15.5285 19.6282 15.3743C19.8111 15.2968 19.9793 15.216 20.1202 15.1383C20.2211 15.0827 20.424 14.9678 20.5761 14.8063L19.1204 13.4349Z" fill="#4C5BD4" mask="url(#path-11-inside-4_966_60220)"/>
<path d="M13.1326 28.2776H14.4109C14.37 28.7065 14.2336 29.0889 14.0018 29.4248C13.77 29.7577 13.4445 30.0201 13.0252 30.2121C12.6059 30.404 12.0963 30.5 11.4963 30.5C11.0362 30.5 10.622 30.428 10.2538 30.2841C9.88568 30.1371 9.57037 29.9302 9.30789 29.6632C9.04541 29.3933 8.84429 29.0679 8.70453 28.687C8.56818 28.3061 8.5 27.8802 8.5 27.4094V26.865C8.5 26.3942 8.56988 25.9683 8.70964 25.5874C8.85281 25.2065 9.05734 24.8811 9.32323 24.6112C9.58912 24.3383 9.90784 24.1298 10.2794 23.9859C10.6544 23.8419 11.0754 23.7699 11.5424 23.7699C12.1355 23.7699 12.6366 23.8659 13.0457 24.0578C13.4547 24.2498 13.7717 24.5152 13.9967 24.8541C14.2251 25.193 14.3649 25.5814 14.416 26.0193H13.1377C13.1036 25.7374 13.0286 25.4959 12.9127 25.295C12.8002 25.094 12.6332 24.9411 12.4116 24.8361C12.19 24.7281 11.9003 24.6742 11.5424 24.6742C11.2492 24.6742 10.9935 24.7222 10.7754 24.8181C10.5572 24.9141 10.3748 25.0551 10.2283 25.241C10.0817 25.4269 9.9709 25.6564 9.89591 25.9293C9.82432 26.1992 9.78853 26.5081 9.78853 26.856V27.4094C9.78853 27.7393 9.82092 28.0392 9.88568 28.3091C9.95386 28.576 10.0561 28.8055 10.1925 28.9974C10.3322 29.1894 10.5095 29.3378 10.7243 29.4428C10.939 29.5478 11.1964 29.6003 11.4963 29.6003C11.8611 29.6003 12.156 29.5493 12.3809 29.4473C12.6093 29.3453 12.7815 29.1969 12.8974 29.0019C13.0167 28.804 13.0951 28.5626 13.1326 28.2776Z" fill="#FFA800"/>
<path d="M16.6709 23.5V30.41H15.4438V23.5H16.6709ZM16.4562 27.7963L16.0573 27.7918C16.0608 27.4559 16.1136 27.1455 16.2159 26.8605C16.3215 26.5756 16.4681 26.3282 16.6556 26.1183C16.8465 25.9053 17.0749 25.7419 17.3408 25.6279C17.6066 25.5109 17.9015 25.4524 18.2253 25.4524C18.4981 25.4524 18.7435 25.4854 18.9617 25.5514C19.1832 25.6174 19.3741 25.7239 19.5343 25.8708C19.6945 26.0148 19.8156 26.2037 19.8974 26.4377C19.9826 26.6686 20.0252 26.9505 20.0252 27.2834V30.41H18.7878V27.2744C18.7878 27.0405 18.7486 26.8545 18.6702 26.7166C18.5952 26.5786 18.4844 26.4796 18.3378 26.4197C18.1913 26.3567 18.0123 26.3252 17.801 26.3252C17.5794 26.3252 17.3834 26.3642 17.2129 26.4422C17.0459 26.5201 16.9061 26.6266 16.7936 26.7616C16.6812 26.8965 16.5959 27.0525 16.538 27.2294C16.4834 27.4064 16.4562 27.5953 16.4562 27.7963Z" fill="#FFA800"/>
<path d="M24.3919 29.4338V27.1125C24.3919 26.9385 24.3561 26.7886 24.2845 26.6626C24.2129 26.5366 24.1038 26.4392 23.9573 26.3702C23.8141 26.3012 23.6334 26.2667 23.4153 26.2667C23.2141 26.2667 23.0403 26.2967 22.8937 26.3567C22.7471 26.4167 22.6329 26.4976 22.5511 26.5996C22.4693 26.7016 22.4284 26.8171 22.4284 26.946H21.2012C21.2012 26.7541 21.2541 26.5681 21.3598 26.3882C21.4654 26.2082 21.6188 26.0478 21.8199 25.9068C22.0211 25.7659 22.2614 25.6549 22.5409 25.5739C22.8204 25.4929 23.134 25.4524 23.4817 25.4524C23.8976 25.4524 24.2658 25.5139 24.5862 25.6369C24.91 25.7599 25.164 25.9458 25.3481 26.1947C25.5355 26.4407 25.6293 26.7496 25.6293 27.1215V29.2853C25.6293 29.5073 25.6463 29.7067 25.6804 29.8837C25.7179 30.0576 25.7708 30.2091 25.8389 30.338V30.41H24.576C24.518 30.2931 24.472 30.1446 24.4379 29.9647C24.4072 29.7817 24.3919 29.6048 24.3919 29.4338ZM24.5709 27.4499L24.5811 28.1202H23.6965C23.4681 28.1202 23.267 28.1397 23.0931 28.1787C22.9193 28.2147 22.7744 28.2686 22.6585 28.3406C22.5426 28.4126 22.4557 28.4996 22.3977 28.6015C22.3398 28.7035 22.3108 28.819 22.3108 28.9479C22.3108 29.0769 22.3449 29.1954 22.4131 29.3033C22.4813 29.4083 22.5801 29.4908 22.7096 29.5508C22.8426 29.6108 23.0028 29.6407 23.1903 29.6407C23.4425 29.6407 23.6624 29.5958 23.8499 29.5058C24.0408 29.4128 24.1908 29.3003 24.2999 29.1684C24.4089 29.0334 24.4669 28.906 24.4737 28.786L24.8725 29.2674C24.8316 29.3903 24.7617 29.5223 24.6629 29.6632C24.564 29.8042 24.4345 29.9392 24.2743 30.0681C24.1175 30.1941 23.9283 30.2976 23.7067 30.3785C23.4886 30.4595 23.2363 30.5 22.95 30.5C22.5886 30.5 22.2665 30.437 21.9836 30.3111C21.7006 30.1821 21.4791 30.0096 21.3188 29.7937C21.1586 29.5748 21.0785 29.3273 21.0785 29.0514C21.0785 28.7935 21.1331 28.5656 21.2421 28.3676C21.3546 28.1667 21.5183 27.9987 21.733 27.8638C21.9512 27.7288 22.2171 27.6268 22.5307 27.5578C22.8443 27.4859 23.2022 27.4499 23.6045 27.4499H24.5709Z" fill="#FFA800"/>
<path d="M29.454 25.5424V26.3342H26.3349V25.5424H29.454ZM27.2348 24.3503H28.4671V29.0649C28.4671 29.2149 28.491 29.3303 28.5387 29.4113C28.5898 29.4893 28.6597 29.5418 28.7484 29.5688C28.837 29.5958 28.941 29.6093 29.0603 29.6093C29.1455 29.6093 29.2273 29.6048 29.3057 29.5958C29.3841 29.5868 29.4472 29.5778 29.4949 29.5688L29.5 30.3965C29.3977 30.4235 29.2784 30.4475 29.1421 30.4685C29.0091 30.4895 28.8557 30.5 28.6819 30.5C28.399 30.5 28.1484 30.4565 27.9302 30.3695C27.7121 30.2796 27.5416 30.1341 27.4189 29.9332C27.2962 29.7322 27.2348 29.4653 27.2348 29.1324V24.3503Z" fill="#FFA800"/>
<rect x="1" y="0.5" width="36" height="36" rx="18" stroke="#4C5BD4"/>
</svg>
