<svg width="18" height="19" viewBox="0 0 18 19" fill="none" xmlns="http://www.w3.org/2000/svg">
<path d="M12.9288 1.68C13.445 1.16398 14.1451 0.874163 14.875 0.874298C15.6049 0.874433 16.3048 1.16451 16.8209 1.68072C17.3369 2.19693 17.6267 2.89699 17.6266 3.62689C17.6264 4.35679 17.3363 5.05674 16.8201 5.57275L15.7664 6.625L11.8723 2.73513L12.9274 1.68H12.9288ZM10.8588 3.75144L2.29707 12.3103C2.03719 12.5704 1.84133 12.8873 1.72494 13.2361L0.411069 17.1791C0.369097 17.3057 0.363138 17.4414 0.393858 17.5711C0.424578 17.7008 0.490768 17.8194 0.585029 17.9137C0.679289 18.0079 0.797907 18.0741 0.927624 18.1048C1.05734 18.1356 1.19304 18.1296 1.31957 18.0876L5.26263 16.7738C5.61194 16.6588 5.92819 16.4618 6.18838 16.2016L14.7501 7.64276L10.8574 3.75144H10.8588Z" fill="#4C5BD4"/>
</svg>
