<svg width="30" height="16" viewBox="0 0 30 16" fill="none" xmlns="http://www.w3.org/2000/svg">
<path d="M1.93932 3.00633C3.26336 1.52594 5.11697 0.707137 7.16355 0.701538C7.17259 0.701538 7.18401 0.701538 7.19198 0.701538C11.2952 0.701538 13.737 3.29147 15.75 5.99726C16.3149 6.68728 17.1968 7.32669 18.3201 6.69288C19.0134 6.30329 19.2599 5.42203 18.8714 4.72986C18.5841 4.22054 17.935 4.04049 17.4257 4.32606C17.2502 4.42491 17.1249 4.58557 17.0697 4.77961C17.0142 4.97387 17.0396 5.17889 17.1395 5.3542C17.2048 5.47071 17.3094 5.54716 17.4279 5.58528C17.5 5.32297 17.7516 5.14357 18.027 5.18428C18.3177 5.22864 18.5141 5.49095 18.4874 5.77824C18.5772 5.9936 18.5017 6.24385 18.2932 6.35972C17.5997 6.74715 16.7185 6.50293 16.3302 5.81011C16.1103 5.41837 16.056 4.96224 16.1758 4.52721C16.2968 4.09347 16.58 3.73296 16.973 3.51308C17.9282 2.97381 19.1458 3.3158 19.6861 4.27265C20.3249 5.41234 19.9179 6.86151 18.7816 7.50264C18.3354 7.75353 17.8758 7.87672 17.4233 7.87672C17.3068 7.87672 17.1957 7.84657 17.0826 7.8302C17.4841 8.39079 17.8827 8.94426 18.2979 9.46673C19.2541 10.6706 20.0764 11.6768 20.8736 12.4536C20.9729 12.4626 21.0718 12.4966 21.1495 12.5694C22.8076 14.1218 24.5277 14.3365 25.9977 13.1645C27.1363 12.2582 27.3269 10.5922 26.4207 9.45316C25.7234 8.5816 24.451 8.43623 23.5799 9.13184C23.2624 9.38403 23.0615 9.74411 23.0161 10.1494C22.9695 10.5549 23.0858 10.9501 23.338 11.2715C23.5077 11.4862 23.7474 11.6122 24.0115 11.6634C23.9858 11.5816 23.9591 11.4952 23.9591 11.4022C23.9591 10.9116 24.3578 10.5117 24.8511 10.5117C25.343 10.5117 25.7427 10.9092 25.7427 11.4022C25.7427 11.5316 25.7139 11.6531 25.665 11.7633C25.6827 11.9178 25.6314 12.0767 25.5009 12.179C25.071 12.5221 24.5322 12.6754 23.9871 12.6129C23.4414 12.5494 22.953 12.2802 22.6112 11.8521C22.2007 11.341 22.0183 10.6971 22.0928 10.0439C22.1671 9.39221 22.4891 8.81117 23.0018 8.40392C24.2755 7.38871 26.1341 7.60041 27.1506 8.87169C28.2993 10.3209 28.1296 12.3855 26.8303 13.6473C27.3674 13.3396 27.8444 12.9261 28.2205 12.4017C28.932 11.4056 29.2159 10.1393 29.0007 8.93414C28.6579 7.02583 26.8258 5.75304 24.9175 6.09396C24.6664 6.1394 24.4224 5.97077 24.3769 5.71859C24.3315 5.46468 24.499 5.22455 24.7529 5.17911C27.1721 4.74279 29.4823 6.3567 29.9147 8.76767C30.1749 10.2209 29.8331 11.7427 28.9738 12.942C28.1363 14.1118 26.9057 14.8751 25.5071 15.0909C21.9972 15.6224 19.9457 13.0398 17.5687 10.0437C17.5573 10.0301 17.5444 10.0142 17.533 9.99824C17.5312 9.99587 17.5289 9.99587 17.5278 9.99372C16.9175 9.31662 15.9531 8.66537 14.8317 9.4075C14.1718 9.84813 13.9879 10.7453 14.4238 11.4041C14.7464 11.888 15.4056 12.0196 15.8939 11.6972C16.0627 11.5837 16.1766 11.4145 16.216 11.2168C16.2559 11.0203 16.216 10.8181 16.1058 10.6568C16.0229 10.533 15.8939 10.4593 15.7575 10.4376C15.6916 10.6908 15.4588 10.8726 15.1903 10.8498C14.889 10.8261 14.6678 10.559 14.6928 10.2593C14.6928 10.2558 14.6952 10.2526 14.6973 10.2478C14.645 10.0594 14.7098 9.85029 14.8812 9.73679C15.5422 9.29853 16.4379 9.47793 16.8789 10.1389C17.1277 10.5112 17.2155 10.959 17.1264 11.3996C17.0378 11.8437 16.7822 12.224 16.4064 12.4738C16.0681 12.6965 15.6841 12.8055 15.3066 12.8055C14.662 12.8055 14.0293 12.4943 13.6479 11.9197C12.9277 10.8351 13.2277 9.36206 14.3146 8.63587C14.9159 8.23831 15.5553 8.09876 16.1902 8.19072C16.1249 8.09876 16.0601 8.00895 15.9938 7.91656C15.6632 7.45095 15.3298 6.98469 14.9891 6.52641C14.9728 6.50659 14.9564 6.4941 14.9415 6.47537C14.9329 6.46524 14.9295 6.45103 14.9228 6.43962C13.0119 3.88673 10.8279 1.63297 7.1937 1.63297C7.18573 1.63297 7.17432 1.63297 7.16764 1.63297C5.39134 1.63922 3.77872 2.34711 2.63623 3.62894C1.35289 5.06497 0.746435 7.09797 0.975796 9.20356C1.14378 10.7402 1.90013 12.12 3.10399 13.09C4.21698 13.9848 5.59357 14.405 7.00504 14.3369C7.86239 14.1915 8.53045 13.8121 8.97108 13.1875C9.49785 12.445 9.67057 11.4024 9.44121 10.3256C9.29584 9.63751 8.88945 9.04462 8.29872 8.66085C7.70583 8.27578 7.00181 8.14807 6.31115 8.29107C5.78308 8.40414 5.32781 8.71598 5.03449 9.16716C4.7416 9.61942 4.64059 10.1587 4.7528 10.688C4.837 11.0832 5.06852 11.4229 5.40706 11.6453C5.74776 11.868 6.15867 11.9395 6.55623 11.8587C6.81531 11.8043 7.0311 11.6522 7.19348 11.4478C6.80497 11.3477 6.51553 11.007 6.52005 10.5881C6.52565 10.0975 6.93096 9.70341 7.42392 9.7103C7.68623 9.71375 7.91451 9.83521 8.07453 10.0181C8.20073 10.0781 8.30173 10.185 8.33468 10.3327C8.45055 10.8687 8.34825 11.4183 8.05084 11.8773C7.74868 12.3384 7.28867 12.6562 6.75049 12.7708C6.10419 12.906 5.45014 12.7857 4.89795 12.4267C4.35072 12.0679 3.97599 11.5204 3.84397 10.8821C3.67815 10.1111 3.82351 9.32416 4.2551 8.66171C4.68561 7.99904 5.34763 7.54528 6.11754 7.38246C7.05221 7.18498 8.00733 7.36201 8.80675 7.88167C9.60639 8.40198 10.1573 9.20119 10.3537 10.1348C10.5628 11.1173 10.4889 12.087 10.1653 12.9116C10.2447 12.8264 10.3356 12.754 10.4071 12.6631C11.1667 11.7205 11.5121 10.5347 11.3805 9.32954C11.1682 7.39108 9.41579 5.9908 7.48056 6.19561C7.21933 6.23136 6.99557 6.0384 6.96714 5.78341C6.94 5.52778 7.12392 5.29842 7.37934 5.27064C9.82562 5.00208 12.038 6.78053 12.3049 9.22854C12.4649 10.6807 12.0471 12.1083 11.1329 13.2439C10.2187 14.3843 8.91487 15.0997 7.46355 15.2565C7.31796 15.2724 7.17259 15.2724 7.02744 15.2791C7.00569 15.2847 6.98674 15.2927 6.96391 15.295C6.94453 15.2974 6.92514 15.2985 6.9049 15.2985C6.89585 15.2985 6.88896 15.2905 6.87992 15.2894C6.8278 15.2905 6.7731 15.2985 6.72098 15.2985C5.19687 15.2985 3.73177 14.7864 2.5279 13.8187C1.12655 12.6943 0.249815 11.0931 0.0566368 9.30779C-0.210411 6.93236 0.478958 4.63769 1.93932 3.00633Z" fill="white"/>
</svg>
