<svg width="31" height="16" viewBox="0 0 31 16" fill="none" xmlns="http://www.w3.org/2000/svg">
<path d="M2.4394 3.00621C3.76344 1.52582 5.61706 0.707015 7.66363 0.701416C7.67268 0.701416 7.68409 0.701416 7.69206 0.701416C11.7953 0.701416 14.2371 3.29135 16.2501 5.99714C16.815 6.68716 17.6969 7.32657 18.8202 6.69276C19.5134 6.30317 19.76 5.42191 19.3715 4.72974C19.0842 4.22041 18.4351 4.04037 17.9258 4.32594C17.7503 4.42479 17.6249 4.58545 17.5698 4.77949C17.5142 4.97375 17.5397 5.17877 17.6396 5.35407C17.7048 5.47058 17.8095 5.54704 17.928 5.58516C18.0001 5.32285 18.2516 5.14345 18.5271 5.18415C18.8178 5.22852 19.0142 5.49083 18.9875 5.77812C19.0773 5.99348 19.0017 6.24373 18.7933 6.35959C18.0998 6.74703 17.2186 6.50281 16.8303 5.80999C16.6104 5.41825 16.5561 4.96212 16.6758 4.52709C16.7969 4.09335 17.0801 3.73284 17.4731 3.51295C18.4282 2.97369 19.6459 3.31568 20.1862 4.27253C20.825 5.41222 20.418 6.86139 19.2817 7.50252C18.8355 7.75341 18.3759 7.8766 17.9234 7.8766C17.8069 7.8766 17.6958 7.84645 17.5827 7.83008C17.9842 8.39066 18.3828 8.94414 18.798 9.46661C19.7542 10.6705 20.5765 11.6766 21.3737 12.4534C21.473 12.4625 21.5719 12.4965 21.6496 12.5693C23.3077 14.1216 25.0278 14.3363 26.4978 13.1644C27.6364 12.2581 27.827 10.5921 26.9208 9.45304C26.2234 8.58147 24.9511 8.4361 24.08 9.13172C23.7625 9.38391 23.5616 9.74399 23.5161 10.1493C23.4696 10.5548 23.5859 10.95 23.8381 11.2713C24.0078 11.486 24.2475 11.612 24.5115 11.6633C24.4859 11.5815 24.4592 11.4951 24.4592 11.4021C24.4592 10.9115 24.8578 10.5115 25.3512 10.5115C25.8431 10.5115 26.2428 10.9091 26.2428 11.4021C26.2428 11.5315 26.214 11.653 26.1651 11.7632C26.1827 11.9176 26.1315 12.0766 26.001 12.1789C25.5711 12.5219 25.0323 12.6753 24.4872 12.6128C23.9415 12.5493 23.453 12.2801 23.1113 11.8519C22.7008 11.3409 22.5184 10.697 22.5929 10.0438C22.6672 9.39209 22.9892 8.81105 23.5019 8.4038C24.7756 7.38859 26.6341 7.60029 27.6506 8.87156C28.7994 10.3207 28.6297 12.3854 27.3304 13.6472C27.8675 13.3394 28.3445 12.926 28.7206 12.4015C29.4321 11.4055 29.716 10.1392 29.5008 8.93402C29.158 7.02571 27.3259 5.75292 25.4176 6.09384C25.1665 6.13928 24.9224 5.97065 24.877 5.71846C24.8316 5.46455 24.9991 5.22443 25.253 5.17899C27.6722 4.74266 29.9824 6.35658 30.4148 8.76754C30.675 10.2208 30.3332 11.7425 29.4739 12.9419C28.6363 14.1117 27.4058 14.875 26.0072 15.0908C22.4973 15.6223 20.4457 13.0397 18.0688 10.0436C18.0574 10.03 18.0445 10.0141 18.033 9.99812C18.0313 9.99575 18.029 9.99575 18.0279 9.9936C17.4175 9.3165 16.4532 8.66525 15.3318 9.40738C14.6719 9.84801 14.488 10.7452 14.9239 11.404C15.2465 11.8879 15.9057 12.0195 16.3939 11.6971C16.5628 11.5836 16.6767 11.4143 16.7161 11.2166C16.756 11.0202 16.7161 10.818 16.6059 10.6567C16.5229 10.5329 16.3939 10.4592 16.2576 10.4375C16.1917 10.6907 15.9589 10.8725 15.6904 10.8497C15.3891 10.826 15.1679 10.5589 15.1929 10.2591C15.1929 10.2557 15.1952 10.2525 15.1974 10.2477C15.1451 10.0593 15.2099 9.85016 15.3813 9.73667C16.0423 9.29841 16.9379 9.47781 17.379 10.1387C17.6277 10.5111 17.7156 10.9588 17.6264 11.3995C17.5379 11.8435 17.2823 12.2239 16.9065 12.4737C16.5682 12.6964 16.1842 12.8053 15.8066 12.8053C15.1621 12.8053 14.5293 12.4942 14.1479 11.9196C13.4278 10.835 13.7278 9.36194 14.8147 8.63574C15.416 8.23819 16.0554 8.09863 16.6903 8.19059C16.625 8.09863 16.5602 8.00883 16.4939 7.91644C16.1633 7.45083 15.8299 6.98457 15.4892 6.52628C15.4728 6.50647 15.4565 6.49398 15.4416 6.47524C15.433 6.46512 15.4295 6.45091 15.4229 6.43949C13.512 3.8866 11.328 1.63285 7.69378 1.63285C7.68581 1.63285 7.6744 1.63285 7.66772 1.63285C5.89143 1.6391 4.2788 2.34699 3.13631 3.62882C1.85298 5.06484 1.24652 7.09785 1.47588 9.20344C1.64386 10.74 2.40021 12.1199 3.60408 13.0898C4.71706 13.9847 6.09365 14.4048 7.50513 14.3368C8.36248 14.1914 9.03053 13.8119 9.47116 13.1874C9.99793 12.4448 10.1707 11.4023 9.94129 10.3255C9.79592 9.63739 9.38954 9.0445 8.7988 8.66073C8.20591 8.27566 7.5019 8.14795 6.81123 8.29095C6.28317 8.40402 5.82789 8.71586 5.53457 9.16704C5.24168 9.6193 5.14068 10.1586 5.25288 10.6879C5.33709 11.0831 5.5686 11.4227 5.90715 11.6452C6.24785 11.8679 6.65876 11.9394 7.05631 11.8586C7.31539 11.8041 7.53119 11.6521 7.69357 11.4477C7.30506 11.3476 7.01561 11.0069 7.02013 10.588C7.02573 10.0974 7.43104 9.70329 7.924 9.71018C8.18631 9.71363 8.4146 9.83509 8.57461 10.0179C8.70081 10.078 8.80182 10.1848 8.83477 10.3326C8.95063 10.8686 8.84833 11.4182 8.55092 11.8771C8.24877 12.3382 7.78876 12.6561 7.25057 12.7707C6.60427 12.9059 5.95022 12.7855 5.39804 12.4265C4.8508 12.0677 4.47607 11.5203 4.34406 10.882C4.17823 10.111 4.3236 9.32404 4.75518 8.66159C5.18569 7.99892 5.84771 7.54516 6.61762 7.38234C7.55229 7.18486 8.50742 7.36188 9.30684 7.88155C10.1065 8.40186 10.6574 9.20107 10.8538 10.1347C11.0629 11.1171 10.989 12.0869 10.6653 12.9115C10.7448 12.8262 10.8357 12.7539 10.9072 12.663C11.6668 11.7204 12.0122 10.5346 11.8806 9.32942C11.6683 7.39096 9.91588 5.99068 7.98064 6.19549C7.71941 6.23124 7.49565 6.03828 7.46722 5.78329C7.44009 5.52766 7.62401 5.2983 7.87942 5.27051C10.3257 5.00196 12.5381 6.78041 12.8049 9.22842C12.965 10.6806 12.5472 12.1082 11.6329 13.2438C10.7187 14.3842 9.41495 15.0996 7.96363 15.2564C7.81805 15.2723 7.67268 15.2723 7.52752 15.279C7.50577 15.2846 7.48682 15.2926 7.46399 15.2949C7.44461 15.2973 7.42523 15.2984 7.40498 15.2984C7.39594 15.2984 7.38905 15.2904 7.38 15.2893C7.32788 15.2904 7.27318 15.2984 7.22107 15.2984C5.69695 15.2984 4.23185 14.7862 3.02799 13.8186C1.62663 12.6942 0.749899 11.093 0.556721 9.30767C0.289673 6.93224 0.979042 4.63757 2.4394 3.00621Z" fill="#474747"/>
</svg>
