<svg width="21" height="20" viewBox="0 0 21 20" fill="none" xmlns="http://www.w3.org/2000/svg">
<path d="M10.9771 1.27375C10.7628 1.25793 10.5481 1.25001 10.3333 1.25V0C10.579 0.000119784 10.8246 0.00929268 11.0696 0.0275L10.9771 1.27375ZM13.4821 1.83625C13.0814 1.68163 12.6698 1.55671 12.2508 1.4625L12.5246 0.2425C13.0033 0.35 13.4746 0.4925 13.9321 0.67L13.4821 1.83625ZM15.1946 2.72375C15.0158 2.60456 14.8328 2.49199 14.6458 2.38625L15.2621 1.29875C15.6894 1.54092 16.0985 1.81415 16.4858 2.11625L15.7171 3.1025C15.5476 2.97029 15.3733 2.84437 15.1946 2.725V2.72375ZM17.4871 4.96125C17.2398 4.60997 16.967 4.2774 16.6708 3.96625L17.5758 3.10375C17.9133 3.46 18.2258 3.84125 18.5096 4.24125L17.4871 4.96125ZM18.4171 6.65125C18.335 6.45307 18.2458 6.25794 18.1496 6.06625L19.2658 5.50375C19.4866 5.94261 19.6746 6.39718 19.8283 6.86375L18.6408 7.255C18.5736 7.05108 18.499 6.8497 18.4171 6.65125ZM19.0796 9.785C19.0695 9.35542 19.0277 8.92718 18.9546 8.50375L20.1858 8.29125C20.2696 8.77375 20.3183 9.26375 20.3308 9.75375L19.0808 9.785H19.0796ZM18.9158 11.7075C18.9571 11.495 18.9908 11.2837 19.0171 11.07L20.2583 11.2238C20.1983 11.7114 20.1022 12.194 19.9708 12.6675L18.7658 12.3337C18.8233 12.1275 18.8733 11.9187 18.9158 11.7075ZM17.7258 14.6812C17.9558 14.3187 18.1583 13.9388 18.3333 13.5462L19.4758 14.0525C19.2758 14.5025 19.0446 14.935 18.7821 15.35L17.7258 14.6812ZM16.5208 16.1875C16.6733 16.035 16.8196 15.8775 16.9583 15.715L17.9058 16.5312C17.7454 16.7173 17.5782 16.8974 17.4046 17.0712L16.5208 16.1875Z" fill="#474747"/>
<path d="M10.3333 1.25C8.89441 1.2501 7.47774 1.60506 6.20879 2.28342C4.93983 2.96179 3.85775 3.94263 3.05838 5.13906C2.25902 6.3355 1.76706 7.7106 1.62606 9.14258C1.48506 10.5746 1.69938 12.0192 2.25003 13.3486C2.80069 14.6779 3.67069 15.851 4.78297 16.7638C5.89525 17.6766 7.21548 18.3011 8.62673 18.5818C10.038 18.8626 11.4967 18.791 12.8736 18.3733C14.2506 17.9557 15.5033 17.2049 16.5208 16.1875L17.4046 17.0712C16.2417 18.2347 14.8099 19.0934 13.2359 19.5712C11.6619 20.0491 9.99428 20.1313 8.38089 19.8106C6.76751 19.4899 5.25813 18.7762 3.9865 17.7328C2.71486 16.6893 1.72023 15.3483 1.09073 13.8286C0.46123 12.3089 0.216296 10.6573 0.377631 9.02034C0.538966 7.38332 1.10159 5.81138 2.01565 4.44377C2.92971 3.07617 4.16698 1.95514 5.61785 1.18C7.06871 0.404869 8.68837 -0.000435915 10.3333 3.51823e-07V1.25Z" fill="#474747"/>
<path d="M9.70831 3.75C9.87407 3.75 10.033 3.81585 10.1503 3.93306C10.2675 4.05027 10.3333 4.20924 10.3333 4.375V10.8875L14.3933 13.2075C14.5331 13.2918 14.6343 13.4274 14.6754 13.5854C14.7164 13.7433 14.6941 13.9111 14.6131 14.0527C14.5322 14.1944 14.399 14.2989 14.242 14.3437C14.0851 14.3885 13.9169 14.3701 13.7733 14.2925L9.39831 11.7925C9.30265 11.7379 9.22314 11.6589 9.16782 11.5636C9.1125 11.4684 9.08335 11.3602 9.08331 11.25V4.375C9.08331 4.20924 9.14916 4.05027 9.26637 3.93306C9.38358 3.81585 9.54255 3.75 9.70831 3.75Z" fill="#474747"/>
</svg>
