<svg width="24" height="24" viewBox="0 0 24 24" fill="none" xmlns="http://www.w3.org/2000/svg">
<g id="Group 1000007286">
<g id="Vector">
<path d="M20.2308 0H3.76924C1.68755 0 0 1.68754 0 3.76923V20.2308C0 22.3125 1.68755 24 3.76924 24H20.2308C22.3125 24 24 22.3125 24 20.2308V3.76923C24 1.68754 22.3125 0 20.2308 0Z" fill="#FF0000"/>
<path d="M20.2308 0H3.76924C1.68755 0 0 1.68754 0 3.76923V20.2308C0 22.3125 1.68755 24 3.76924 24H20.2308C22.3125 24 24 22.3125 24 20.2308V3.76923C24 1.68754 22.3125 0 20.2308 0Z" fill="white"/>
</g>
<g id="Group 1000007387">
<g id="Group 1000007386">
<path id="Vector_2" d="M6 8H18.7606" stroke="#FF7085" stroke-width="2" stroke-linecap="round" stroke-linejoin="round"/>
<path id="Vector_3" d="M17.0435 8L15.7359 18.5473H9.01851L7.71094 8" stroke="#FF7085" stroke-width="2" stroke-linecap="round" stroke-linejoin="round"/>
</g>
<path id="Vector_4" d="M9 5H15" stroke="#FF7085" stroke-width="2" stroke-linecap="round" stroke-linejoin="round"/>
</g>
</g>
</svg>
