<svg width="21" height="20" viewBox="0 0 21 20" fill="none" xmlns="http://www.w3.org/2000/svg">
<g id="Group">
<path id="Vector" d="M14.8051 10.5859C15.0773 11.9214 16.2612 12.9297 17.6758 12.9297C19.291 12.9297 20.6055 11.6152 20.6055 10C20.6055 8.38477 19.291 7.07031 17.6758 7.07031C16.2612 7.07031 15.0773 8.07856 14.8051 9.41406H13.6133V3.51562H14.8051C15.0773 4.85113 16.2612 5.85938 17.6758 5.85938C19.291 5.85938 20.6055 4.54492 20.6055 2.92969C20.6055 1.31445 19.291 0 17.6758 0C16.2612 0 15.0773 1.00824 14.8051 2.34375H13.0273C12.7037 2.34375 12.4414 2.60609 12.4414 2.92969V9.41406H11.1914V6.83594H7.28516C6.96172 6.83594 6.69922 6.57344 6.69922 6.25V2.34375H1.19141C0.867969 2.34375 0.605469 2.60625 0.605469 2.92969V17.0703C0.605469 17.3937 0.867969 17.6562 1.19141 17.6562H10.6055C10.9289 17.6562 11.1914 17.3937 11.1914 17.0703V10.5859H12.4414V17.0703C12.4414 17.3939 12.7037 17.6562 13.0273 17.6562H14.8051C15.0773 18.9918 16.2612 20 17.6758 20C19.291 20 20.6055 18.6855 20.6055 17.0703C20.6055 15.4551 19.291 14.1406 17.6758 14.1406C16.2612 14.1406 15.0773 15.1489 14.8051 16.4844H13.6133V10.5859H14.8051ZM17.6758 9.41406C17.9992 9.41406 18.2617 9.67656 18.2617 10C18.2617 10.3234 17.9992 10.5859 17.6758 10.5859C17.3523 10.5859 17.0898 10.3234 17.0898 10C17.0898 9.67656 17.3523 9.41406 17.6758 9.41406ZM17.6758 2.34375C17.9992 2.34375 18.2617 2.60625 18.2617 2.92969C18.2617 3.25312 17.9992 3.51562 17.6758 3.51562C17.3523 3.51562 17.0898 3.25312 17.0898 2.92969C17.0898 2.60625 17.3523 2.34375 17.6758 2.34375ZM8.26172 14.6875H3.53516C3.21172 14.6875 2.94922 14.425 2.94922 14.1016C2.94922 13.7781 3.21172 13.5156 3.53516 13.5156H8.26172C8.58516 13.5156 8.84766 13.7781 8.84766 14.1016C8.84766 14.425 8.58516 14.6875 8.26172 14.6875ZM2.94922 11.7578C2.94922 11.4344 3.21172 11.1719 3.53516 11.1719H4.72656C5.05 11.1719 5.3125 11.4344 5.3125 11.7578C5.3125 12.0813 5.05 12.3438 4.72656 12.3438H3.53516C3.21172 12.3438 2.94922 12.0813 2.94922 11.7578ZM8.26172 12.3438H7.07031C6.74687 12.3438 6.48438 12.0813 6.48438 11.7578C6.48438 11.4344 6.74687 11.1719 7.07031 11.1719H8.26172C8.58516 11.1719 8.84766 11.4344 8.84766 11.7578C8.84766 12.0813 8.58516 12.3438 8.26172 12.3438ZM8.26172 10H3.53516C3.21172 10 2.94922 9.7375 2.94922 9.41406C2.94922 9.09062 3.21172 8.82812 3.53516 8.82812H8.26172C8.58516 8.82812 8.84766 9.09062 8.84766 9.41406C8.84766 9.7375 8.58516 10 8.26172 10Z" fill="#4C5BD4"/>
<path id="Vector_2" d="M7.87109 2.88184V5.66387H10.6531L7.87109 2.88184Z" fill="#4C5BD4"/>
</g>
</svg>
