<svg width="24" height="24" viewBox="0 0 24 24" fill="none" xmlns="http://www.w3.org/2000/svg">
<g id="Group 1000007290">
<path id="Vector" d="M20.2308 0H3.76924C1.68755 0 0 1.68754 0 3.76923V20.2308C0 22.3125 1.68755 24 3.76924 24H20.2308C22.3125 24 24 22.3125 24 20.2308V3.76923C24 1.68754 22.3125 0 20.2308 0Z" fill="white"/>
<g id="Group 1000007289">
<path id="Vector_2" d="M8.302 15.0585L5.01016 15.0098L5.00001 11.7321C4.99954 11.5751 5.03003 11.4197 5.08969 11.2749C5.14934 11.13 5.23697 10.9986 5.34745 10.8884L11.9054 4.34167C12.1242 4.12331 12.4192 4.00061 12.7268 4C13.0343 3.99939 13.3298 4.12093 13.5495 4.33842L15.708 6.47634C15.8187 6.58596 15.9068 6.71678 15.967 6.86116C16.0272 7.00554 16.0584 7.16058 16.0587 7.31726C16.059 7.47394 16.0284 7.62911 15.9688 7.77373C15.9091 7.91835 15.8216 8.04951 15.7112 8.15958L9.14293 14.717C9.03221 14.8275 8.90083 14.9146 8.75645 14.9732C8.61207 15.0319 8.45759 15.0609 8.302 15.0585Z" fill="white" stroke="#F9B572" stroke-width="2" stroke-linecap="round" stroke-linejoin="round"/>
<path id="Vector 51" d="M5 19.0586H19.06" stroke="#F9B572" stroke-width="2" stroke-linecap="round"/>
</g>
</g>
</svg>
