<svg width="17" height="17" viewBox="0 0 17 17" fill="none" xmlns="http://www.w3.org/2000/svg">
<g id="ion:color-wand" clip-path="url(#clip0_1534_12687)">
<path id="Vector" d="M2.5 7H1C0.725 7 0.5 6.775 0.5 6.5C0.5 6.225 0.725 6 1 6H2.5C2.775 6 3 6.225 3 6.5C3 6.775 2.775 7 2.5 7ZM3.37812 4.87813C3.24688 4.87813 3.11875 4.825 3.025 4.73125L1.96563 3.67188C1.77188 3.47812 1.77188 3.15938 1.96563 2.96563C2.15938 2.77188 2.47812 2.77188 2.67188 2.96563L3.73125 4.025C3.92812 4.21875 3.92812 4.5375 3.73125 4.73125C3.6375 4.825 3.5125 4.87813 3.37812 4.87813ZM5.5 4C5.225 4 5 3.775 5 3.5V2C5 1.725 5.225 1.5 5.5 1.5C5.775 1.5 6 1.725 6 2V3.5C6 3.775 5.775 4 5.5 4ZM7.62187 4.87813C7.34687 4.87813 7.12187 4.65313 7.12187 4.37812C7.12187 4.24688 7.175 4.11875 7.26875 4.025L8.32812 2.96563C8.52188 2.77188 8.84062 2.77188 9.03438 2.96563C9.22813 3.15938 9.22813 3.47812 9.03438 3.67188L7.975 4.73125C7.88125 4.825 7.75312 4.87813 7.62187 4.87813ZM2.31875 10.1812C2.04375 10.1812 1.81875 9.95625 1.81875 9.68125C1.81875 9.55 1.87188 9.42188 1.96563 9.32812L3.025 8.26875C3.21875 8.075 3.5375 8.075 3.73125 8.26875C3.925 8.4625 3.925 8.78125 3.73125 8.975L2.67188 10.0344C2.57812 10.1281 2.45 10.1812 2.31875 10.1812ZM6.81875 5.71875C6.24375 5.13438 5.30312 5.125 4.71875 5.69688C4.13438 6.26875 4.125 7.2125 4.69688 7.79688L4.71875 7.81875L5.95312 9.05313C6.05 9.15 6.20937 9.15 6.30625 9.05313L8.05313 7.30625C8.15 7.20937 8.15 7.05 8.05313 6.95312L6.81875 5.71875ZM13.7812 12.6812L9.1125 8.0125C9.01562 7.91562 8.85625 7.91562 8.75937 8.0125L7.0125 9.75937C6.91562 9.85625 6.91562 10.0156 7.0125 10.1125L11.6812 14.7812C12.2562 15.3656 13.1969 15.375 13.7812 14.8031C14.3656 14.2281 14.375 13.2875 13.8031 12.7031C13.7969 12.6969 13.7906 12.6875 13.7812 12.6812Z" fill="white"/>
</g>
<defs>
<clipPath id="clip0_1534_12687">
<rect width="16" height="16" fill="white" transform="translate(0.5 0.5)"/>
</clipPath>
</defs>
</svg>
