<svg width="23" height="20" viewBox="0 0 23 20" fill="none" xmlns="http://www.w3.org/2000/svg">
<g id="Group">
<path id="Vector" d="M0.706513 13.5011C1.43181 11.1661 2.03394 8.76528 2.85289 6.47949C2.85374 8.45609 2.83878 10.4327 2.85759 12.4089C2.87085 13.7726 3.46956 14.8208 4.66698 15.4986C5.20368 15.8027 5.7917 15.9045 6.40752 15.904C10.7576 15.8993 15.1016 15.9015 19.4521 15.9015C18.8684 17.5967 18.6028 20.5513 16.1006 19.9116C11.4799 18.6795 6.86254 17.4329 2.24135 16.2017C1.66317 16.0606 1.25433 15.7736 0.970801 15.3601C0.598318 14.8182 0.511505 14.1293 0.706513 13.5011Z" fill="#4C5BD4"/>
<path id="Vector_2" d="M13.2964 14.5379C11.0597 14.5379 8.82313 14.5396 6.58653 14.537C5.41733 14.5357 4.52525 13.8476 4.27764 12.7537C4.23274 12.5548 4.2182 12.3457 4.21777 12.1413C4.21435 8.89673 4.21435 5.65172 4.21563 2.40714C4.21606 0.971087 5.18725 0.000320738 6.61988 0.000320738C11.0794 -0.000106913 15.5385 -0.000106913 19.9972 0.000320738C21.423 0.000320738 22.3955 0.967665 22.3959 2.38789C22.3967 5.64701 22.3972 8.90571 22.3959 12.1648C22.3955 13.5641 21.4281 14.5349 20.0276 14.537C17.7837 14.5404 15.5398 14.5379 13.2964 14.5379ZM20.5557 8.69616C20.5668 8.62303 20.5741 8.59652 20.5741 8.57C20.5745 6.48307 20.5758 4.39614 20.5728 2.3092C20.5724 1.97649 20.3983 1.82168 20.0404 1.82168C15.5543 1.82083 11.0683 1.82083 6.58225 1.82168C6.19608 1.82168 6.03742 1.9812 6.03742 2.3648C6.03657 5.11887 6.03699 7.87293 6.03742 10.627C6.03742 10.6856 6.04555 10.7442 6.05025 10.8028C6.06608 10.8105 6.0819 10.8177 6.09772 10.8254C6.14647 10.7643 6.19009 10.698 6.24526 10.6428C6.99707 9.88888 7.75016 9.13621 8.50325 8.38355C8.93903 7.94863 9.45734 7.7874 10.0603 7.92596C10.3815 7.99952 10.6424 8.17785 10.8699 8.41177C11.2043 8.7556 11.5409 9.09687 11.8868 9.44968C11.9741 9.34747 12.0344 9.27819 12.0929 9.20763C13.1193 7.97514 14.1457 6.74265 15.1725 5.51059C15.9401 4.58986 17.0143 4.5766 17.7974 5.47852C18.0112 5.72485 18.2225 5.97417 18.435 6.2222C19.1321 7.03559 19.8291 7.84856 20.5557 8.69616Z" fill="#4C5BD4"/>
<path id="Vector_3" d="M8.75252 6.35609C7.7531 6.35181 6.938 5.53457 6.94142 4.53986C6.94484 3.53574 7.77405 2.7185 8.78031 2.72662C9.77417 2.73475 10.5923 3.56696 10.5799 4.55654C10.567 5.5598 9.75407 6.36037 8.75252 6.35609Z" fill="#4C5BD4"/>
</g>
</svg>
