<svg width="24" height="24" viewBox="0 0 24 24" fill="none" xmlns="http://www.w3.org/2000/svg">
<g id="Group 1000007288">
<path id="Vector" d="M20.2308 0H3.76923C1.68754 0 0 1.68754 0 3.76923V20.2308C0 22.3125 1.68754 24 3.76923 24H20.2308C22.3125 24 24 22.3125 24 20.2308V3.76923C24 1.68754 22.3125 0 20.2308 0Z" fill="white"/>
<path id="Vector_2" d="M12 7.76172V16.2376" stroke="#474747" stroke-linecap="round" stroke-linejoin="round"/>
<path id="Vector_3" d="M10.1953 8.29046L11.9982 5.16797L13.8011 8.29046H10.1953Z" fill="#474747"/>
<path id="Vector_4" d="M10.1953 15.71L11.9982 18.8324L13.8011 15.71H10.1953Z" fill="#474747"/>
<path id="Vector_5" d="M16.2376 12H7.76172" stroke="#474747" stroke-linecap="round" stroke-linejoin="round"/>
<path id="Vector_6" d="M15.7109 10.1982L18.8322 11.9999L15.7109 13.8028V10.1982Z" fill="#474747"/>
<path id="Vector_7" d="M8.28925 10.1982L5.16797 11.9999L8.28925 13.8028V10.1982Z" fill="#474747"/>
</g>
</svg>
