<svg width="21" height="20" viewBox="0 0 21 20" fill="none" xmlns="http://www.w3.org/2000/svg">
<g id="solar:heart-linear">
<path id="Vector" d="M10.5013 4.58332L10.0513 5.01666C10.1096 5.07714 10.1795 5.12526 10.2568 5.15812C10.3341 5.19098 10.4173 5.20792 10.5013 5.20792C10.5853 5.20792 10.6685 5.19098 10.7458 5.15812C10.8231 5.12526 10.893 5.07714 10.9513 5.01666L10.5013 4.58332ZM8.3563 15.2683C7.09297 14.2725 5.71214 13.3 4.6163 12.0667C3.54297 10.8567 2.79297 9.44499 2.79297 7.61416H1.54297C1.54297 9.83582 2.46797 11.5308 3.68214 12.8967C4.8738 14.2383 6.3938 15.3133 7.58214 16.25L8.35714 15.2683H8.3563ZM2.79297 7.61416C2.79297 5.82249 3.80547 4.31915 5.18797 3.68666C6.5313 3.07249 8.3363 3.23499 10.0513 5.01666L10.9513 4.15082C8.91797 2.03666 6.55464 1.68749 4.66797 2.54999C2.82297 3.39416 1.54297 5.35416 1.54297 7.61416H2.79297ZM7.58214 16.25C8.00963 16.5867 8.46797 16.945 8.93214 17.2167C9.3963 17.4875 9.9263 17.7083 10.5013 17.7083V16.4583C10.243 16.4583 9.93964 16.3583 9.56297 16.1375C9.18547 15.9175 8.79463 15.6142 8.3563 15.2683L7.58214 16.25ZM13.4205 16.25C14.6088 15.3125 16.1288 14.2392 17.3205 12.8967C18.5346 11.53 19.4596 9.83582 19.4596 7.61416H18.2096C18.2096 9.44499 17.4596 10.8567 16.3863 12.0667C15.2905 13.3 13.9096 14.2725 12.6463 15.2683L13.4205 16.25ZM19.4596 7.61416C19.4596 5.35416 18.1805 3.39416 16.3346 2.54999C14.448 1.68749 12.0863 2.03666 10.0513 4.14999L10.9513 5.01666C12.6663 3.23582 14.4713 3.07249 15.8146 3.68666C17.1971 4.31915 18.2096 5.82166 18.2096 7.61416H19.4596ZM12.6463 15.2683C12.208 15.6142 11.8171 15.9175 11.4396 16.1375C11.063 16.3575 10.7596 16.4583 10.5013 16.4583V17.7083C11.0763 17.7083 11.6063 17.4875 12.0705 17.2167C12.5355 16.945 12.993 16.5867 13.4205 16.25L12.6463 15.2683Z" fill="#333333"/>
</g>
</svg>
