<svg width="32" height="33" viewBox="0 0 32 33" fill="none" xmlns="http://www.w3.org/2000/svg">
<g id="vuesax/bold/send">
<g id="send">
<path id="Vector" d="M24.0937 11.8468L12.6804 6.14018C5.01369 2.30018 1.86702 5.44685 5.70702 13.1135L6.86702 15.4335C7.20035 16.1135 7.20035 16.9002 6.86702 17.5802L5.70702 19.8868C1.86702 27.5535 5.00035 30.7002 12.6804 26.8602L24.0937 21.1535C29.2137 18.5935 29.2137 14.4068 24.0937 11.8468ZM19.787 17.5002H12.587C12.0404 17.5002 11.587 17.0468 11.587 16.5002C11.587 15.9535 12.0404 15.5002 12.587 15.5002H19.787C20.3337 15.5002 20.787 15.9535 20.787 16.5002C20.787 17.0468 20.3337 17.5002 19.787 17.5002Z" fill="#4C5BD4"/>
</g>
</g>
</svg>
