<svg width="21" height="20" viewBox="0 0 21 20" fill="none" xmlns="http://www.w3.org/2000/svg">
<g id="bi:share">
<path id="Vector" d="M16.2305 2.70835C15.8161 2.70835 15.4187 2.87295 15.1257 3.16593C14.8327 3.45892 14.668 3.85629 14.668 4.27063C14.668 4.68498 14.8327 5.08235 15.1257 5.37533C15.4187 5.66832 15.8161 5.83291 16.2305 5.83291C16.6449 5.83291 17.0423 5.66832 17.3353 5.37533C17.6284 5.08235 17.793 4.68498 17.793 4.27063C17.793 3.85629 17.6284 3.45892 17.3353 3.16593C17.0423 2.87295 16.6449 2.70835 16.2305 2.70835ZM13.6264 4.27063C13.6263 3.65971 13.8411 3.06821 14.2331 2.59963C14.6252 2.13104 15.1695 1.81521 15.7709 1.70738C16.3723 1.59956 16.9925 1.70661 17.5229 2.00981C18.0534 2.313 18.4603 2.79304 18.6725 3.36592C18.8847 3.93881 18.8887 4.56807 18.6838 5.14361C18.4789 5.71914 18.0781 6.20431 17.5515 6.51422C17.025 6.82413 16.4062 6.93904 15.8035 6.83887C15.2008 6.73869 14.6525 6.4298 14.2545 5.96623L7.2567 9.21577C7.41758 9.72553 7.41758 10.2725 7.2567 10.7822L14.2545 14.0318C14.6752 13.5426 15.2625 13.227 15.9026 13.1461C16.5427 13.0652 17.1901 13.2248 17.7192 13.594C18.2484 13.9632 18.6216 14.5156 18.7666 15.1442C18.9116 15.7729 18.818 16.4329 18.504 16.9965C18.19 17.5601 17.6779 17.9871 17.067 18.1947C16.4561 18.4023 15.7899 18.3757 15.1975 18.1202C14.6051 17.8646 14.1286 17.3982 13.8605 16.8114C13.5923 16.2247 13.5516 15.5592 13.7462 14.9441L6.74838 11.6946C6.40196 12.0983 5.94021 12.3862 5.42525 12.5196C4.91029 12.653 4.36682 12.6255 3.86794 12.4408C3.36907 12.2561 2.93873 11.9231 2.63481 11.4866C2.33089 11.05 2.16797 10.5309 2.16797 9.999C2.16797 9.46709 2.33089 8.94795 2.63481 8.51141C2.93873 8.07486 3.36907 7.74185 3.86794 7.55717C4.36682 7.3725 4.91029 7.34502 5.42525 7.47843C5.94021 7.61184 6.40196 7.89974 6.74838 8.3034L13.7462 5.05386C13.6665 4.80042 13.6261 4.53629 13.6264 4.27063ZM4.77237 8.43672C4.35797 8.43672 3.96055 8.60131 3.66753 8.8943C3.37451 9.18728 3.20989 9.58465 3.20989 9.999C3.20989 10.4133 3.37451 10.8107 3.66753 11.1037C3.96055 11.3967 4.35797 11.5613 4.77237 11.5613C5.18676 11.5613 5.58418 11.3967 5.8772 11.1037C6.17023 10.8107 6.33484 10.4133 6.33484 9.999C6.33484 9.58465 6.17023 9.18728 5.8772 8.8943C5.58418 8.60131 5.18676 8.43672 4.77237 8.43672ZM16.2305 14.1651C15.8161 14.1651 15.4187 14.3297 15.1257 14.6227C14.8327 14.9156 14.668 15.313 14.668 15.7274C14.668 16.1417 14.8327 16.5391 15.1257 16.8321C15.4187 17.125 15.8161 17.2896 16.2305 17.2896C16.6449 17.2896 17.0423 17.125 17.3353 16.8321C17.6284 16.5391 17.793 16.1417 17.793 15.7274C17.793 15.313 17.6284 14.9156 17.3353 14.6227C17.0423 14.3297 16.6449 14.1651 16.2305 14.1651Z" fill="#333333"/>
</g>
</svg>
