<svg width="24" height="24" viewBox="0 0 24 24" fill="none" xmlns="http://www.w3.org/2000/svg">
<g clip-path="url(#clip0_3348_138978)">
<path d="M19.9689 3.28117C20.2576 3.56981 20.4197 3.9613 20.4197 4.3695C20.4197 4.77771 20.2576 5.1692 19.9689 5.45784L13.8017 11.6251L19.9689 17.7923C20.2576 18.081 20.4197 18.4725 20.4197 18.8807C20.4197 19.2889 20.2576 19.6804 19.9689 19.969C19.6803 20.2576 19.2888 20.4198 18.8806 20.4198C18.4724 20.4198 18.0809 20.2576 17.7922 19.969L11.625 13.8018L5.45776 19.969C5.16912 20.2576 4.77763 20.4198 4.36942 20.4198C3.96122 20.4198 3.56973 20.2576 3.28109 19.969C2.99244 19.6804 2.83028 19.2889 2.83028 18.8807C2.83028 18.4725 2.99244 18.081 3.28109 17.7923L9.44833 11.6251L3.28109 5.45784C2.99244 5.1692 2.83028 4.77771 2.83028 4.3695C2.83028 3.9613 2.99244 3.56981 3.28109 3.28117C3.56973 2.99252 3.96122 2.83036 4.36942 2.83036C4.77763 2.83036 5.16912 2.99252 5.45776 3.28117L11.625 9.44841L17.7922 3.28117C18.0809 2.99252 18.4724 2.83036 18.8806 2.83036C19.2888 2.83036 19.6803 2.99252 19.9689 3.28117Z" fill="#474747"/>
</g>
<defs>
<clipPath id="clip0_3348_138978">
<rect width="24" height="24" fill="white"/>
</clipPath>
</defs>
</svg>
