<svg width="180" height="190" viewBox="0 0 180 190" fill="none" xmlns="http://www.w3.org/2000/svg">
<path d="M93.0471 2.8624C91.8706 1.7656 90.8476 0.832377 89.999 0C89.1421 0.832377 88.1171 1.7656 86.9384 2.8624C72.6917 15.916 35.8715 46.3075 0 48.3787C0 48.3787 16.4947 148.262 88.6718 189.268C89.1173 189.511 89.5514 189.757 89.999 190C90.4351 189.757 90.8817 189.511 91.3178 189.268C163.494 148.262 180 48.3787 180 48.3787C144.115 46.3075 107.308 15.916 93.0471 2.8624Z" fill="url(#paint0_linear_9891_10580)" fill-opacity="0.82"/>
<path d="M92.9554 5.66408C91.8139 4.6002 90.8229 3.69581 89.999 2.88916C89.1679 3.69581 88.1749 4.60123 87.0313 5.66408C73.2187 18.3205 37.5184 47.7881 2.73682 49.7965C2.73682 49.7965 18.7293 146.642 88.7111 186.403C89.1442 186.64 89.5639 186.876 89.999 187.112C90.4218 186.875 90.8559 186.639 91.2787 186.403C161.26 146.642 177.263 49.7965 177.263 49.7965C142.47 47.7881 106.782 18.3205 92.9554 5.66408Z" fill="url(#paint1_linear_9891_10580)" fill-opacity="0.82"/>
<path d="M92.8582 8.60041C91.7538 7.57152 90.7958 6.69695 89.9998 5.91602C89.1965 6.69695 88.2354 7.57152 87.13 8.60041C73.7701 20.8412 39.2432 49.3395 5.60522 51.2821C5.60522 51.2821 21.0718 144.946 88.7541 183.401C89.1727 183.629 89.5801 183.858 89.9998 184.086C90.4081 183.858 90.8278 183.629 91.2372 183.401C158.918 144.946 174.395 51.2821 174.395 51.2821C140.745 49.3395 106.229 20.8412 92.8582 8.60041Z" fill="url(#paint2_linear_9891_10580)" fill-opacity="0.82"/>
<path d="M92.76 11.5359C91.6927 10.542 90.7677 9.69627 89.9985 8.94312C89.222 9.69627 88.294 10.542 87.2257 11.5359C74.3195 23.36 40.9671 50.8902 8.47168 52.7679C8.47168 52.7679 23.4134 143.248 88.7951 180.396C89.2004 180.617 89.5922 180.84 89.9985 181.06C90.3924 180.84 90.7977 180.617 91.1947 180.396C156.575 143.249 171.528 52.7679 171.528 52.7679C139.021 50.8912 105.679 23.36 92.76 11.5359Z" fill="url(#paint3_linear_9891_10580)" fill-opacity="0.82" stroke="white" stroke-miterlimit="10"/>
<path d="M92.7439 12.0505C91.6839 11.0627 90.7651 10.2232 89.9989 9.47412C89.2276 10.2232 88.3047 11.0638 87.2437 12.0505C74.4169 23.8015 41.2697 51.1629 8.97534 53.0283C8.97534 53.0283 23.8243 142.951 88.8038 179.87C89.206 180.089 89.5968 180.309 90 180.53C90.3908 180.309 90.795 180.089 91.1879 179.87C156.164 142.951 171.025 53.0283 171.025 53.0283C138.719 51.1629 105.582 23.8025 92.7439 12.0505Z" fill="url(#paint4_linear_9891_10580)" fill-opacity="0.82"/>
<path d="M92.7016 13.3117C91.6571 12.3383 90.7527 11.5121 89.9989 10.7744C89.239 11.5121 88.3305 12.3383 87.2849 13.3117C74.653 24.8847 42.0101 51.8294 10.2065 53.666C10.2065 53.666 24.8296 142.221 88.8213 178.579C89.2183 178.794 89.6019 179.013 89.9989 179.227C90.3846 179.013 90.7816 178.794 91.1693 178.579C155.159 142.222 169.793 53.666 169.793 53.666C137.98 51.8294 105.345 24.8847 92.7016 13.3117Z" fill="url(#paint5_linear_9891_10580)" fill-opacity="0.82"/>
<path d="M92.9419 18.782C92.9419 20.4024 91.6261 21.7162 90.001 21.7162C88.3769 21.7162 87.0601 20.4024 87.0601 18.782C87.0601 17.1617 88.3769 15.8479 90.001 15.8479C91.6251 15.8479 92.9419 17.1606 92.9419 18.782Z" fill="white"/>
<path d="M18.1064 57.199C18.1064 58.8194 16.7907 60.1331 15.1655 60.1331C13.5414 60.1331 12.2246 58.8194 12.2246 57.199C12.2246 55.5787 13.5414 54.2649 15.1655 54.2649C16.7896 54.2649 18.1064 55.5787 18.1064 57.199Z" fill="white"/>
<path d="M166.03 57.199C166.03 58.8194 164.713 60.1331 163.088 60.1331C161.464 60.1331 160.147 58.8194 160.147 57.199C160.147 55.5787 161.464 54.2649 163.088 54.2649C164.712 54.2649 166.03 55.5787 166.03 57.199Z" fill="white"/>
<path d="M90.0006 164.815C89.0417 164.815 88.2652 165.676 88.2652 166.74C88.2652 167.802 90.0006 173.795 90.0006 173.795C90.0006 173.795 91.7372 167.802 91.7372 166.74C91.7361 165.676 90.9576 164.815 90.0006 164.815ZM95.1699 166.92C94.3605 166.408 93.2406 166.724 92.6724 167.622C92.1042 168.519 90.3667 174.513 90.3667 174.513C90.3667 174.513 95.04 170.369 95.6082 169.469C96.1764 168.572 95.9804 167.429 95.1699 166.92ZM84.8314 166.92C84.0198 167.43 83.8239 168.572 84.3921 169.469C84.9603 170.369 89.6336 174.513 89.6336 174.513C89.6336 174.513 87.896 168.519 87.3278 167.622C86.7597 166.723 85.6408 166.408 84.8314 166.92Z" fill="white"/>
<g opacity="0.85" filter="url(#filter0_d_9891_10580)">
<path d="M90.8362 95.0725L143 77.8396H103.022L90.8362 95.0725Z" fill="#EFAF28"/>
<path d="M90.8361 95.0723L58.7488 139.773L71.2856 101.546L90.8361 95.0723Z" fill="#FFF9E0"/>
<path d="M38 77.8396L90.8359 95.0725L71.2965 101.539L38 77.8396Z" fill="#F2BC4E"/>
<path d="M90.3103 95.0725L110.591 101.546L143 77.8396L90.3103 95.0725Z" fill="#FFECB4"/>
<path d="M90.8361 95.0724L90.6023 39L103.022 77.8396L90.8361 95.0724Z" fill="#FFF0B6"/>
<path d="M90.6023 95.0723L122.968 139.998L110.591 101.546L90.6023 95.0723Z" fill="#F2B43A"/>
<path d="M90.6023 95.0723V116.154L122.968 139.998L90.6023 95.0723Z" fill="#FFE9B0"/>
<path d="M90.6025 95.0723V116.154L58.7437 139.777L90.6025 95.0723Z" fill="#EDB340"/>
<path d="M38 77.8396H78.2114L90.8359 95.0725L38 77.8396Z" fill="#FFF4CA"/>
<path d="M90.6024 39L78.2117 77.8396L90.8362 95.0724L90.6024 39Z" fill="#FFB645"/>
</g>
<defs>
<filter id="filter0_d_9891_10580" x="24" y="27" width="133" height="128.998" filterUnits="userSpaceOnUse" color-interpolation-filters="sRGB">
<feFlood flood-opacity="0" result="BackgroundImageFix"/>
<feColorMatrix in="SourceAlpha" type="matrix" values="0 0 0 0 0 0 0 0 0 0 0 0 0 0 0 0 0 0 127 0" result="hardAlpha"/>
<feOffset dy="2"/>
<feGaussianBlur stdDeviation="7"/>
<feComposite in2="hardAlpha" operator="out"/>
<feColorMatrix type="matrix" values="0 0 0 0 0 0 0 0 0 0 0 0 0 0 0 0 0 0 0.25 0"/>
<feBlend mode="normal" in2="BackgroundImageFix" result="effect1_dropShadow_9891_10580"/>
<feBlend mode="normal" in="SourceGraphic" in2="effect1_dropShadow_9891_10580" result="shape"/>
</filter>
<linearGradient id="paint0_linear_9891_10580" x1="90" y1="0" x2="90" y2="190" gradientUnits="userSpaceOnUse">
<stop stop-color="#FFD186"/>
<stop offset="0.260417" stop-color="#FFDD96"/>
<stop offset="0.5" stop-color="#FFAD3A"/>
<stop offset="0.75" stop-color="#FFE38C"/>
<stop offset="1" stop-color="#FFAA2E"/>
</linearGradient>
<linearGradient id="paint1_linear_9891_10580" x1="90.0001" y1="2.88916" x2="90.0001" y2="187.112" gradientUnits="userSpaceOnUse">
<stop stop-color="#FFD186"/>
<stop offset="0.260417" stop-color="#FFDD96"/>
<stop offset="0.5" stop-color="#FFAD3A"/>
<stop offset="0.75" stop-color="#FFE38C"/>
<stop offset="1" stop-color="#FFAA2E"/>
</linearGradient>
<linearGradient id="paint2_linear_9891_10580" x1="90.0003" y1="5.91602" x2="90.0003" y2="184.086" gradientUnits="userSpaceOnUse">
<stop stop-color="#FFD186"/>
<stop offset="0.260417" stop-color="#FFDD96"/>
<stop offset="0.5" stop-color="#FFAD3A"/>
<stop offset="0.75" stop-color="#FFE38C"/>
<stop offset="1" stop-color="#FFAA2E"/>
</linearGradient>
<linearGradient id="paint3_linear_9891_10580" x1="90.0001" y1="8.94312" x2="90.0001" y2="181.06" gradientUnits="userSpaceOnUse">
<stop stop-color="#FFD186"/>
<stop offset="0.260417" stop-color="#FFDD96"/>
<stop offset="0.5" stop-color="#FFAD3A"/>
<stop offset="0.75" stop-color="#FFE38C"/>
<stop offset="1" stop-color="#FFAA2E"/>
</linearGradient>
<linearGradient id="paint4_linear_9891_10580" x1="90" y1="9.47412" x2="90" y2="180.53" gradientUnits="userSpaceOnUse">
<stop stop-color="#F0F0D4"/>
<stop offset="0.21875" stop-color="#E5ECB8"/>
<stop offset="0.458333" stop-color="#C3790F"/>
<stop offset="0.71875" stop-color="#F6F6B1"/>
<stop offset="1" stop-color="#D48F20"/>
</linearGradient>
<linearGradient id="paint5_linear_9891_10580" x1="90" y1="10.7744" x2="90" y2="179.227" gradientUnits="userSpaceOnUse">
<stop stop-color="#FFD186"/>
<stop offset="0.260417" stop-color="#FFDD96"/>
<stop offset="0.5" stop-color="#FFAD3A"/>
<stop offset="0.75" stop-color="#FFE38C"/>
<stop offset="1" stop-color="#FFAA2E"/>
</linearGradient>
</defs>
</svg>
