<svg width="180" height="190" viewBox="0 0 180 190" fill="none" xmlns="http://www.w3.org/2000/svg">
<path d="M93.0471 2.87119C91.8706 1.77439 90.8476 0.841166 89.999 0.00878906C89.1421 0.841166 88.1171 1.77439 86.9384 2.87119C72.6917 15.9248 35.8715 46.3163 0 48.3875C0 48.3875 16.4947 148.271 88.6718 189.277C89.1173 189.52 89.5514 189.766 89.999 190.009C90.4351 189.766 90.8817 189.52 91.3178 189.277C163.494 148.271 180 48.3875 180 48.3875C144.115 46.3163 107.308 15.9248 93.0471 2.87119Z" fill="url(#paint0_linear_9891_10804)" fill-opacity="0.82"/>
<path d="M92.9554 5.67287C91.8139 4.60899 90.8229 3.7046 89.999 2.89795C89.1679 3.7046 88.1749 4.61002 87.0313 5.67287C73.2187 18.3293 37.5184 47.7969 2.73682 49.8053C2.73682 49.8053 18.7293 146.651 88.7111 186.412C89.1442 186.648 89.5639 186.885 89.999 187.121C90.4218 186.884 90.8559 186.647 91.2787 186.412C161.26 146.651 177.263 49.8053 177.263 49.8053C142.47 47.7969 106.782 18.3293 92.9554 5.67287Z" fill="url(#paint1_linear_9891_10804)" fill-opacity="0.82"/>
<path d="M92.8582 8.6092C91.7538 7.58031 90.7958 6.70574 89.9998 5.9248C89.1965 6.70574 88.2354 7.58031 87.13 8.6092C73.7701 20.85 39.2432 49.3483 5.60522 51.2909C5.60522 51.2909 21.0718 144.954 88.7541 183.409C89.1727 183.638 89.5801 183.867 89.9998 184.095C90.4081 183.867 90.8278 183.638 91.2372 183.409C158.918 144.954 174.395 51.2909 174.395 51.2909C140.745 49.3483 106.229 20.85 92.8582 8.6092Z" fill="url(#paint2_linear_9891_10804)" fill-opacity="0.82"/>
<path d="M92.76 11.5447C91.6927 10.5508 90.7677 9.70506 89.9985 8.9519C89.222 9.70506 88.294 10.5508 87.2257 11.5447C74.3195 23.3688 40.9671 50.8989 8.47168 52.7767C8.47168 52.7767 23.4134 143.257 88.7951 180.405C89.2004 180.626 89.5922 180.848 89.9985 181.069C90.3924 180.848 90.7977 180.626 91.1947 180.405C156.575 143.258 171.528 52.7767 171.528 52.7767C139.021 50.9 105.679 23.3688 92.76 11.5447Z" fill="url(#paint3_linear_9891_10804)" fill-opacity="0.82" stroke="white" stroke-miterlimit="10"/>
<path d="M92.7439 12.0593C91.6839 11.0715 90.7651 10.2319 89.9989 9.48291C89.2276 10.2319 88.3047 11.0726 87.2437 12.0593C74.4169 23.8103 41.2697 51.1717 8.97534 53.0371C8.97534 53.0371 23.8243 142.96 88.8038 179.878C89.206 180.098 89.5968 180.318 90 180.539C90.3908 180.318 90.795 180.098 91.1879 179.878C156.164 142.96 171.025 53.0371 171.025 53.0371C138.719 51.1717 105.582 23.8113 92.7439 12.0593Z" fill="url(#paint4_linear_9891_10804)" fill-opacity="0.82"/>
<path d="M92.7976 13.1803C91.753 12.207 90.8487 11.3808 90.0949 10.6431C89.3349 11.3808 88.4264 12.207 87.3808 13.1803C74.7489 24.7533 42.106 51.6981 10.3025 53.5346C10.3025 53.5346 24.9256 142.09 88.9173 178.448C89.3143 178.663 89.6979 178.882 90.0949 179.096C90.4805 178.882 90.8775 178.663 91.2653 178.448C155.255 142.091 169.889 53.5346 169.889 53.5346C138.075 51.6981 105.441 24.7533 92.7976 13.1803Z" fill="url(#paint5_linear_9891_10804)" fill-opacity="0.82"/>
<path d="M92.9419 18.7908C92.9419 20.4112 91.6261 21.725 90.001 21.725C88.3769 21.725 87.0601 20.4112 87.0601 18.7908C87.0601 17.1705 88.3769 15.8567 90.001 15.8567C91.6251 15.8567 92.9419 17.1694 92.9419 18.7908Z" fill="white"/>
<path d="M18.1064 57.2078C18.1064 58.8282 16.7907 60.1419 15.1655 60.1419C13.5414 60.1419 12.2246 58.8282 12.2246 57.2078C12.2246 55.5874 13.5414 54.2737 15.1655 54.2737C16.7896 54.2737 18.1064 55.5874 18.1064 57.2078Z" fill="white"/>
<path d="M166.03 57.2078C166.03 58.8282 164.713 60.1419 163.088 60.1419C161.464 60.1419 160.147 58.8282 160.147 57.2078C160.147 55.5874 161.464 54.2737 163.088 54.2737C164.712 54.2737 166.03 55.5874 166.03 57.2078Z" fill="white"/>
<path d="M90.0006 164.823C89.0417 164.823 88.2652 165.685 88.2652 166.748C88.2652 167.811 90.0006 173.804 90.0006 173.804C90.0006 173.804 91.7372 167.811 91.7372 166.748C91.7361 165.685 90.9576 164.823 90.0006 164.823ZM95.1699 166.928C94.3605 166.417 93.2406 166.733 92.6724 167.631C92.1042 168.528 90.3667 174.522 90.3667 174.522C90.3667 174.522 95.04 170.378 95.6082 169.478C96.1764 168.581 95.9804 167.438 95.1699 166.928ZM84.8314 166.928C84.0198 167.439 83.8239 168.581 84.3921 169.478C84.9603 170.378 89.6336 174.522 89.6336 174.522C89.6336 174.522 87.896 168.528 87.3278 167.631C86.7597 166.732 85.6408 166.417 84.8314 166.928Z" fill="white"/>
<g filter="url(#filter0_d_9891_10804)">
<path d="M90.4783 94.0781H90.4777L90.4771 94.0788L90.4777 94.0801L90.4783 94.0794V94.0781Z" fill="white"/>
<path d="M90.478 94.0807L90.4789 94.0816V94.0798L90.478 94.0807Z" fill="white"/>
<path d="M90.4785 94.0797V94.0814L122.866 138.679L122.868 138.68L110.523 100.606H110.525L90.4802 94.0789L90.4785 94.0797Z" fill="white"/>
<path d="M110.525 100.606L142.999 77.1257L90.4805 94.0791L110.525 100.606Z" fill="#D9D9D9"/>
<path d="M90.4761 94.0774L90.477 94.0792L90.4779 94.0783L90.4761 94.0774Z" fill="white"/>
<path d="M90.4803 94.079L90.4785 94.0781V94.0799L90.4803 94.079Z" fill="white"/>
<path d="M90.4761 94.0806H90.4779L90.477 94.0789L90.4761 94.0806Z" fill="white"/>
<path d="M90.4792 94.0774L90.478 94.0786H90.4792V94.0774Z" fill="white"/>
<path d="M90.4781 94.0781L90.479 94.0773L90.5492 39.001L78.1067 77.0437H78.105L90.4764 94.0773L90.4781 94.0781Z" fill="white"/>
<path d="M90.478 94.0806H90.4763L57.9764 138.595L57.9756 138.598L90.4515 115.118L90.4789 94.0814L90.478 94.0806Z" fill="white"/>
<path d="M90.4786 94.0813L90.4512 115.118L122.866 138.679L90.4786 94.0813Z" fill="#D9D9D9"/>
<path d="M90.4785 94.0781L90.4802 94.0789L142.999 77.1256L143 77.1247L102.894 77.0743V77.0735L90.4785 94.0772V94.0781Z" fill="white"/>
<path d="M70.4173 100.556L57.9766 138.595L90.4764 94.0806L70.4173 100.556Z" fill="#D9D9D9"/>
<path d="M102.894 77.0734L90.5487 39V39.0009L90.4785 94.0772L102.894 77.0734Z" fill="#D9D9D9"/>
<path d="M78.1048 77.0437L38.0037 76.9924L90.4762 94.0773L78.1048 77.0437Z" fill="#D9D9D9"/>
<path d="M90.4768 94.079L90.4759 94.0773L38.0034 76.9924H38L70.4168 100.556V100.556L90.4759 94.0807L90.4768 94.079Z" fill="white"/>
</g>
<defs>
<filter id="filter0_d_9891_10804" x="24" y="27" width="133" height="127.68" filterUnits="userSpaceOnUse" color-interpolation-filters="sRGB">
<feFlood flood-opacity="0" result="BackgroundImageFix"/>
<feColorMatrix in="SourceAlpha" type="matrix" values="0 0 0 0 0 0 0 0 0 0 0 0 0 0 0 0 0 0 127 0" result="hardAlpha"/>
<feOffset dy="2"/>
<feGaussianBlur stdDeviation="7"/>
<feComposite in2="hardAlpha" operator="out"/>
<feColorMatrix type="matrix" values="0 0 0 0 0 0 0 0 0 0 0 0 0 0 0 0 0 0 0.25 0"/>
<feBlend mode="normal" in2="BackgroundImageFix" result="effect1_dropShadow_9891_10804"/>
<feBlend mode="normal" in="SourceGraphic" in2="effect1_dropShadow_9891_10804" result="shape"/>
</filter>
<linearGradient id="paint0_linear_9891_10804" x1="90" y1="0.00878906" x2="90" y2="190.009" gradientUnits="userSpaceOnUse">
<stop stop-color="#BDBDBD"/>
<stop offset="0.25" stop-color="#F0F0F0"/>
<stop offset="0.515625" stop-color="#ACACAC"/>
<stop offset="0.760417" stop-color="#CBCBCB"/>
<stop offset="1" stop-color="#EAEAEA"/>
</linearGradient>
<linearGradient id="paint1_linear_9891_10804" x1="90.0001" y1="2.89795" x2="90.0001" y2="187.121" gradientUnits="userSpaceOnUse">
<stop stop-color="#BDBDBD"/>
<stop offset="0.25" stop-color="#F0F0F0"/>
<stop offset="0.515625" stop-color="#ACACAC"/>
<stop offset="0.760417" stop-color="#CBCBCB"/>
<stop offset="1" stop-color="#EAEAEA"/>
</linearGradient>
<linearGradient id="paint2_linear_9891_10804" x1="90.0003" y1="5.9248" x2="90.0003" y2="184.095" gradientUnits="userSpaceOnUse">
<stop stop-color="#BDBDBD"/>
<stop offset="0.25" stop-color="#F0F0F0"/>
<stop offset="0.515625" stop-color="#ACACAC"/>
<stop offset="0.760417" stop-color="#CBCBCB"/>
<stop offset="1" stop-color="#EAEAEA"/>
</linearGradient>
<linearGradient id="paint3_linear_9891_10804" x1="90.0001" y1="8.9519" x2="90.0001" y2="181.069" gradientUnits="userSpaceOnUse">
<stop stop-color="#BDBDBD"/>
<stop offset="0.25" stop-color="#F0F0F0"/>
<stop offset="0.515625" stop-color="#ACACAC"/>
<stop offset="0.760417" stop-color="#CBCBCB"/>
<stop offset="1" stop-color="#EAEAEA"/>
</linearGradient>
<linearGradient id="paint4_linear_9891_10804" x1="90" y1="9.48291" x2="90" y2="180.539" gradientUnits="userSpaceOnUse">
<stop stop-color="#BDBDBD"/>
<stop offset="0.25" stop-color="#F0F0F0"/>
<stop offset="0.515625" stop-color="#ACACAC"/>
<stop offset="0.760417" stop-color="#CBCBCB"/>
<stop offset="1" stop-color="#EAEAEA"/>
</linearGradient>
<linearGradient id="paint5_linear_9891_10804" x1="90.0959" y1="10.6431" x2="90.0959" y2="179.096" gradientUnits="userSpaceOnUse">
<stop stop-color="#BDBDBD"/>
<stop offset="0.25" stop-color="#F0F0F0"/>
<stop offset="0.515625" stop-color="#ACACAC"/>
<stop offset="0.760417" stop-color="#CBCBCB"/>
<stop offset="1" stop-color="#EAEAEA"/>
</linearGradient>
</defs>
</svg>
