<svg width="28" height="28" viewBox="0 0 28 28" fill="none" xmlns="http://www.w3.org/2000/svg">
<path d="M8.71554 13.7805C8.71554 14.188 8.58023 14.5072 8.30871 14.7389C8.03265 14.968 7.65125 15.0825 7.16361 15.0825H4.71448V14.1303H6.74316C6.98108 14.1303 7.15453 14.0918 7.26259 14.0158C7.37065 13.9371 7.42514 13.8155 7.42514 13.6494C7.42514 13.4963 7.37338 13.3766 7.26985 13.29C7.16179 13.2069 6.98653 13.1658 6.74407 13.1658L5.08861 13.1719V12.2206H6.71319C6.95838 12.2206 7.13455 12.1838 7.24261 12.1095C7.34613 12.0378 7.3979 11.9189 7.3979 11.7528C7.3979 11.5954 7.34613 11.4782 7.24261 11.3995C7.18994 11.3566 7.12002 11.326 7.03375 11.3068C6.94294 11.2902 6.83669 11.2814 6.71319 11.2814H4.71448V10.3301H7.06099C7.60403 10.3301 8.0154 10.435 8.29509 10.6449C8.57115 10.8574 8.70918 11.187 8.70918 11.6347C8.70918 11.8594 8.65742 12.0588 8.5539 12.2328C8.44584 12.4068 8.30599 12.5598 8.13345 12.691C8.32324 12.8038 8.46127 12.9385 8.54754 13.095C8.65924 13.2786 8.71554 13.5068 8.71554 13.7805Z" fill="white"/>
<path d="M13.61 13.6244C13.61 14.1228 13.422 14.5006 13.047 14.7576C12.6719 15.0147 12.1316 15.1424 11.4251 15.1424C10.5915 15.1424 9.97489 14.9491 9.57532 14.5627C9.17849 14.1788 8.97961 13.5763 8.97961 12.7544C8.97961 11.9245 9.19211 11.3124 9.618 10.9181C10.0375 10.5255 10.6914 10.3296 11.5804 10.3296H13.3539L13.3503 11.281H11.555C11.1091 11.281 10.7858 11.364 10.5851 11.5293C10.4907 11.608 10.4189 11.7077 10.3699 11.8283C10.3145 11.956 10.2873 12.102 10.2873 12.2673H11.8891C12.4667 12.2673 12.898 12.3784 13.1832 12.5996C13.4674 12.8234 13.61 13.1645 13.61 13.6244ZM12.3287 13.6751C12.3287 13.5221 12.2878 13.4067 12.2061 13.328C12.1243 13.2563 11.9999 13.2195 11.8319 13.2195H10.2936C10.2936 13.544 10.3881 13.7897 10.5779 13.9549C10.7631 14.1246 11.0601 14.2094 11.4678 14.2094C11.7793 14.2094 11.999 14.1657 12.1298 14.0791C12.2633 13.9925 12.3287 13.8579 12.3287 13.6751Z" fill="white"/>
<path d="M18.1124 13.6433C18.1124 14.1076 17.9608 14.4643 17.6593 14.7127C17.3551 14.9593 16.9256 15.0817 16.3716 15.0817H13.7736V14.1303H16.1464C16.3798 14.1303 16.5451 14.0918 16.6395 14.0158C16.7303 13.9414 16.7748 13.8173 16.7748 13.6433C16.7748 13.4649 16.7294 13.3363 16.6395 13.2585C16.5451 13.1842 16.3798 13.1475 16.1464 13.1475H13.7736V10.3301H17.8709L17.8672 11.2814H14.9877V12.2013H16.5923C17.0581 12.2013 17.4305 12.3255 17.7111 12.5738C17.8409 12.7033 17.9417 12.8554 18.0125 13.0294C18.0788 13.2069 18.1124 13.4124 18.1124 13.6433Z" fill="white"/>
<path fill-rule="evenodd" clip-rule="evenodd" d="M18.6996 16.5866L20.513 15.0127L22.4872 15.5645C22.4872 15.5645 23.7895 16.09 23.0621 16.9696C22.7342 17.2809 22.4237 17.5756 21.2777 17.2783C20.9526 17.1743 18.6996 16.5866 18.6996 16.5866Z" fill="white"/>
<path fill-rule="evenodd" clip-rule="evenodd" d="M8.19864 15.4736C8.21771 15.5155 8.23405 15.5584 8.25403 15.6004C8.28945 15.6747 8.3285 15.7464 8.37118 15.8172C8.47833 15.9939 8.60819 16.1574 8.75712 16.3034C8.94418 16.4862 9.16122 16.6401 9.39641 16.7598C9.69336 16.912 10.0166 17.0108 10.3463 17.0668C10.7813 17.1411 11.2271 17.1437 11.6666 17.1035C12.2605 17.0493 12.8463 16.919 13.4156 16.7502C15.0547 16.2641 16.5685 15.5479 17.8508 14.4391C17.8698 14.4225 17.8889 14.4059 17.9089 14.3893C18.7961 13.6119 19.8867 12.5207 19.7523 11.2589C19.667 10.4614 18.6617 10.0155 17.9525 9.85281C17.6501 9.78373 17.7073 9.35002 18.0179 9.35702C19.4499 9.39025 20.9129 9.76362 21.4023 10.9458C21.405 10.9528 21.4078 10.9598 21.4105 10.9677C21.5331 11.3481 21.5594 11.7599 21.5258 12.1543C21.4623 12.908 21.1608 13.6259 20.7285 14.2529C20.0066 15.3013 18.9532 16.1102 17.8499 16.7616C16.9191 17.3116 15.9583 17.7392 14.9194 18.0505C14.1875 18.27 13.442 18.4501 12.6819 18.5533C11.831 18.6687 10.9447 18.6941 10.1056 18.4921C9.26111 18.2892 8.51375 17.831 8.03427 17.1219C7.74187 16.6899 7.55843 16.1985 7.44855 15.6957C7.41586 15.5479 7.45673 15.3477 7.59112 15.2515C7.76275 15.1291 8.03972 15.2384 8.15142 15.3879C8.17049 15.4167 8.18593 15.4447 8.19864 15.4736Z" fill="white"/>
<path fill-rule="evenodd" clip-rule="evenodd" d="M8.74341 15.3899C8.74341 15.3899 11.2579 17.5803 15.575 15.2334C15.0937 15.7808 9.7187 18.2842 8.74341 15.3899Z" fill="white"/>
<path d="M14.0003 24.6289H13.9991C12.7814 24.6308 11.5684 24.4615 10.3908 24.125L10.0958 24.0406L9.82629 24.1873C8.99734 24.6383 7.07164 25.5235 3.83076 26.1513C4.35178 24.711 4.80056 22.9253 4.94837 21.2662L4.97803 20.9333L4.75028 20.6887C2.87642 18.6758 1.75 16.0516 1.75 13.1895C1.75 6.9164 7.18885 1.75 14.0003 1.75C20.8118 1.75 26.2506 6.9164 26.2506 13.1895C26.2506 19.4625 20.8118 24.6289 14.0003 24.6289Z" stroke="white" stroke-width="1.5"/>
</svg>
