<svg width="42" height="42" viewBox="0 0 42 42" fill="none" xmlns="http://www.w3.org/2000/svg">
<rect width="42" height="42" rx="21" fill="#4C5BD4"/>
<path d="M26.5176 15.2598C26.7969 15.3359 27 15.5645 27 15.8438C27 22.3691 21.7188 27.625 15.2188 27.625C14.9141 27.625 14.6855 27.4473 14.6094 27.168L14 24.5273C13.9492 24.248 14.0762 23.9434 14.3555 23.8164L17.1992 22.5977C17.4531 22.4961 17.7324 22.5723 17.9102 22.7754L19.1797 24.3242C21.1602 23.3848 22.7598 21.7598 23.6738 19.8301L22.125 18.5605C21.9219 18.3828 21.8457 18.1035 21.9473 17.8496L23.166 15.0059C23.293 14.7266 23.5977 14.5742 23.877 14.6504L26.5176 15.2598Z" fill="white"/>
</svg>
