<svg width="24" height="25" viewBox="0 0 24 25" fill="none" xmlns="http://www.w3.org/2000/svg">
<path d="M18 10.25H16.5C16.4994 9.65345 16.2622 9.0815 15.8403 8.65967C15.4185 8.23784 14.8466 8.0006 14.25 8V6.5C15.2442 6.50119 16.1973 6.89666 16.9003 7.59966C17.6033 8.30267 17.9988 9.2558 18 10.25Z" fill="white"/>
<path d="M20.9993 10.25H19.4993C19.4977 8.85811 18.9441 7.52367 17.9598 6.53945C16.9756 5.55523 15.6412 5.00159 14.2493 5.00001V3.50001C16.0389 3.50199 17.7546 4.21379 19.0201 5.47923C20.2855 6.74467 20.9973 8.4604 20.9993 10.25ZM15.249 16.6115L16.929 14.9315C17.1539 14.7066 17.4398 14.5526 17.7514 14.4886C18.063 14.4246 18.3864 14.4534 18.6818 14.5715L20.7278 15.3905C21.0293 15.5112 21.2878 15.7194 21.4699 15.9884C21.652 16.2573 21.7493 16.5747 21.7493 16.8995V20.6203C21.7498 20.8414 21.7052 21.0603 21.6182 21.2636C21.5312 21.4669 21.4036 21.6504 21.2432 21.8026C21.0828 21.9549 20.8931 22.0729 20.6856 22.1493C20.478 22.2257 20.2571 22.2589 20.0363 22.247C5.69478 21.3545 2.79828 9.20751 2.26053 4.55601C2.23449 4.3286 2.25688 4.09826 2.32624 3.88013C2.3956 3.66201 2.51036 3.46104 2.66296 3.29044C2.81556 3.11984 3.00255 2.98349 3.21163 2.89034C3.42071 2.79719 3.64714 2.74937 3.87603 2.75001H7.53078C7.85558 2.75 8.17294 2.8473 8.44191 3.02938C8.71088 3.21146 8.91912 3.46995 9.03978 3.77151L9.85803 5.81751C9.97612 6.11284 10.0049 6.43633 9.94096 6.74788C9.87696 7.05944 9.72296 7.34538 9.49803 7.57026L7.81803 9.25026C7.81803 9.25026 8.74953 15.7993 15.249 16.6115Z" fill="white"/>
</svg>
