<svg width="16" height="16" viewBox="0 0 16 16" fill="none" xmlns="http://www.w3.org/2000/svg">
<path d="M11.2333 1.9335C11.4 2.10016 11.4833 2.2975 11.4833 2.5255C11.4833 2.7535 11.4 2.95061 11.2333 3.11683L6.35 8.00016L11.25 12.9002C11.4056 13.0557 11.4833 13.2502 11.4833 13.4835C11.4833 13.7168 11.4 13.9168 11.2333 14.0835C11.0667 14.2502 10.8693 14.3335 10.6413 14.3335C10.4133 14.3335 10.2162 14.2502 10.05 14.0835L4.45 8.46683C4.38334 8.40016 4.336 8.32794 4.308 8.25016C4.28 8.17239 4.26623 8.08905 4.26667 8.00016C4.26667 7.91128 4.28067 7.82794 4.30867 7.75016C4.33667 7.67239 4.38378 7.60016 4.45 7.5335L10.0667 1.91683C10.2222 1.76127 10.414 1.6835 10.642 1.6835C10.87 1.6835 11.0671 1.76683 11.2333 1.9335Z" fill="#4C5BD4"/>
</svg>
