<svg width="20" height="20" viewBox="0 0 20 20" fill="none" xmlns="http://www.w3.org/2000/svg">
<g clip-path="url(#clip0_1723_77339)">
<path d="M9.9998 17.7229C14.8726 17.7229 18.8233 14.0189 18.8233 9.44971C18.8233 4.88054 14.8726 1.17651 9.9998 1.17651C5.127 1.17651 1.17627 4.88054 1.17627 9.44971C1.17627 11.5298 1.99575 13.4327 3.34906 14.8864C3.24208 16.0872 2.88914 17.4038 2.4987 18.3919C2.41156 18.6117 2.58031 18.8575 2.7998 18.8197C5.28803 18.3824 6.76708 17.7111 7.41009 17.3612C8.25485 17.6027 9.12552 17.7243 9.9998 17.7229Z" stroke="#4C5BD4" stroke-width="1.5"/>
<mask id="path-2-inside-1_1723_77339" fill="white">
<path d="M6.01549 9.83469C6.01549 10.1419 5.91346 10.3826 5.70873 10.5573C5.50057 10.7301 5.21298 10.8165 4.84527 10.8165H2.99854V10.0984H4.52824C4.70764 10.0984 4.83843 10.0694 4.91991 10.0121C5.00139 9.95271 5.04248 9.86106 5.04248 9.73579C5.04248 9.6204 5.00345 9.53007 4.92539 9.4648C4.8439 9.40216 4.71175 9.37117 4.52892 9.37117L3.28065 9.37578V8.65842H4.50564C4.69052 8.65842 4.82336 8.63072 4.90485 8.57468C4.98291 8.52061 5.02194 8.43094 5.02194 8.30567C5.02194 8.18698 4.98291 8.09863 4.90485 8.03929C4.86513 8.00698 4.81241 7.9839 4.74736 7.9694C4.67888 7.95687 4.59877 7.95028 4.50564 7.95028H2.99854V7.23291H4.7679C5.17737 7.23291 5.48756 7.31203 5.69846 7.47027C5.90662 7.6305 6.0107 7.87907 6.0107 8.21665C6.0107 8.38611 5.97167 8.53644 5.89361 8.66765C5.81212 8.79886 5.70667 8.91424 5.57657 9.01314C5.71968 9.0982 5.82376 9.19974 5.88881 9.31776C5.97304 9.45622 6.01549 9.62831 6.01549 9.83469Z"/>
</mask>
<path d="M5.70873 10.5573L6.66665 11.7116L6.6746 11.705L6.68246 11.6983L5.70873 10.5573ZM2.99854 10.8165H1.49854V12.3165H2.99854V10.8165ZM2.99854 10.0984V8.59843H1.49854V10.0984H2.99854ZM4.91991 10.0121L5.78338 11.2386L5.79322 11.2317L5.80295 11.2246L4.91991 10.0121ZM4.92539 9.4648L5.88762 8.3141L5.86399 8.29434L5.83957 8.27556L4.92539 9.4648ZM4.52892 9.37117V7.87116L4.52338 7.87118L4.52892 9.37117ZM3.28065 9.37578H1.78065V10.8813L3.28619 10.8758L3.28065 9.37578ZM3.28065 8.65842V7.15842H1.78065V8.65842H3.28065ZM4.90485 8.57468L5.75489 9.81058L5.75892 9.80778L4.90485 8.57468ZM4.90485 8.03929L3.95826 9.20289L3.97741 9.21848L3.99707 9.23342L4.90485 8.03929ZM4.74736 7.9694L5.07382 6.50536L5.04568 6.49908L5.01731 6.49389L4.74736 7.9694ZM2.99854 7.95028H1.49854V9.45028H2.99854V7.95028ZM2.99854 7.23291V5.73291H1.49854V7.23291H2.99854ZM5.69846 7.47027L6.61337 6.28161L6.60607 6.27599L6.59871 6.27046L5.69846 7.47027ZM5.89361 8.66765L7.16788 9.45899L7.17542 9.44686L7.18272 9.43457L5.89361 8.66765ZM5.57657 9.01314L4.6688 7.81901L2.89731 9.16569L4.81021 10.3026L5.57657 9.01314ZM5.88881 9.31776L4.57514 10.0418L4.59061 10.0699L4.60727 10.0973L5.88881 9.31776ZM4.51549 9.83469C4.51549 9.82189 4.51794 9.75432 4.55807 9.65974C4.60045 9.55988 4.66569 9.47549 4.73499 9.41635L6.68246 11.6983C7.27106 11.196 7.51549 10.5108 7.51549 9.83469H4.51549ZM4.7508 9.40304C4.81777 9.34747 4.87799 9.32328 4.9056 9.315C4.92876 9.30805 4.91441 9.31645 4.84527 9.31645V12.3165C5.43766 12.3165 6.10653 12.1765 6.66665 11.7116L4.7508 9.40304ZM4.84527 9.31645H2.99854V12.3165H4.84527V9.31645ZM4.49854 10.8165V10.0984H1.49854V10.8165H4.49854ZM2.99854 11.5984H4.52824V8.59843H2.99854V11.5984ZM4.52824 11.5984C4.80319 11.5984 5.31768 11.5664 5.78338 11.2386L4.05644 8.7855C4.22319 8.66812 4.37083 8.62673 4.43731 8.61205C4.50679 8.5967 4.54292 8.59843 4.52824 8.59843V11.5984ZM5.80295 11.2246C6.3618 10.8176 6.54248 10.2177 6.54248 9.73579H3.54248C3.54248 9.63707 3.55853 9.47491 3.64122 9.28902C3.7285 9.0928 3.86685 8.92333 4.03687 8.79952L5.80295 11.2246ZM6.54248 9.73579C6.54248 9.24289 6.3546 8.70459 5.88762 8.3141L3.96315 10.6155C3.82876 10.5031 3.71289 10.3538 3.63624 10.1765C3.56181 10.0042 3.54248 9.84785 3.54248 9.73579H6.54248ZM5.83957 8.27556C5.35789 7.90529 4.81084 7.87117 4.52892 7.87117V10.8712C4.54217 10.8712 4.49929 10.8729 4.42098 10.8545C4.34408 10.8363 4.18449 10.7872 4.01121 10.654L5.83957 8.27556ZM4.52338 7.87118L3.2751 7.87579L3.28619 10.8758L4.53447 10.8712L4.52338 7.87118ZM4.78065 9.37578V8.65842H1.78065V9.37578H4.78065ZM3.28065 10.1584H4.50564V7.15842H3.28065V10.1584ZM4.50564 10.1584C4.76558 10.1584 5.28492 10.1338 5.75489 9.81057L4.0548 7.33879C4.22696 7.22038 4.37711 7.18186 4.43653 7.16942C4.50029 7.15606 4.52954 7.15842 4.50564 7.15842V10.1584ZM5.75892 9.80778C6.36585 9.38741 6.52194 8.74948 6.52194 8.30567H3.52194C3.52194 8.21792 3.53499 8.05734 3.6173 7.86824C3.70564 7.66527 3.85328 7.47835 4.05077 7.34157L5.75892 9.80778ZM6.52194 8.30567C6.52194 7.8252 6.34142 7.24716 5.81262 6.84516L3.99707 9.23342C3.83697 9.11171 3.70446 8.94695 3.61975 8.75446C3.53895 8.57087 3.52194 8.40906 3.52194 8.30567H6.52194ZM5.85143 6.87569C5.5798 6.65471 5.29124 6.55384 5.07382 6.50536L4.42089 9.43344C4.33357 9.41397 4.15046 9.35925 3.95826 9.20289L5.85143 6.87569ZM5.01731 6.49389C4.8398 6.46142 4.66645 6.45028 4.50564 6.45028V9.45028C4.51715 9.45028 4.52031 9.4507 4.51627 9.45038C4.51232 9.45006 4.49879 9.44882 4.47741 9.44491L5.01731 6.49389ZM4.50564 6.45028H2.99854V9.45028H4.50564V6.45028ZM4.49854 7.95028V7.23291H1.49854V7.95028H4.49854ZM2.99854 8.73291H4.7679V5.73291H2.99854V8.73291ZM4.7679 8.73291C4.82246 8.73291 4.86345 8.73557 4.89246 8.73876C4.92154 8.74196 4.93545 8.74534 4.9369 8.74571C4.94048 8.74663 4.88078 8.73204 4.79821 8.67009L6.59871 6.27046C6.01977 5.83607 5.33372 5.73291 4.7679 5.73291V8.73291ZM4.78354 8.65894C4.67553 8.57581 4.59478 8.46563 4.54889 8.35596C4.50751 8.25707 4.5107 8.19833 4.5107 8.21665H7.5107C7.5107 7.55811 7.29163 6.80367 6.61337 6.28161L4.78354 8.65894ZM4.5107 8.21665C4.5107 8.14662 4.52973 8.02638 4.60449 7.90072L7.18272 9.43457C7.4136 9.0465 7.5107 8.62559 7.5107 8.21665H4.5107ZM4.61933 7.8763C4.62794 7.86245 4.63768 7.84973 4.6476 7.83891C4.65744 7.82818 4.66523 7.82172 4.6688 7.81901L6.48435 10.2073C6.75413 10.0022 6.98591 9.75201 7.16788 9.45899L4.61933 7.8763ZM4.81021 10.3026C4.77746 10.2831 4.66607 10.2068 4.57514 10.0418L7.20249 8.59371C6.98146 8.19268 6.6619 7.91326 6.34294 7.72369L4.81021 10.3026ZM4.60727 10.0973C4.51554 9.94647 4.51549 9.83178 4.51549 9.83469H7.51549C7.51549 9.42484 7.43053 8.96598 7.17035 8.53824L4.60727 10.0973Z" fill="#4C5BD4" mask="url(#path-2-inside-1_1723_77339)"/>
<mask id="path-4-inside-2_1723_77339" fill="white">
<path d="M9.70583 9.71659C9.70583 10.0924 9.56409 10.3773 9.2813 10.5711C8.9985 10.765 8.59108 10.8612 8.05835 10.8612C7.42977 10.8612 6.96483 10.7155 6.66354 10.4241C6.36431 10.1346 6.21436 9.68033 6.21436 9.06054C6.21436 8.43482 6.37458 7.97328 6.69573 7.67592C7.01207 7.37987 7.50509 7.23218 8.17544 7.23218H9.51274L9.51 7.94955H8.15627C7.82007 7.94955 7.5763 8.01218 7.42497 8.1368C7.35376 8.19614 7.29966 8.27131 7.26269 8.3623C7.22092 8.45856 7.20038 8.56867 7.20038 8.69329H8.40826C8.84375 8.69329 9.169 8.77703 9.38401 8.94384C9.59833 9.11263 9.70583 9.36978 9.70583 9.71659ZM8.73967 9.75483C8.73967 9.63945 8.70886 9.55242 8.64723 9.49307C8.5856 9.43901 8.49179 9.41132 8.36512 9.41132H7.20517C7.20517 9.65593 7.27638 9.84121 7.41949 9.96583C7.55918 10.0937 7.78309 10.1577 8.09054 10.1577C8.3254 10.1577 8.49111 10.1247 8.58971 10.0595C8.69037 9.99418 8.73967 9.89264 8.73967 9.75483Z"/>
</mask>
<path d="M6.66354 10.4241L5.62064 11.5022L5.62066 11.5022L6.66354 10.4241ZM6.69573 7.67592L7.71487 8.77655L7.72066 8.77114L6.69573 7.67592ZM9.51274 7.23218L11.0127 7.2379L11.0185 5.73218H9.51274V7.23218ZM9.51 7.94955V9.44955H11.0043L11.01 7.95527L9.51 7.94955ZM7.42497 8.1368L6.47142 6.97886L6.46472 6.98445L7.42497 8.1368ZM7.26269 8.3623L8.63874 8.95936L8.64572 8.94327L8.65233 8.92701L7.26269 8.3623ZM7.20038 8.69329H5.70038V10.1933H7.20038V8.69329ZM9.38401 8.94384L10.3121 7.76539L10.3035 7.75871L9.38401 8.94384ZM8.64723 9.49307L9.68767 8.41257L9.66261 8.38845L9.63647 8.36551L8.64723 9.49307ZM7.20517 9.41132V7.91132H5.70517V9.41132H7.20517ZM7.41949 9.96583L8.43251 8.85957L8.41868 8.84691L8.40454 8.83459L7.41949 9.96583ZM8.58971 10.0595L7.77356 8.80092L7.76761 8.80478L7.7617 8.80869L8.58971 10.0595ZM8.20583 9.71659C8.20583 9.71438 8.20704 9.64374 8.25637 9.54448C8.30828 9.44005 8.3808 9.36979 8.43321 9.33387L10.1294 11.8083C10.8634 11.3052 11.2058 10.5324 11.2058 9.71659H8.20583ZM8.43321 9.33387C8.47396 9.30594 8.48075 9.31433 8.41765 9.32928C8.35323 9.34455 8.23844 9.36122 8.05835 9.36122V12.3612C8.73655 12.3612 9.49274 12.2447 10.1294 11.8083L8.43321 9.33387ZM8.05835 9.36122C7.85451 9.36122 7.73904 9.33695 7.68681 9.32058C7.64105 9.30624 7.6639 9.30479 7.70643 9.34593L5.62066 11.5022C6.31418 12.1731 7.23178 12.3612 8.05835 12.3612V9.36122ZM7.70644 9.34594C7.75579 9.39368 7.76152 9.42749 7.75135 9.39663C7.7386 9.35794 7.71436 9.25522 7.71436 9.06054H4.71436C4.71436 9.89004 4.91298 10.8177 5.62064 11.5022L7.70644 9.34594ZM7.71436 9.06054C7.71436 8.87043 7.73934 8.77247 7.75149 8.7375C7.76057 8.71137 7.75503 8.73934 7.71486 8.77654L5.67659 6.5753C4.93596 7.26109 4.71436 8.2008 4.71436 9.06054H7.71436ZM7.72066 8.77114C7.68076 8.80848 7.66725 8.79974 7.7336 8.77985C7.80553 8.75828 7.94458 8.73218 8.17544 8.73218V5.73218C7.32629 5.73218 6.38381 5.91343 5.67079 6.5807L7.72066 8.77114ZM8.17544 8.73218H9.51274V5.73218H8.17544V8.73218ZM8.01275 7.22645L8.01001 7.94382L11.01 7.95527L11.0127 7.2379L8.01275 7.22645ZM9.51 6.44955H8.15627V9.44955H9.51V6.44955ZM8.15627 6.44955C7.6966 6.44955 7.02457 6.52338 6.47144 6.97888L8.37851 9.29472C8.24366 9.40576 8.12692 9.44096 8.09368 9.44948C8.06126 9.45779 8.07491 9.44955 8.15627 9.44955V6.44955ZM6.46472 6.98445C6.19303 7.21085 5.99705 7.49244 5.87305 7.79758L8.65233 8.92701C8.60228 9.05017 8.51449 9.18143 8.38522 9.28915L6.46472 6.98445ZM5.88664 7.76523C5.74835 8.08394 5.70038 8.4039 5.70038 8.69329H8.70038C8.70038 8.73345 8.69349 8.83318 8.63874 8.95936L5.88664 7.76523ZM7.20038 10.1933H8.40826V7.19329H7.20038V10.1933ZM8.40826 10.1933C8.46962 10.1933 8.51637 10.1963 8.55025 10.2C8.58423 10.2037 8.60165 10.2078 8.60552 10.2088C8.61458 10.2111 8.55187 10.1967 8.46452 10.129L10.3035 7.75871C9.70958 7.29791 8.99212 7.19329 8.40826 7.19329V10.1933ZM8.45593 10.1223C8.35801 10.0451 8.28345 9.94299 8.24077 9.84062C8.20223 9.74816 8.20583 9.69508 8.20583 9.71659H11.2058C11.2058 9.04388 10.981 8.29224 10.3121 7.76542L8.45593 10.1223ZM10.2397 9.75483C10.2397 9.37745 10.1335 8.84187 9.68767 8.41257L7.60679 10.5736C7.28421 10.263 7.23967 9.90145 7.23967 9.75483H10.2397ZM9.63647 8.36551C9.1906 7.97434 8.67524 7.91132 8.36512 7.91132V10.9113C8.30835 10.9113 7.98061 10.9037 7.65799 10.6206L9.63647 8.36551ZM8.36512 7.91132H7.20517V10.9113H8.36512V7.91132ZM5.70517 9.41132C5.70517 9.95218 5.87305 10.6082 6.43445 11.0971L8.40454 8.83459C8.52615 8.94049 8.6102 9.06948 8.65805 9.19345C8.70257 9.3088 8.70517 9.39125 8.70517 9.41132H5.70517ZM6.40648 11.0721C6.95125 11.5709 7.6293 11.6577 8.09054 11.6577V8.6577C8.03435 8.6577 8.0471 8.65112 8.10437 8.6675C8.16567 8.68502 8.29597 8.73454 8.43251 8.85957L6.40648 11.0721ZM8.09054 11.6577C8.38349 11.6577 8.93146 11.6321 9.41772 11.3102L7.7617 8.80869C7.92903 8.69792 8.06711 8.66808 8.10081 8.66143C8.14159 8.65339 8.14423 8.6577 8.09054 8.6577V11.6577ZM9.40586 11.318C10.0094 10.9266 10.2397 10.3025 10.2397 9.75483H7.23967C7.23967 9.64623 7.25932 9.47027 7.35577 9.27367C7.45695 9.06743 7.6091 8.90757 7.77356 8.80092L9.40586 11.318Z" fill="#4C5BD4" mask="url(#path-4-inside-2_1723_77339)"/>
<mask id="path-6-inside-3_1723_77339" fill="white">
<path d="M13.1008 9.73117C13.1008 10.0813 12.9864 10.3503 12.7591 10.5376C12.5297 10.7235 12.2058 10.8158 11.7881 10.8158H9.8291V10.0984H11.6183C11.7943 10.0984 11.9189 10.0694 11.9901 10.0121C12.0586 9.95601 12.0922 9.86238 12.0922 9.73117C12.0922 9.59666 12.0579 9.49974 11.9901 9.44106C11.9189 9.38501 11.7943 9.35732 11.6183 9.35732H9.8291V7.23291H12.9186L12.9159 7.95028H10.7446V8.64391H11.9545C12.3058 8.64391 12.5865 8.73754 12.7981 8.92479C12.896 9.02237 12.972 9.1371 13.0255 9.26831C13.0754 9.40216 13.1008 9.5571 13.1008 9.73117Z"/>
</mask>
<path d="M12.7591 10.5376L13.7037 11.7029L13.7128 11.6953L12.7591 10.5376ZM9.8291 10.8158H8.3291V12.3158H9.8291V10.8158ZM9.8291 10.0984V8.59843H8.3291V10.0984H9.8291ZM11.9901 10.0121L12.9311 11.1802L12.9402 11.1728L11.9901 10.0121ZM11.9901 9.44106L12.9719 8.30696L12.9454 8.284L12.9178 8.26232L11.9901 9.44106ZM9.8291 9.35732H8.3291V10.8573H9.8291V9.35732ZM9.8291 7.23291V5.73291H8.3291V7.23291H9.8291ZM12.9186 7.23291L14.4186 7.23864L14.4244 5.73291H12.9186V7.23291ZM12.9159 7.95028V9.45028H14.4102L14.4159 7.956L12.9159 7.95028ZM10.7446 7.95028V6.45028H9.2446V7.95028H10.7446ZM10.7446 8.64391H9.2446V10.1439H10.7446V8.64391ZM12.7981 8.92479L13.857 7.86232L13.8255 7.83096L13.7922 7.80152L12.7981 8.92479ZM13.0255 9.26831L14.4307 8.74353L14.423 8.72304L14.4148 8.70279L13.0255 9.26831ZM11.6008 9.73117C11.6008 9.74369 11.5989 9.6932 11.6342 9.60982C11.6725 9.51963 11.7346 9.4381 11.8054 9.37975L13.7128 11.6953C14.3511 11.1696 14.6008 10.4377 14.6008 9.73117H11.6008ZM11.8146 9.37228C11.8448 9.34775 11.8729 9.33072 11.895 9.31959C11.9167 9.30866 11.9301 9.30469 11.9315 9.30429C11.9327 9.30397 11.9224 9.30697 11.8982 9.31C11.8739 9.31303 11.8377 9.31579 11.7881 9.31579V12.3158C12.4071 12.3158 13.1141 12.1807 13.7036 11.7028L11.8146 9.37228ZM11.7881 9.31579H9.8291V12.3158H11.7881V9.31579ZM11.3291 10.8158V10.0984H8.3291V10.8158H11.3291ZM9.8291 11.5984H11.6183V8.59843H9.8291V11.5984ZM11.6183 11.5984C11.8656 11.5984 12.4395 11.5762 12.9311 11.1802L11.0492 8.8439C11.2447 8.6864 11.4276 8.63344 11.5039 8.6157C11.586 8.59662 11.6315 8.59843 11.6183 8.59843V11.5984ZM12.9402 11.1728C13.5031 10.7121 13.5922 10.0809 13.5922 9.73117H10.5922C10.5922 9.64385 10.6142 9.19988 11.0401 8.85129L12.9402 11.1728ZM13.5922 9.73117C13.5922 9.37879 13.5037 8.76731 12.9719 8.30696L11.0084 10.5752C10.6122 10.2322 10.5922 9.81454 10.5922 9.73117H13.5922ZM12.9178 8.26232C12.4257 7.87504 11.8543 7.85732 11.6183 7.85732V10.8573C11.6354 10.8573 11.5935 10.8594 11.515 10.8418C11.443 10.8256 11.2601 10.7753 11.0625 10.6198L12.9178 8.26232ZM11.6183 7.85732H9.8291V10.8573H11.6183V7.85732ZM11.3291 9.35732V7.23291H8.3291V9.35732H11.3291ZM9.8291 8.73291H12.9186V5.73291H9.8291V8.73291ZM11.4186 7.22718L11.4159 7.94455L14.4159 7.956L14.4186 7.23864L11.4186 7.22718ZM12.9159 6.45028H10.7446V9.45028H12.9159V6.45028ZM9.2446 7.95028V8.64391H12.2446V7.95028H9.2446ZM10.7446 10.1439H11.9545V7.14391H10.7446V10.1439ZM11.9545 10.1439C11.9981 10.1439 11.9923 10.1498 11.9547 10.1373C11.9126 10.1232 11.8567 10.0947 11.804 10.0481L13.7922 7.80152C13.2447 7.31695 12.5803 7.14391 11.9545 7.14391V10.1439ZM11.7393 9.98726C11.6918 9.93998 11.6569 9.88473 11.6361 9.83384L14.4148 8.70279C14.2872 8.38947 14.1002 8.10476 13.857 7.86232L11.7393 9.98726ZM11.6203 9.79309C11.5959 9.72789 11.6008 9.69967 11.6008 9.73117H14.6008C14.6008 9.41454 14.555 9.07642 14.4307 8.74353L11.6203 9.79309Z" fill="#4C5BD4" mask="url(#path-6-inside-3_1723_77339)"/>
<path d="M16.2911 11.9909C16.2911 11.9909 16.2904 11.9901 16.2893 11.9885C16.2906 11.9901 16.2912 11.9909 16.2911 11.9909Z" stroke="#4C5BD4" stroke-width="1.5"/>
<path d="M7.1888 12.6454C7.20542 12.6498 7.22216 12.654 7.23902 12.658L7.23938 12.6581C7.56411 12.7363 7.91289 12.7606 8.27802 12.7467L8.24091 12.3402M7.1888 12.6454L8.90556 12.6902C8.69218 12.7192 8.48258 12.7389 8.27811 12.7467L8.24091 12.3402M7.1888 12.6454L7.2453 12.3125M7.1888 12.6454L7.2453 12.3125M8.24091 12.3402C7.9095 12.3706 7.57329 12.3686 7.2453 12.3125M8.24091 12.3402C8.68873 12.2993 9.13039 12.2011 9.55972 12.0739C10.7957 11.7073 11.9371 11.1673 12.904 10.3312C12.9184 10.3187 12.9327 10.3061 12.9478 10.2936C13.6168 9.70746 14.4392 8.8846 14.3378 7.93316L7.2453 12.3125" stroke="#4C5BD4" stroke-width="1.5"/>
<mask id="path-10-inside-4_1723_77339" fill="white">
<path fill-rule="evenodd" clip-rule="evenodd" d="M6.03662 11.0482C6.03662 11.0482 7.93266 12.6999 11.1879 10.9302C10.825 11.3429 6.77203 13.2306 6.03662 11.0482Z"/>
</mask>
<path d="M6.03662 11.0482L7.02188 9.91716L2.84721 6.28055L4.61515 11.5272L6.03662 11.0482ZM11.1879 10.9302L12.3144 11.9206L10.4715 9.61233L11.1879 10.9302ZM6.03662 11.0482C5.05136 12.1792 5.05213 12.1799 5.05291 12.1806C5.05318 12.1808 5.05397 12.1815 5.05451 12.182C5.05559 12.1829 5.05671 12.1839 5.05786 12.1849C5.06015 12.1869 5.06259 12.1889 5.06515 12.1911C5.07027 12.1955 5.07593 12.2003 5.08212 12.2054C5.09448 12.2157 5.10898 12.2275 5.12559 12.2407C5.15879 12.2671 5.20055 12.299 5.25075 12.335C5.35102 12.4068 5.4859 12.4956 5.65448 12.5894C5.99139 12.7769 6.4676 12.9869 7.07258 13.1185C8.31563 13.389 9.97001 13.2996 11.9043 12.248L10.4715 9.61233C9.15055 10.3304 8.2293 10.3 7.71051 10.1871C7.43458 10.1271 7.23333 10.0348 7.113 9.96783C7.05296 9.93442 7.01429 9.90799 6.99815 9.89643C6.99015 9.8907 6.98799 9.88884 6.99183 9.89188C6.99376 9.89342 6.99721 9.8962 7.0022 9.90036C7.0047 9.90244 7.00759 9.90487 7.01087 9.90766C7.01251 9.90906 7.01424 9.91055 7.01608 9.91213C7.017 9.91292 7.01794 9.91373 7.01891 9.91457C7.01939 9.91499 7.02014 9.91564 7.02038 9.91585C7.02113 9.9165 7.02188 9.91716 6.03662 11.0482ZM10.0614 9.93971C10.1906 9.7928 10.2794 9.76328 10.1295 9.85187C10.0374 9.90624 9.89564 9.981 9.71318 10.0638C9.345 10.231 8.88301 10.3986 8.43257 10.4968C7.95636 10.6005 7.63273 10.5958 7.46794 10.5542C7.40228 10.5376 7.40477 10.5257 7.43227 10.5494C7.46674 10.579 7.46926 10.6024 7.45809 10.5692L4.61515 11.5272C4.98733 12.6317 5.83291 13.2355 6.73351 13.4629C7.54682 13.6682 8.397 13.5749 9.07132 13.428C9.77142 13.2754 10.4367 13.0301 10.9535 12.7955C11.2135 12.6774 11.4536 12.554 11.6556 12.4347C11.7997 12.3495 12.0945 12.1707 12.3144 11.9206L10.0614 9.93971Z" fill="#4C5BD4" mask="url(#path-10-inside-4_1723_77339)"/>
</g>
<defs>
<clipPath id="clip0_1723_77339">
<rect width="20" height="20" fill="white"/>
</clipPath>
</defs>
</svg>
