<svg width="20" height="20" viewBox="0 0 20 20" fill="none" xmlns="http://www.w3.org/2000/svg">
<path d="M18.3332 8.75008V12.9167C18.3332 15.8334 16.6665 17.0834 14.1665 17.0834H5.83317C3.33317 17.0834 1.6665 15.8334 1.6665 12.9167V7.08341C1.6665 4.16675 3.33317 2.91675 5.83317 2.91675H11.6665" stroke="#4C5BD4" stroke-width="1.5" stroke-miterlimit="10" stroke-linecap="round" stroke-linejoin="round"/>
<path d="M5.8335 7.5L8.44183 9.58333C9.30017 10.2667 10.7085 10.2667 11.5668 9.58333L12.5502 8.8" stroke="#4C5BD4" stroke-width="1.5" stroke-miterlimit="10" stroke-linecap="round" stroke-linejoin="round"/>
<path d="M16.2498 6.66667C17.4004 6.66667 18.3332 5.73393 18.3332 4.58333C18.3332 3.43274 17.4004 2.5 16.2498 2.5C15.0992 2.5 14.1665 3.43274 14.1665 4.58333C14.1665 5.73393 15.0992 6.66667 16.2498 6.66667Z" stroke="#4C5BD4" stroke-width="1.5" stroke-miterlimit="10" stroke-linecap="round" stroke-linejoin="round"/>
</svg>
