<svg width="90" height="20" viewBox="0 0 90 20" fill="none" xmlns="http://www.w3.org/2000/svg">
<path d="M45.9847 4.13038H42.8593V12.1575H40.4401L40.4327 4.13038H37.335V2.07581H45.9828V4.13038H45.9847Z" fill="white"/>
<path d="M48.9546 4.15762H47.6251L44.9238 1.92859H47.4168L48.9546 4.15762ZM48.7185 12.1569H46.4211V4.6643H48.7185V12.1569Z" fill="white"/>
<path d="M60.3779 12.1557H58.167V7.67534C58.167 7.21506 58.1025 6.90697 57.9716 6.74921C57.8185 6.61929 57.5346 6.55247 57.1178 6.55247L56.2641 6.57289V12.1557H54.0275V6.57475H52.1928V12.1557H49.9746V4.66309H57.2727C58.3348 4.66309 59.1166 4.88209 59.6219 5.32196C60.1252 5.76183 60.3779 6.46896 60.3779 7.44706V12.1557Z" fill="white"/>
<path d="M72.8373 4.66309L69.5644 12.1557H67.3333L64.2227 4.66309H66.6898L68.5171 9.41254L70.4587 4.66309H72.8373Z" fill="white"/>
<path d="M75.5504 4.19712H73.2529V2.06274H75.5504V4.19712ZM75.5504 12.1574H73.2529V4.66483H75.5504V12.1574Z" fill="white"/>
<path d="M83.0031 12.1495H80.1137C78.9041 12.1495 77.9858 11.8321 77.3589 11.1974C76.7264 10.5719 76.4111 9.63833 76.4111 8.40039C76.4111 7.18473 76.7264 6.25859 77.3589 5.62385C77.995 4.9891 78.9133 4.67173 80.1137 4.67173H83.0031V6.49616H80.3755C79.7431 6.49616 79.3282 6.57411 79.1253 6.73187C78.9188 6.89891 78.8156 7.15318 78.8156 7.49468H83.0012V9.3321H78.8156C78.8156 9.6606 78.9022 9.90931 79.0774 10.0745C79.2526 10.2415 79.6804 10.325 80.3608 10.325H83.0012V12.1495H83.0031ZM82.6878 4.15762H81.3767L80.2944 3.19808L79.1917 4.15762H77.8955L79.4277 1.92859H81.161L82.6878 4.15762ZM81.2495 14.926H79.3134V12.8455H81.2495V14.926Z" fill="white"/>
<path d="M89.9978 12.1499H87.3038C86.9719 12.1499 86.6714 12.1313 86.404 12.0961C86.1403 12.0608 85.8932 12.0088 85.6646 11.9402C85.2516 11.7954 84.8717 11.5615 84.5214 11.2368C84.3647 11.079 84.2208 10.8897 84.0918 10.6688C83.9572 10.4572 83.8336 10.2271 83.723 9.98025C83.6326 9.74083 83.5644 9.49584 83.5146 9.24343C83.4704 8.99658 83.4482 8.72375 83.4482 8.42679C83.4482 7.86814 83.5404 7.3429 83.723 6.85292C83.9074 6.37037 84.1729 5.93607 84.5232 5.54817C84.8404 5.25492 85.2221 5.03777 85.6664 4.89301C86.1053 4.74453 86.6511 4.67029 87.3057 4.67029H89.9996V6.54854H87.8496C87.4016 6.54854 87.0438 6.57638 86.7746 6.6302C86.511 6.69702 86.3044 6.80838 86.1569 6.96057C85.8527 7.23897 85.6996 7.72895 85.6996 8.42679C85.6996 8.81469 85.766 9.1432 85.9006 9.41232C86.0168 9.67773 86.2012 9.89859 86.4519 10.0749L86.889 10.2308C87.0107 10.2494 87.1323 10.2624 87.2577 10.2716C87.3868 10.2809 87.5841 10.2846 87.8496 10.2846H89.9996V12.1499H89.9978Z" fill="white"/>
<path d="M8.12419 9.38852C8.12419 10.2534 7.84945 10.9308 7.29813 11.4227C6.73759 11.9089 5.96315 12.1521 4.97298 12.1521H0V10.1309H4.11926C4.60236 10.1309 4.95454 10.0493 5.17396 9.88778C5.39339 9.72074 5.50402 9.46276 5.50402 9.11013C5.50402 8.78533 5.39892 8.53106 5.18871 8.34732C4.96929 8.171 4.61342 8.08377 4.1211 8.08377L0.759684 8.09676V6.07745H4.05841C4.55626 6.07745 4.91398 5.9995 5.1334 5.84174C5.3436 5.68955 5.4487 5.43714 5.4487 5.0845C5.4487 4.75043 5.3436 4.50172 5.1334 4.33469C5.02645 4.24374 4.88447 4.17878 4.7093 4.13795C4.52491 4.10269 4.30918 4.08413 4.05841 4.08413H0V2.06482H4.76462C5.86727 2.06482 6.70255 2.28754 7.27047 2.73297C7.83101 3.18398 8.11129 3.88368 8.11129 4.83394C8.11129 5.31093 8.00618 5.7341 7.79598 6.10344C7.57656 6.47278 7.2926 6.79757 6.94226 7.07597C7.32763 7.31539 7.6079 7.60121 7.78307 7.93343C8.00987 8.32319 8.12419 8.8076 8.12419 9.38852Z" fill="white"/>
<path d="M18.0641 9.05779C18.0641 10.1157 17.6824 10.9175 16.9209 11.4631C16.1594 12.0088 15.0623 12.2798 13.6277 12.2798C11.935 12.2798 10.683 11.8696 9.8717 11.0493C9.06592 10.2345 8.66211 8.95571 8.66211 7.21109C8.66211 5.44976 9.09358 4.15058 9.95837 3.31353C10.8102 2.48019 12.1378 2.06445 13.943 2.06445H17.5441L17.5368 4.08376H13.8914C12.986 4.08376 12.3296 4.26008 11.9221 4.61086C11.7303 4.7779 11.5847 4.98948 11.4851 5.2456C11.3726 5.51658 11.3173 5.82653 11.3173 6.17731H14.5699C15.7427 6.17731 16.6185 6.41302 17.1975 6.88258C17.7746 7.35771 18.0641 8.08154 18.0641 9.05779ZM15.4624 9.16543C15.4624 8.84064 15.3794 8.59565 15.2135 8.42861C15.0475 8.27642 14.7949 8.19847 14.4538 8.19847H11.3302C11.3302 8.88704 11.522 9.40857 11.9074 9.75935C12.2835 10.1194 12.8865 10.2994 13.7144 10.2994C14.3468 10.2994 14.7931 10.2066 15.0586 10.0229C15.3296 9.83915 15.4624 9.55333 15.4624 9.16543Z" fill="white"/>
<path d="M27.2027 9.09713C27.2027 10.0827 26.8948 10.8399 26.2826 11.367C25.6649 11.8904 24.7927 12.1502 23.668 12.1502H18.3926V10.1309H23.2107C23.6845 10.1309 24.0201 10.0492 24.2119 9.88778C24.3963 9.73002 24.4866 9.46647 24.4866 9.09713C24.4866 8.71851 24.3944 8.44568 24.2119 8.2805C24.0201 8.12274 23.6845 8.04479 23.2107 8.04479H18.3926V2.06482H26.7122L26.7048 4.08413H20.8579V6.03662H24.116C25.0619 6.03662 25.8179 6.30017 26.3877 6.82727C26.6514 7.10195 26.856 7.42489 26.9999 7.79423C27.1345 8.17099 27.2027 8.60715 27.2027 9.09713Z" fill="white"/>
<path fill-rule="evenodd" clip-rule="evenodd" d="M28.4004 15.3459L32.0826 12.0051L36.0913 13.1763C36.0913 13.1763 38.7354 14.2917 37.2585 16.1588C36.5928 16.8195 35.9622 17.445 33.6352 16.814C32.9751 16.5931 28.4004 15.3459 28.4004 15.3459Z" fill="white"/>
<path fill-rule="evenodd" clip-rule="evenodd" d="M7.07405 12.9828C7.11277 13.0718 7.14596 13.1628 7.18653 13.2519C7.25844 13.4096 7.33773 13.5618 7.42439 13.7122C7.64197 14.0871 7.90565 14.4341 8.20805 14.7441C8.58789 15.132 9.02858 15.4586 9.50615 15.7129C10.1091 16.0359 10.7655 16.2456 11.4349 16.3644C12.3181 16.5221 13.2234 16.5277 14.1159 16.4423C15.3218 16.3272 16.5111 16.0507 17.6672 15.6925C20.9954 14.6606 24.0692 13.1405 26.6728 10.7871C26.7115 10.7519 26.7502 10.7166 26.7908 10.6813C28.5923 9.03138 30.8068 6.71512 30.5339 4.03694C30.3606 2.34428 28.3194 1.39773 26.8793 1.05252C26.2653 0.905896 26.3815 -0.0146702 27.0121 0.000177624C29.9199 0.0707049 32.8904 0.863209 33.8843 3.37249C33.8898 3.38734 33.8953 3.40219 33.9009 3.41889C34.1498 4.22625 34.2033 5.10041 34.135 5.93746C34.006 7.53732 33.3938 9.06108 32.5161 10.3918C31.0502 12.6171 28.9113 14.3339 26.6709 15.7166C24.781 16.884 22.8301 17.7916 20.7207 18.4523C19.2345 18.9182 17.7207 19.3005 16.1774 19.5195C14.4496 19.7645 12.65 19.8183 10.9462 19.3896C9.23141 18.959 7.71388 17.9865 6.74031 16.4813C6.14658 15.5644 5.77411 14.5214 5.551 13.4542C5.48462 13.1405 5.56759 12.7155 5.84049 12.5113C6.18898 12.2515 6.75137 12.4835 6.97817 12.8009C7.01689 12.8621 7.04824 12.9215 7.07405 12.9828Z" fill="white"/>
<path fill-rule="evenodd" clip-rule="evenodd" d="M8.18457 12.8061C8.18457 12.8061 13.2903 17.4553 22.0562 12.4739C21.0789 13.6357 10.1649 18.9494 8.18457 12.8061Z" fill="white"/>
</svg>
