<svg width="24" height="24" viewBox="0 0 24 24" fill="none" xmlns="http://www.w3.org/2000/svg">
<path d="M8.67188 14.2321C8.67188 15.5221 9.66188 16.5621 10.8919 16.5621H13.4019C14.4719 16.5621 15.3419 15.6521 15.3419 14.5321C15.3419 13.3121 14.8119 12.8821 14.0219 12.6021L9.99187 11.2021C9.20187 10.9221 8.67188 10.4921 8.67188 9.27207C8.67188 8.15207 9.54187 7.24207 10.6119 7.24207H13.1219C14.3519 7.24207 15.3419 8.28207 15.3419 9.57207" stroke="#999999" stroke-width="1.5" stroke-linecap="round" stroke-linejoin="round"/>
<path d="M12 5.90222V17.9022" stroke="#999999" stroke-width="1.5" stroke-linecap="round" stroke-linejoin="round"/>
<path d="M11.999 21.9022C17.5219 21.9022 21.999 17.4251 21.999 11.9022C21.999 6.37937 17.5219 1.90222 11.999 1.90222C6.47618 1.90222 1.99902 6.37937 1.99902 11.9022C1.99902 17.4251 6.47618 21.9022 11.999 21.9022Z" stroke="#999999" stroke-width="1.5" stroke-linecap="round" stroke-linejoin="round"/>
</svg>
