<svg width="25" height="24" viewBox="0 0 25 24" fill="none" xmlns="http://www.w3.org/2000/svg">
<g id="add-to-cart 1">
<path id="Vector" d="M19.3925 15.2719L20.0916 11.4766C20.1069 11.3968 20.1023 11.3145 20.0784 11.2368C20.0545 11.1591 20.0119 11.0885 19.9544 11.0311C19.8969 10.9737 19.8261 10.9312 19.7484 10.9074C19.6707 10.8837 19.5883 10.8793 19.5085 10.8947C19.1769 10.9646 18.8389 10.9999 18.4999 11C17.253 11 16.0511 10.5341 15.1299 9.69366C14.2087 8.85326 13.6347 7.69901 13.5205 6.45731C13.51 6.33286 13.4532 6.21686 13.3614 6.1322C13.2696 6.04755 13.1494 6.00038 13.0245 6H5.9843L5.91192 5.67431C5.83789 5.34125 5.65251 5.04339 5.38637 4.82989C5.12023 4.6164 4.78925 4.50003 4.44806 4.5H3.02649C2.77739 4.5 2.54658 4.67016 2.50655 4.91602C2.49439 4.98777 2.49802 5.06131 2.5172 5.13151C2.53638 5.20171 2.57064 5.26688 2.61759 5.32248C2.66454 5.37809 2.72306 5.42278 2.78906 5.45344C2.85505 5.48411 2.92695 5.5 2.99972 5.50003H4.44769C4.56158 5.49951 4.67221 5.53809 4.76108 5.60932C4.84995 5.68055 4.91169 5.78012 4.93599 5.89139L7.64733 18.093C7.25133 18.2172 6.9037 18.4614 6.65249 18.7917C6.40128 19.1221 6.25889 19.5223 6.24501 19.9371C6.23114 20.3519 6.34645 20.7608 6.57501 21.1072C6.80358 21.4536 7.13411 21.7205 7.52092 21.8709C7.90773 22.0214 8.33171 22.0479 8.73427 21.9469C9.13683 21.846 9.49808 21.6224 9.76809 21.3072C10.0381 20.992 10.2035 20.6008 10.2415 20.1875C10.2795 19.7742 10.1882 19.3593 9.98016 19.0002H16.2697C16.0499 19.3813 15.9619 19.8244 16.0196 20.2607C16.0772 20.6969 16.2772 21.1019 16.5885 21.4129C16.8998 21.7239 17.305 21.9235 17.7413 21.9807C18.1776 22.0379 18.6206 21.9496 19.0015 21.7294C19.3825 21.5091 19.6801 21.1694 19.8483 20.7627C20.0165 20.3561 20.0458 19.9053 19.9316 19.4804C19.8175 19.0554 19.5663 18.68 19.217 18.4123C18.8678 18.1446 18.4399 17.9997 17.9999 18H8.65107L8.31774 16.5H17.9174C18.2681 16.5 18.6076 16.3771 18.8771 16.1528C19.1466 15.9284 19.329 15.6167 19.3925 15.2719ZM8.24991 20.75C8.10157 20.75 7.95657 20.706 7.83323 20.6236C7.70989 20.5412 7.61376 20.4241 7.557 20.287C7.50023 20.15 7.48538 19.9992 7.51432 19.8537C7.54326 19.7082 7.61469 19.5746 7.71958 19.4697C7.82447 19.3648 7.9581 19.2934 8.10359 19.2644C8.24908 19.2355 8.39988 19.2503 8.53692 19.3071C8.67397 19.3639 8.7911 19.46 8.87351 19.5833C8.95592 19.7067 8.99991 19.8517 8.99991 20C8.99991 20.1989 8.92089 20.3897 8.78024 20.5303C8.63959 20.671 8.44882 20.75 8.24991 20.75ZM18.7499 20C18.7499 20.1484 18.7059 20.2934 18.6235 20.4167C18.5411 20.54 18.424 20.6362 18.2869 20.6929C18.1499 20.7497 17.9991 20.7645 17.8536 20.7356C17.7081 20.7067 17.5745 20.6352 17.4696 20.5303C17.3647 20.4255 17.2933 20.2918 17.2643 20.1463C17.2354 20.0008 17.2502 19.85 17.307 19.713C17.3638 19.576 17.4599 19.4588 17.5832 19.3764C17.7066 19.294 17.8516 19.25 17.9999 19.25C18.1988 19.25 18.3896 19.329 18.5302 19.4697C18.6709 19.6103 18.7499 19.8011 18.7499 20Z" fill="#4C5BD4"/>
<path id="Vector_2" d="M18.5 2C17.7089 2 16.9355 2.23459 16.2777 2.67412C15.6199 3.11364 15.1072 3.73836 14.8045 4.46926C14.5017 5.20016 14.4225 6.00442 14.5769 6.78034C14.7312 7.55626 15.1122 8.26899 15.6716 8.8284C16.231 9.38781 16.9437 9.76877 17.7196 9.92311C18.4955 10.0774 19.2998 9.99824 20.0307 9.69549C20.7616 9.39274 21.3863 8.88005 21.8259 8.22226C22.2654 7.56446 22.5 6.79111 22.5 5.99998C22.5 4.93913 22.0785 3.92172 21.3284 3.17158C20.5782 2.42144 19.5608 2.00001 18.5 2ZM20.25 6.5H19V7.75002C19.0006 7.81608 18.9882 7.88162 18.9633 7.94284C18.9385 8.00407 18.9018 8.05976 18.8553 8.10671C18.8088 8.15365 18.7535 8.19091 18.6925 8.21635C18.6315 8.24178 18.5661 8.25487 18.5 8.25487C18.4339 8.25487 18.3685 8.24178 18.3075 8.21635C18.2466 8.19091 18.1912 8.15365 18.1447 8.10671C18.0982 8.05976 18.0615 8.00407 18.0367 7.94284C18.0118 7.88162 17.9994 7.81608 18 7.75002V6.5H16.75C16.6839 6.50064 16.6184 6.48818 16.5572 6.46334C16.4959 6.4385 16.4403 6.40177 16.3933 6.35528C16.3464 6.30879 16.3091 6.25345 16.2837 6.19247C16.2582 6.13149 16.2451 6.06608 16.2451 6.00001C16.2451 5.93394 16.2582 5.86852 16.2837 5.80754C16.3091 5.74656 16.3464 5.69123 16.3933 5.64474C16.4403 5.59824 16.4959 5.56152 16.5572 5.53668C16.6184 5.51184 16.6839 5.49938 16.75 5.50002H18V4.25C17.9994 4.18393 18.0118 4.11839 18.0367 4.05717C18.0615 3.99595 18.0982 3.94025 18.1447 3.89331C18.1912 3.84637 18.2466 3.8091 18.3075 3.78367C18.3685 3.75824 18.4339 3.74514 18.5 3.74514C18.5661 3.74514 18.6315 3.75824 18.6925 3.78367C18.7535 3.8091 18.8088 3.84637 18.8553 3.89331C18.9018 3.94025 18.9385 3.99595 18.9633 4.05717C18.9882 4.11839 19.0006 4.18393 19 4.25V5.50002H20.25C20.3818 5.50129 20.5077 5.55453 20.6004 5.64816C20.6932 5.74179 20.7452 5.86823 20.7452 6.00001C20.7452 6.13178 20.6932 6.25823 20.6004 6.35186C20.5077 6.44548 20.3818 6.49872 20.25 6.5H20.25Z" fill="#4C5BD4"/>
</g>
</svg>
