<svg width="19" height="18" viewBox="0 0 19 18" fill="none" xmlns="http://www.w3.org/2000/svg">
<g id="fluent:delete-12-regular">
<path id="Vector" d="M7.9 3.9H11.1C11.1 3.44913 10.9314 3.01673 10.6314 2.69792C10.3313 2.37911 9.92435 2.2 9.5 2.2C9.07565 2.2 8.66869 2.37911 8.36863 2.69792C8.06857 3.01673 7.9 3.44913 7.9 3.9V3.9ZM6.3 3.9C6.3 2.99826 6.63714 2.13346 7.23726 1.49584C7.83737 0.858213 8.65131 0.5 9.5 0.5C10.3487 0.5 11.1626 0.858213 11.7627 1.49584C12.3629 2.13346 12.7 2.99826 12.7 3.9H16.7C16.9122 3.9 17.1157 3.98955 17.2657 4.14896C17.4157 4.30837 17.5 4.52457 17.5 4.75C17.5 4.97543 17.4157 5.19163 17.2657 5.35104C17.1157 5.51045 16.9122 5.6 16.7 5.6H15.9944L15.2856 14.389C15.2175 15.2377 14.852 16.0283 14.2615 16.6044C13.671 17.1805 12.8985 17.5001 12.0968 17.5H6.9032C6.10153 17.5001 5.32902 17.1805 4.73852 16.6044C4.14802 16.0283 3.78254 15.2377 3.7144 14.389L3.0056 5.6H2.3C2.08783 5.6 1.88434 5.51045 1.73431 5.35104C1.58429 5.19163 1.5 4.97543 1.5 4.75C1.5 4.52457 1.58429 4.30837 1.73431 4.14896C1.88434 3.98955 2.08783 3.9 2.3 3.9H6.3ZM11.9 9C11.9 8.77457 11.8157 8.55837 11.6657 8.39896C11.5157 8.23955 11.3122 8.15 11.1 8.15C10.8878 8.15 10.6843 8.23955 10.5343 8.39896C10.3843 8.55837 10.3 8.77457 10.3 9V12.4C10.3 12.6254 10.3843 12.8416 10.5343 13.001C10.6843 13.1604 10.8878 13.25 11.1 13.25C11.3122 13.25 11.5157 13.1604 11.6657 13.001C11.8157 12.8416 11.9 12.6254 11.9 12.4V9ZM7.9 8.15C8.11217 8.15 8.31566 8.23955 8.46569 8.39896C8.61571 8.55837 8.7 8.77457 8.7 9V12.4C8.7 12.6254 8.61571 12.8416 8.46569 13.001C8.31566 13.1604 8.11217 13.25 7.9 13.25C7.68783 13.25 7.48434 13.1604 7.33431 13.001C7.18429 12.8416 7.1 12.6254 7.1 12.4V9C7.1 8.77457 7.18429 8.55837 7.33431 8.39896C7.48434 8.23955 7.68783 8.15 7.9 8.15V8.15ZM5.308 14.2445C5.34208 14.669 5.52493 15.0644 5.82035 15.3525C6.11577 15.6406 6.50223 15.8003 6.9032 15.8H12.0968C12.4975 15.7998 12.8836 15.6399 13.1786 15.3519C13.4737 15.0639 13.6563 14.6687 13.6904 14.2445L14.388 5.6H4.612L5.3096 14.2445H5.308Z" fill="#FF3333"/>
</g>
</svg>
