<svg width="40" height="40" viewBox="0 0 40 40" fill="none" xmlns="http://www.w3.org/2000/svg">
<g id="Group">
<g id="Group_2">
<path id="Vector" d="M40 20C40 25.5196 37.7513 30.5281 34.1397 34.1397C30.5281 37.7513 25.5196 40 20 40C8.96082 40 0 31.0392 0 20C0 14.4804 2.24872 9.47189 5.86031 5.8603C9.47189 2.24872 14.4804 0 20 0C25.5196 0 30.5281 2.24872 34.1397 5.8603C37.7513 9.47189 40 14.4804 40 20Z" fill="url(#paint0_linear_2422_95016)"/>
</g>
<path id="Vector_2" d="M31.2093 13.6627C32.0951 12.6406 31.9248 11.1074 30.8345 10.3237C29.8123 9.57415 28.4154 9.77857 27.6658 10.7666C26.2008 12.6406 23.6454 15.8092 20.3405 19.1823C17.751 16.4225 15.7749 13.9353 14.5483 12.368C13.7987 11.3799 12.3677 11.1755 11.3796 11.9251C10.2893 12.7087 10.119 14.276 11.0048 15.2641C12.2996 16.7632 14.4801 19.0801 17.6829 21.7718C14.9912 24.259 11.9248 26.7121 8.65391 28.7224C8.27912 28.9268 8.17691 29.4038 8.41541 29.7786C8.61984 30.0852 9.0287 30.1874 9.36941 30.0171C13.5261 27.9046 17.0696 25.7241 20.0338 23.6457C22.5551 25.5878 25.6215 27.6321 29.2331 29.6764C29.642 29.9149 30.1871 29.7786 30.4597 29.4038C30.7663 28.9949 30.6641 28.3816 30.2553 28.075C27.4955 26.0648 24.9742 23.816 22.7595 21.6355C26.9163 18.3305 29.6761 15.4685 31.2093 13.6627Z" fill="white"/>
</g>
<defs>
<linearGradient id="paint0_linear_2422_95016" x1="0.0154003" y1="19.9882" x2="40.0059" y2="19.9882" gradientUnits="userSpaceOnUse">
<stop stop-color="#E64A4A"/>
<stop offset="1" stop-color="#B03F67"/>
</linearGradient>
</defs>
</svg>
