<svg width="28" height="28" viewBox="0 0 28 28" fill="none" xmlns="http://www.w3.org/2000/svg">
<g id="vuesax/bold/box-remove">
<g id="vuesax/bold/box-remove_2">
<g id="box-remove">
<g id="Group">
<path id="Vector" d="M20.5332 6.19507L13.9416 2.64841C13.2416 2.27507 12.4132 2.27507 11.7132 2.64841L5.13323 6.19507C4.6549 6.46341 4.35156 6.97674 4.35156 7.53674C4.35156 8.10841 4.64323 8.62174 5.13323 8.87841L11.7249 12.4251C12.0749 12.6117 12.4599 12.7051 12.8332 12.7051C13.2066 12.7051 13.6032 12.6117 13.9416 12.4251L20.5332 8.87841C21.0116 8.62174 21.3149 8.10841 21.3149 7.53674C21.3149 6.97674 21.0116 6.46341 20.5332 6.19507Z" fill="#4C5BD4"/>
<path id="Vector_2" d="M10.6387 13.6618L4.5137 10.6051C4.03536 10.3601 3.4987 10.3951 3.0437 10.6634C2.60036 10.9434 2.33203 11.4218 2.33203 11.9468V17.7334C2.33203 18.7368 2.89203 19.6351 3.79036 20.0901L9.91536 23.1468C10.1254 23.2518 10.3587 23.3101 10.592 23.3101C10.8604 23.3101 11.1404 23.2284 11.3854 23.0884C11.8287 22.8084 12.097 22.3301 12.097 21.8051V16.0184C12.0854 15.0151 11.5254 14.1168 10.6387 13.6618Z" fill="#4C5BD4"/>
<path id="Vector_3" d="M23.3315 11.9468V14.8168C22.7715 14.6534 22.1765 14.5834 21.5815 14.5834C19.9948 14.5834 18.4431 15.1318 17.2181 16.1118C15.5381 17.4301 14.5815 19.4251 14.5815 21.5834C14.5815 22.1551 14.6515 22.7268 14.8031 23.2751C14.6281 23.2518 14.4531 23.1818 14.2898 23.0768C13.8465 22.8084 13.5781 22.3301 13.5781 21.8051V16.0184C13.5781 15.0151 14.1381 14.1168 15.0248 13.6618L21.1498 10.6051C21.6281 10.3601 22.1648 10.3951 22.6198 10.6634C23.0631 10.9434 23.3315 11.4218 23.3315 11.9468Z" fill="#4C5BD4"/>
</g>
<path id="Vector_4" d="M25.2917 17.8733C24.2533 16.8349 22.8767 16.3099 21.5117 16.3333C20.1933 16.3449 18.875 16.8699 17.8717 17.8733C17.1717 18.5616 16.7167 19.4249 16.495 20.3233C16.3667 20.8133 16.32 21.3149 16.355 21.8166V21.8749C16.355 21.9566 16.3667 22.0266 16.3783 22.1199C16.3783 22.1199 16.3783 22.1199 16.39 22.1316V22.1666C16.495 23.3099 16.985 24.4183 17.8717 25.2933C19.225 26.6466 21.1267 27.1016 22.8417 26.6699C23.355 26.5416 23.8567 26.3316 24.3233 26.0516C24.6733 25.8533 25 25.5966 25.2917 25.2933C26.1667 24.4183 26.6683 23.3099 26.7733 22.1549C26.785 22.1549 26.785 22.1316 26.785 22.1199C26.8083 22.0383 26.8083 21.9449 26.8083 21.8633C26.8083 21.8516 26.82 21.8283 26.82 21.8049C26.89 20.3933 26.3767 18.9466 25.2917 17.8733ZM23.6 23.5783C23.2617 23.9166 22.7133 23.9166 22.3633 23.5783L21.5933 22.8083L20.8 23.6016C20.45 23.9516 19.9017 23.9516 19.5633 23.6016C19.2133 23.2633 19.2133 22.7149 19.5633 22.3649L20.3567 21.5716L19.5867 20.8016C19.2483 20.4516 19.2483 19.9033 19.5867 19.5649C19.9367 19.2149 20.485 19.2149 20.835 19.5649L21.5933 20.3349L22.3283 19.5883C22.6783 19.2499 23.2267 19.2499 23.5767 19.5883C23.915 19.9383 23.915 20.4866 23.5767 20.8366L22.83 21.5716L23.6 22.3299C23.95 22.6799 23.95 23.2283 23.6 23.5783Z" fill="#4C5BD4"/>
</g>
</g>
</g>
</svg>
