<svg width="28" height="28" viewBox="0 0 28 28" fill="none" xmlns="http://www.w3.org/2000/svg">
<g id="vuesax/bold/box-tick">
<g id="vuesax/bold/box-tick_2">
<g id="box-tick">
<g id="Group">
<path id="Vector" d="M20.5313 6.19507L13.9396 2.64841C13.2396 2.27507 12.4113 2.27507 11.7113 2.64841L5.13128 6.19507C4.65294 6.46341 4.34961 6.97674 4.34961 7.53674C4.34961 8.10841 4.64128 8.62174 5.13128 8.87841L11.7229 12.4251C12.0729 12.6117 12.4579 12.7051 12.8313 12.7051C13.2046 12.7051 13.6013 12.6117 13.9396 12.4251L20.5313 8.87841C21.0096 8.62174 21.3129 8.10841 21.3129 7.53674C21.3129 6.97674 21.0096 6.46341 20.5313 6.19507Z" fill="white"/>
<path id="Vector_2" d="M10.6387 13.6618L4.5137 10.6051C4.03536 10.3601 3.4987 10.3951 3.0437 10.6634C2.60036 10.9434 2.33203 11.4218 2.33203 11.9468V17.7334C2.33203 18.7368 2.89203 19.6351 3.79036 20.0901L9.91536 23.1468C10.1254 23.2518 10.3587 23.3101 10.592 23.3101C10.8604 23.3101 11.1404 23.2284 11.3854 23.0884C11.8287 22.8084 12.097 22.3301 12.097 21.8051V16.0184C12.0854 15.0151 11.5254 14.1168 10.6387 13.6618Z" fill="white"/>
<path id="Vector_3" d="M23.3315 11.9468V14.8168C22.7715 14.6534 22.1765 14.5834 21.5815 14.5834C19.9948 14.5834 18.4431 15.1318 17.2181 16.1118C15.5381 17.4301 14.5815 19.4251 14.5815 21.5834C14.5815 22.1551 14.6515 22.7268 14.8031 23.2751C14.6281 23.2518 14.4531 23.1818 14.2898 23.0768C13.8465 22.8084 13.5781 22.3301 13.5781 21.8051V16.0184C13.5781 15.0151 14.1381 14.1168 15.0248 13.6618L21.1498 10.6051C21.6281 10.3601 22.1648 10.3951 22.6198 10.6634C23.0631 10.9434 23.3315 11.4218 23.3315 11.9468Z" fill="white"/>
</g>
<path id="Vector_4" d="M25.642 18.2817C24.6854 17.1034 23.227 16.3567 21.582 16.3567C20.3454 16.3567 19.202 16.7884 18.3037 17.5117C17.0904 18.4684 16.332 19.95 16.332 21.6067C16.332 22.5867 16.612 23.52 17.0904 24.3134C17.4054 24.8384 17.802 25.2934 18.2687 25.6667H18.2804C19.1787 26.4134 20.3337 26.8567 21.582 26.8567C22.912 26.8567 24.1137 26.3667 25.0354 25.55C25.4437 25.2 25.7937 24.78 26.0737 24.3134C26.552 23.52 26.832 22.5867 26.832 21.6067C26.832 20.3467 26.3887 19.18 25.642 18.2817ZM24.2187 20.9534L21.4187 23.5434C21.2554 23.695 21.0337 23.7767 20.8237 23.7767C20.602 23.7767 20.3804 23.695 20.2054 23.52L18.9104 22.225C18.572 21.8867 18.572 21.3267 18.9104 20.9884C19.2487 20.65 19.8087 20.65 20.147 20.9884L20.847 21.6884L23.0287 19.67C23.3787 19.3434 23.9387 19.3667 24.2654 19.7167C24.6037 20.0784 24.5804 20.6267 24.2187 20.9534Z" fill="white"/>
</g>
</g>
</g>
</svg>
