<svg width="28" height="28" viewBox="0 0 28 28" fill="none" xmlns="http://www.w3.org/2000/svg">
<g id="vuesax/bold/box-time">
<g id="vuesax/bold/box-time_2">
<g id="box-time">
<g id="Group">
<path id="Vector" d="M20.5313 6.19507L13.9396 2.64841C13.2396 2.27507 12.4113 2.27507 11.7113 2.64841L5.13128 6.19507C4.65294 6.46341 4.34961 6.97674 4.34961 7.53674C4.34961 8.10841 4.64128 8.62174 5.13128 8.87841L11.7229 12.4251C12.0729 12.6117 12.4579 12.7051 12.8313 12.7051C13.2046 12.7051 13.6013 12.6117 13.9396 12.4251L20.5313 8.87841C21.0096 8.62174 21.3129 8.10841 21.3129 7.53674C21.3129 6.97674 21.0096 6.46341 20.5313 6.19507Z" fill="white"/>
<path id="Vector_2" d="M10.6387 13.6618L4.5137 10.6051C4.03536 10.3601 3.4987 10.3951 3.0437 10.6634C2.60036 10.9434 2.33203 11.4218 2.33203 11.9468V17.7334C2.33203 18.7368 2.89203 19.6351 3.79036 20.0901L9.91536 23.1468C10.1254 23.2518 10.3587 23.3101 10.592 23.3101C10.8604 23.3101 11.1404 23.2284 11.3854 23.0884C11.8287 22.8084 12.097 22.3301 12.097 21.8051V16.0184C12.0854 15.0151 11.5254 14.1168 10.6387 13.6618Z" fill="white"/>
<path id="Vector_3" d="M23.3315 11.9468V14.8168C22.7715 14.6534 22.1765 14.5834 21.5815 14.5834C19.9948 14.5834 18.4431 15.1318 17.2181 16.1118C15.5381 17.4301 14.5815 19.4251 14.5815 21.5834C14.5815 22.1551 14.6515 22.7268 14.8031 23.2751C14.6281 23.2518 14.4531 23.1818 14.2898 23.0768C13.8465 22.8084 13.5781 22.3301 13.5781 21.8051V16.0184C13.5781 15.0151 14.1381 14.1168 15.0248 13.6618L21.1498 10.6051C21.6281 10.3601 22.1648 10.3951 22.6198 10.6634C23.0631 10.9434 23.3315 11.4218 23.3315 11.9468Z" fill="white"/>
</g>
<path id="Vector_4" d="M25.642 18.2583C24.6854 17.0799 23.227 16.3333 21.582 16.3333C20.3454 16.3333 19.202 16.7649 18.3037 17.4883C17.0904 18.4449 16.332 19.9266 16.332 21.5833C16.332 23.2283 17.0787 24.6866 18.257 25.6433C19.1554 26.3899 20.322 26.8333 21.582 26.8333C22.912 26.8333 24.1137 26.3316 25.047 25.5266C26.132 24.5583 26.832 23.1583 26.832 21.5833C26.832 20.3233 26.3887 19.1566 25.642 18.2583ZM22.7837 21.9099C22.7837 22.2133 22.6204 22.5049 22.3637 22.6566L20.7187 23.6366C20.5787 23.7183 20.427 23.7649 20.2637 23.7649C19.972 23.7649 19.6804 23.6133 19.517 23.3449C19.272 22.9249 19.4004 22.3883 19.8204 22.1433L21.0337 21.4199V19.9499C21.0337 19.4716 21.4304 19.0749 21.9087 19.0749C22.387 19.0749 22.7837 19.4716 22.7837 19.9499V21.9099Z" fill="white"/>
</g>
</g>
</g>
</svg>
