<svg width="28" height="28" viewBox="0 0 28 28" fill="none" xmlns="http://www.w3.org/2000/svg">
<g id="vuesax/bold/box-add">
<g id="vuesax/bold/box-add_2">
<g id="box-add">
<g id="Group">
<path id="Vector" d="M20.5313 6.19507L13.9396 2.64841C13.2396 2.27507 12.4113 2.27507 11.7113 2.64841L5.13128 6.19507C4.65294 6.46341 4.34961 6.97674 4.34961 7.53674C4.34961 8.10841 4.64128 8.62174 5.13128 8.87841L11.7229 12.4251C12.0729 12.6117 12.4579 12.7051 12.8313 12.7051C13.2046 12.7051 13.6013 12.6117 13.9396 12.4251L20.5313 8.87841C21.0096 8.62174 21.3129 8.10841 21.3129 7.53674C21.3129 6.97674 21.0096 6.46341 20.5313 6.19507Z" fill="white"/>
<path id="Vector_2" d="M10.6387 13.6618L4.5137 10.6051C4.03536 10.3601 3.4987 10.3951 3.0437 10.6634C2.60036 10.9434 2.33203 11.4218 2.33203 11.9468V17.7334C2.33203 18.7368 2.89203 19.6351 3.79036 20.0901L9.91536 23.1468C10.1254 23.2518 10.3587 23.3101 10.592 23.3101C10.8604 23.3101 11.1404 23.2284 11.3854 23.0884C11.8287 22.8084 12.097 22.3301 12.097 21.8051V16.0184C12.0854 15.0151 11.5254 14.1168 10.6387 13.6618Z" fill="white"/>
<path id="Vector_3" d="M23.3315 11.9468V14.8168C22.7715 14.6534 22.1765 14.5834 21.5815 14.5834C19.9948 14.5834 18.4431 15.1318 17.2181 16.1118C15.5381 17.4301 14.5815 19.4251 14.5815 21.5834C14.5815 22.1551 14.6515 22.7268 14.8031 23.2751C14.6281 23.2518 14.4531 23.1818 14.2898 23.0768C13.8465 22.8084 13.5781 22.3301 13.5781 21.8051V16.0184C13.5781 15.0151 14.1381 14.1168 15.0248 13.6618L21.1498 10.6051C21.6281 10.3601 22.1648 10.3951 22.6198 10.6634C23.0631 10.9434 23.3315 11.4218 23.3315 11.9468Z" fill="white"/>
</g>
<path id="Vector_4" d="M25.6654 18.3166C25.6654 18.3049 25.6537 18.2933 25.642 18.2816C25.5954 18.2116 25.537 18.1416 25.4787 18.0833C25.467 18.0716 25.4554 18.0483 25.4437 18.0366C24.4987 16.9866 23.1104 16.3333 21.582 16.3333C20.112 16.3333 18.7704 16.9399 17.8137 17.9199C16.892 18.8649 16.332 20.1599 16.332 21.5833C16.332 22.5633 16.612 23.4966 17.0904 24.2899C17.347 24.7216 17.6737 25.1183 18.047 25.4449C18.0704 25.4566 18.082 25.4683 18.0937 25.4799C18.152 25.5383 18.2104 25.5849 18.2804 25.6433C18.2804 25.6433 18.2804 25.6433 18.292 25.6433C18.3037 25.6549 18.3154 25.6666 18.327 25.6666C19.202 26.4016 20.3337 26.8333 21.582 26.8333C23.4954 26.8333 25.1637 25.8066 26.0737 24.2899C26.342 23.8349 26.552 23.3333 26.6804 22.8083C26.7854 22.4116 26.832 22.0033 26.832 21.5833C26.832 20.3466 26.4004 19.2033 25.6654 18.3166ZM23.542 22.4349H22.457V23.5666C22.457 24.0449 22.0604 24.4416 21.582 24.4416C21.1037 24.4416 20.707 24.0449 20.707 23.5666V22.4349H19.622C19.1437 22.4349 18.747 22.0383 18.747 21.5599C18.747 21.0816 19.1437 20.6849 19.622 20.6849H20.707V19.6466C20.707 19.1683 21.1037 18.7716 21.582 18.7716C22.0604 18.7716 22.457 19.1683 22.457 19.6466V20.6849H23.542C24.0204 20.6849 24.417 21.0816 24.417 21.5599C24.417 22.0383 24.032 22.4349 23.542 22.4349Z" fill="white"/>
</g>
</g>
</g>
</svg>
