<svg width="28" height="28" viewBox="0 0 28 28" fill="none" xmlns="http://www.w3.org/2000/svg">
<g id="vuesax/bold/box">
<g id="vuesax/bold/box_2">
<path id="Vector" d="M23.5776 9.12326L14.5943 14.3266C14.2326 14.5366 13.7776 14.5366 13.4043 14.3266L4.42094 9.12326C3.77927 8.74993 3.61594 7.87493 4.10594 7.3266C4.44427 6.9416 4.82927 6.6266 5.23761 6.40493L11.5609 2.90493C12.9143 2.1466 15.1076 2.1466 16.4609 2.90493L22.7843 6.40493C23.1926 6.6266 23.5776 6.95327 23.9159 7.3266C24.3826 7.87493 24.2193 8.74993 23.5776 9.12326Z" fill="white"/>
<path id="Vector_2" d="M13.3349 16.4967V24.4534C13.3349 25.34 12.4366 25.9234 11.6432 25.5384C9.2399 24.36 5.19156 22.155 5.19156 22.155C3.76823 21.35 2.60156 19.32 2.60156 17.6517V11.6317C2.60156 10.71 3.5699 10.1267 4.36323 10.5817L12.7516 15.4467C13.1016 15.6684 13.3349 16.065 13.3349 16.4967Z" fill="white"/>
<path id="Vector_3" d="M14.6641 16.4967V24.4534C14.6641 25.34 15.5624 25.9234 16.3557 25.5384C18.7591 24.36 22.8074 22.155 22.8074 22.155C24.2307 21.35 25.3974 19.32 25.3974 17.6517V11.6317C25.3974 10.71 24.4291 10.1267 23.6357 10.5817L15.2474 15.4467C14.8974 15.6684 14.6641 16.065 14.6641 16.4967Z" fill="white"/>
</g>
</g>
</svg>
