<svg width="225" height="49" viewBox="0 0 225 49" fill="none" xmlns="http://www.w3.org/2000/svg">
<g id="Group">
<path id="Vector" d="M114.947 10.2694H107.176V30.2272H101.162L101.143 10.2694H93.4414V5.16113H114.943V10.2694H114.947Z" fill="#4C5BD4"/>
<path id="Vector_2" d="M122.334 10.3374H119.029L112.312 4.79541H118.511L122.334 10.3374ZM121.747 30.226H116.035V11.5972H121.747V30.226Z" fill="#4C5BD4"/>
<path id="Vector_3" d="M150.733 30.2226H145.236V19.0831C145.236 17.9387 145.076 17.1727 144.75 16.7805C144.37 16.4575 143.663 16.2913 142.627 16.2913L140.505 16.3421V30.2226H134.944V16.3467H130.382V30.2226H124.867V11.5938H143.012C145.653 11.5938 147.597 12.1383 148.853 13.2319C150.105 14.3255 150.733 16.0837 150.733 18.5155V30.2226V30.2226Z" fill="#4C5BD4"/>
<path id="Vector_4" d="M181.712 11.5938L173.574 30.2226H168.027L160.293 11.5938H166.427L170.97 23.4023L175.798 11.5938H181.712Z" fill="#4C5BD4"/>
<path id="Vector_5" d="M188.458 10.4354H182.746V5.12866H188.458V10.4354ZM188.458 30.227H182.746V11.5982H188.458V30.227Z" fill="#4C5BD4"/>
<path id="Vector_6" d="M206.987 30.2076H199.803C196.796 30.2076 194.513 29.4185 192.954 27.8403C191.382 26.2852 190.598 23.9641 190.598 20.8862C190.598 17.8637 191.382 15.5611 192.954 13.9829C194.536 12.4048 196.819 11.6157 199.803 11.6157H206.987V16.1517H200.454C198.882 16.1517 197.85 16.3456 197.346 16.7378C196.833 17.1531 196.576 17.7853 196.576 18.6344H206.983V23.2027H196.576C196.576 24.0195 196.791 24.6378 197.227 25.0485C197.662 25.4638 198.726 25.6715 200.418 25.6715H206.983V30.2076H206.987ZM206.203 10.3374H202.944L200.253 7.95174L197.511 10.3374H194.288L198.098 4.79541H202.407L206.203 10.3374ZM202.627 37.1109H197.814V31.938H202.627V37.1109Z" fill="#4C5BD4"/>
<path id="Vector_7" d="M224.382 30.2081H217.684C216.859 30.2081 216.111 30.1619 215.447 30.0743C214.791 29.9866 214.177 29.8574 213.608 29.6867C212.581 29.3267 211.637 28.7453 210.766 27.9377C210.376 27.5455 210.019 27.0748 209.698 26.5257C209.363 25.9996 209.056 25.4274 208.781 24.8137C208.556 24.2184 208.386 23.6093 208.263 22.9818C208.153 22.368 208.098 21.6897 208.098 20.9514C208.098 19.5624 208.327 18.2565 208.781 17.0382C209.239 15.8385 209.899 14.7587 210.77 13.7942C211.559 13.0651 212.508 12.5252 213.613 12.1653C214.704 11.7962 216.061 11.6116 217.688 11.6116H224.386V16.2815H219.041C217.927 16.2815 217.037 16.3507 216.368 16.4845C215.712 16.6506 215.199 16.9275 214.832 17.3059C214.076 17.9981 213.695 19.2163 213.695 20.9514C213.695 21.9158 213.86 22.7326 214.195 23.4017C214.484 24.0615 214.942 24.6107 215.566 25.0491L216.652 25.4367C216.955 25.4828 217.257 25.5151 217.569 25.5382C217.89 25.5613 218.381 25.5705 219.041 25.5705H224.386V30.2081H224.382Z" fill="#4C5BD4"/>
<path id="Vector_8" d="M20.8163 23.3429C20.8163 25.4933 20.1333 27.1776 18.7625 28.4005C17.3688 29.6095 15.4433 30.214 12.9815 30.214H0.617188V25.1887H10.8589C12.06 25.1887 12.9356 24.9857 13.4812 24.5842C14.0267 24.1689 14.3018 23.5275 14.3018 22.6508C14.3018 21.8432 14.0405 21.211 13.5179 20.7542C12.9723 20.3158 12.0875 20.0989 10.8635 20.0989L2.50599 20.1312V15.1106H10.7076C11.9454 15.1106 12.8348 14.9168 13.3803 14.5246C13.903 14.1462 14.1643 13.5186 14.1643 12.6419C14.1643 11.8112 13.903 11.1929 13.3803 10.7776C13.1144 10.5515 12.7614 10.39 12.3259 10.2885C11.8675 10.2008 11.3311 10.1546 10.7076 10.1546H0.617188V5.13403H12.4634C15.205 5.13403 17.2817 5.68778 18.6937 6.79526C20.0874 7.91659 20.7843 9.65626 20.7843 12.0189C20.7843 13.2048 20.5229 14.2569 20.0003 15.1752C19.4548 16.0935 18.7487 16.9011 17.8777 17.5932C18.8359 18.1885 19.5327 18.8992 19.9682 19.7252C20.5321 20.6942 20.8163 21.8986 20.8163 23.3429Z" fill="#4C5BD4"/>
<path id="Vector_9" d="M45.5285 22.5203C45.5285 25.1506 44.5795 27.1441 42.6862 28.5007C40.7928 29.8574 38.065 30.5311 34.4983 30.5311C30.2898 30.5311 27.1769 29.5113 25.1598 27.4717C23.1563 25.4459 22.1523 22.2665 22.1523 17.9289C22.1523 13.5497 23.2251 10.3195 25.3752 8.23838C27.4932 6.16646 30.7941 5.13281 35.2823 5.13281H44.2357L44.2174 10.1534H35.1539C32.9029 10.1534 31.2708 10.5918 30.2577 11.4639C29.7809 11.8792 29.4187 12.4053 29.1712 13.0421C28.8915 13.7158 28.754 14.4864 28.754 15.3586H36.841C39.7567 15.3586 41.9343 15.9446 43.3738 17.1121C44.8088 18.2934 45.5285 20.0931 45.5285 22.5203ZM39.0598 22.788C39.0598 21.9804 38.8535 21.3713 38.4409 20.956C38.0283 20.5776 37.4003 20.3838 36.5521 20.3838H28.7861C28.7861 22.0958 29.2628 23.3925 30.221 24.2646C31.1562 25.1598 32.6554 25.6074 34.7138 25.6074C36.2862 25.6074 37.3957 25.3767 38.0559 24.9199C38.7298 24.463 39.0598 23.7524 39.0598 22.788Z" fill="#4C5BD4"/>
<path id="Vector_10" d="M68.2522 22.6184C68.2522 25.0688 67.4866 26.9515 65.9646 28.262C64.4288 29.5633 62.2603 30.2093 59.4638 30.2093H46.3477V25.1887H58.3269C59.5051 25.1887 60.3394 24.9857 60.8162 24.5842C61.2747 24.192 61.4993 23.5367 61.4993 22.6184C61.4993 21.6771 61.2701 20.9987 60.8162 20.5881C60.3394 20.1958 59.5051 20.002 58.3269 20.002H46.3477V5.13403H67.0328L67.0144 10.1546H52.4771V15.0091H60.5778C62.9297 15.0091 64.8093 15.6644 66.2259 16.9749C66.8815 17.6578 67.3903 18.4608 67.7479 19.3791C68.0826 20.3158 68.2522 21.4002 68.2522 22.6184Z" fill="#4C5BD4"/>
<path id="Vector_11" fill-rule="evenodd" clip-rule="evenodd" d="M71.2305 38.1543L80.3856 29.8481L90.3523 32.7599C90.3523 32.7599 96.9264 35.5332 93.2542 40.1754C91.5993 41.8182 90.0314 43.3733 84.2458 41.8044C82.6045 41.2552 71.2305 38.1543 71.2305 38.1543Z" fill="#4C5BD4"/>
<path id="Vector_12" fill-rule="evenodd" clip-rule="evenodd" d="M18.204 32.279C18.3003 32.5005 18.3828 32.7266 18.4837 32.9481C18.6624 33.3403 18.8596 33.7187 19.0751 34.0925C19.616 35.0246 20.2716 35.8876 21.0234 36.6582C21.9678 37.6226 23.0635 38.4348 24.2509 39.067C25.75 39.8699 27.3821 40.3913 29.0463 40.6867C31.2422 41.0789 33.4932 41.0927 35.7121 40.8805C38.7103 40.5944 41.6673 39.9068 44.5418 39.0162C52.8167 36.4505 60.459 32.6712 66.9323 26.82C67.0286 26.7323 67.1248 26.6447 67.2257 26.557C71.7047 22.4547 77.2107 16.6958 76.5322 10.037C76.1012 5.82858 71.0262 3.47517 67.4457 2.61687C65.9191 2.25233 66.2079 -0.0364745 67.7758 0.000441626C75.0055 0.175793 82.3911 2.14619 84.8621 8.38502C84.8759 8.42194 84.8896 8.45885 84.9034 8.50039C85.5223 10.5077 85.6552 12.6811 85.4856 14.7623C85.1647 18.74 83.6427 22.5285 81.4605 25.8371C77.8158 31.3699 72.4978 35.6384 66.9277 39.0762C62.2286 41.9787 57.3783 44.2352 52.1336 45.878C48.4385 47.0362 44.6747 47.9868 40.8375 48.5313C36.5419 49.1405 32.0674 49.2743 27.8314 48.2083C23.5678 47.1378 19.7948 44.7197 17.3742 40.9774C15.898 38.6978 14.972 36.1044 14.4172 33.4511C14.2522 32.6712 14.4585 31.6145 15.137 31.1069C16.0035 30.4609 17.4017 31.0377 17.9656 31.8268C18.0619 31.9791 18.1398 32.1267 18.204 32.279Z" fill="#4C5BD4"/>
<path id="Vector_13" fill-rule="evenodd" clip-rule="evenodd" d="M20.9688 31.8397C20.9688 31.8397 33.6631 43.399 55.4577 31.0137C53.0279 33.9024 25.8925 47.1137 20.9688 31.8397Z" fill="#4C5BD4"/>
</g>
</svg>
