<svg width="24" height="25" viewBox="0 0 24 25" fill="none" xmlns="http://www.w3.org/2000/svg">
<g id="vuesax/bold/repeat">
<g id="vuesax/bold/repeat_2">
<g id="repeat">
<path id="Vector" d="M17.4201 4.90994H5.39008L7.27008 3.02994C7.56008 2.73994 7.56008 2.25994 7.27008 1.96994C6.98008 1.67994 6.50008 1.67994 6.21008 1.96994L3.05008 5.12994C2.98008 5.19994 2.93008 5.27994 2.89008 5.36994C2.85008 5.45994 2.83008 5.55994 2.83008 5.65994C2.83008 5.75994 2.85008 5.85994 2.89008 5.94994C2.93008 6.03994 2.98008 6.11994 3.05008 6.18994L6.21008 9.34994C6.36008 9.49994 6.55008 9.56994 6.74008 9.56994C6.93008 9.56994 7.12008 9.49994 7.27008 9.34994C7.56008 9.05994 7.56008 8.57994 7.27008 8.28994L5.39008 6.40994H17.4201C18.6601 6.40994 19.6701 7.41994 19.6701 8.65994V11.9799C19.6701 12.3899 20.0101 12.7299 20.4201 12.7299C20.8301 12.7299 21.1701 12.3899 21.1701 11.9799V8.65994C21.1701 6.58994 19.4901 4.90994 17.4201 4.90994Z" fill="#FF291C"/>
<path id="Vector_2" d="M21.1701 19.34C21.1701 19.24 21.1501 19.14 21.1101 19.05C21.0701 18.96 21.0201 18.88 20.9501 18.81L17.7901 15.65C17.5001 15.36 17.0201 15.36 16.7301 15.65C16.4401 15.94 16.4401 16.42 16.7301 16.71L18.6101 18.59H6.58008C5.34008 18.59 4.33008 17.58 4.33008 16.34V13.02C4.33008 12.61 3.99008 12.27 3.58008 12.27C3.17008 12.27 2.83008 12.61 2.83008 13.02V16.34C2.83008 18.41 4.51008 20.09 6.58008 20.09H18.6101L16.7301 21.97C16.4401 22.26 16.4401 22.74 16.7301 23.03C16.8801 23.18 17.0701 23.25 17.2601 23.25C17.4501 23.25 17.6401 23.18 17.7901 23.03L20.9501 19.87C21.0201 19.8 21.0701 19.72 21.1101 19.63C21.1501 19.54 21.1701 19.44 21.1701 19.34Z" fill="#FF291C"/>
</g>
</g>
</g>
</svg>
