<svg width="24" height="24" viewBox="0 0 24 24" fill="none" xmlns="http://www.w3.org/2000/svg">
<g id="shopping-cart 1">
<g id="g2007">
<g id="g2009">
<g id="Clip path group">
<mask id="mask0_4154_193484" style="mask-type:luminance" maskUnits="userSpaceOnUse" x="0" y="0" width="24" height="24">
<g id="clipPath2015">
<path id="path2013" d="M0 1.90735e-06H24V24H0V1.90735e-06Z" fill="white"/>
</g>
</mask>
<g mask="url(#mask0_4154_193484)">
<g id="g2011">
<g id="g2017">
<path id="path2019" d="M4.96875 4.96875H23.2969L20.4844 14.8125H7.78125" fill="#4C5BD4" stroke="#4C5BD4" stroke-width="1.5" stroke-miterlimit="10" stroke-linecap="round" stroke-linejoin="round"/>
</g>
<g id="g2021">
<path id="path2023" d="M12 20.4375C12 21.2141 11.3704 21.8438 10.5938 21.8438C9.81712 21.8438 9.1875 21.2141 9.1875 20.4375C9.1875 19.6609 9.81712 19.0312 10.5938 19.0312C11.3704 19.0312 12 19.6609 12 20.4375Z" stroke="#4C5BD4" stroke-width="1.5" stroke-miterlimit="10" stroke-linecap="round" stroke-linejoin="round"/>
</g>
<g id="g2025">
<path id="path2027" d="M19.0781 20.4375C19.0781 21.2141 18.4485 21.8438 17.6719 21.8438C16.8952 21.8438 16.2656 21.2141 16.2656 20.4375C16.2656 19.6609 16.8952 19.0312 17.6719 19.0312C18.4485 19.0312 19.0781 19.6609 19.0781 20.4375Z" stroke="#4C5BD4" stroke-width="1.5" stroke-miterlimit="10" stroke-linecap="round" stroke-linejoin="round"/>
</g>
<g id="g2029">
<path id="path2031" d="M20.4843 17.625H8.65025C7.60489 17.625 6.92497 16.5249 7.39245 15.5898L7.78114 14.8125" stroke="#4C5BD4" stroke-width="1.5" stroke-miterlimit="10" stroke-linecap="round" stroke-linejoin="round"/>
</g>
<g id="g2033">
<path id="path2035" d="M0.703125 2.15625H4.16536C5.36259 6.3473 7.78125 14.8125 7.78125 14.8125" stroke="#4C5BD4" stroke-width="1.5" stroke-miterlimit="10" stroke-linecap="round" stroke-linejoin="round"/>
</g>
</g>
</g>
</g>
</g>
</g>
</g>
</svg>
